<svg id="Layer_1" data-name="Layer 1" xmlns="http://www.w3.org/2000/svg" viewBox="0 0 20 25">
  <title>swipes-ui-workspaces-icon-attachment-audio</title>
  <g>
    <path d="M1403,1001a6.00656,6.00656,0,0,0,6-6v-5a6,6,0,0,0-12,0v5A6.00656,6.00656,0,0,0,1403,1001Zm-4-11a4,4,0,0,1,8,0v5a4,4,0,0,1-8,0v-5Z" transform="translate(-1393 -984)" fill="#000c2f"/>
    <path d="M1411,992v3a8,8,0,0,1-16,0v-3h-2v3a10.0129,10.0129,0,0,0,9,9.94922V1007h-5v2h12v-2h-5v-2.05078A10.0129,10.0129,0,0,0,1413,995v-3h-2Z" transform="translate(-1393 -984)" fill="#000c2f"/>
  </g>
</svg>
