<svg id="Layer_1" data-name="Layer 1" xmlns="http://www.w3.org/2000/svg" viewBox="0 0 138 138">
  <title>swipes-workspace-illustrations-emptystate-tasks</title>
  <g>
    <path d="M5738,3353a68,68,0,0,1,68,68" transform="translate(-5669 -3352)" fill="#fff" stroke="#b2ebfe" stroke-miterlimit="10" stroke-width="2"/>
    <path d="M5738,3489a68,68,0,0,1-68-68" transform="translate(-5669 -3352)" fill="#fff" stroke="#b2ebfe" stroke-miterlimit="10" stroke-width="2"/>
    <path d="M5733,3383.1614v22.90909a1.90905,1.90905,0,0,0,1.90909,1.90909h19.08563a1.90908,1.90908,0,0,1,1.68318,2.80993L5733,3453.1614v-22.90909a1.90905,1.90905,0,0,0-1.90909-1.90909h-19.08563a1.90908,1.90908,0,0,1-1.68318-2.80993Z" transform="translate(-5669 -3352)" fill="#fff" stroke="#fd9078" stroke-miterlimit="10" stroke-width="2"/>
  </g>
</svg>
