<svg id="Layer_1" data-name="Layer 1" xmlns="http://www.w3.org/2000/svg" viewBox="0 0 24 24">
  <title>swipes-ui-workspaces-icon-attachment-image</title>
  <g>
    <path d="M1686,985v24h24V985h-24Zm22,2v5.72266l-5.25684,8.76172-5.80469-4.8374-8.93848,8.939V987h20Zm-18.58594,20,7.64746-7.647,6.19531,5.1626L1708,996.61035V1007h-18.58594Z" transform="translate(-1686 -985)" fill="#000c2f"/>
    <path d="M1693,995a3,3,0,1,0-3-3A3.00328,3.00328,0,0,0,1693,995Zm0-4a1,1,0,1,1-1,1A1.0013,1.0013,0,0,1,1693,991Z" transform="translate(-1686 -985)" fill="#000c2f"/>
  </g>
</svg>
