<svg id="Layer_1" data-name="Layer 1" xmlns="http://www.w3.org/2000/svg" xmlns:xlink="http://www.w3.org/1999/xlink" viewBox="0 0 50 50">
  <defs>
    <radialGradient id="radial-gradient" cx="26218.57465" cy="14508.53921" r="13.18038" gradientTransform="translate(-10707.60548 28288.16802) rotate(-90)" gradientUnits="userSpaceOnUse">
      <stop offset="0" stop-color="#fd9932"/>
      <stop offset="0.5" stop-color="#f95d8e"/>
      <stop offset="1" stop-color="#f95457"/>
    </radialGradient>
    <radialGradient id="radial-gradient-2" cx="10875.08532" cy="25538.84842" r="13.18038" gradientTransform="translate(14686.6787 27601.91469) rotate(180)" xlink:href="#radial-gradient"/>
    <radialGradient id="radial-gradient-3" cx="5222.08943" cy="1469.61456" r="13.18038" gradientTransform="translate(-5197.6828 -1446.68084)" xlink:href="#radial-gradient"/>
  </defs>
  <title>swipes-ui-workspace-logo-asana</title>
  <g>
    <path d="M3803,2087.5a24.5,24.5,0,1,1,24.5-24.5A24.52784,24.52784,0,0,1,3803,2087.5Z" transform="translate(-3778 -2038)" fill="#fff"/>
    <path d="M3803,2039a24,24,0,1,1-24,24,24.02734,24.02734,0,0,1,24-24m0-1a25,25,0,1,0,25,25,25,25,0,0,0-25-25h0Z" transform="translate(-3778 -2038)" fill="#e8e9eb"/>
  </g>
  <g>
    <circle cx="3795" cy="2069" r="6" transform="translate(-4129.47416 1251.4663) rotate(-45)" fill="url(#radial-gradient)"/>
    <circle cx="3811" cy="2069" r="6" transform="translate(-4124.78787 1262.78001) rotate(-45)" fill="url(#radial-gradient-2)"/>
    <circle cx="25" cy="17" r="6" fill="url(#radial-gradient-3)"/>
  </g>
</svg>
