<svg id="Layer_1" data-name="Layer 1" xmlns="http://www.w3.org/2000/svg" viewBox="0 0 280 260">
  <title>swipes-ui-workspace-emptystate-task</title>
  <rect width="280" height="260" fill="#fff" opacity="0"/>
  <g>
    <path d="M4215.31061,1516.8224c15.0943-1.4825,7.1495-1.3696,8.0385-1.9835,0.5339-.5868,9.8029-1.8928,2.3054-1.8557,12.8349-2.0528,4.4266-2.235,11.6218-2.4549-3.34.2552-5.92-.2075-1.1705-0.5705,3.1907-.4638-2.5588-0.3726,4.7708-1.385,1.0802-.5349,3.4966-1.2758,10.2572-2.4284-5.1858-.2396,4.1421-1.6681,4.5255-2.4685,9.7634-1.5171,14.9885-2.7428,9.2103-3.1587,8.7444-1.5258-1.0485-1.6659,8.3085-3.2763,13.9909-1.9645,7.0871-2.3389,4.5249-3.0277,3.2027-1.0305,14.1233-2.6334,8.9643-2.9801,8.4696-1.3883-.2304-1.437-0.7502-2.0736,0.2915-1.1496-4.5303-1.8763,5.1476-3.666,1.6522-1.1764,8.7618-2.7249,7.6002-3.5831-2.4895-.7568,5.7559-2.2759,5.6734-3.0876,6.4757-1.3128,2.1858-1.7319,8.9784-2.914,3.1972-.9072-1.3997-1.1348,9.6051-2.4578-3.9715-.1784,12.2139-1.8002,7.8672-1.743-5.1611.3944,8.7981-3.3118,3.1471-4.8596-4.2428-1.1192-.6894-2.8557-3.2206-4.1398-5.1606-1.0831-20.0538-1.4349,2.0266-4.6159,8.2994-2.1279-4.5992-2.6393,1.84-4.6232,8.4845-2.1402,4.334-3.3094-3.1373-4.2106,0.3234-1.4968,14.9719-4.0741,4.7634-4.7284,2.0842-1.5938.3894-2.8756-4.1712-3.9061,7.7151-2.2444-3.8418-2.9696,2.0911-4.9696-9.4454-1.2303,16.23-5.1125,2.0764-5.9333,2.0243-2.0572,8.87-4.4653,8.3777-6.3095,3.7604-2.1692,3.8197-4.0526,1.3035-5.7505,17.5367-3.2305,3.3399-4.0473,8.9972-6.4073-1.3571-1.8239,5.8674-4.3297,2.3834-6.0576,3.1788-2.237-2.2308-3.8582,2.5117-6.3102-7.7219-1.3895-13.7835-2.9242.3902-6.0152-3.5783-1.7344-3.3039-3.773-3.2557-5.7957,4.4287-2.3575-7.2391-3.4863-4.6973-5.6939,5.5729-2.4393-4.228-3.6966-3.0613-5.7765,3.3233-2.2447-5.5298-3.5433-8.493-5.268-1.8162-1.8123,3.2954-4.1301-1.4668-5.6608-3.2655-.8533,2.8343-2.4335-1.0395-3.2618-7.3157-.5653-3.6816-1.9778-4.8673-3.0315,5.6772-2.4936-5.1562-3.7565-4.0374-5.9589-10.218-1.3361-9.4682-3.5366-4.5578-6.0766,4.9847-2.5457,4.6685-4.7077-1.3558-6.4503,6.404-2.6924-11.8538-3.5169-4.5233-6.3089-23.8923-.4059-16.1173-3.244-7.8252-6.1288-7.5439-1.6746,22.9265-6.2617,4.7758-7.1356-6.8518-1.7374-5.2037-4.1269,2.0268-6.9409-7.0255-1.7246-9.3766-3.8041-2.1325-6.6101-8.4712-1.605,2.0008-4.6508,1.9587-6.8814,1.1253-2.3198,15.5453-5.6441.993-6.7378-1.23-1.4457,1.434-3.244,2.9326-4.9629,5.3684-2.0146-12.6321-2.253-3.1769-4.5539,8.0977-2.1972-9.5183-2.3936-7.0951-4.0405,9.2983-2.1723,3.4974-3.1096.2756-4.1178-8.5193-.6033-1.164-2.2935-7.0045-2.8035-2.866-.7374-4.626-1.3876-6.8445-1.7858-4.3461-.0923,1.6018-0.9405,1.7694-1.3182,6.7928-.884,1.9883-0.8529-12.4892-0.0557-3.2413-.1697-11.4798.0915-6.0597-0.6467-7.7011.2645-4.8455-.2335-9.6419-0.107,3.2337-.4872-12.5842.5212-4.9349-0.2288-2.314.0114-7.6988,0.2924-11.7272,0.5,6.9158-.5953,7.3159-0.5751-6.9919.5981,1.738-.0531-9.223.8931-6.149,0.7068-8.0407,1.2252,2.0901,1.0509-8.6537,2.4607-3.5087.8569-6.2207,1.6418-1.8852,1.8764-6.6217,1.072-4.1965,1.4409-13.2146,2.6723,10.2344-.2399,1.0009.9958,2.5339,1.3962-0.4328,1.0682-12.6589,2.9874-10.84,3.7795-4.6597,1.6491-.4598,2.5339-6.9949,4.1909-4.4517,1.4978-8.3144,2.9024-10.3041,4.1546-14.1186,2.179-13.6356,3.233-9.4322,4.0324-3.0839,1.3562-10.9786,3.1099-7.8103,4.0868,1.5571,1.1-3.0711,2.7414-9.8997,4.6586-2.1174,1.5572,9.3259,2.1857-3.8153,4.8397,4.4725,1.5828-3.5423,4.1761-5.3388,6.3359,1.8498,0.87.7134,1.9785-4.9973,3.4454,6.8798,0.5046,2.4979,1.8785.9024,3.0464-7.1653,2.6394-6.3012,4.6927-3.3622,6.6006-5.0308,2.3667-3.9612,4.2999-5.6943,6.4774-9.0815,2.7391-6.2866,4.6007-5.6579,6.6554,1.6037,1.9801,1.8339,4.0927-4.1238,6.7031,1.7746,2.0195.7083,4.2809-4.3464,6.8695,3.2959,1.9504.2552,4.4073-2.0685,6.8291-3.3267,2.4984-1.326,4.6094-3.6257,7.0661-3.699,2.5636-3.8873,4.876-2.3163,7.0683-6.274,2.7919,4.2996,4.3107-.7076,7.0321-0.6584,2.389-4.0778,5.0008-3.3277,7.3032,8.5297,1.7079-1.8919,4.8733,2.8679,6.8851,3.0417-2.4101,5.3622-4.7716-1.0366-6.468-3.3647-1.9283-.0611-4.3675,1.6478-6.6808,3.8836-2.4795-6.2956-3.8803-.3381-6.5048,5.0975-2.5589-3.3617-4.0724,2.7025-6.681-8.6913-1.4811-6.2056-3.8016-2.5482-6.1917-2.7046-1.9039,12.1161-5.1271,7.3391-6.8273,0.529-2.1057,9.1165-4.8019,7.2675-6.6699-4.0251-1.7017.6188-4.0353,0.6233-5.9784,2.179-2.1092,7.8567-4.4499,8.8526-6.3915,9.6899-2.606,4.4457-4.0294,2.8113-5.6821-3.383-1.3491,1.0505-3.4258,3.7743-4.6554-1.6567-1.4054,2.6085-3.2787-.2676-4.6263,2.341-1.7463,4.8069-3.5223,5.4615-5.1849-0.1792-1.5988,6.9351-3.7801,6.7171-5.4309-6.2692-1.1883.5133-3.404-3.5149-4.8284-8.9168,2.0347,4.9448,2.3198-3.5558,4.3056-5.8861,1.7861-5.4265,3.079.6884,3.9323,1.8009,1.1831,8.5344,1.9817,2.6251,3.7398-5.1238,1.6981-3.4543,2.8704-6.421,4.3909-5.7834,2.1672,9.2675,2.7315-2.9565,5.3713-11.6924,3.0225,2.9161,4.0749-11.3411,7.3692-3.9209,2.5044-11.9572,5.3593-1.2723,6.8155-11.1334,3.1236-11.0411,5.4214-5.0265,7.2948a38.864,38.864,0,0,0-3.9528,7.382c-4.5336,2.732-7.0756,5.3362-6.6179,7.7315-3.5843,2.7043-2.119,5.0431.7583,7.2906,2.5342,2.2737.5654,4.9081,0.6594,7.3975-0.8027,2.558,3.8069,4.715-3.9139,7.8231-2.1409,2.6818.4372,5.0117-2.062,7.7345,1.6916,2.4026-.7985,5.1297.8982,7.5379,2.1109,2.3765-2.5263,5.2698,2.1725,7.4468-5.7818,2.9779-3.0205,5.3002-1.7602,7.7304,5.1766,2.131,3.8038,4.7557-.3601,7.5832,1.3287,2.4078,8.0834,4.3903,1.8343,7.3521,1.9944,1.1372-6.1189,2.9832,1.5461,3.5924,4.3674,0.8612,1.5898,2.2376,1.0144,3.4476,3.2488,1.3009-.4725,3.1364-3.3055,4.9061,4.3288,1.2223,2.7103,2.9013,6.3429,4.1812-1.8658,1.7001,4.1798,2.7979,3.5186,4.4106,1.7652,1.4273-.9227,3.1974-0.9698,4.7682,2.9238,1.6461,7.6522,3.0994,2.2416,5.2879,3.2509,1.5265,7.7231,2.9199,2.7584,5.0101-2.2384,1.8818-6.4128,3.8872-1.2225,5.1677-5.4521,2.0938-3.3509,3.6013,8.4583,4.3729-4.3865,2.0094,6.6219,2.8483,4.814,4.6881,3.0364,1.4695.3769,3.3958,1.6738,5.0563,1.6694-1.4473-10.7074-1.8212-2.4867-3.7692-8.9258,2.0019-6.8528,3.1632-.6579,3.9271,2.5911,1.0392,1.0232,2.3138,4.4609,3.0409-6.8409-1.4568-6.1215-2.8315-2.5597-5.0834-1.8194,1.8987,11.7611,2.6206,5.704,4.8339-1.9583,1.9002,2.7438,3.2822-.7987,5.2759,7.322,1.1634,6.0534,2.965,6.6641,4.5956,5.4831,1.2581-4.3729,3.661.737,4.8835,0.7817,1.5533,14.4197,2.0874,6.9739,4.187,14.8001,0.3995,9.6219,2.2799,3.9068,4.1464-4.6237-1.0764-8.98-2.2099-10.5061-3.5902-5.179-1.1011-2.813-2.8094.8962-4.6448-12.6565-.5847,1.7288-3.2604-9.033-4.0327,3.5983-1.8696,4.832-3.5769,1.4069-4.9404,4.4532-1.9656,1.1516-3.3507-5.1881-4.5098-1.4995-1.529-5.512-2.872-.6901-4.8902,8.6495,1.0712.9919,3.502,1.1109,5.3987-5.9515,2.3607,4.0466,3.5628,6.0025,5.3867,7.5827,1.3938-3.9932,4.259,2.7537,5.6779-0.7556,1.9923,11.2143,2.9661,6.7222,5.0989,0.8473,1.7247-1.3397,3.5823,6.4492,4.5253-3.1098,1.7758-.9698,2.9983,7.1763,3.5564,0.4579,1.1457,5.4736,1.7378,8.1032,2.2537,2.347,0.5375,14.9677.0315,11.4588,0.4465-7.0631.4758,8.0882-.7837,10.6728-1.118,4.0115-.4433,8.4966-0.9579-0.3626-0.485,6.7541-.9244,1.4547-1.057,9.9006-2.3476C4222.19831,1516.0569,4230.99481,1515.1415,4215.31061,1516.8224Zm-56.0737-208.6852" transform="translate(-4113.0598 -1264.76644)" fill="#e6f7fe" opacity="0.5"/>
    <g opacity="0.2">
      <polygon points="161.041 122.752 160.788 125.155 160.862 127.628 161.115 130.1 161.138 132.574 160.947 135.046 161.025 137.52 160.8 139.995 160.936 142.464 160.851 144.937 160.758 147.413 160.977 149.889 161.113 152.366 160.71 154.846 161.023 157.272 163.178 158.166 165.369 159.126 167.586 160.022 169.823 160.87 172.176 161.424 174.304 162.555 176.613 163.215 178.854 164.051 180.944 165.275 183.239 165.967 185.558 166.605 187.687 167.735 189.906 168.636 192.191 169.36 194.489 170.05 196.603 171.214 198.819 172.119 201.045 173.001 203.271 173.882 205.504 174.743 207.724 175.634 210.065 176.219 212.206 177.322 214.414 178.252 216.657 179.087 219.033 179.58 221.252 180.483 223.365 181.656 225.629 182.439 227.862 183.303 230.067 184.231 232.31 185.056 234.582 185.81 236.84 186.61 239.043 187.551 241.317 188.304 243.555 189.154 245.734 190.163 247.921 191.145 250.186 191.932 252.487 192.623 254.652 193.673 256.98 194.294 259.201 195.199 261.365 196.248 263.673 196.917 265.854 197.921 268.06 198.869 270.349 199.601 272.581 200.485 274.812 201.382 277.162 202.383 277.277 199.834 277.259 197.435 277.167 195.034 277.302 192.632 276.977 190.228 277.27 187.826 276.987 185.425 276.96 183.024 277.12 180.624 276.843 178.223 277.006 175.821 277.272 173.418 277.036 171.014 276.831 168.612 277.192 166.21 276.925 163.809 277.206 161.406 276.863 159.002 277.232 156.598 277.259 154.196 277.22 151.794 277.253 149.39 276.912 146.985 277.073 144.582 276.867 142.179 276.927 139.775 277.03 137.37 276.878 134.967 277.072 132.563 276.921 130.159 276.927 127.758 277.019 125.359 277.183 122.958 277.236 120.554 277.018 118.15 276.838 115.749 276.834 113.345 277.104 110.939 276.92 108.536 277.308 106.129 276.868 103.725 276.96 101.317 277.046 98.912 277.291 96.505 277.056 94.097 277.164 91.694 277.258 89.288 276.865 86.879 277.097 84.47 277.281 82.061 276.955 79.647 276.953 77.388 274.804 78.036 272.643 79.082 270.32 79.718 268.118 80.667 265.831 81.404 263.646 82.396 261.374 83.165 259.266 84.349 256.897 84.865 254.82 86.131 252.518 86.824 250.373 87.921 248.004 88.446 245.787 89.357 243.528 90.158 241.426 91.362 239.138 92.093 236.839 92.798 234.749 94.037 232.423 94.67 230.113 95.344 227.887 96.235 225.725 97.292 223.54 98.287 221.31 99.167 219.041 99.951 216.783 100.764 214.59 101.738 212.327 102.536 210.117 103.469 207.786 104.086 205.737 105.416 203.426 106.082 201.249 107.101 198.897 107.671 196.701 108.635 194.417 109.376 192.268 110.473 189.974 111.189 187.768 112.139 185.6 113.182 183.333 113.977 181.13 114.933 178.908 115.845 176.602 116.542 174.348 117.359 172.092 118.181 169.877 119.114 167.664 120.056 165.431 120.946 163.218 121.892 161.041 122.752" fill="#9bdffd"/>
      <polygon points="161.041 122.752 160.788 125.155 160.862 127.628 161.115 130.1 161.138 132.574 160.947 135.046 161.025 137.52 160.8 139.995 160.936 142.464 160.851 144.937 160.758 147.413 160.977 149.889 161.113 152.366 160.71 154.846 161.023 157.272 163.178 158.166 165.369 159.126 167.586 160.022 169.823 160.87 172.176 161.424 174.304 162.555 176.613 163.215 178.854 164.051 180.944 165.275 183.239 165.967 185.558 166.605 187.687 167.735 189.906 168.636 192.191 169.36 194.489 170.05 196.603 171.214 198.819 172.119 201.045 173.001 203.271 173.882 205.504 174.743 207.724 175.634 210.065 176.219 212.206 177.322 214.414 178.252 216.657 179.087 219.033 179.58 221.252 180.483 223.365 181.656 225.629 182.439 227.862 183.303 230.067 184.231 232.31 185.056 234.582 185.81 236.84 186.61 239.043 187.551 241.317 188.304 243.555 189.154 245.734 190.163 247.921 191.145 250.186 191.932 252.487 192.623 254.652 193.673 256.98 194.294 259.201 195.199 261.365 196.248 263.673 196.917 265.854 197.921 268.06 198.869 270.349 199.601 272.581 200.485 274.812 201.382 277.162 202.383 277.277 199.834 277.259 197.435 277.167 195.034 277.302 192.632 276.977 190.228 277.27 187.826 276.987 185.425 276.96 183.024 277.12 180.624 276.843 178.223 277.006 175.821 277.272 173.418 277.036 171.014 276.831 168.612 277.192 166.21 276.925 163.809 277.206 161.406 276.863 159.002 277.232 156.598 277.259 154.196 277.22 151.794 277.253 149.39 276.912 146.985 277.073 144.582 276.867 142.179 276.927 139.775 277.03 137.37 276.878 134.967 277.072 132.563 276.921 130.159 276.927 127.758 277.019 125.359 277.183 122.958 277.236 120.554 277.018 118.15 276.838 115.749 276.834 113.345 277.104 110.939 276.92 108.536 277.308 106.129 276.868 103.725 276.96 101.317 277.046 98.912 277.291 96.505 277.056 94.097 277.164 91.694 277.258 89.288 276.865 86.879 277.097 84.47 277.281 82.061 276.955 79.647 276.953 77.388 274.804 78.036 272.643 79.082 270.32 79.718 268.118 80.667 265.831 81.404 263.646 82.396 261.374 83.165 259.266 84.349 256.897 84.865 254.82 86.131 252.518 86.824 250.373 87.921 248.004 88.446 245.787 89.357 243.528 90.158 241.426 91.362 239.138 92.093 236.839 92.798 234.749 94.037 232.423 94.67 230.113 95.344 227.887 96.235 225.725 97.292 223.54 98.287 221.31 99.167 219.041 99.951 216.783 100.764 214.59 101.738 212.327 102.536 210.117 103.469 207.786 104.086 205.737 105.416 203.426 106.082 201.249 107.101 198.897 107.671 196.701 108.635 194.417 109.376 192.268 110.473 189.974 111.189 187.768 112.139 185.6 113.182 183.333 113.977 181.13 114.933 178.908 115.845 176.602 116.542 174.348 117.359 172.092 118.181 169.877 119.114 167.664 120.056 165.431 120.946 163.218 121.892 161.041 122.752" fill="none" stroke="#178dca" stroke-miterlimit="10"/>
    </g>
    <g opacity="0.6">
      <g>
        <g>
          <polygon points="68.033 115.476 67.08 115.617 67.019 114.984 67.229 112.748 67.331 110.295 67.456 107.758 67.018 105.358 67.054 103.191 67.295 100.766 67.18 98.404 67.476 95.939 67.089 93.577 67.392 91.328 67.408 88.853 67.324 86.354 67.057 83.976 66.989 81.756 67.065 81.043 68.059 81.183 70.494 80.842 72.629 80.996 75.017 81.376 77.486 81.421 79.73 81.48 82.027 81.876 84.61 82.113 86.909 81.792 89.178 82.252 91.589 82.139 93.789 82.474 96.344 82.713 98.739 82.566 101.005 82.715 105.794 82.844 108.068 82.927 110.347 83.237 112.752 83.484 115.244 83.716 117.572 83.559 119.841 83.928 122.3 84.014 124.714 84.111 126.983 84.036 129.263 84.459 131.79 84.608 132.754 84.583 132.73 87.72 132.503 90.078 132.543 92.501 132.567 94.833 132.444 97.275 132.937 99.636 132.901 101.712 132.549 104.134 132.776 106.652 132.854 108.914 132.901 111.173 132.844 112.066 131.761 112.033 129.382 112.302 127.038 112.315 124.623 112.516 122.314 112.78 119.936 112.767 117.626 113.061 115.267 112.921 112.793 113.19 110.54 113.362 108.073 113.377 105.843 113.849 103.447 113.513 100.974 114.077 98.805 114.168 96.378 114.082 94.053 114.356 91.604 114.171 89.244 114.676 86.95 114.555 84.478 114.81 82.266 115.072 79.867 114.817 77.33 115.183 75.074 115.479 72.784 115.535 70.473 115.723 68.033 115.476" fill="#9bdffd"/>
          <path d="M4183.60451,1347.1157l1.9126,0.1387,2.2209,0.353,0.2066,0.0327,0.2092,0.0039,2.3408,0.043,2.147,0.0562,2.1311,0.3676,0.1177,0.0201,0.1186,0.0107,2.3521,0.2153,0.345,0.0318,0.3432-.0479,1.8731-.2617,1.8344,0.3721,0.3648,0.0742,0.3716-.0176,2.0771-.0967,2.0532,0.312,0.0867,0.0132,0.0872,0.0083,2.353,0.2183,0.23,0.021,0.2304-.0137,2.1853-.1343,2.1709,0.1426,0.0569,0.0034,0.0569,0.002,2.3679,0.0649,2.3355,0.0606,2.2146,0.0801,2.2053,0.3002,0.0493,0.0069,0.0493,0.0049,2.3843,0.2446,2.3582,0.2192,0.2392,0.022,0.2398-.0161,2.0373-.1372,2.0061,0.3257,0.1863,0.0302,0.1887,0.0064,2.3487,0.0825,2.3667,0.0957,0.1103,0.0044,0.1101-.0034,2.051-.0679,2.0286,0.376,0.1836,0.0342,0.1868,0.0107,1.9714,0.1162-0.01,1.5655-0.2122,2.2075-0.0161.167,0.003,0.1684,0.0378,2.3218,0.0237,2.2505-0.1114,2.2505-0.019.3843,0.0789,0.3774,0.4192,2.0068-0.0311,1.8125-0.3132,2.1524-0.0508.3496,0.0318,0.352,0.2038,2.2618,0.0794,2.2172,0.0342,1.6421-2.0945.2368-2.2066.0127-0.1157.0005-0.1152.0098-2.3572.1958-0.0464.0039-0.0464.0054-2.1741.2485-2.1894-.0112-0.1975-.001-0.1961.0249-2.0742.2637-2.093-.124-0.2515-.0152-0.2502.0274-2.301.25-2.2007.1684-2.2615.0137-0.3052.0019-0.2983.063-1.8237.3863-1.8614-.2608-0.5463-.0766-0.5381.1225-2.0691.4727-1.9741.082-2.2562-.0791-0.229-.0083-0.2275.0269-2.0664.2436-2.0889-.1582-0.4306-.0322-0.4222.0903-1.955.4175-1.98-.104-0.2327-.0122-0.2317.0239-2.4018.2481-2.022.2392-2.0456-.2168-0.3729-.0395-0.371.0537-2.313.3335-2.1966.2885-2.2099.0538-0.0869.0019-0.0867.0073-2.0877.1719-1.8706-.1894,0.1067-1.1387,0.0076-.0791,0.0032-.0796,0.0952-2.3477,0.1174-2.3769,0.0171-.3462-0.0623-.3408-0.3806-2.0835,0.0323-1.9571,0.2243-2.2524,0.022-.2212-0.011-.2222-0.1035-2.125,0.2554-2.1269,0.0507-.4229-0.0688-.4199-0.3162-1.9311,0.2603-1.9336,0.0256-.1895,0.0012-.1909,0.0159-2.3789,0.0003-.0615-0.002-.0616-0.0818-2.3798-0.0041-.1158-0.0127-.1147-0.253-2.2603-0.0383-1.2358,2.0281-.2842m-0.1008-3.0151-2.3848.334-2.322-.3267-0.251,2.3574,0.074,2.3843,0.2663,2.3799,0.0818,2.3799-0.0159,2.3789-0.32,2.3769,0.3887,2.3731-0.2857,2.3784,0.116,2.3774-0.2366,2.3765-0.0391,2.3774,0.4339,2.3755-0.1175,2.377-0.0964,2.374-0.2229,2.3765,0.2239,2.3481,2.3315-.3457,2.3902,0.2422,2.3623-.1948,2.3691-.0576,2.3547-.3091,2.3506-.3389,2.3802,0.252,2.3559-.2788,2.3567-.2427,2.376,0.1245,2.3428-.5005,2.3781,0.1797,2.3543-.2773,2.3713,0.0834,2.364-.0986,2.3372-.5337,2.3838,0.3345,2.3396-.4956,2.3669-.0142,2.3538-.1801,2.3486-.2554,2.3718,0.1406,2.3511-.2988,2.3682,0.0122,2.3518-.2691,2.3572-.1958,2.3667-.0136,2.3515-.2657,2.4265,0.0743,0.1531-2.4053-0.0491-2.3442-0.0835-2.3428-0.2111-2.3428,0.3408-2.3418,0.04-2.3398-0.488-2.336,0.1157-2.3403-0.0246-2.3403-0.0381-2.3389,0.2248-2.3408,0.0152-2.3379,0.0273-2.4175-2.4575.0654-2.3689-.1396-2.3489-.4356-2.3767.0787-2.3667-.0958-2.3647-.083-2.345-.3803-2.3801.1601-2.3582-.2192-2.3557-.2417-2.3528-.3203-2.3635-.0855-2.366-.0615-2.3633-.0649-2.3608-.1548-2.375.1455-2.353-.2183-2.3472-.3569-2.374.1108-2.3374-.4741-2.3814.3325-2.352-.2153-2.3452-.4043-2.3641-.062-2.3642-.0435-2.3474-.373-2.3579-.1709h0Z" transform="translate(-4113.0598 -1264.76644)" fill="#178dca"/>
        </g>
        <g>
          <g>
            <polygon points="85.582 98.337 85.481 100.84 84.847 103.262 84.064 105.625 82.859 107.799 81.452 109.832 79.76 111.626 78.062 113.442 76.037 114.904 73.817 116.068 71.369 116.607 68.974 117.332 66.473 117.155 63.989 117.19 61.486 116.943 59.188 115.922 56.919 114.883 54.983 113.309 53.032 111.776 51.486 109.835 50.055 107.814 48.829 105.645 48.166 103.243 47.518 100.833 47.629 98.337 47.664 95.859 48.098 93.412 49.006 91.101 49.786 88.701 51.557 86.891 52.895 84.757 54.802 83.126 56.994 81.917 59.161 80.684 61.608 80.182 63.971 79.338 66.473 79.432 68.957 79.481 71.435 79.822 73.663 80.982 75.969 81.89 78.142 83.131 79.974 84.837 81.671 86.676 82.741 88.945 84.018 91.07 85.043 93.36 85.311 95.856 85.582 98.337" fill="#9bdffd"/>
            <polygon points="85.582 98.337 85.481 100.84 84.847 103.262 84.064 105.625 82.859 107.799 81.452 109.832 79.76 111.626 78.062 113.442 76.037 114.904 73.817 116.068 71.369 116.607 68.974 117.332 66.473 117.155 63.989 117.19 61.486 116.943 59.188 115.922 56.919 114.883 54.983 113.309 53.032 111.776 51.486 109.835 50.055 107.814 48.829 105.645 48.166 103.243 47.518 100.833 47.629 98.337 47.664 95.859 48.098 93.412 49.006 91.101 49.786 88.701 51.557 86.891 52.895 84.757 54.802 83.126 56.994 81.917 59.161 80.684 61.608 80.182 63.971 79.338 66.473 79.432 68.957 79.481 71.435 79.822 73.663 80.982 75.969 81.89 78.142 83.131 79.974 84.837 81.671 86.676 82.741 88.945 84.018 91.07 85.043 93.36 85.311 95.856 85.582 98.337" fill="none" stroke="#178dca" stroke-miterlimit="10"/>
          </g>
          <g>
            <path d="M4179.53261,1334.8045l-2.3662-.2509-2.3247.4447-2.3706.2242-2.2479.7664-2.2438.7781-1.9326,1.4179-2.0747,1.1025-1.9917,1.2663-1.6839,1.6551-1.7012,1.622-1.5348,1.7834-1.4804,1.8415-1.1029,2.0893-0.9289,2.1611-1.1655,2.0766-0.3443,2.3575-0.5471,2.2827-0.148,2.3436-0.3614,2.3368-0.1298,2.3768,0.5999,2.3101,0.2758,2.3554,0.5973,2.299,1.1517,2.0886,1.0881,2.0826,1.0753,2.098,1.3871,1.9071,1.438,1.8776,1.648,1.7014,1.7534,1.6022,2.0679,1.1779,2.0663,1.1296,2.134,0.979,2.0944,1.1139,2.3298,0.4361,2.2422,0.8131,2.3736,0.0958,2.3576-.1481,2.3563,0.1331,2.3285-.3616,2.3592-.2564,2.2289-.8034,2.2455-.7509,2.0973-1.099,1.954-1.3281,2.0019-1.2554,1.6898-1.6525,1.8622-1.4779,1.4358-1.8869,1.3333-1.9488,1.3119-1.9692,0.7076-2.2736,1.2913-2.0265,0.2864-2.3771,0.5105-2.2883,0.502-2.3113-0.0502-2.3623,0.2146-2.3758-0.6563-2.2995-0.2313-2.3607-0.7803-2.2338-0.9936-2.1381-0.6948-2.2906-1.3935-1.9283-1.5141-1.8111-1.4631-1.84-1.7068-1.6166-1.5605-1.813-2.0463-1.2125-2.1393-1.0038-2.0135-1.234-2.1673-.9499-2.2415-.7886-2.3987-.0578-2.3217-.3258Zm-18.841,28.4231-1.7978-1.3955-1.4897-1.644-0.3462-2.1798,0.1635-2.1544,1.1321-1.8408,1.4904-1.702,2.2286-.5105,2.2053,0.3897,2.0423,0.947,1.3594,1.8155,0.5963,2.1726-0.3923,2.1928-0.9782,1.999-1.7121,1.4931-2.231.2938Zm13.137,17.8329-1.8827,1.2786-2.0238.9088-2.1801-.3443-1.9984-.8213-1.4009-1.6455-1.1582-1.9434,0.2031-2.2773,1.0521-1.977,1.5319-1.6497,2.1467-.7318,2.2505,0.1042,1.9642,1.0509,1.599,1.548,0.8909,2.0896-0.4101,2.2126Zm5.704-29.8973-2.141-.7716-1.9248-1.1031-1.0029-1.9662-0.5102-2.0995,0.5078-2.1005,0.8915-2.0793,1.9618-1.1742,2.2178-.3109,2.235,0.2696,1.8539,1.3066,1.2384,1.882,0.3045,2.2067-0.3126,2.2035-1.1669,1.949-2.031.9688Zm14.0015,31.2116-2.1857.6341-2.2055.2389-1.9671-1.0011-1.6468-1.3987-0.8238-1.9978-0.501-2.2061,0.897-2.1031,1.6115-1.5551,1.9666-1.0957,2.2678-.0326,2.1082,0.7946,1.5434,1.6063,1.0423,1.9664,0.2015,2.2627-1.0737,1.9776Zm4.8395-19.1472-2.2747-.0723-2.1714-.4544-1.5615-1.56-1.134-1.8391-0.1661-2.1546,0.2053-2.253,1.503-1.723,2.0132-.9809,2.2089-.4343,2.1669,0.6698,1.7594,1.4071,0.9715,2.0046,0.3836,2.1922-0.5075,2.2143-1.6322,1.549Z" transform="translate(-4113.0598 -1264.76644)" fill="#9bdffd"/>
            <path d="M4179.53261,1334.8045l-2.3662-.2509-2.3247.4447-2.3706.2242-2.2479.7664-2.2438.7781-1.9326,1.4179-2.0747,1.1025-1.9917,1.2663-1.6839,1.6551-1.7012,1.622-1.5348,1.7834-1.4804,1.8415-1.1029,2.0893-0.9289,2.1611-1.1655,2.0766-0.3443,2.3575-0.5471,2.2827-0.148,2.3436-0.3614,2.3368-0.1298,2.3768,0.5999,2.3101,0.2758,2.3554,0.5973,2.299,1.1517,2.0886,1.0881,2.0826,1.0753,2.098,1.3871,1.9071,1.438,1.8776,1.648,1.7014,1.7534,1.6022,2.0679,1.1779,2.0663,1.1296,2.134,0.979,2.0944,1.1139,2.3298,0.4361,2.2422,0.8131,2.3736,0.0958,2.3576-.1481,2.3563,0.1331,2.3285-.3616,2.3592-.2564,2.2289-.8034,2.2455-.7509,2.0973-1.099,1.954-1.3281,2.0019-1.2554,1.6898-1.6525,1.8622-1.4779,1.4358-1.8869,1.3333-1.9488,1.3119-1.9692,0.7076-2.2736,1.2913-2.0265,0.2864-2.3771,0.5105-2.2883,0.502-2.3113-0.0502-2.3623,0.2146-2.3758-0.6563-2.2995-0.2313-2.3607-0.7803-2.2338-0.9936-2.1381-0.6948-2.2906-1.3935-1.9283-1.5141-1.8111-1.4631-1.84-1.7068-1.6166-1.5605-1.813-2.0463-1.2125-2.1393-1.0038-2.0135-1.234-2.1673-.9499-2.2415-.7886-2.3987-.0578-2.3217-.3258Zm-18.841,28.4231-1.7978-1.3955-1.4897-1.644-0.3462-2.1798,0.1635-2.1544,1.1321-1.8408,1.4904-1.702,2.2286-.5105,2.2053,0.3897,2.0423,0.947,1.3594,1.8155,0.5963,2.1726-0.3923,2.1928-0.9782,1.999-1.7121,1.4931-2.231.2938Zm13.137,17.8329-1.8827,1.2786-2.0238.9088-2.1801-.3443-1.9984-.8213-1.4009-1.6455-1.1582-1.9434,0.2031-2.2773,1.0521-1.977,1.5319-1.6497,2.1467-.7318,2.2505,0.1042,1.9642,1.0509,1.599,1.548,0.8909,2.0896-0.4101,2.2126Zm5.704-29.8973-2.141-.7716-1.9248-1.1031-1.0029-1.9662-0.5102-2.0995,0.5078-2.1005,0.8915-2.0793,1.9618-1.1742,2.2178-.3109,2.235,0.2696,1.8539,1.3066,1.2384,1.882,0.3045,2.2067-0.3126,2.2035-1.1669,1.949-2.031.9688Zm14.0015,31.2116-2.1857.6341-2.2055.2389-1.9671-1.0011-1.6468-1.3987-0.8238-1.9978-0.501-2.2061,0.897-2.1031,1.6115-1.5551,1.9666-1.0957,2.2678-.0326,2.1082,0.7946,1.5434,1.6063,1.0423,1.9664,0.2015,2.2627-1.0737,1.9776Zm4.8395-19.1472-2.2747-.0723-2.1714-.4544-1.5615-1.56-1.134-1.8391-0.1661-2.1546,0.2053-2.253,1.503-1.723,2.0132-.9809,2.2089-.4343,2.1669,0.6698,1.7594,1.4071,0.9715,2.0046,0.3836,2.1922-0.5075,2.2143-1.6322,1.549Z" transform="translate(-4113.0598 -1264.76644)" fill="none" stroke="#178dca" stroke-miterlimit="10"/>
          </g>
          <g>
            <polygon points="68.544 98.337 66.473 100.102 64.454 98.337 66.473 96.684 68.544 98.337" fill="#9bdffd"/>
            <polygon points="68.544 98.337 66.473 100.102 64.454 98.337 66.473 96.684 68.544 98.337" fill="none" stroke="#178dca" stroke-miterlimit="10"/>
          </g>
          <g opacity="0.1">
            <polygon points="64.255 124.646 62.078 124.538 60.078 124.006 57.801 123.203 55.604 122.77 53.778 121.787 51.908 120.768 50.241 119.27 48.501 117.982 47.099 116.096 45.344 114.719 44.387 112.821 43.045 111.039 42.386 109.092 41.527 106.742 40.558 104.794 40.291 102.845 40.156 100.505 39.876 98.198 39.84 96.221 40.443 94.074 40.759 91.795 41.459 89.747 42.116 87.541 42.983 85.674 44.265 83.798 45.407 81.856 46.765 80.318 48.454 78.846 50.189 77.352 51.974 75.991 53.775 74.783 55.593 73.915 57.776 73.405 59.957 72.724 62.215 72.347 64.455 71.788 66.396 71.588 68.591 71.985 70.864 72.103 72.935 72.668 75.193 73.199 77.163 73.907 79.094 74.975 81.024 75.984 82.631 77.388 84.381 78.782 85.821 80.534 87.537 82.178 88.806 83.674 89.67 85.741 90.853 87.629 91.39 89.685 92.113 91.907 92.664 94.124 93.139 96.191 93.146 98.284 93.022 100.473 92.636 102.689 92.213 104.798 91.45 106.863 90.648 109.087 89.954 111.152 88.877 112.822 87.33 114.621 86.132 116.482 84.614 117.736 82.658 119.047 80.897 120.473 78.918 121.577 77.182 122.763 75.122 123.252 72.88 124.041 70.858 124.575 68.692 124.72 66.505 124.792 64.255 124.646" fill="#9bdffd"/>
            <path d="M4179.37891,1338.373l1.7913,0.3238,0.2502,0.0454,0.2542,0.0132,1.9299,0.1001,1.8633,0.5088,0.0703,0.0195,0.0708,0.0166,2.0764,0.4863,1.7097,0.6148,1.791,0.9902,0.0418,0.0229,0.042,0.022,1.6775,0.8765,1.4275,1.2475,0.07,0.0616,0.073,0.0581,1.513,1.2031,1.2304,1.4956,0.1507,0.1831,0.1711,0.1641,1.5557,1.4907,1.0017,1.1811,0.6814,1.6294,0.1264,0.3023,0.1739,0.2778,0.9331,1.4898,0.4453,1.7031,0.0295,0.1133,0.0364,0.1113,0.6821,2.0991,0.5259,2.1143,0.4248,1.8496,0.0064,1.8086-0.1143,2.0137-0.3577,2.0527-0.3916,1.956-0.7185,1.9458-0.7973,2.21-0.0152.0425-0.0144.0425-0.5988,1.7851-0.8675,1.3438-1.3669,1.5908-0.1802.2095-0.1497.2324-0.9545,1.4829-1.2015.9922-1.7983,1.2051-0.1497.1005-0.1403.1138-1.5569,1.2603-1.7493.976-0.1582.0879-0.1499.1026-1.356.9262-1.5964.3794-0.2051.0489-0.1989.0698-2.0677.728-1.7575.4644-1.9078.1269-2.0903.0694-2.1514-.1387-0.03-.002-0.0298-.0014-1.9355-.0957-1.7195-.458-2.0679-.7286-0.2719-.0961-0.2832-.0557-1.7598-.3472-1.543-.8305-1.6733-.9117-1.4214-1.2773-0.1416-.1274-0.1531-.1133-1.4253-1.0547-1.0649-1.4331-0.3194-.4292-0.4209-.3306-1.1943-.938-0.6767-1.3408-0.1609-.3184-0.2144-.2851-1.0408-1.3823-0.5564-1.6426-0.0153-.0459-0.0166-.0449-0.805-2.2007-0.0761-.208-0.0987-.1988-0.7734-1.5556-0.2124-1.5459-0.1267-2.1983-0.0073-.1259-0.0152-.125-0.2598-2.1426-0.0283-1.5801,0.4864-1.7334,0.0737-.2622,0.0373-.27,0.2705-1.9531,0.6385-1.8658,0.0266-.0776,0.0234-.0791,0.5901-1.9883,0.7356-1.5835,1.1509-1.6841,0.0764-.1118,0.0689-.1172,1.0104-1.7177,1.1438-1.2959,1.574-1.3711,1.697-1.4624,1.689-1.2871,1.6309-1.0938,1.4902-.7119,1.9006-.4439,0.1431-.0332,0.1401-.0439,1.9795-.6182,2.045-.3418,0.1555-.0258,0.1528-.0381,2.0256-.5054,1.5181-.1563m0.1538-4.0371-2.3642.2437-2.3011.5737-2.3161.3872-2.2415.7002-2.3232.5425-2.1446,1.0239-1.9729,1.3233-1.8808,1.4336-1.7879,1.5405-1.788,1.5576-1.5718,1.7808-1.2051,2.0488-1.3372,1.9565-0.998,2.149-0.6736,2.269-0.7629,2.23-0.3235,2.335-0.6453,2.2988,0.0427,2.373,0.2845,2.3467,0.136,2.356,0.323,2.3515,1.0651,2.1426,0.805,2.2007,0.7627,2.2515,1.4272,1.8959,1.0776,2.1353,1.8943,1.4873,1.419,1.9092,1.9023,1.4077,1.7703,1.5913,2.0852,1.1358,2.0908,1.1254,2.3511,0.4639,2.2158,0.7808,2.2803,0.6074,2.3584,0.1167,2.3464,0.1514,2.3521-.0782,2.3581-.1572,2.2849-.6035,2.219-.7813,2.3172-.5503,1.9675-1.3442,2.0503-1.1435,1.8247-1.4776,1.9639-1.3164,1.8352-1.5151,1.2915-2.0064,1.5454-1.7983,1.2878-1.9951,0.7586-2.2608,0.7973-2.2099,0.8164-2.2115,0.4632-2.312,0.406-2.3301,0.1343-2.3657-0.0083-2.3755-0.533-2.3198-0.5686-2.2861-0.7258-2.2329-0.6001-2.2954-1.2581-2.0088-0.9204-2.2012-1.5364-1.8115-1.7051-1.6338-1.499-1.8223-1.8437-1.4663-1.7862-1.5615-2.0998-1.0967-2.0718-1.1455-2.228-.8008-2.3001-.539-2.279-.6226-2.3609-.1226-2.3491-.4248h0Z" transform="translate(-4113.0598 -1264.76644)" fill="#178dca"/>
          </g>
        </g>
        <g>
          <g>
            <polygon points="147.729 98.337 147.826 100.738 147.373 103.115 146.336 105.301 145.027 107.316 143.449 109.119 141.548 110.56 139.669 112.077 137.334 112.693 135.051 113.373 132.669 113.32 130.265 113.512 128.037 112.59 125.798 111.821 123.605 110.811 121.833 109.172 120.244 107.363 119.286 105.155 118.406 102.971 117.736 100.703 117.48 98.337 117.646 95.957 118.357 93.686 119.303 91.527 120.364 89.396 122.017 87.685 123.786 86.109 125.717 84.692 127.965 83.863 130.263 83.149 132.669 83.321 135.04 83.366 137.412 83.74 139.566 84.799 141.501 86.18 143.584 87.422 145.117 89.293 146.108 91.49 147.256 93.597 147.454 95.994 147.729 98.337" fill="#9bdffd"/>
            <polygon points="147.729 98.337 147.826 100.738 147.373 103.115 146.336 105.301 145.027 107.316 143.449 109.119 141.548 110.56 139.669 112.077 137.334 112.693 135.051 113.373 132.669 113.32 130.265 113.512 128.037 112.59 125.798 111.821 123.605 110.811 121.833 109.172 120.244 107.363 119.286 105.155 118.406 102.971 117.736 100.703 117.48 98.337 117.646 95.957 118.357 93.686 119.303 91.527 120.364 89.396 122.017 87.685 123.786 86.109 125.717 84.692 127.965 83.863 130.263 83.149 132.669 83.321 135.04 83.366 137.412 83.74 139.566 84.799 141.501 86.18 143.584 87.422 145.117 89.293 146.108 91.49 147.256 93.597 147.454 95.994 147.729 98.337" fill="none" stroke="#178dca" stroke-miterlimit="10"/>
          </g>
          <g>
            <path d="M4245.72831,1334.4456l-2.3588.1983-2.2998.5498-2.2988.4415-2.3657.3141-2.1476,1.0055-2.1009,1.072-1.9842,1.268-1.9228,1.3533-1.9786,1.3207-1.6526,1.7032-1.4465,1.8766-1.151,2.0677-1.4581,1.8691-0.9962,2.1428-0.8461,2.2033-0.4637,2.3145-0.687,2.2575-0.1329,2.3547-0.0031,2.3451-0.3555,2.3743,0.391,2.3421,0.7919,2.2407,0.5692,2.2779,0.6188,2.293,1.2923,1.9948,1.2987,1.954,1.2647,1.977,1.4739,1.8329,1.6456,1.6845,1.7112,1.6337,2.0955,1.1178,1.855,1.4872,2.1798,0.9224,2.1191,1.0831,2.3721,0.3105,2.2347,0.8535,2.3723,0.1443,2.3641-.1917,2.3482-.0014,2.3271-.32,2.3813-.1494,2.2844-.6547,2.1645-.9789,2.0915-1.1042,2.0167-1.2263,2.0192-1.244,1.842-1.4993,1.5245-1.8241,1.64-1.7103,1.3383-1.9554,1.0394-2.1265,1.1218-2.0724,0.7061-2.2492,1.0165-2.1601,0.3475-2.3477,0.1014-2.3615,0.2492-2.3466,0.0678-2.3726-0.6962-2.2896-0.4289-2.3039-0.3789-2.3465-1.0944-2.1057-0.7114-2.2841-1.6245-1.7778-1.087-2.1161-1.6465-1.6999-1.4856-1.86-1.8707-1.4625-1.8768-1.4546-2.2422-.8459-2.0555-1.1372-2.1482-.977-2.3065-.5048-2.2885-.5347-2.3334-.3057Zm-18.7301,28.4407-1.9676-.9854-1.6073-1.6229-0.5941-2.2361,0.6277-2.1751,0.9364-1.987,1.7279-1.4084,2.1463-.6796,2.243,0.2846,1.7933,1.3089,1.3624,1.674,0.6989,2.0745-0.0072,2.275-1.352,1.8271-1.7049,1.4019-2.1313.6161Zm12.7357,17.9633-1.5451,1.5668-2.04,1.0271-2.3103-.126-1.8746-1.2691-1.6005-1.5045-0.8056-2.0786,0.0169-2.2513,0.9638-2.0453,1.7991-1.3011,2.013-.7784,2.189-.0236,2.1614,0.7099,1.3199,1.8505,0.8064,2.0546-0.0727,2.2173Zm5.9944-30.0453-2.1758-.329-2.0301-1.0468-1.256-1.9431-0.0752-2.2626,0.2765-2.1791,1.2081-1.8735,1.8313-1.3096,2.2212-.4224,2.11,0.6907,1.813,1.1711,1.3057,1.757,0.6962,2.1658-0.7213,2.1556-1.1882,1.86-1.8366,1.2445Zm13.7905,31.2801-1.9536,1.0126-2.2577.3464-2.1582-.8337-1.3907-1.7863-1.0572-1.9254-0.1238-2.2258,0.7117-2.1358,1.5487-1.6474,2.113-.6815,2.1551-.1183,2.0891,0.654,1.8363,1.343,0.6835,2.1679,0.132,2.2032-0.7544,2.0864Zm4.9396-19.1981-2.171.3593-2.2542-.3682-1.795-1.4599-0.7707-2.1286-0.4104-2.1579,0.57-2.1551,1.337-1.8114,1.982-1.0881,2.2201,0.0049,2.0862,0.5535,1.7847,1.2674,1.3315,1.8447-0.0199,2.273-0.5553,2.1362-1.3621,1.7512Z" transform="translate(-4113.0598 -1264.76644)" fill="#9bdffd"/>
            <path d="M4245.72831,1334.4456l-2.3588.1983-2.2998.5498-2.2988.4415-2.3657.3141-2.1476,1.0055-2.1009,1.072-1.9842,1.268-1.9228,1.3533-1.9786,1.3207-1.6526,1.7032-1.4465,1.8766-1.151,2.0677-1.4581,1.8691-0.9962,2.1428-0.8461,2.2033-0.4637,2.3145-0.687,2.2575-0.1329,2.3547-0.0031,2.3451-0.3555,2.3743,0.391,2.3421,0.7919,2.2407,0.5692,2.2779,0.6188,2.293,1.2923,1.9948,1.2987,1.954,1.2647,1.977,1.4739,1.8329,1.6456,1.6845,1.7112,1.6337,2.0955,1.1178,1.855,1.4872,2.1798,0.9224,2.1191,1.0831,2.3721,0.3105,2.2347,0.8535,2.3723,0.1443,2.3641-.1917,2.3482-.0014,2.3271-.32,2.3813-.1494,2.2844-.6547,2.1645-.9789,2.0915-1.1042,2.0167-1.2263,2.0192-1.244,1.842-1.4993,1.5245-1.8241,1.64-1.7103,1.3383-1.9554,1.0394-2.1265,1.1218-2.0724,0.7061-2.2492,1.0165-2.1601,0.3475-2.3477,0.1014-2.3615,0.2492-2.3466,0.0678-2.3726-0.6962-2.2896-0.4289-2.3039-0.3789-2.3465-1.0944-2.1057-0.7114-2.2841-1.6245-1.7778-1.087-2.1161-1.6465-1.6999-1.4856-1.86-1.8707-1.4625-1.8768-1.4546-2.2422-.8459-2.0555-1.1372-2.1482-.977-2.3065-.5048-2.2885-.5347-2.3334-.3057Zm-18.7301,28.4407-1.9676-.9854-1.6073-1.6229-0.5941-2.2361,0.6277-2.1751,0.9364-1.987,1.7279-1.4084,2.1463-.6796,2.243,0.2846,1.7933,1.3089,1.3624,1.674,0.6989,2.0745-0.0072,2.275-1.352,1.8271-1.7049,1.4019-2.1313.6161Zm12.7357,17.9633-1.5451,1.5668-2.04,1.0271-2.3103-.126-1.8746-1.2691-1.6005-1.5045-0.8056-2.0786,0.0169-2.2513,0.9638-2.0453,1.7991-1.3011,2.013-.7784,2.189-.0236,2.1614,0.7099,1.3199,1.8505,0.8064,2.0546-0.0727,2.2173Zm5.9944-30.0453-2.1758-.329-2.0301-1.0468-1.256-1.9431-0.0752-2.2626,0.2765-2.1791,1.2081-1.8735,1.8313-1.3096,2.2212-.4224,2.11,0.6907,1.813,1.1711,1.3057,1.757,0.6962,2.1658-0.7213,2.1556-1.1882,1.86-1.8366,1.2445Zm13.7905,31.2801-1.9536,1.0126-2.2577.3464-2.1582-.8337-1.3907-1.7863-1.0572-1.9254-0.1238-2.2258,0.7117-2.1358,1.5487-1.6474,2.113-.6815,2.1551-.1183,2.0891,0.654,1.8363,1.343,0.6835,2.1679,0.132,2.2032-0.7544,2.0864Zm4.9396-19.1981-2.171.3593-2.2542-.3682-1.795-1.4599-0.7707-2.1286-0.4104-2.1579,0.57-2.1551,1.337-1.8114,1.982-1.0881,2.2201,0.0049,2.0862,0.5535,1.7847,1.2674,1.3315,1.8447-0.0199,2.273-0.5553,2.1362-1.3621,1.7512Z" transform="translate(-4113.0598 -1264.76644)" fill="none" stroke="#178dca" stroke-miterlimit="10"/>
          </g>
          <g>
            <polygon points="134.572 98.337 132.669 100.139 130.762 98.337 132.669 96.191 134.572 98.337" fill="#9bdffd"/>
            <polygon points="134.572 98.337 132.669 100.139 130.762 98.337 132.669 96.191 134.572 98.337" fill="none" stroke="#178dca" stroke-miterlimit="10"/>
          </g>
          <g opacity="0.1">
            <polygon points="130.56 124.973 128.454 124.464 126.109 123.955 124.016 123.399 121.896 122.611 120.051 121.852 118.41 120.483 116.481 119.057 114.57 117.771 113.145 116.464 111.96 114.522 110.376 112.725 109.246 111.01 108.366 108.999 107.497 106.861 106.736 104.898 106.453 102.778 106.084 100.507 106.005 98.388 106.195 96.246 106.601 94.016 106.992 91.663 107.409 89.731 108.459 87.855 109.461 85.736 110.509 83.875 111.901 82.068 113.128 80.205 114.623 78.752 116.222 77.388 118.215 76.283 120.14 74.927 121.934 73.94 123.926 73.336 126.149 72.845 128.374 72.333 130.559 72.002 132.845 71.799 134.953 71.688 136.98 71.979 139.135 72.586 141.332 73.22 143.445 73.972 145.44 74.823 147.159 75.872 148.778 77.424 150.543 78.879 152.097 80.562 153.793 82.129 155.009 83.625 155.869 85.782 157.185 87.648 157.751 89.677 158.48 91.712 158.636 93.993 159.21 96.208 159.172 98.3 159.056 100.488 158.738 102.611 158.168 104.775 157.6 107.086 157.09 109.059 155.988 110.801 154.664 112.811 153.589 114.841 152.434 116.328 150.588 117.58 148.794 119.228 147.199 120.537 145.2 121.499 143.244 122.689 141.272 123.472 139.304 124.101 137.014 124.288 134.707 124.842 132.607 125.026 130.56 124.973" fill="#9bdffd"/>
            <path d="M4247.92291,1338.4619l1.7014,0.2451,2.0039,0.564,2.1504,0.6206,1.9978,0.7109,1.8049,0.7696,1.4097,0.8608,1.4094,1.3501,0.1079,0.1035,0.1155,0.0952,1.6018,1.3199,1.4075,1.5249,0.1076,0.1172,0.117,0.1079,1.5329,1.4165,0.9339,1.1474,0.6591,1.6543,0.1748,0.4385,0.2723,0.3862,0.9807,1.3902,0.4538,1.6269,0.0386,0.1382,0.0486,0.1357,0.6111,1.7061,0.1245,1.8193,0.0254,0.3711,0.0932,0.3594,0.4588,1.7695-0.0322,1.751-0.1097,2.0913-0.2881,1.9204-0.5419,2.0586-0.0086.0323-0.008.0327-0.5474,2.2314-0.4375,1.6929-0.9148,1.4458-1.2712,1.9306-0.105.1592-0.0894.169-0.9487,1.792-0.8543,1.0991-1.4621.9922-0.2429.165-0.2163.1983-1.6456,1.5107-1.3664,1.1216-1.6946.8159-0.1767.085-0.1675.102-1.7276,1.0513-1.7519.6953-1.6846.5386-1.9079.1557-0.3077.0254-0.3003.0718-2.0119.4834-1.8391.1606-1.7222-.0444-1.8997-.4595-0.0468-.0117-0.0472-.0098-2.2087-.4785-2.0005-.5298-1.9641-.7294-1.561-.6416-1.3599-1.1343-0.0896-.0747-0.094-.0694-1.8816-1.3916-0.0732-.0542-0.0755-.0507-1.7119-1.1495-1.105-1.0131-0.9467-1.5518-0.1822-.2983-0.2309-.2623-1.3757-1.561-0.9595-1.456-0.7908-1.8067-0.8572-2.1059-0.6748-1.7417-0.2517-1.8843-0.0078-.0571-0.009-.0562-0.3408-2.0918-0.0689-1.8691,0.1699-1.9253,0.3899-2.1397,0.0054-.0302,0.0051-.0303,0.3709-2.231,0.3515-1.6387,0.8689-1.5512,0.0672-.1201,0.0588-.1245,0.9426-1.9927,0.9424-1.6743,1.2586-1.6343,0.0903-.1172,0.0813-.1235,1.0661-1.6192,1.292-1.2554,1.397-1.1909,1.7236-.9555,0.1885-.1045,0.1763-.1245,1.7468-1.231,1.5122-.832,1.7185-.521,2.1817-.482,2.135-.4912,2.0486-.3105,2.1535-.1909,1.9117-.1021m0.1804-4.0151-2.375.1264-2.3477.208-2.321.3521-2.2827.5254-2.2974.5073-2.2666.687-2.074,1.1411-1.9282,1.3589-2.0742,1.1499-1.8013,1.5357-1.6982,1.6504-1.3062,1.9834-1.4343,1.8623-1.1531,2.0488-1.0032,2.1211-1.1635,2.0776-0.4974,2.3189-0.3862,2.3227-0.4228,2.3208-0.2083,2.3584,0.0874,2.3687,0.3809,2.3379,0.3149,2.3559,0.8587,2.2163,0.8896,2.1861,0.9485,2.1665,1.301,1.9746,1.5606,1.771,1.2412,2.0337,1.7441,1.5996,1.9629,1.3179,1.8816,1.3916,1.8323,1.5283,2.1931,0.9013,2.2104,0.8213,2.2762,0.6026,2.2976,0.4975,2.3125,0.5596,2.3728,0.061,2.3608-.206,2.3015-.5528,2.3636-.1933,2.2512-.7193,2.1938-.871,2.0166-1.2271,2.1267-1.0239,1.8228-1.4961,1.727-1.5855,1.9864-1.3476,1.4565-1.8745,1.1116-2.0996,1.2912-1.961,1.2698-2.0068,0.5945-2.3008,0.5593-2.2783,0.5974-2.2691,0.3489-2.3261,0.1233-2.3526,0.0435-2.3657-0.596-2.2993-0.1623-2.3731-0.7984-2.2285-0.6396-2.2925-1.3789-1.955-0.8858-2.2227-1.4997-1.8433-1.7417-1.6093-1.5923-1.7251-1.8123-1.4937-1.7224-1.6504-2.0278-1.2378-2.1848-.9316-2.2281-.793-2.2675-.6543-2.2825-.6425-2.3513-.3384h0Z" transform="translate(-4113.0598 -1264.76644)" fill="#178dca"/>
          </g>
        </g>
        <g>
          <g>
            <polygon points="142.838 149.817 140.616 149.834 138.289 149.937 135.962 149.949 133.634 149.997 131.302 149.821 129.03 149.86 128.939 147.64 128.863 145.359 129.153 143.082 128.968 140.801 128.855 138.519 128.79 136.236 128.743 133.952 128.911 131.665 129.058 129.466 131.295 129.39 133.622 129.212 135.949 129.483 138.277 129.477 140.609 129.511 143.047 129.268 143.01 131.658 143.07 133.939 143.102 136.216 142.774 138.496 142.958 140.779 143.054 143.062 142.919 145.346 142.807 147.63 142.838 149.817" fill="#9bdffd"/>
            <polygon points="142.838 149.817 140.616 149.834 138.289 149.937 135.962 149.949 133.634 149.997 131.302 149.821 129.03 149.86 128.939 147.64 128.863 145.359 129.153 143.082 128.968 140.801 128.855 138.519 128.79 136.236 128.743 133.952 128.911 131.665 129.058 129.466 131.295 129.39 133.622 129.212 135.949 129.483 138.277 129.477 140.609 129.511 143.047 129.268 143.01 131.658 143.07 133.939 143.102 136.216 142.774 138.496 142.958 140.779 143.054 143.062 142.919 145.346 142.807 147.63 142.838 149.817" fill="none" stroke="#178dca" stroke-miterlimit="10"/>
          </g>
          <g>
            <polygon points="160.708 157.165 158.595 156.384 156.366 155.458 154.079 154.665 151.818 153.803 149.607 152.819 147.397 151.829 145.109 151.019 142.805 150.015 142.731 147.64 142.716 145.359 142.966 143.082 142.825 140.801 142.897 138.519 143.085 136.236 143.027 133.952 142.924 131.665 142.917 129.361 145.147 128.47 147.438 127.8 149.665 126.95 151.86 126.005 154.068 125.097 156.406 124.532 158.58 123.52 160.889 122.591 161.001 125.155 161.049 127.628 160.88 130.1 160.696 132.574 160.808 135.046 160.986 137.52 160.715 139.995 160.721 142.464 160.687 144.937 160.973 147.413 160.89 149.889 160.951 152.366 160.983 154.85 160.708 157.165" fill="#9bdffd"/>
            <polygon points="160.708 157.165 158.595 156.384 156.366 155.458 154.079 154.665 151.818 153.803 149.607 152.819 147.397 151.829 145.109 151.019 142.805 150.015 142.731 147.64 142.716 145.359 142.966 143.082 142.825 140.801 142.897 138.519 143.085 136.236 143.027 133.952 142.924 131.665 142.917 129.361 145.147 128.47 147.438 127.8 149.665 126.95 151.86 126.005 154.068 125.097 156.406 124.532 158.58 123.52 160.889 122.591 161.001 125.155 161.049 127.628 160.88 130.1 160.696 132.574 160.808 135.046 160.986 137.52 160.715 139.995 160.721 142.464 160.687 144.937 160.973 147.413 160.89 149.889 160.951 152.366 160.983 154.85 160.708 157.165" fill="none" stroke="#178dca" stroke-miterlimit="10"/>
          </g>
          <g>
            <polygon points="135.712 162.898 133.353 162.631 130.993 162.523 128.633 162.635 126.273 162.755 123.913 162.555 121.553 162.644 119.193 162.431 116.836 162.714 114.48 162.902 112.124 162.462 109.763 162.547 107.403 162.434 105.046 162.522 102.686 162.645 100.324 162.849 97.964 162.64 95.602 162.579 93.241 162.484 90.878 162.655 88.516 162.81 86.153 162.609 83.789 162.891 81.43 162.446 79.068 162.583 76.703 162.526 74.338 162.467 71.973 162.848 69.603 162.647 67.234 162.531 64.626 161.456 63.626 158.849 63.449 156.478 63.451 154.109 63.309 151.737 63.24 149.367 63.303 146.996 63.371 144.624 63.244 142.257 63.265 139.886 63.22 137.513 63.206 135.14 63.455 132.766 63.314 130.388 63.398 127.98 65.804 128.156 68.18 128.098 70.558 127.995 72.934 127.982 75.31 127.934 77.686 128.11 80.064 128.095 82.44 127.979 84.816 127.903 87.193 128.193 89.567 128.008 91.939 127.895 94.312 127.831 96.689 127.783 99.065 127.951 101.439 128.136 103.815 128.023 106.194 127.845 108.57 128.117 110.949 128.11 113.327 128.144 115.706 127.858 118.085 127.941 120.464 127.881 122.845 127.849 125.22 128.177 127.599 127.993 129.98 127.897 132.362 128.032 134.744 128.144 137.13 128.153 139.48 128.047 139.292 130.381 139.484 132.75 139.517 135.122 139.416 137.492 139.521 139.863 139.76 142.235 139.391 144.603 139.494 146.973 139.758 149.346 139.72 151.719 139.347 154.093 139.502 156.471 139.541 158.849 138.47 161.607 135.712 162.898" fill="#9bdffd"/>
            <polygon points="135.712 162.898 133.353 162.631 130.993 162.523 128.633 162.635 126.273 162.755 123.913 162.555 121.553 162.644 119.193 162.431 116.836 162.714 114.48 162.902 112.124 162.462 109.763 162.547 107.403 162.434 105.046 162.522 102.686 162.645 100.324 162.849 97.964 162.64 95.602 162.579 93.241 162.484 90.878 162.655 88.516 162.81 86.153 162.609 83.789 162.891 81.43 162.446 79.068 162.583 76.703 162.526 74.338 162.467 71.973 162.848 69.603 162.647 67.234 162.531 64.626 161.456 63.626 158.849 63.449 156.478 63.451 154.109 63.309 151.737 63.24 149.367 63.303 146.996 63.371 144.624 63.244 142.257 63.265 139.886 63.22 137.513 63.206 135.14 63.455 132.766 63.314 130.388 63.398 127.98 65.804 128.156 68.18 128.098 70.558 127.995 72.934 127.982 75.31 127.934 77.686 128.11 80.064 128.095 82.44 127.979 84.816 127.903 87.193 128.193 89.567 128.008 91.939 127.895 94.312 127.831 96.689 127.783 99.065 127.951 101.439 128.136 103.815 128.023 106.194 127.845 108.57 128.117 110.949 128.11 113.327 128.144 115.706 127.858 118.085 127.941 120.464 127.881 122.845 127.849 125.22 128.177 127.599 127.993 129.98 127.897 132.362 128.032 134.744 128.144 137.13 128.153 139.48 128.047 139.292 130.381 139.484 132.75 139.517 135.122 139.416 137.492 139.521 139.863 139.76 142.235 139.391 144.603 139.494 146.973 139.758 149.346 139.72 151.719 139.347 154.093 139.502 156.471 139.541 158.849 138.47 161.607 135.712 162.898" fill="none" stroke="#178dca" stroke-miterlimit="10"/>
          </g>
          <g>
            <polygon points="72.94 112.729 75.316 112.901 77.693 112.996 80.066 112.997 82.437 112.63 84.81 112.661 87.186 112.58 89.562 112.931 91.936 112.717 94.312 112.958 96.69 112.825 99.066 112.681 101.444 112.962 103.821 112.686 106.2 113 108.578 112.717 110.957 112.779 113.337 112.985 115.712 112.869 118.09 112.879 120.471 112.66 122.852 112.957 125.234 112.965 127.62 112.548 130.005 112.816 132.604 113.999 133.792 116.598 133.912 118.878 133.711 121.159 133.8 123.441 133.588 125.726 133.852 128.055 131.416 128.26 129.021 127.819 126.628 127.905 124.234 127.792 121.84 127.88 119.449 128.003 117.06 128.207 114.67 127.998 112.275 127.937 109.882 127.842 107.49 128.013 105.097 128.168 102.701 127.967 100.307 128.249 97.911 127.804 95.516 127.941 93.119 127.884 90.723 127.825 88.327 128.206 85.929 128.005 83.536 127.889 81.14 127.894 78.741 127.814 76.342 127.992 73.943 127.989 71.539 128.132 69.005 128.148 69.01 125.73 69.078 123.449 68.951 121.168 68.971 118.883 68.926 116.598 70.092 113.749 72.94 112.729" fill="#9bdffd"/>
            <polygon points="72.94 112.729 75.316 112.901 77.693 112.996 80.066 112.997 82.437 112.63 84.81 112.661 87.186 112.58 89.562 112.931 91.936 112.717 94.312 112.958 96.69 112.825 99.066 112.681 101.444 112.962 103.821 112.686 106.2 113 108.578 112.717 110.957 112.779 113.337 112.985 115.712 112.869 118.09 112.879 120.471 112.66 122.852 112.957 125.234 112.965 127.62 112.548 130.005 112.816 132.604 113.999 133.792 116.598 133.912 118.878 133.711 121.159 133.8 123.441 133.588 125.726 133.852 128.055 131.416 128.26 129.021 127.819 126.628 127.905 124.234 127.792 121.84 127.88 119.449 128.003 117.06 128.207 114.67 127.998 112.275 127.937 109.882 127.842 107.49 128.013 105.097 128.168 102.701 127.967 100.307 128.249 97.911 127.804 95.516 127.941 93.119 127.884 90.723 127.825 88.327 128.206 85.929 128.005 83.536 127.889 81.14 127.894 78.741 127.814 76.342 127.992 73.943 127.989 71.539 128.132 69.005 128.148 69.01 125.73 69.078 123.449 68.951 121.168 68.971 118.883 68.926 116.598 70.092 113.749 72.94 112.729" fill="none" stroke="#178dca" stroke-miterlimit="10"/>
          </g>
          <g opacity="0.2">
            <polygon points="69.037 126.661 71.53 126.912 73.924 126.699 76.318 126.656 78.712 126.655 81.106 127.066 83.497 126.854 85.886 126.713 88.276 127.046 90.67 126.721 93.064 126.937 95.456 127.081 97.849 126.629 100.245 126.848 102.639 126.675 105.035 126.922 107.43 126.656 109.827 127.032 112.222 126.882 114.619 126.797 117.017 126.805 119.41 126.977 121.806 127.072 124.204 127.073 126.603 126.706 129.003 126.737 131.406 126.656 133.751 126.994 133.843 128.079 131.416 127.846 129.021 127.979 126.628 128.123 124.234 127.842 121.84 128.118 119.449 127.804 117.06 128.087 114.67 128.025 112.275 127.819 109.882 127.935 107.49 127.926 105.097 128.144 102.701 127.847 100.307 127.839 97.911 128.256 95.516 127.988 93.119 127.881 90.723 127.993 88.327 128.113 85.929 127.912 83.536 128.001 81.14 127.789 78.741 128.072 76.342 128.26 73.943 127.819 71.539 127.905 69.24 127.818 69.037 126.661" fill="#9bdffd"/>
            <polygon points="69.037 126.661 71.53 126.912 73.924 126.699 76.318 126.656 78.712 126.655 81.106 127.066 83.497 126.854 85.886 126.713 88.276 127.046 90.67 126.721 93.064 126.937 95.456 127.081 97.849 126.629 100.245 126.848 102.639 126.675 105.035 126.922 107.43 126.656 109.827 127.032 112.222 126.882 114.619 126.797 117.017 126.805 119.41 126.977 121.806 127.072 124.204 127.073 126.603 126.706 129.003 126.737 131.406 126.656 133.751 126.994 133.843 128.079 131.416 127.846 129.021 127.979 126.628 128.123 124.234 127.842 121.84 128.118 119.449 127.804 117.06 128.087 114.67 128.025 112.275 127.819 109.882 127.935 107.49 127.926 105.097 128.144 102.701 127.847 100.307 127.839 97.911 128.256 95.516 127.988 93.119 127.881 90.723 127.993 88.327 128.113 85.929 127.912 83.536 128.001 81.14 127.789 78.741 128.072 76.342 128.26 73.943 127.819 71.539 127.905 69.24 127.818 69.037 126.661" fill="none" stroke="#178dca" stroke-miterlimit="10"/>
          </g>
          <g>
            <polygon points="74.595 116.598 73.701 117.595 72.583 116.598 73.701 115.538 74.595 116.598" fill="#9bdffd"/>
            <polygon points="74.595 116.598 73.701 117.595 72.583 116.598 73.701 115.538 74.595 116.598" fill="none" stroke="#178dca" stroke-miterlimit="10"/>
          </g>
          <g>
            <polygon points="76.759 131.782 76.807 133.094 74.211 132.776 71.673 132.713 69.238 132.73 69.195 131.947 71.669 131.838 74.208 131.897 76.759 131.782" fill="#9bdffd"/>
            <polygon points="76.759 131.782 76.807 133.094 74.211 132.776 71.673 132.713 69.238 132.73 69.195 131.947 71.669 131.838 74.208 131.897 76.759 131.782" fill="none" stroke="#178dca" stroke-miterlimit="10"/>
          </g>
          <g>
            <polygon points="87.16 131.92 87.161 132.855 84.673 132.713 82.135 132.948 79.583 132.989 79.536 131.677 82.131 131.996 84.664 132.059 87.16 131.92" fill="#9bdffd"/>
            <polygon points="87.16 131.92 87.161 132.855 84.673 132.713 82.135 132.948 79.583 132.989 79.536 131.677 82.131 131.996 84.664 132.059 87.16 131.92" fill="none" stroke="#178dca" stroke-miterlimit="10"/>
          </g>
          <g>
            <polygon points="97.656 131.844 97.752 133.143 95.135 132.956 92.597 133.119 90.107 132.852 90.105 131.916 92.593 132.059 95.131 131.824 97.656 131.844" fill="#9bdffd"/>
            <polygon points="97.656 131.844 97.752 133.143 95.135 132.956 92.597 133.119 90.107 132.852 90.105 131.916 92.593 132.059 95.131 131.824 97.656 131.844" fill="none" stroke="#178dca" stroke-miterlimit="10"/>
          </g>
        </g>
        <g>
          <g>
            <polygon points="86.606 164.319 85.345 166.683 84.219 169.013 82.956 171.276 81.905 173.68 84.633 173.459 87.336 173.663 88.34 171.512 89.728 169.574 90.872 167.496 92.133 165.243 89.301 164.904 86.606 164.319" fill="#9bdffd"/>
            <polygon points="86.606 164.319 85.345 166.683 84.219 169.013 82.956 171.276 81.905 173.68 84.633 173.459 87.336 173.663 88.34 171.512 89.728 169.574 90.872 167.496 92.133 165.243 89.301 164.904 86.606 164.319" fill="none" stroke="#178dca" stroke-miterlimit="10"/>
          </g>
          <g>
            <polygon points="107.913 164.435 105.249 164.749 102.785 165.443 103.991 167.332 104.808 169.587 105.95 171.666 107.194 173.748 109.943 173.845 112.671 173.68 111.279 171.458 110.276 169.065 108.944 166.836 107.913 164.435" fill="#9bdffd"/>
            <polygon points="107.913 164.435 105.249 164.749 102.785 165.443 103.991 167.332 104.808 169.587 105.95 171.666 107.194 173.748 109.943 173.845 112.671 173.68 111.279 171.458 110.276 169.065 108.944 166.836 107.913 164.435" fill="none" stroke="#178dca" stroke-miterlimit="10"/>
          </g>
          <g>
            <polygon points="94.493 164.752 94.66 167.098 94.689 169.284 94.628 171.473 94.608 173.684 97.288 173.829 99.854 173.545 99.732 171.478 100.108 169.292 100.114 167.102 100.012 164.838 97.293 164.73 94.493 164.752" fill="#9bdffd"/>
            <polygon points="94.493 164.752 94.66 167.098 94.689 169.284 94.628 171.473 94.608 173.684 97.288 173.829 99.854 173.545 99.732 171.478 100.108 169.292 100.114 167.102 100.012 164.838 97.293 164.73 94.493 164.752" fill="none" stroke="#178dca" stroke-miterlimit="10"/>
          </g>
        </g>
        <g>
          <polygon points="109.391 162.342 109.435 164.152 109.474 166.069 106.992 165.917 104.521 166.159 102.048 166.268 99.581 166.225 97.111 166.074 94.638 165.845 92.164 166.089 89.69 166.118 87.212 166.057 84.75 166.033 84.9 164.152 84.64 162.129 87.204 162.03 89.675 162.407 92.147 162.413 94.615 162.346 97.085 162.432 99.558 162.281 102.032 162.046 104.506 162.25 106.987 162.088 109.391 162.342" fill="#9bdffd"/>
          <polygon points="109.391 162.342 109.435 164.152 109.474 166.069 106.992 165.917 104.521 166.159 102.048 166.268 99.581 166.225 97.111 166.074 94.638 165.845 92.164 166.089 89.69 166.118 87.212 166.057 84.75 166.033 84.9 164.152 84.64 162.129 87.204 162.03 89.675 162.407 92.147 162.413 94.615 162.346 97.085 162.432 99.558 162.281 102.032 162.046 104.506 162.25 106.987 162.088 109.391 162.342" fill="none" stroke="#178dca" stroke-miterlimit="10"/>
        </g>
      </g>
    </g>
    <polygon points="159.299 123.232 159.299 156.674 160.821 157.304 160.821 122.662 159.299 123.232" fill="#9bdffd" stroke="#178dca" stroke-miterlimit="10" opacity="0.2"/>
    <g opacity="0.2">
      <polygon points="160.859 122.616 161.114 125.155 161.135 127.628 160.929 130.1 160.858 132.574 160.912 135.046 160.986 137.52 160.825 139.995 160.862 142.464 161.032 144.937 160.905 147.413 160.915 149.889 161.177 152.366 160.744 154.846 160.928 157.337 163.277 157.884 165.712 157.779 168.018 158.551 170.425 158.625 172.748 159.268 175.127 159.518 177.54 159.543 179.915 159.84 182.25 160.415 184.652 160.538 186.963 161.277 189.383 161.254 191.689 162.021 194.087 162.165 196.476 162.376 198.862 162.605 201.174 163.333 203.579 163.429 205.902 164.085 208.319 164.116 210.68 164.519 213.007 165.15 215.38 165.469 217.806 165.433 220.131 166.081 222.492 166.482 224.869 166.782 227.281 166.815 229.598 167.484 232.013 167.497 234.328 168.217 236.746 168.228 239.07 168.874 241.485 168.901 243.856 169.253 246.215 169.669 248.573 170.109 250.925 170.578 253.341 170.63 255.659 171.341 258.061 171.487 260.42 171.933 262.781 172.328 265.172 172.543 267.547 172.881 269.916 173.269 272.303 173.532 274.684 173.866 277.018 174.184 277.206 171.856 276.992 169.479 276.87 167.101 277.075 164.722 277.048 162.345 277.238 159.967 277.224 157.588 276.845 155.214 277.267 152.84 277.275 150.466 276.905 148.087 276.926 145.709 276.838 143.334 276.836 140.956 276.967 138.576 276.932 136.198 276.996 133.818 276.827 131.439 276.907 129.058 277.015 126.678 276.819 124.297 277.286 121.915 277.085 119.538 277.001 117.158 277.009 114.775 277.178 112.392 277.227 110.009 277.29 107.621 277.077 105.214 274.691 105.584 272.314 105.886 269.973 106.428 267.598 106.729 265.238 107.124 262.883 107.559 260.488 107.72 258.158 108.324 255.785 108.657 253.347 108.555 251.005 109.089 248.628 109.378 246.314 110.085 243.933 110.359 241.553 110.643 239.184 111.004 236.772 111.067 234.453 111.753 232.07 112.014 229.722 112.52 227.295 112.491 224.98 113.206 222.567 113.272 220.219 113.778 217.842 114.08 215.517 114.735 213.117 114.89 210.708 114.965 208.408 115.75 205.994 115.787 203.617 116.095 201.269 116.597 198.869 116.737 196.566 117.529 194.153 117.613 191.827 118.256 189.458 118.635 187.054 118.766 184.697 119.227 182.281 119.284 179.95 119.922 177.571 120.242 175.213 120.669 172.832 120.964 170.483 121.486 168.074 121.616 165.729 122.174 163.348 122.539 160.859 122.616" fill="#9bdffd"/>
      <polygon points="160.859 122.616 161.114 125.155 161.135 127.628 160.929 130.1 160.858 132.574 160.912 135.046 160.986 137.52 160.825 139.995 160.862 142.464 161.032 144.937 160.905 147.413 160.915 149.889 161.177 152.366 160.744 154.846 160.928 157.337 163.277 157.884 165.712 157.779 168.018 158.551 170.425 158.625 172.748 159.268 175.127 159.518 177.54 159.543 179.915 159.84 182.25 160.415 184.652 160.538 186.963 161.277 189.383 161.254 191.689 162.021 194.087 162.165 196.476 162.376 198.862 162.605 201.174 163.333 203.579 163.429 205.902 164.085 208.319 164.116 210.68 164.519 213.007 165.15 215.38 165.469 217.806 165.433 220.131 166.081 222.492 166.482 224.869 166.782 227.281 166.815 229.598 167.484 232.013 167.497 234.328 168.217 236.746 168.228 239.07 168.874 241.485 168.901 243.856 169.253 246.215 169.669 248.573 170.109 250.925 170.578 253.341 170.63 255.659 171.341 258.061 171.487 260.42 171.933 262.781 172.328 265.172 172.543 267.547 172.881 269.916 173.269 272.303 173.532 274.684 173.866 277.018 174.184 277.206 171.856 276.992 169.479 276.87 167.101 277.075 164.722 277.048 162.345 277.238 159.967 277.224 157.588 276.845 155.214 277.267 152.84 277.275 150.466 276.905 148.087 276.926 145.709 276.838 143.334 276.836 140.956 276.967 138.576 276.932 136.198 276.996 133.818 276.827 131.439 276.907 129.058 277.015 126.678 276.819 124.297 277.286 121.915 277.085 119.538 277.001 117.158 277.009 114.775 277.178 112.392 277.227 110.009 277.29 107.621 277.077 105.214 274.691 105.584 272.314 105.886 269.973 106.428 267.598 106.729 265.238 107.124 262.883 107.559 260.488 107.72 258.158 108.324 255.785 108.657 253.347 108.555 251.005 109.089 248.628 109.378 246.314 110.085 243.933 110.359 241.553 110.643 239.184 111.004 236.772 111.067 234.453 111.753 232.07 112.014 229.722 112.52 227.295 112.491 224.98 113.206 222.567 113.272 220.219 113.778 217.842 114.08 215.517 114.735 213.117 114.89 210.708 114.965 208.408 115.75 205.994 115.787 203.617 116.095 201.269 116.597 198.869 116.737 196.566 117.529 194.153 117.613 191.827 118.256 189.458 118.635 187.054 118.766 184.697 119.227 182.281 119.284 179.95 119.922 177.571 120.242 175.213 120.669 172.832 120.964 170.483 121.486 168.074 121.616 165.729 122.174 163.348 122.539 160.859 122.616" fill="none" stroke="#178dca" stroke-miterlimit="10"/>
    </g>
    <g opacity="0.2">
      <g>
        <polyline points="21.94 169.621 24.271 169.739 26.606 169.793 28.94 169.973" fill="none" stroke="#178dca" stroke-miterlimit="10" stroke-width="2"/>
        <polyline points="25.6 173.234 25.528 170.903 25.403 168.568 25.219 166.234" fill="none" stroke="#178dca" stroke-miterlimit="10" stroke-width="2"/>
      </g>
    </g>
    <g opacity="0.2">
      <g>
        <polyline points="127.94 44.621 130.271 44.739 132.606 44.793 134.94 44.973" fill="none" stroke="#178dca" stroke-miterlimit="10" stroke-width="2"/>
        <polyline points="131.6 48.234 131.528 45.903 131.403 43.568 131.219 41.234" fill="none" stroke="#178dca" stroke-miterlimit="10" stroke-width="2"/>
      </g>
    </g>
    <g opacity="0.2">
      <g>
        <polyline points="181.94 190.121 184.271 190.239 186.606 190.293 188.94 190.473" fill="none" stroke="#178dca" stroke-miterlimit="10" stroke-width="2"/>
        <polyline points="185.6 193.734 185.528 191.403 185.403 189.068 185.219 186.734" fill="none" stroke="#178dca" stroke-miterlimit="10" stroke-width="2"/>
      </g>
    </g>
  </g>
</svg>
