<svg xmlns="http://www.w3.org/2000/svg" viewBox="0 0 54 114">
  <g>
    <polygon points="8.954 13.117 3.029 8.778 8.954 3.989 8.954 13.117" fill="#b0b4be" fill-rule="evenodd"/>
    <rect x="49.96067" y="108.00426" width="1.00007" height="2.00012" transform="translate(-1.16683 0.54777) rotate(-0.61486)" fill="#b0b4be"/>
    <rect x="49.92945" y="104.0043" width="1.00002" height="2.00003" transform="translate(-0.61438 0.29728) rotate(-0.33571)" fill="#b0b4be"/>
    <rect x="49.90992" y="100.00431" width="1" height="2.00002" transform="translate(-0.39397 0.19759) rotate(-0.2237)" fill="#b0b4be"/>
    <rect x="49.89723" y="96.00431" width="1" height="2.00001" transform="translate(-0.28384 0.14799) rotate(-0.16778)" fill="#b0b4be"/>
    <polygon points="49.89 94.005 49.886 92.005 50.886 92.003 50.89 93.951 49.89 94.005" fill="#b0b4be"/>
    <rect x="49.88307" y="88.00431" width="1" height="2" transform="translate(-0.13032 0.0739) rotate(-0.08393)" fill="#b0b4be"/>
    <rect x="49.87965" y="84.00431" width="1" height="2" fill="#b0b4be"/>
    <rect x="49.87819" y="80.00529" width="1" height="2" fill="#b0b4be"/>
    <rect x="49.8777" y="76.00529" width="1" height="2" fill="#b0b4be"/>
    <rect x="49.8777" y="72.00431" width="1" height="2" fill="#b0b4be"/>
    <rect x="49.88014" y="68.00431" width="1" height="2" fill="#b0b4be"/>
    <rect x="49.88209" y="64.00431" width="1" height="2" fill="#b0b4be"/>
    <rect x="49.38649" y="60.50431" width="2" height="1" transform="translate(-10.71612 111.27156) rotate(-89.88809)" fill="#b0b4be"/>
    <rect x="49.38942" y="56.50431" width="2" height="1" transform="translate(-6.71321 107.2823) rotate(-89.88809)" fill="#b0b4be"/>
    <rect x="49.3943" y="52.50431" width="2" height="1" transform="translate(-2.70834 103.29499) rotate(-89.88809)" fill="#b0b4be"/>
    <rect x="49.39967" y="48.50431" width="2" height="1" transform="translate(1.29701 99.30818) rotate(-89.88809)" fill="#b0b4be"/>
    <rect x="49.40553" y="44.50431" width="2" height="1" transform="translate(5.30285 95.32185) rotate(-89.88809)" fill="#b0b4be"/>
    <rect x="49.41139" y="40.50431" width="2" height="1" transform="translate(9.30869 91.33552) rotate(-89.88809)" fill="#b0b4be"/>
    <rect x="49.41627" y="36.50529" width="2" height="1" transform="translate(13.31258 87.34919) rotate(-89.88809)" fill="#b0b4be"/>
    <rect x="49.42311" y="32.50529" width="2" height="1" transform="translate(17.3194 83.36384) rotate(-89.88809)" fill="#b0b4be"/>
    <polygon points="50.429 30.005 49.929 29.993 49.933 28.004 50.933 28.006 50.929 29.995 50.429 30.005" fill="#b0b4be"/>
    <path d="M49.92653,26.01994a17.85637,17.85637,0,0,0-.167-1.93555l.99023-.14062a19.117,19.117,0,0,1,.17676,2.04492Z" fill="#b0b4be"/>
    <path d="M49.37867,22.17912a17.58647,17.58647,0,0,0-.58984-1.85254l.93555-.35547a18.83214,18.83214,0,0,1,.623,1.958Z" fill="#b0b4be"/>
    <path d="M47.99684,18.55314a17.78616,17.78616,0,0,0-.98535-1.67773l.834-.55273a18.89041,18.89041,0,0,1,1.04,1.77148Z" fill="#b0b4be"/>
    <path d="M45.85035,15.32072a17.7452,17.7452,0,0,0-1.3291-1.41992l.69141-.72266a18.693,18.693,0,0,1,1.40332,1.5Z" fill="#b0b4be"/>
    <path d="M43.04567,12.6381a17.28713,17.28713,0,0,0-1.60742-1.09277l.51563-.85742a18.62517,18.62517,0,0,1,1.69922,1.15527Z" fill="#b0b4be"/>
    <path d="M39.72242,10.6381a17.9328,17.9328,0,0,0-1.80957-.71094l.31445-.94922a18.52967,18.52967,0,0,1,1.91113.752Z" fill="#b0b4be"/>
    <path d="M36.03785,9.42424a17.3777,17.3777,0,0,0-1.91992-.291l.09375-.99609a18.39718,18.39718,0,0,1,2.03125.30859Z" fill="#b0b4be"/>
    <rect x="30.16774" y="8.05314" width="2" height="1" fill="#b0b4be"/>
    <rect x="26.16774" y="8.05314" width="2" height="1" fill="#b0b4be"/>
    <rect x="22.16774" y="8.05314" width="2" height="1" fill="#b0b4be"/>
    <rect x="18.16774" y="8.05314" width="2" height="1" fill="#b0b4be"/>
    <rect x="14.16774" y="8.05314" width="2" height="1" fill="#b0b4be"/>
    <rect x="10.16774" y="8.05314" width="2" height="1" fill="#b0b4be"/>
    <rect x="6.95387" y="8.05314" width="1.21387" height="1" fill="#b0b4be"/>
  </g>
</svg>
