<svg xmlns="http://www.w3.org/2000/svg" viewBox="0 0 360 360">
  <g>
    <g>
      <polygon points="332.103 241.202 247.373 191.77 246.471 72.026 334.291 105.913 332.103 241.202" fill="#e0f6fa"/>
      <polygon points="326.784 231.207 252.656 187.675 251.308 81.198 328.913 112.441 326.784 231.207" fill="#fff"/>
      <g opacity="0.22">
        <polygon points="292.289 149.855 291.844 160.428 280.503 154.386 281.938 145.842 292.289 149.855" fill="#524648"/>
      </g>
      <path d="M277.61279,154.64674,287.619,160.4281c4.22484-4.4472,4.66956-11.34037,4.66956-11.34037L282.06,144.64053S281.61528,152.64549,277.61279,154.64674Z" fill="#fd4a48"/>
      <g opacity="0.22">
        <polygon points="298.07 167.236 297.663 176.916 287.281 171.385 288.594 163.563 298.07 167.236" fill="#524648"/>
      </g>
      <path d="M284.63436,171.62332l9.16061,5.2928c3.86781-4.07138,4.275-10.45093,4.275-10.45093l-9.36418-4.00248S288.29861,169.7912,284.63436,171.62332Z" fill="#fd4a48"/>
      <g opacity="0.22">
        <polygon points="280.426 160.888 280.127 167.998 272.501 163.935 273.466 158.19 280.426 160.888" fill="#524648"/>
      </g>
      <path d="M270.5568,164.11009l6.72885,3.88778c2.84107-2.9906,3.14013-7.626,3.14013-7.626l-6.87838-2.9906S273.24834,162.76432,270.5568,164.11009Z" fill="#fd6e6c"/>
      <g>
        <g opacity="0.22">
          <polygon points="274.32 173.887 274.108 178.93 268.7 176.048 269.384 171.974 274.32 173.887" fill="#524648"/>
        </g>
        <path d="M267.3215,176.17256l4.77167,2.757a9.73167,9.73167,0,0,0,2.22678-5.40789l-4.8777-2.12074S269.23017,175.21822,267.3215,176.17256Z" fill="#fdb6b5"/>
      </g>
      <g>
        <g opacity="0.22">
          <polygon points="313.952 158.25 313.74 163.292 308.332 160.411 309.017 156.337 313.952 158.25" fill="#524648"/>
        </g>
        <path d="M306.954,160.53526l4.77167,2.757a9.73167,9.73167,0,0,0,2.22678-5.40789l-4.8777-2.12074S308.86263,159.58092,306.954,160.53526Z" fill="#fdb6b5"/>
      </g>
      <g>
        <g opacity="0.22">
          <polygon points="299.933 184.941 299.721 189.983 294.313 187.102 294.997 183.028 299.933 184.941" fill="#524648"/>
        </g>
        <path d="M292.93432,187.22651l4.77167,2.757a9.73167,9.73167,0,0,0,2.22678-5.40789l-4.8777-2.12074S294.843,186.27217,292.93432,187.22651Z" fill="#fdb6b5"/>
      </g>
      <g>
        <g opacity="0.22">
          <polygon points="271.085 142.074 270.873 147.116 265.465 144.235 266.149 140.16 271.085 142.074" fill="#524648"/>
        </g>
        <path d="M264.0862,144.35874l4.77167,2.757a9.73167,9.73167,0,0,0,2.22678-5.40789l-4.8777-2.12074S265.99486,143.40441,264.0862,144.35874Z" fill="#fdb6b5"/>
      </g>
      <g>
        <path d="M287.7796,150.23644l-3.94455,5.331a1.38094,1.38094,0,0,0,.49774.33073c1.11187.4249,2.58209-.71815,3.28486-2.556A4.51313,4.51313,0,0,0,287.7796,150.23644Z" fill="#fff"/>
        <path d="M283.41557,154.87652l3.93478-5.31834a1.36258,1.36258,0,0,0-.47479-.3099c-1.11187-.42489-2.58209.71815-3.28486,2.556A4.54512,4.54512,0,0,0,283.41557,154.87652Z" fill="#fff"/>
      </g>
      <polygon points="295.573 163.434 295.035 163.395 295.56 156.043 293.047 155.037 293.247 154.537 296.126 155.688 295.573 163.434" fill="#fc9593"/>
      <polygon points="308.256 179.126 307.749 177.353 300.306 173.631 300.547 173.149 308.202 176.977 308.774 178.978 308.256 179.126" fill="#fc9593"/>
      <polygon points="311.679 181.145 311.679 183.509 304.272 179.59 304.272 177.422 311.679 181.145" fill="#fd6e6c"/>
      <polygon points="269.294 159.608 265.677 157.66 265.113 154.84 265.642 154.734 266.156 157.306 269.549 159.133 269.294 159.608" fill="#fc9593"/>
      <polygon points="269.081 153.805 269.081 156.169 261.674 152.25 261.674 150.082 269.081 153.805" fill="#fd6e6c"/>
      <path d="M302.06593,135.8767c0,5.78849,2.76619,10.47969,6.17941,10.47969,3.41052,0,6.17671-4.6912,6.17671-10.47969,0-5.78581-2.76619-10.477-6.17671-10.477C304.83211,125.39971,302.06593,130.09089,302.06593,135.8767Zm4.92306-3.12745c0,1.12966-.27231,2.04632-.60392,2.04632-.33438,0-.604-.91666-.604-2.04632s.26961-2.04634.604-2.04634C306.71667,130.70291,306.989,131.61958,306.989,132.74925Zm3.21371,3.07083c-.33431,0-.60392-.91666-.60392-2.04632s.26961-2.04634.60392-2.04634.60392.91668.60392,2.04634S310.537,135.82007,310.2027,135.82007Zm.05693,3.76779c-.90939,1.28563-1.80972,1.84534-2.67463,1.66652-1.68767-.34884-2.3808-3.40925-2.45636-3.75514a.40515.40515,0,0,1,.79241-.16936c.15948.74745.83743,2.92862,1.82935,3.13386.64309.13058,1.36365-.65652,1.85151-1.34089a.40276.40276,0,1,1,.65773.465Z" fill="#fd6e6c"/>
      <rect x="287.98084" y="118.84678" width="0.53952" height="24.13613" transform="translate(42.9936 331.10502) rotate(-63.64906)" fill="#fd4a48"/>
      <polygon points="296.38 137.784 296.2 137.276 298.908 136.313 298.297 133.915 298.819 133.782 299.552 136.657 296.38 137.784" fill="#fd4a48"/>
      <g>
        <path d="M291.32741,130.23l-4.13154-1.85119-.29515-9.33678,5.85372,2.25007Zm-3.60338-2.20558,3.18159,1.42571,1.24747-7.81154-4.68787-1.802Z" fill="#fd4a48"/>
        <path d="M287.29855,125.831c-.04028-.01211-4.02043-1.26616-2.90935-5.04226a1.90208,1.90208,0,0,1,.9173-1.193,2.84663,2.84663,0,0,1,1.95387-.14507l-.15481.51657a2.678,2.678,0,0,0-.97812-.07082,1.367,1.367,0,0,0-1.22114,1.04447c-.95916,3.26032,2.40515,4.33006,2.54891,4.374Z" fill="#fd4a48"/>
      </g>
      <path d="M264.07264,118.84553c.45832,5.76692,3.58851,10.22355,6.991,9.95395,3.39973-.27231,5.78579-5.16839,5.32477-10.938-.45832-5.76693-3.58851-10.22355-6.991-9.95395C265.995,108.17981,263.61162,113.0759,264.07264,118.84553Zm4.90153-3.62084c0,1.12966-.27231,2.04632-.60392,2.04632-.33438,0-.604-.91666-.604-2.04632s.26961-2.04634.604-2.04634C268.70186,113.17835,268.97417,114.095,268.97417,115.22469Zm3.21371,3.07083c-.33431,0-.60392-.91666-.60392-2.04632s.26961-2.04634.60392-2.04634.60392.91668.60392,2.04634S272.52219,118.29552,272.18788,118.29552Zm-.17105,5.48179a.40482.40482,0,0,1-.48076-.31c-.15079-.69391-.79126-2.72233-1.75071-2.92174-.66487-.14074-1.41055.6712-1.91489,1.37526a.405.405,0,0,1-.65784-.47248c.82024-1.139,1.62516-1.71979,2.39892-1.72857a1.45812,1.45812,0,0,1,.34012.03389c1.64317.34264,2.30675,3.21741,2.37515,3.54289A.40215.40215,0,0,1,272.01683,123.7773Z" fill="#fd6e6c"/>
      <path d="M288.93358,118.72585l-.02449-.00053a.26955.26955,0,0,1,.00843-.539.13886.13886,0,0,0,.015.00026c.14771,0,.28277-.1664.317-.3249a1.33639,1.33639,0,0,0-.10584-.70167l-.05187-.14033a2.77617,2.77617,0,0,1-.20352-.7638,1.5734,1.5734,0,0,1,.98971-1.56236.26967.26967,0,1,1,.1922.50394,1.03726,1.03726,0,0,0-.64427,1.01682,2.348,2.348,0,0,0,.17087.61662l.05424.14613a1.81382,1.81382,0,0,1,.12559.99918A.92026.92026,0,0,1,288.93358,118.72585Z" fill="#fd4a48"/>
      <path d="M290.36824,119.60892a.26961.26961,0,0,1-.1843-.46629c.26329-.247.23828-.72273.19431-1.14952a1.8513,1.8513,0,0,1,.3844-1.59633.26966.26966,0,0,1,.3586.40283c-.26039.23143-.253.684-.20642,1.13846a1.88142,1.88142,0,0,1-.36229,1.5979A.2686.2686,0,0,1,290.36824,119.60892Z" fill="#fd4a48"/>
    </g>
    <g>
      <g>
        <path d="M272.24477,136.41331s4.498-3.31057,5.71623-4.58346c.42115-.44,1.973-1.52188,1.82243-.32295-.20491,1.63161,1.84341,1.60961,1.06672,3.059a11.9677,11.9677,0,0,1-2.1405,2.16432,38.46522,38.46522,0,0,1-5.5449,2.496Z" fill="#f6c39c"/>
        <path d="M279.468,134.30554l.92082,1.06721,2.91447-2.87946c.17277-.17069.35051-.33622.53044-.49934a3.85562,3.85562,0,0,0,.57964-.74939c.27333-.43475-.27347-.959-.66766-.62983l-.00889.00754Z" fill="#f6c39c"/>
        <rect x="279.01919" y="133.69649" width="1.53853" height="3.91083" rx="0.58856" ry="0.58856" transform="translate(359.86069 436.10399) rotate(-130.78866)" fill="#f6c39c"/>
        <path d="M278.39434,133.19787l.758,1.18842,2.7796-1.77279a.70478.70478,0,0,0,.21523-.97319h0c-.2093-.32817-1.36642-.05346-1.69459.15584Z" fill="#f6c39c"/>
        <path d="M278.92549,130.5506h1.07838a0,0,0,0,1,0,0v3.09416a.41253.41253,0,0,1-.41253.41253H279.338a.41253.41253,0,0,1-.41253-.41253V130.5506A0,0,0,0,1,278.92549,130.5506Z" transform="translate(361.86032 430.32375) rotate(-130.78867)" fill="#f6c39c"/>
      </g>
      <g>
        <ellipse cx="235.22593" cy="241.60969" rx="24.53438" ry="2.00787" fill="#ceeef7"/>
        <path d="M212.26467,170.15474c.21372-.16435-3.92369-.83035-5.10217-1.08524s-3.65028,2.04779-3.65028,2.04779S209.00931,172.658,212.26467,170.15474Z" fill="#f6c39c"/>
        <path d="M213.62764,179.103c.25257-.09431-6.40456-10.884-10.85729-11.97039,0,0-4.61555,4.79967-6.90563,4.55108l10.24425,11.1426S206.5151,181.759,213.62764,179.103Z" fill="#fc5150"/>
        <polygon points="228.132 236.148 230.9 236.059 231.304 230.157 228.132 230.157 228.132 236.148" fill="#f6c39c"/>
        <rect x="245.04711" y="228.74753" width="3.17149" height="5.99059" transform="translate(493.26571 463.48565) rotate(-180)" fill="#f6c39c"/>
        <path d="M227.42746,232.97625l1.37773-.13212,6.023-.57157c-.496-2.97647,2.32136-24.955,4.036-37.73171a1.15876,1.15876,0,0,1,2.29977.02426l1.57724,13.75814c.15363,1.32377.50144,4.03333.887,7.03948a93.383,93.383,0,0,1,.74412,12.54488l-.02969,3.65859,7.75125.35319s1.50983-17.55421,1.13774-29.57067a102.81009,102.81009,0,0,0-5.6887-30.69493l-.73339-2.10834c-4.74237,0-7.66226-.09706-9.46052-.22108a12.32082,12.32082,0,0,1-2.6745-.35319c-.22649-.0755-.19957-.12941-.19957-.12941-.03772.04853-.07813.09706-.11321.14558C222.526,183.96139,227.42746,232.97625,227.42746,232.97625Z" fill="#1776dc"/>
        <path d="M213.2555,171.12748s-2.4,2.8392-4.49574,2.26256-6.8422-.624-.53922-2.15687a47.94184,47.94184,0,0,0,4.96179-1.47848Z" fill="#f6c39c"/>
        <g>
          <path d="M221.639,240.68366a1.67838,1.67838,0,0,0,.2624.62483,1.66146,1.66146,0,0,0,.54922.53144c.676.36022,8.36519-2.05683,8.86772-2.21471l.02668-.00889.04-.72935-.03479-3.23156a.46183.46183,0,0,0-.49061-.456l-2.85-.03034c0,1.55652-2.66832,2.446-2.66832,2.446C222.086,238.56456,221.46783,239.78977,221.639,240.68366Z" fill="#080b4a"/>
          <path d="M221.639,240.68366a1.67838,1.67838,0,0,0,.2624.62483,1.66146,1.66146,0,0,0,.54922.53144c.676.36022,8.36519-2.05683,8.86772-2.21471l.02668-.00889.04-.72935S224.363,241.98446,221.639,240.68366Z" fill="#fff8f5"/>
        </g>
        <path d="M228.1893,138.81048s5.765,5.75,10.41432,2.96736c0,0-7.66251-10.42319-5.59714-10.47884s-.54221-2.34753-.54221-2.34753l-1.555,1.223Z" fill="#e27023"/>
        <polygon points="238.207 140.266 238.235 141.271 238.25 141.817 238.253 141.968 238.302 143.822 238.359 145.841 243.053 145.714 243 143.822 242.996 143.66 242.929 141.14 242.901 140.14 241.928 140.164 238.207 140.266" fill="#f6c39c"/>
        <path d="M245.74147,132.7275c.15366,5.70337-1.77382,9.20109-5.65464,9.30564-4.13075.11129-8.75172-6.06542-7.3733-11.60185,1.33218-5.35071,1.52854-7.72835,5.5209-7.83591S245.58781,127.02413,245.74147,132.7275Z" fill="#f6c39c"/>
        <path d="M240.50587,123.1409s-1.927,3.02581,3.69928,7.86443l.3559,1.07992a5.78253,5.78253,0,0,1-1.1472,5.604c-1.444,1.66184-2.64958,4.01862-.4168,5.97094,0,0,8.943-5.81824,10.41759-5.56442,0,0-3.28194-1.96637-3.74913-8.4117S244.0463,119.48454,240.50587,123.1409Z" fill="#e27023"/>
        <path d="M246.969,133.10887a2.05532,2.05532,0,0,1-2.76042,1.6641c-1.01292-.28917-1.06692-.91921-.5553-2.7113s1.7475-3.01044,2.76042-2.72127S247.4806,131.31678,246.969,133.10887Z" fill="#f6c39c"/>
        <ellipse cx="238.91183" cy="130.05357" rx="0.44015" ry="0.73223" transform="translate(-3.41593 6.48153) rotate(-1.54327)" fill="#554743"/>
        <ellipse cx="234.5119" cy="130.17211" rx="0.44015" ry="0.73223" transform="translate(-3.42072 6.36308) rotate(-1.54327)" fill="#554743"/>
        <path d="M236.71613,135.85363a4.722,4.722,0,0,1-1.96888-.42469.26955.26955,0,0,1,.24855-.4784h0a3.94762,3.94762,0,0,0,4.64311-.96048.26949.26949,0,1,1,.39125.37071A4.45078,4.45078,0,0,1,236.71613,135.85363Z" fill="#b26b39"/>
        <path d="M230.89246,130.18984h0c1.15737-.03118,2.52611-.06515,2.87823-1.16809.76912-2.40907,2.29244-6.85071,6.39939-5.05055l3.7246-1.47021s-3.02022-3.14759-7.09521-1.86363S230.5201,127.26445,230.89246,130.18984Z" fill="#e27023"/>
        <path d="M241.007,128.49258a.26932.26932,0,0,1-.23275-.13322,1.84461,1.84461,0,0,0-2.77639-.788.26964.26964,0,1,1-.307-.44338,2.379,2.379,0,0,1,3.54835.95864.26965.26965,0,0,1-.23222.406Z" fill="#b26b39"/>
        <path d="M232.58169,128.1245a.26959.26959,0,0,1-.16772-.48077,1.84492,1.84492,0,0,1,2.40594-.03976.26949.26949,0,0,1-.37071.39125c-.72642-.68745-1.66109.03949-1.70032.07082A.2668.2668,0,0,1,232.58169,128.1245Z" fill="#b26b39"/>
        <polygon points="237.732 142.477 237.794 144.667 242.884 144.529 242.827 142.477 237.732 142.477" fill="#080b4a"/>
        <ellipse cx="234.29928" cy="122.50257" rx="1.93813" ry="2.64291" fill="#ceeef7"/>
        <path d="M235.88942,129.96705l-1.95885,2.54821c-.27017.35146-.003.82488.5454.96632l1.25859.32462a.68437.68437,0,0,0,.85523-.6541l.03739-2.98051C236.64546,129.86825,236.09771,129.71639,235.88942,129.96705Z" fill="#d88d64"/>
        <ellipse cx="239.5851" cy="122.50257" rx="1.93813" ry="2.64291" fill="#ceeef7"/>
        <path d="M246.80959,169.54542l-.00263.0027C246.80156,169.5589,246.80419,169.5589,246.80959,169.54542Z" fill="#3a2f28"/>
        <path d="M211.99506,168.75547v4.6103s7.12172-.29926,11.697-4.6103c4.62916-4.36227,7.28147-8.49,7.70741-10.13729l.277,1.20516v.0054l2.43862,9.71669a23.66334,23.66334,0,0,0,7.46072,1.11348,13.36879,13.36879,0,0,0,5.22943-1.11079c.02692-.24535,1.93392-6.81841,3.10937-10.85445a9.40829,9.40829,0,0,0,.13259-4.92036c-.31819-1.25369-.194-2.75541,2.00878-3.08972,6.04191-.91666,16.84255-3.9282,22.59056-11.79538l-2.46684-3.1706s-12.48287,9.15322-21.28556,8.73263c0,0-10.52552-.72525-13.33752-.151-.44219.09167-.88971.15908-1.33994.2076-2.66647.28309-6.24009,1.20244-10.42982,10.83827C220.87193,166.65521,213.61271,168.75547,211.99506,168.75547Z" fill="#080b4a"/>
        <path d="M245.14166,134.86813a2.313,2.313,0,0,1-1.03578-.26382.13482.13482,0,0,1,.12059-.24117,1.82266,1.82266,0,0,0,2.48651-.7301c.83331-1.23483.91625-3.16948.16456-3.8335a1.14369,1.14369,0,0,0-.96548-.3249c-.886.14507-1.59527,1.36147-1.60238,1.37358a.13481.13481,0,1,1-.2338-.13428c.03133-.0545.7796-1.33883,1.79195-1.50523a1.39818,1.39818,0,0,1,1.18823.38862c.93889.82936.70246,2.96833-.11953,4.18657A2.16765,2.16765,0,0,1,245.14166,134.86813Z" fill="#b26b39"/>
        <path d="M244.871,132.99141a.26961.26961,0,0,1-.19167-.45918.69256.69256,0,0,0,.00105-1.02946.26963.26963,0,0,1-.04055-.32938c.064-.10663.63821-1.02973,1.33593-1.02973l.03028.00053a1.05113,1.05113,0,0,1,.86807.69508.26964.26964,0,1,1-.48235.24117c-.08873-.17746-.23117-.39046-.40626-.3973l-.01079-.00026c-.25249,0-.57344.34438-.76565.60846a1.23373,1.23373,0,0,1-.14744,1.62107A.26873.26873,0,0,1,244.871,132.99141Z" fill="#b26b39"/>
        <g opacity="0.3">
          <path d="M231.59541,180.97621a.13479.13479,0,0,1-.08294-.24091,7.49486,7.49486,0,0,0,3.0768-4.56492.138.138,0,0,1,.14744-.12059.13458.13458,0,0,1,.12059.14744c-.00974.10031-.27724,2.48335-3.179,4.75027A.13232.13232,0,0,1,231.59541,180.97621Z" fill="#fff"/>
        </g>
        <g opacity="0.3">
          <path d="M248.86458,180.88959a.13437.13437,0,0,1-.07714-.02422c-3.01835-2.10974-3.412-4.47487-3.42724-4.57439a.1348.1348,0,0,1,.26645-.04107,7.49117,7.49117,0,0,0,3.31508,4.3943.13481.13481,0,0,1-.07714.24539Z" fill="#fff"/>
        </g>
        <path d="M237.60789,139.41936a1.73184,1.73184,0,0,1-1.63766-.67823,1.99545,1.99545,0,0,1,.19325-1.75219.26959.26959,0,0,1,.4626.277c-.12427.20905-.4002.8341-.18615,1.21034.18983.33385.73984.40389,1.168.40389a.26961.26961,0,0,1,0,.53922Z" fill="#b26b39"/>
        <g opacity="0.3">
          <path d="M243.1346,145.35075a.13479.13479,0,0,1-.02738-.26671,18.399,18.399,0,0,1,6.24944-.22143,24.88722,24.88722,0,0,0,6.43164-.04976c5.83108-.79513,16.54907-8.2594,16.65649-8.3347a.13477.13477,0,0,1,.15481.22064c-.10821.07583-10.87939,7.57721-16.775,8.381a25.09777,25.09777,0,0,1-6.49325.05108,18.18569,18.18569,0,0,0-6.16888.217A.12565.12565,0,0,1,243.1346,145.35075Z" fill="#fff"/>
        </g>
        <g opacity="0.3">
          <path d="M212.93844,169.88513a.13485.13485,0,0,1-.01264-.26908c8.18015-.79145,11.71507-9.79859,11.74983-9.88942,1.62081-4.32216,4.42485-10.0682,8.5764-12.89224a7.1079,7.1079,0,0,1,4.37008-1.52787.13489.13489,0,0,1,.1198.148.13838.13838,0,0,1-.148.12006c-.06977-.00764-7.11488-.55554-12.66634,14.24766-.03554.0932-3.63155,9.25489-11.976,10.0624Z" fill="#fff"/>
        </g>
        <path d="M246.77458,129.48886a.13423.13423,0,0,1-.10268-.04739l-5.66178-6.65043a.13485.13485,0,0,1,.20537-.17482l5.66178,6.65043a.1348.1348,0,0,1-.10268.22222Z" fill="#e6f5fc"/>
        <path d="M238.3143,122.25208c-.00764-.009-.77223-.89018-1.44809-.78329-.30621.04713-.55923.2991-.752.7488l-.248-.10637a1.32042,1.32042,0,0,1,.95969-.90888c.82778-.1277,1.6582.83331,1.69322.87439Z" fill="#e6f5fc"/>
      </g>
    </g>
    <polygon points="242.475 268.347 245.613 268.224 240.75 257.543 238.308 258.953 242.475 268.347" fill="#b18b7d"/>
    <g>
      <path d="M235.38227,274.63564c.04373.09171.07377.14535.07377.14535l12.96218-4.66174a1.87536,1.87536,0,0,0,.03961-.21831,3.84731,3.84731,0,0,0-1.47376-3.94857,3.606,3.606,0,0,0-.85908-.5073s-.55006.26226-1.59735.72478c-.60448.2604-1.37673.59182-2.30112.978-.25331.10185-.51277.21666-.78512.32536-.38312.15922-.7852.32533-1.21583.5017q-.974.38243-2.09068.81633a.86823.86823,0,0,0-.14871.06423C233.67311,270.59992,235.01359,273.909,235.38227,274.63564Z" fill="#0d2d88"/>
      <rect x="245.21162" y="264.04944" width="1.51595" height="3.03191" rx="0.20221" ry="0.20221" transform="translate(468.17302 551.31295) rotate(-175.06321)" fill="#0d2d88"/>
      <path d="M239.38715,267.25609l.83844.71878.92291.77428a.63281.63281,0,0,0,.22664.12256.76255.76255,0,0,0,.84522-.218l.255-.30651a.75447.75447,0,0,0-.09208-1.06239l-.1567-.137-.73692-.61567-.86773-.74043a.75034.75034,0,0,0-1.06239.09208l-.25832.297A.76287.76287,0,0,0,239.38715,267.25609Z" fill="#0d2d88"/>
      <path d="M243.50546,266.61266l-.22594,4.80692.90956-.33787.33857-4.91186C244.23018,266.29834,243.88516,266.44392,243.50546,266.61266Z" fill="#4fa7db"/>
      <path d="M241.20977,272.1747l.97614-.36181.12624-4.69588-.08562.03079c-.25331.10185-.51277.21666-.78512.32536l-.06628,1.39854Z" fill="#4fa7db"/>
      <path d="M246.44822,270.4948l2.00963-.59387a3.84731,3.84731,0,0,0-1.47376-3.94857A8.54029,8.54029,0,0,0,246.44822,270.4948Z" fill="#4fa7db"/>
      <path d="M235.38227,274.63564l2.7108-1.093c-.64915-1.50643-.27492-3.81053-.10687-4.68716C233.67311,270.59992,235.01359,273.909,235.38227,274.63564Z" fill="#4fa7db"/>
      <rect x="234.95612" y="271.873" width="14.47232" height="1.64734" transform="translate(-77.99565 98.05342) rotate(-19.78069)" fill="#0c1031"/>
    </g>
    <polygon points="174.285 262.276 177.667 263.106 170.986 251.16 168.647 252.511 174.285 262.276" fill="#844529"/>
    <g>
      <path d="M162.32033,266.07143l15.27352.34419.44127-3.89782-8.36042-.46479a10.92393,10.92393,0,0,0-2.26515.04413,5.63341,5.63341,0,0,0-5.00686,3.68011A2.351,2.351,0,0,0,162.32033,266.07143Z" fill="#080b4a"/>
      <path d="M162.40268,265.77725h5.40988c.35007-2.09453.01176-3.15061-.403-3.68011A5.63341,5.63341,0,0,0,162.40268,265.77725Z" fill="#03092e"/>
      <path d="M173.58574,263.47388h0a.5532.5532,0,0,0,.55157-.5516v-1.98566a.55319.55319,0,0,0-.55157-.55157h0a.5532.5532,0,0,0-.5516.55157v1.98566A.55321.55321,0,0,0,173.58574,263.47388Z" fill="#1776dc"/>
      <rect x="162.24775" y="265.11635" width="15.76284" height="1.27475" transform="translate(340.25835 531.50744) rotate(-180)" fill="#0d2d88"/>
      <path d="M175.71849,263.10616h1.94891a.47943.47943,0,0,0,.478-.47805h0a.47943.47943,0,0,0-.478-.478h-1.94891a.47943.47943,0,0,0-.478.478h0A.47943.47943,0,0,0,175.71849,263.10616Z" fill="#1776dc"/>
      <path d="M171.99229,263.27774h0a.23358.23358,0,0,0,.2329-.23286v-1.37282a.23359.23359,0,0,0-.2329-.2329h0a.23357.23357,0,0,0-.2329.2329v1.37282A.23356.23356,0,0,0,171.99229,263.27774Z" fill="#1776dc"/>
      <path d="M170.84011,263.22872h0a.23359.23359,0,0,0,.2329-.2329V261.623a.23358.23358,0,0,0-.2329-.23286h0a.23356.23356,0,0,0-.2329.23286v1.37282A.23357.23357,0,0,0,170.84011,263.22872Z" fill="#1776dc"/>
    </g>
    <ellipse cx="129.11095" cy="254.54224" rx="24.53438" ry="2.00787" fill="#ceeef7"/>
    <ellipse cx="123.15902" cy="239.17454" rx="22.78193" ry="1.34804" fill="#ceeef7"/>
    <g>
      <rect x="124.70034" y="209.28977" width="1.3084" height="20.93437" transform="translate(250.70907 439.51392) rotate(-180)" fill="#66bfe2"/>
      <rect x="112.59766" y="230.22414" width="26.16796" height="0.9813" rx="0.34874" ry="0.34874" transform="translate(251.36327 461.42959) rotate(180)" fill="#66bfe2"/>
      <ellipse cx="139.41982" cy="235.94839" rx="1.6355" ry="3.76164" fill="#b5e1e8"/>
      <ellipse cx="130.26103" cy="235.94839" rx="1.6355" ry="3.76164" fill="#b5e1e8"/>
      <ellipse cx="120.44804" cy="235.94839" rx="1.6355" ry="3.76164" fill="#b5e1e8"/>
      <ellipse cx="111.94346" cy="235.94839" rx="1.6355" ry="3.76164" fill="#b5e1e8"/>
    </g>
    <path d="M111.624,211.40486h29.00147a7.20276,7.20276,0,0,1,7.20276,7.20276v1.15511a0,0,0,0,1,0,0h-43.407a0,0,0,0,1,0,0v-1.15511A7.20276,7.20276,0,0,1,111.624,211.40486Z" transform="translate(252.24944 431.16758) rotate(-180)" fill="#97e3f1"/>
    <polygon points="124.236 251.004 126.313 250.59 125.857 243.521 122.432 243.397 124.236 251.004" fill="#f4c28c"/>
    <g>
      <path d="M126.59787,248.382l.35693,4.37437s-7.788,1.89836-12.67072,1.9312c0,0-.709-3.59788,8.87218-4.496l-.06689-1.09126Z" fill="#29303f"/>
      <rect x="113.89516" y="253.12296" width="13.55185" height="1.24278" transform="translate(291.43727 476.87348) rotate(168.00625)" fill="#0d2d88"/>
    </g>
    <polygon points="130.573 249.42 133 249.42 133.539 241.601 130.034 244.567 130.573 249.42" fill="#f4c28c"/>
    <g>
      <path d="M129.99836,249.01439l.826,4.31049s8.90851.55262,12.72565-1.52789c0,0-.27907-3.65644-9.75142-1.95938l-.2274-1.0694Z" fill="#29303f"/>
      <rect x="130.26527" y="252.03523" width="13.55185" height="1.24278" transform="matrix(-0.99947, 0.03268, -0.03268, -0.99947, 282.26661, 500.69942)" fill="#0d2d88"/>
    </g>
    <polygon points="139.572 214.89 133.809 245.915 129.764 245.645 128.676 214.89 139.572 214.89" fill="#03092e"/>
    <path d="M123.15018,213.43586l3.10935,31.13085s-2.89307,3.1944-4.47861,1.34175l-9.3076-30.30013Z" fill="#03092e"/>
    <path d="M75.84271,179.05183c0-.26961,4.21287-3.48842,5.12256-4.853,1.07843-1.61765,1.07843-2.69609-2.69609-2.15687s-4.853,7.549-4.853,7.549Z" fill="#f2b288"/>
    <path d="M15.937,271.76029l2.79791-2.04388,32.63113-23.84962a.47291.47291,0,0,1,.592.73649L26.54034,268.78259l-2.0139,1.758c10.504-1.10809,26.198-1.81191,43.73662-1.81191,18.47016,0,34.8949.78051,45.36593,1.99182,10.45984-1.0081,25.41575-1.63944,42.02629-1.63944,31.6255,0,57.263,2.28766,57.263,5.10963s-25.6375,5.10963-57.263,5.10963c-13.416,0-25.75276-.4118-35.51264-1.10136a151.62637,151.62637,0,0,0-19.8294-.126c-9.1455.55233-20.175.875-32.05018.875C36.63757,278.94794,11,276.66028,11,273.83832,11,273.09833,12.76549,272.39518,15.937,271.76029Z" fill="#ceeef7"/>
    <path d="M112.23988,208.97838h28.57851l2.09239-44.20172a1.361,1.361,0,0,0-1.42-1.36214H112.09063a1.36247,1.36247,0,0,0-1.42055,1.348Z" fill="#66bfe2"/>
    <path d="M264.922,273.56978c4.255,0,8.40006.04175,12.39035.12031l-.072-.00564-60.95208-28.16084a.47347.47347,0,0,1,.30825-.89443l101.3525,32.119c2.72847.59586,4.23607,1.2478,4.23607,1.93125,0,2.822-25.63757,5.10963-57.26306,5.10963s-57.26307-2.28766-57.26307-5.10963S233.29651,273.56978,264.922,273.56978Z" fill="#ceeef7"/>
    <path d="M68.10116,188.43415,51.3695,245.20165a.47347.47347,0,0,0,.89507.3064l21.52369-55.00162Z" fill="#4fa7db"/>
    <path d="M205.79114,189.83189l9.65838,54.22156a.47617.47617,0,0,0,.93842-.11985l-4.57968-54.75887Z" fill="#4fa7db"/>
    <polygon points="240.182 275.823 242.943 275.255 241.166 266.626 237.504 266.697 240.182 275.823" fill="#b18b7d"/>
    <path d="M46.888,215.3105,36.7828,273.6233a.47347.47347,0,0,1-.93827-.12114l5.02637-58.84882Z" fill="#66bfe2"/>
    <path d="M265.95168,212.4914l10.1052,58.3128a.47347.47347,0,0,0,.93827-.12114l-5.02637-58.84882Z" fill="#66bfe2"/>
    <polygon points="274.421 211.225 212.048 186.081 53.826 185.522 37.616 211.225 274.421 211.225" fill="#ceeef7"/>
    <rect x="36.99395" y="211.22527" width="236.80468" height="5.28582" transform="translate(310.79258 427.73636) rotate(-180)" fill="#66bfe2"/>
    <polygon points="124.055 201.898 97.274 204.012 84.588 196.964 109.607 195.555 124.055 201.898" fill="#588cc9"/>
    <g>
      <rect x="66.58167" y="241.33296" width="1.3084" height="20.93437" transform="translate(134.47173 503.60029) rotate(-180)" fill="#97e3f1"/>
      <rect x="47.93699" y="239.37036" width="36.30805" height="4.25229" transform="translate(132.18204 482.99302) rotate(-180)" fill="#97e3f1"/>
      <path d="M47.83154,243.50009l2.20076-3.1094-26.44649-48.523a1.66236,1.66236,0,0,0-2.27083-.60847l-.23675.13669a1.66236,1.66236,0,0,0-.60847,2.27083Z" fill="#97e3f1"/>
      <rect x="54.47899" y="262.26733" width="26.16796" height="0.9813" rx="0.34874" ry="0.34874" transform="translate(135.12593 525.51596) rotate(180)" fill="#97e3f1"/>
      <ellipse cx="81.30115" cy="267.99157" rx="1.6355" ry="3.76164" fill="#97e3f1"/>
      <ellipse cx="72.14236" cy="267.99157" rx="1.6355" ry="3.76164" fill="#97e3f1"/>
      <ellipse cx="62.32937" cy="267.99157" rx="1.6355" ry="3.76164" fill="#97e3f1"/>
      <ellipse cx="53.82479" cy="267.99157" rx="1.6355" ry="3.76164" fill="#97e3f1"/>
    </g>
    <path d="M34.55192,195.796c.87392,7.68909,10.55047,31.16519,14.74386,40.55279a26.31524,26.31524,0,0,0,1.91353,3.93619c.21491-.61317,16.231-6.79758,15.9385-7.93931-.296-1.14173-11.65-24.1703-12.13274-26.76034-.0881-.46515-.27487-1.31793-.52505-2.40682-.733-3.17149-1.99806-8.33043-2.8191-11.64994-.46513-1.88879-.78939-3.18558-.78939-3.18558a10.44912,10.44912,0,0,0-6.21609-6.21613,4.5,4.5,0,0,0-1.20165-.20439c-1.83593-.05285-3.38292,1.12765-4.62686,2.74864-.01764.02467-.0317.04581-.0493.067a27.34218,27.34218,0,0,0-1.64924,2.44557,20.88894,20.88894,0,0,0-2.18126,4.9898,16.25871,16.25871,0,0,0-.4299,2.058c-.00705.05285-.01411.10924-.02116.16561A7.55783,7.55783,0,0,0,34.55192,195.796Z" fill="#0a106c"/>
    <path d="M58.29578,239.36876c1.81481.23259,3.6543.37,5.49376.4264a92.59126,92.59126,0,0,0,18.97608-1.58575c4.83828-.87744,8.02035-1.78308,8.02035-1.78308l.19028.35239,2.56771,4.7285a28.226,28.226,0,0,0,9.55621,10.283l20.34864,13.06324.04932.03172.97965-2.29052-.50038-.518-.10573-.11277-31.77481-33.061H63.96573C60.04013,228.90283,43.03035,237.40948,58.29578,239.36876Z" fill="#03092e"/>
    <g opacity="0.51">
      <polyline points="123.399 263.275 123.421 263.232 123.977 262.077 124.051 261.925 123.872 261.964" fill="#ceeef7"/>
    </g>
    <path d="M62.98256,225.305l19.418-13.29972a3.37821,3.37821,0,0,1,5.25082,2.29283l1.637,11.06679.52505,3.538.29952,2.03329.86335,5.8426,3.92208,26.496.14094.955-1.96278,1.63509s-14.14838-35.341-11.68167-41.33157-15.46631,15.16324-15.46631,15.16324l-1.21576.05639-13.53519.63429-.0881.00353-1.76194-3.87627Z" fill="#080b4a"/>
    <path d="M123.39947,262.07311l.02114,1.15937.01056.70828.01764.91269.007.38762,2.53014,1.79719s10.44478-8.43617,13.00665-14.35628c.57792-1.332.40523-1.74785-.22553-1.56813-2.18128.60962-9.85277,8.30226-11.39974,10.05362l-3.316.75764-.17972.03876Z" fill="#382b25"/>
    <path d="M37.13839,187.18364l.38413.52505,13.7858,4.82356s-3.771-5.74681-5.95928-9.33765l-2.39859-1.98591c-1.88726.53922-2.8696,1.84142-4.11353,3.46242-.01764.02467-.0317.04581-.0493.067A27.34218,27.34218,0,0,0,37.13839,187.18364Z" fill="#0a106c"/>
    <polygon points="233.979 204.8 219.883 209.028 197.683 205.857 212.131 202.333 233.979 204.8" fill="#fc5150"/>
    <path d="M48.48639,181.17381s-.83985,3.65446-4.263,2.28459c-2.1409-.85673-1.2492-2.16107-1.28228-3.74356l-.03778-1.80728S45.61052,174.60163,48.48639,181.17381Z" fill="#f2b288"/>
    <path d="M52.49082,168.70622a.53447.53447,0,0,0-.8393.57055l.84516,2.988A1.12069,1.12069,0,0,0,53.3,173.3025a.56887.56887,0,0,0,.48639-.00886c.43482-.41787,2.18946-2.08024,1.88805-2.32047C55.04119,170.47171,53.64268,169.60185,52.49082,168.70622Z" fill="#dd8e62"/>
    <path d="M43.95912,177.55445c.03238.08088.06207.16178.09709.24.1375.337.2804.65785.4314.9625,3.20292,6.565,12.496.83683,12.09159-.60559-.04311-.15638-.3613-.03775-.41791-.17793-.02429.01618-.04851.03235-.0728.04583a4.09489,4.09489,0,0,1-4.78016-1.36017,7.256,7.256,0,0,0,2.87855-.68619c.23453-.089.825-.44216.84924-.45294-.19681-.38016-2.11014-9.40931-5.67744-11.47414-1.60433-.92862-2.95889-.396-4.17854.0859C43.40609,164.83267,40.94221,169.76007,43.95912,177.55445Z" fill="#f2b288"/>
    <ellipse cx="50.9594" cy="170.06766" rx="0.40158" ry="0.93703" transform="translate(-56.54232 28.77629) rotate(-20.58532)" fill="#491600"/>
    <ellipse cx="42.43554" cy="173.89156" rx="2.58499" ry="4.13599" transform="translate(-78.6001 42.0226) rotate(-28.8331)" fill="#f2b288"/>
    <path d="M188.11357,177.12271l1.46435,1.95248s1.05716-5.28582,2.11433-6.69537.70478,5.28582.70478,5.28582l.48437.157a2.78339,2.78339,0,0,1,1.88578,3.28782l-.00831.03186-.92822,3.48078c2.86646,2.238,17.94772,17.00491,17.94772,17.00491a1.54344,1.54344,0,0,1-.70478,2.11433c-1.40955.70478-10.39544-1.62123-10.39544-1.62123L189.57792,184.7134a27.38244,27.38244,0,0,1-2.11433-5.63821,10.20968,10.20968,0,0,1-.1566-1.68148A.4481.4481,0,0,1,188.11357,177.12271Z" fill="#844529"/>
    <path d="M187.46359,186.47534s24.50032,12.65792,25.01954,15.85746c.40346,2.48617.11755,3.18842-2.8191,3.17149-5.66719-.03267-15.10057-4.53763-20.36693-8.6245Z" fill="#0d2d88"/>
    <path d="M147.82821,205.46573c-.19557.03535-11.27516-5.24326.1483-9.91567a27.2509,27.2509,0,0,1,6.07269-1.66588l12.93515-2.04235-6.30225,5.90993Z" fill="#844529"/>
    <path d="M169.122,187.08484,150.2927,198.71676a13.023,13.023,0,0,0-4.65643,4.96958h0c-.50911.95833.35827,1.55571,1.42372,1.76165,5.71105,1.1039,14.31659-1.30916,17.6637-3.88386Z" fill="#0d2d88"/>
    <rect x="140.596" y="259.06725" width="3.17149" height="11.27641" transform="translate(284.36348 529.41092) rotate(-180)" fill="#844529"/>
    <path d="M152.41879,224.31938c-1.5031-3.46249.41153-5.28618,4.14964-5.81024,2.30817-.32359,4.6774-.16916,6.21112,1.22178l15.67038,11.81014-6.3917,7.04782-10.5146-9.53572,14.29115,29.30932-3.87627,1.40955Z" fill="#0d2d88"/>
    <path d="M134.253,227.41124l5.63821,36.58944s3.43685,3.112,4.22866-.35239c1.74495-7.63456,1.64-24.074-1.18438-32.51742Z" fill="#1776dc"/>
    <path d="M171.99482,260.48021s2.87072-.45059,4.08078-2.11125l-.96211-2.27135-4.68015,1.59973Z" fill="#1776dc"/>
    <polygon points="140.948 233.695 176.54 231.229 196.273 239.334 166.32 242.153 140.948 233.695" fill="#0d2d88"/>
    <rect x="175.11715" y="243.79968" width="1.3084" height="20.93437" transform="translate(351.54269 508.53372) rotate(-180)" fill="#97e3f1"/>
    <rect x="163.01447" y="264.73405" width="26.16796" height="0.9813" rx="0.34874" ry="0.34874" transform="translate(352.19689 530.44939) rotate(180)" fill="#97e3f1"/>
    <ellipse cx="189.83663" cy="270.45829" rx="1.6355" ry="3.76164" fill="#97e3f1"/>
    <ellipse cx="180.67784" cy="270.45829" rx="1.6355" ry="3.76164" fill="#97e3f1"/>
    <ellipse cx="170.86485" cy="270.45829" rx="1.6355" ry="3.76164" fill="#97e3f1"/>
    <g opacity="0.3">
      <path d="M170.86475,254.677a.13458.13458,0,0,1-.11558-.06556l-5.68758-9.48633a.13474.13474,0,1,1,.23117-.13849l5.68758,9.48633a.13445.13445,0,0,1-.04634.18483A.13239.13239,0,0,1,170.86475,254.677Z" fill="#fff"/>
    </g>
    <ellipse cx="162.36027" cy="270.45829" rx="1.6355" ry="3.76164" fill="#97e3f1"/>
    <polygon points="165.968 247.438 140.948 238.629 140.948 233.695 165.968 241.8 165.968 247.438" fill="#ceeef7"/>
    <path d="M134.27228,226.69167a1.78154,1.78154,0,0,0,1.162,1.60956L162.929,240.36081a1.72427,1.72427,0,0,0,2.29707-.95171l4.26523-10.8814-13.05989-3.40786-14.03577-3.664a5.91245,5.91245,0,0,0-1.51253-.39094c-3.21641-.41519-6.1201,1.53407-6.54071,4.10075a3.6949,3.6949,0,0,0-.05391.57427Z" fill="#1776dc"/>
    <path d="M172.17714,170.98944a18.97634,18.97634,0,0,1-2.53762-.2874c-.12941-1.526-.14823-3.0277-.14823-3.96055,0-7.40074,1.25365-9.528,9.33921-8.10443,5.46188.9616,10.04292,2.90909,10.04292,8.45762,0,4.26279-2.975,6.805-6.86962,7.754l-.74412,2.04632-4.31374.80883-.49724-.29835a9.175,9.175,0,0,0-4.126-1.23063,1.92243,1.92243,0,0,1-1.62085-.81662,8.97692,8.97692,0,0,1-.91131-3.25148c.53753-.21437,1.62757-.57684,2.42509-.83617A.144.144,0,0,0,172.17714,170.98944Z" fill="#844529"/>
    <path d="M171.85676,164.007a.41579.41579,0,0,0,.71187.23326c.484-.54946,1.23992-.81111,2.209.7394,1.87764,3.00423-1.05716,10.924,5.99059,11.98119,4.81163.72174,10.73722-7.19421,9.86686-11.98119-.70478-3.87627-2.775-8.9329-10.21925-9.51447C165.96793,154.33649,171.286,160.15687,171.85676,164.007Z" fill="#03092e"/>
    <rect x="175.83479" y="176.96086" width="5.63821" height="5.63821" transform="translate(357.30778 359.55994) rotate(-180)" fill="#844529"/>
    <path d="M169.79021,163.61952l-1.74135,4.09059c-.25031.71577.42955,1.11037,1.02166,1.58406l.77367.61894Z" fill="#6d3321"/>
    <path d="M171.07776,163.26395a.22236.22236,0,0,0,.19044-.3368c-.07578-.12627-.76143-1.23677-1.48291-1.32569a.73862.73862,0,0,0-.62691.22573.22234.22234,0,0,0,.31443.31443.29053.29053,0,0,1,.25808-.09869c.38392.04723.91278.7078,1.156,1.1131A.22212.22212,0,0,0,171.07776,163.26395Z" fill="#28211d"/>
    <polygon points="182.002 181.718 175.306 181.718 173.897 183.48 183.059 183.48 182.002 181.718" fill="#0d2d88"/>
    <path d="M175.13,182.95146l-13.03835,8.45731.30715,36.85781a5.47436,5.47436,0,0,0,5.47417,5.42874h17.1239l9.16209-43.26094-11.98119-7.48293Z" fill="#080b4a"/>
    <path d="M165.96793,247.43845l30.01515-3.70974a1.65079,1.65079,0,0,0,1.44411-1.52071l3.28865-46.0411a1.81006,1.81006,0,0,0-1.80546-1.939H165.96793Z" fill="#97e3f1"/>
    <polygon points="165.968 247.438 168.435 247.086 168.435 195.285 165.968 194.228 165.968 247.438" fill="#ceeef7"/>
    <path d="M45.63547,179.591c1.307,3.1037,7.10632,5.12256,9.92424,2.76349,1.22777-1.02785,2.15066-2.23835,1.2891-4.20321a5.18535,5.18535,0,0,0-1.0921-1.526,5.14424,5.14424,0,0,1-3.82363.26961c.74952.151,3.37088-1.04072,3.6216-1.14857-.25342-.30736-.77515-1.70653-.97735-1.85483A16.02808,16.02808,0,0,1,49.79,175.1762a3.37129,3.37129,0,0,1-3.065-1.24694C44.23909,171.86787,44.842,177.70669,45.63547,179.591Z" fill="#491600"/>
    <polygon points="229.398 236.867 264.989 234.4 284.723 242.505 254.77 245.324 229.398 236.867" fill="#080b4a"/>
    <rect x="267.0904" y="243.79968" width="1.3084" height="20.93437" transform="translate(535.48919 508.53372) rotate(-180)" fill="#97e3f1"/>
    <rect x="254.98771" y="264.73405" width="26.16796" height="0.9813" rx="0.34874" ry="0.34874" transform="translate(536.14339 530.44939) rotate(180)" fill="#97e3f1"/>
    <ellipse cx="281.80988" cy="270.45829" rx="1.6355" ry="3.76164" fill="#97e3f1"/>
    <ellipse cx="272.65109" cy="270.45829" rx="1.6355" ry="3.76164" fill="#97e3f1"/>
    <ellipse cx="262.8381" cy="270.45829" rx="1.6355" ry="3.76164" fill="#97e3f1"/>
    <ellipse cx="254.33351" cy="270.45829" rx="1.6355" ry="3.76164" fill="#97e3f1"/>
    <polygon points="260.618 247.446 238.157 239.71 237.998 234.779 261.47 241.073 260.618 247.446" fill="#ceeef7"/>
    <path d="M250.87931,200.269s-3.25033,4.76065-10.77864,4.48944a42.0518,42.0518,0,0,1-11.68034-1.77336l.56407-3.29511s17.30679,1.26678,19.96074-2.34891Z" fill="#d6947f"/>
    <path d="M243.49346,198.80874l.10782.61472.86273,4.88531h0a.39633.39633,0,0,0,.545.29626l12.78449-5.41882.45292-.19143,2.68529-1.13774,2.07867-.88163.92211-.38824,1.41-.59852,6.31795-5.78255s-1.66761-8.45818-15.64373,2.33964h0Z" fill="#0d2d88"/>
    <path d="M221.28306,232.9304l1.26451,1.84413,4.20855,6.139L241.412,262.29886l.21037.30736,2.64211-1.13236-7.85637-19.90519-3.33239-8.44414,22.88171-6.06349,8.77571,1.348,3.73411.57427a7.3658,7.3658,0,0,0-.23183-3.95787,11.92089,11.92089,0,0,0-1.28064-2.839c-.83581-1.37232-2.70418-2.08677-5.225-2.33212-.53922-.05391-1.10812-.08358-1.70658-.09436-.25618-.0054-.51769-.0054-.7846-.0027-1.12695.0081-2.33209.08358-3.5993.2076-13.07865,1.29412-32.36376,8.12869-32.36376,8.12869A3.12336,3.12336,0,0,0,221.28306,232.9304Z" fill="#0d2d88"/>
    <g>
      <path d="M271.309,182.28713s.146,4.58335,3.11167,5.66178l-5.53815,1.07843s-2.42648-5.12256-2.15687-5.93139Z" fill="#c58978"/>
      <g>
        <g>
          <path d="M258.80867,175.01476c-.42784,6.17714,3.77434,8.86369,8.10917,9.16393s7.1608-1.89953,7.58864-8.07666-2.7394-11.42809-7.07423-11.72833S259.23652,168.83763,258.80867,175.01476Z" fill="#c58978"/>
          <path d="M261.15166,172.24266l-2.16875,3.69379a.91425.91425,0,0,0,.52125,1.33725l2.16667.662.24027-5.44068A.41212.41212,0,0,0,261.15166,172.24266Z" fill="#b56758"/>
          <ellipse cx="264.29727" cy="173.19809" rx="0.39339" ry="0.98346" fill="#554743"/>
          <ellipse cx="259.97003" cy="172.41131" rx="0.39339" ry="0.98346" fill="#554743"/>
          <path d="M262.85166,180.25473a3.76686,3.76686,0,0,0,2.77525-1.23291.19151.19151,0,0,0-.29885-.23957h0a3.41208,3.41208,0,0,1-4.10242.73068.19148.19148,0,1,0-.15092.352A4.48724,4.48724,0,0,0,262.85166,180.25473Z" fill="#554743"/>
          <path d="M265.66393,171.35634a.19145.19145,0,0,0,.17767-.26248,1.684,1.684,0,0,0-1.03486-.9853,1.52656,1.52656,0,0,0-1.36158.57386.19149.19149,0,0,0,.2708.2708,1.18693,1.18693,0,0,1,1.01251-.46969c.48774.099.75508.74648.7577.753A.192.192,0,0,0,265.66393,171.35634Z" fill="#554743"/>
          <path d="M261.10772,170.06788a.1915.1915,0,0,0,.16551-.28754c-.01917-.033-.47652-.80979-1.11434-.82783a1.113,1.113,0,0,0-.93527.61379.19153.19153,0,1,0,.32.21058c.19646-.29876.39919-.44361.60444-.44145.35412.01.69309.46324.7938.637A.19146.19146,0,0,0,261.10772,170.06788Z" fill="#554743"/>
        </g>
        <path d="M272.72281,182.08891a17.04638,17.04638,0,0,1-3.76644-8.3786s-3.19951-4.62451-2.03852-6.9465c0,0-4.07911.45117-4.47764-.35491s6.56742-7.53983,13.53338-1.73487C282.03325,169.72375,279.921,180.23132,272.72281,182.08891Z" fill="#492115"/>
        <path d="M268.77544,174.89076c0,1.53888-.6966,2.78638,1.27709,2.78638.70532,0,1.27709-1.2475,1.27709-2.78638s-.5766-2.704-1.27709-2.78638C268.07884,171.87218,268.77544,173.35189,268.77544,174.89076Z" fill="#b56758"/>
        <circle cx="280.18371" cy="167.69947" r="4.01534" fill="#492115"/>
      </g>
    </g>
    <path d="M259.44618,217.60586c-.47987.81835-.45023,1.11887.577,2.15417.25342.25883.53922.52034.84924.78187a31.847,31.847,0,0,0,5.08748,3.30271.58353.58353,0,0,0,.0701.03773c.72523.39094,1.464.77378,2.20545,1.14314,4.75587,2.35369,9.48481,4.09,9.48481,4.09l2.03981-38.635a3.57327,3.57327,0,0,0-3.27672-3.75057c-3.94095-.32207-2.89453,1.38281-5.15373,1.5075-4.384.242-2.15438-1.2135-3.86539-1.15217-4.21452.15107-6.83085,5.25927-7.21865,11.28863C259.815,205.0677,264.02143,209.80338,259.44618,217.60586Z" fill="#1776dc"/>
    <path d="M284.78939,188.48813l-8.35787-1.88726s-2.69609,2.69609-1.88726,5.66178,5.93139.80883,6.74022.53922S284.78939,188.48813,284.78939,188.48813Z" fill="#0a106c"/>
    <path d="M266.39848,192.46593,283.3131,190.704l1.40955,3.341c-1.66208,1.15709-13.27309.69613-14.58444.64012-.16988.14287-.35223.28147-.535.41165a5.66253,5.66253,0,0,1-2.11179.87451c-.61943.13421-1.44534.76741-1.44534,3.19007,0,4.3588-2.46672-.70478-2.46672-.70478S260.70345,193.383,266.39848,192.46593Z" fill="#d6947f"/>
    <path d="M275.35308,195.21407l14.37088.1567a3.98834,3.98834,0,0,0,1.12085-.07248c11.73874-3.30525,5.26813-9.77586-1.62822-8.78925l-13.86351,3.17426Z" fill="#0d2d88"/>
    <path d="M228.693,203.03757s-3.92273-2.57329-5.63821-1.76194c-.50723.2399.59951.91531.35239,1.40955-.35239.70478-2.8191-1.05716-2.46672-1.76194,1.40955-2.8191,2.85049-2.073,3.52388-2.11433a35.1461,35.1461,0,0,1,5.28582,1.05716S230.78176,202.55636,228.693,203.03757Z" fill="#d6947f"/>
    <path d="M229.67291,230.18759a6.39311,6.39311,0,0,1,1.63635-.35355l34.73684-6.00559-4.0502,14.13752-26.01395,3.6608c4.05863,10.37484,7.07705,29.88922,7.07705,29.88922l-4.33951,1.36432-13.11488-35.04038C224.28529,235.09274,226.14989,231.42459,229.67291,230.18759Z" fill="#03092e"/>
    <path d="M260.35767,247.00693l24.09674-4.42136,10.098-47.35519a1.28591,1.28591,0,0,0-1.31306-1.55289l-23.22669,1.00213Z" fill="#97e3f1"/>
    <polygon points="260.321 247.091 262.493 246.619 271.66 196.041 270.013 194.68 260.321 247.091" fill="#ceeef7"/>
    <path d="M139.89122,265.41023s2.8191.70478,4.581-.35239v-2.46672l-4.93343-.35239Z" fill="#4fa7db"/>
    <path d="M47.1968,184.4103,65.328,191.993,73.14663,176.895l3.2353,1.88726s-5.93139,20.22065-9.16669,20.75986-15.36769-7.00982-15.36769-7.00982Z" fill="#080b4a"/>
    <path d="M43.42895,179.86065c-.5252.308-11.12386-3.716-9.74318-11.64843a5.93344,5.93344,0,0,1,1.91215-3.37246l.60089-.53963,7.29087,2.88892.08135.34435a4.06066,4.06066,0,0,1-.44565,2.8856.45849.45849,0,0,0-.0744.28282C43.3908,172.64669,45.29985,178.7634,43.42895,179.86065Z" fill="#604138"/>
    <path d="M44.56811,176.08613s-1.88726,2.15687-3.77452-.80883-1.348-5.66178.26961-5.39217a3.72247,3.72247,0,0,1,2.42648,1.88726Z" fill="#dd8e62"/>
    <g opacity="0.56">
      <path d="M176.21085,159.70267a.40455.40455,0,0,1-.3823-.53606,1.47818,1.47818,0,0,1,.98944-1.06185,1.95458,1.95458,0,0,1,1.51207.37282,1.98929,1.98929,0,0,1,1.4681-.41047,1.68012,1.68012,0,0,1,1.105.7251.4044.4044,0,0,1-.68455.43074.89324.89324,0,0,0-.55817-.3586,1.43028,1.43028,0,0,0-1.0708.43127.4044.4044,0,0,1-.52447-.00685c-.1556-.13428-.68376-.49841-1.04-.402-.1793.04818-.32464.23091-.43206.54317A.40441.40441,0,0,1,176.21085,159.70267Z" fill="#6d5951"/>
    </g>
    <g opacity="0.56">
      <path d="M186.49257,163.36977a.40448.40448,0,0,1-.37835-.26171.87469.87469,0,0,0-.46365-.46734,1.19115,1.19115,0,0,0-.96259.21853.4035.4035,0,0,1-.53421-.10874c-.14823-.20115-.55607-.60715-.84384-.58687-.18588.015-.34017.242-.4368.43a.40449.40449,0,0,1-.71931-.37019,1.36629,1.36629,0,0,1,1.09423-.86622,1.79516,1.79516,0,0,1,1.32961.64638,1.75611,1.75611,0,0,1,1.348-.12348,1.66454,1.66454,0,0,1,.94653.94574.40429.40429,0,0,1-.37966.544Z" fill="#6d5951"/>
    </g>
    <g opacity="0.56">
      <path d="M178.7982,163.28657a.40449.40449,0,0,1-.35676-.21326c-.07451-.13691-.33359-.49946-.63742-.53737a.87839.87839,0,0,0-.68376.37071.40415.40415,0,0,1-.60188-.00922c-.27672-.31621-.72168-.63347-.89808-.58371-.05713.0158-.17272.14771-.24354.54159a.40448.40448,0,0,1-.79619-.14323c.11953-.664.397-1.06027.82515-1.17822a1.67554,1.67554,0,0,1,1.42966.53658,1.41888,1.41888,0,0,1,1.07475-.33622,1.85777,1.85777,0,0,1,1.2451.95837.40438.40438,0,0,1-.357.594Z" fill="#6d5951"/>
    </g>
    <g opacity="0.56">
      <path d="M186.75613,167.51526a.40449.40449,0,0,1-.35676-.21326c-.07451-.13691-.33359-.49946-.63742-.53737a.874.874,0,0,0-.68376.37071.37938.37938,0,0,1-.303.1298.40469.40469,0,0,1-.29883-.139c-.27672-.31621-.72273-.63295-.89808-.58371-.05713.0158-.17272.14771-.24354.54159a.40448.40448,0,0,1-.79619-.14323c.11953-.664.397-1.06027.82515-1.17822a1.67571,1.67571,0,0,1,1.42966.53658,1.41768,1.41768,0,0,1,1.07475-.33622,1.85777,1.85777,0,0,1,1.2451.95837.40438.40438,0,0,1-.357.594Z" fill="#6d5951"/>
    </g>
    <g opacity="0.56">
      <path d="M184.99709,159.39357a.40387.40387,0,0,1-.36071-.22116.9074.9074,0,0,0-.69666-.48366c-.07214,0-.2912,0-.30041.30594a.40739.40739,0,0,1-.40441.39546h-.00395a.40193.40193,0,0,1-.40046-.401,1.078,1.078,0,0,1,1.10924-1.10924,1.70759,1.70759,0,0,1,1.41887.92836.40438.40438,0,0,1-.3615.58529Z" fill="#6d5951"/>
    </g>
    <g opacity="0.56">
      <path d="M189.93061,165.03165a.40416.40416,0,0,1-.36071-.22116.90813.90813,0,0,0-.69666-.48366c-.07214,0-.2912,0-.30041.30594a.40739.40739,0,0,1-.40441.39546h-.00606a.4015.4015,0,0,1-.39836-.401,1.078,1.078,0,0,1,1.10924-1.10924,1.70809,1.70809,0,0,1,1.41887.92836.40438.40438,0,0,1-.3615.58529Z" fill="#6d5951"/>
    </g>
    <path d="M43.20633,174.35025a.22237.22237,0,0,0,.12616-.40563,1.25285,1.25285,0,0,1-.42691-1.56586.22228.22228,0,0,0-.0367-.24451c-.10575-.11639-1.05708-1.12787-1.801-.89791-.36416.113-.59173.48033-.6762,1.09171a.22229.22229,0,1,0,.44038.061c.04061-.29261.13724-.65644.36763-.72788.33658-.10532.92614.35678,1.24274.671a1.68443,1.68443,0,0,0,.63885,1.97942A.22119.22119,0,0,0,43.20633,174.35025Z" fill="#8c5937"/>
    <polygon points="122.228 146.823 120.671 146.625 120.893 145.291 122.228 145.514 122.228 146.823" fill="#3563a9"/>
    <rect x="124.78475" y="161.83204" width="4.66956" height="5.33664" transform="translate(254.23905 329.00073) rotate(-180)" fill="#f2b288"/>
    <path d="M119.65751,151.95517c.92714-4.50678,4.07927-7.8256,7.82709-7.8256,3.681,0,7.22391,3.137,8.36743,7.49806,1.1878-.25662,1.85183,1.31036,1.85183,2.7212a3.16847,3.16847,0,0,1-1.78518,2.84913c-1.00373,3.74864-4.20763,5.00665-6.79792,6.30179-3.36021,1.68009-7.94-1.54562-9.32588-6.07731a3.48474,3.48474,0,0,1-2.68157-3.26182C117.11332,152.63089,117.9615,150.89043,119.65751,151.95517Z" fill="#f6c39c"/>
    <path d="M135.91116,156.02057a.13344.13344,0,0,1-.138-.05428.321.321,0,0,1-.06935-.30273,1.70307,1.70307,0,0,0-.275-1.56334.33818.33818,0,0,1-.06017-.238c.02212-.1312.23292-1.278.73713-1.21182.247.03281.4999.33311.75169.89261.05019.11136.03869.23445-.02576.275-.06487.03978-.15717-.017-.20717-.12822-.12061-.26774-.2971-.59131-.45333-.612-.22854-.03112-.41394.52417-.49154.88467a2.31041,2.31041,0,0,1,.2906,1.99633A.10284.10284,0,0,1,135.91116,156.02057Z" fill="#d79161"/>
    <path d="M134.22352,155.232h-3.53466a1.52947,1.52947,0,0,1-1.52787-1.52761v-1.64477a1.52947,1.52947,0,0,1,1.52787-1.52761h3.53466a1.52947,1.52947,0,0,1,1.52787,1.52761v1.64477A1.52947,1.52947,0,0,1,134.22352,155.232Zm-3.53466-3.89116a.71976.71976,0,0,0-.719.71878v1.64477a.71976.71976,0,0,0,.719.71878h3.53466a.71976.71976,0,0,0,.719-.71878v-1.64477a.71976.71976,0,0,0-.719-.71878Z" fill="#fff"/>
    <path d="M129.12077,151.4923c.33516.16758,1.18936,2.31215,1.33416,4.00248.04229.49371-1.72809,2.2236-2.2236,2.2236h-.66708S128.23133,151.04757,129.12077,151.4923Z" fill="#f2b288"/>
    <path d="M126.88564,155.232H123.351a1.52947,1.52947,0,0,1-1.52787-1.52761v-1.64477A1.52947,1.52947,0,0,1,123.351,150.532h3.53466a1.52947,1.52947,0,0,1,1.52787,1.52761v1.64477A1.52947,1.52947,0,0,1,126.88564,155.232Zm-3.53466-3.89116a.71976.71976,0,0,0-.719.71878v1.64477a.71976.71976,0,0,0,.719.71878h3.53466a.71976.71976,0,0,0,.719-.71878v-1.64477a.71976.71976,0,0,0-.719-.71878Z" fill="#fff"/>
    <rect x="128.12015" y="151.4923" width="1.77888" height="1.1118" transform="translate(258.01918 304.09639) rotate(-180)" fill="#fff"/>
    <path d="M128.23421,159.486a3.84276,3.84276,0,0,1-2.97254-1.27564.40444.40444,0,0,1,.60293-.53922c1.6682,1.86435,4.388.58556,4.4151.57239a.40439.40439,0,0,1,.3507.72879A6.21135,6.21135,0,0,1,128.23421,159.486Z" fill="#d79161"/>
    <g>
      <path d="M120.67108,152.82646l-1.816-1.18582s-1.51945-4.37319,1.14888-5.92971,3.78012.66708,3.78012.66708A14.555,14.555,0,0,0,120.67108,152.82646Z" fill="#363c49"/>
      <path d="M135.79157,151.71466s-2.2236-8.89441-12.00745-5.33664l-2.66832-1.1118s6.10831-4.39491,12.67453-1.1118C137.79282,146.15565,137.79282,148.15689,135.79157,151.71466Z" fill="#363c49"/>
    </g>
    <path d="M132.72251,150.08206c-.80962,0-1.70085-.08557-1.84961-.10031a.26963.26963,0,1,1,.05371-.53658,11.356,11.356,0,0,0,2.7785.01237.26976.26976,0,0,1,.17061.51184A4.23133,4.23133,0,0,1,132.72251,150.08206Z" fill="#363c49"/>
    <path d="M123.78409,149.76059a.26962.26962,0,0,1-.10005-.52,8.04081,8.04081,0,0,1,3.48832-.014.26959.26959,0,1,1-.10584.52869,7.69976,7.69976,0,0,0-3.18238-.014A.267.267,0,0,1,123.78409,149.76059Z" fill="#363c49"/>
    <path d="M119.5463,156.16368a.22237.22237,0,0,0,.25382-.34063,1.25285,1.25285,0,0,1,.11783-1.61873.22228.22228,0,0,0,.04666-.24281c-.06105-.14492-.62208-1.4151-1.40017-1.4455-.381-.01444-.71774.25634-1.00063.80488a.22229.22229,0,1,0,.39506.20393c.13556-.26247.34763-.5735.58867-.5643.35245.01255.75489.64433.94905,1.04591a1.68443,1.68443,0,0,0-.05541,2.07922A.22119.22119,0,0,0,119.5463,156.16368Z" fill="#d79161"/>
    <path d="M133.568,145.26621c3.68954,2.15223.88944,3.113-1.1118,3.113s-9.11677-2.00124-9.11677-2.00124S128.23133,142.15317,133.568,145.26621Z" fill="#363c49"/>
    <path d="M101.26412,184.03689a20.70226,20.70226,0,0,0,2.04629.53652,18.14615,18.14615,0,0,0,4.47283.612l3.602-3.09512,2.19728-1.88726.19411,5.45689,25.79613.44484.7819-5.66448,3.21911,5.54047,2.91179.03773,3.22991.04315-7.13653-14.50494a5.4713,5.4713,0,0,0-3.92552-2.92256L129.12,166.91944h-4.66957l-9.32848,1.84681a5.47869,5.47869,0,0,0-3.00881,1.708l-10.12382,11.27032-.50144.55573-.31279.34661-.47451.60873-.20491.26123C100.35551,183.657,100.68172,183.84276,101.26412,184.03689Z" fill="#0a106c"/>
    <path d="M130.10879,165.97581l-3.04044.71253v2.05927a.6991.6991,0,0,0,1.1496.5346l2.81383-2.10159Z" fill="#d3e2f4"/>
    <path d="M123.81546,165.99572l3.053.65649.03787,2.05892a.6991.6991,0,0,1-1.13958.55565l-2.857-2.04944Z" fill="#d3e2f4"/>
    <g opacity="0.3">
      <path d="M241.63464,271.332a.1348.1348,0,0,1-.13007-.09926l-8.18989-29.94235-1.62292-.81172a.57313.57313,0,0,1,.12243-1.07054,7.24793,7.24793,0,0,1,2.71952-.23091c.13112.02554.16034-.01422.16982-.02712.21853-.29962-.446-1.80959-.98813-2.78613a.13481.13481,0,0,1,.09821-.19852l30.19616-4.4933a.13468.13468,0,1,1,.03949.26645l-30.005,4.46513c.3486.64954,1.23614,2.41331.877,2.9054a.40192.40192,0,0,1-.44022.13243,7.0227,7.0227,0,0,0-2.60472.2288.30355.30355,0,0,0-.064.56713l1.67689.83858a.13573.13573,0,0,1,.06977.085l8.20569,30.00054a.13495.13495,0,0,1-.09452.16561A.139.139,0,0,1,241.63464,271.332Z" fill="#fff"/>
    </g>
    <g opacity="0.3">
      <path d="M93.7717,263.43932a.13459.13459,0,0,1-.12928-.09715L82.85808,226.40579a.13322.13322,0,0,1,.00869-.09794l1.3046-2.6092L82.892,222.41932a.13476.13476,0,0,1-.03344-.13507l.93494-3.03889L81.46,221.34589a.13617.13617,0,0,1-.12085.03107.13444.13444,0,0,1-.09452-.08136l-1.006-2.51494c-6.08541,5.57332-21.387,19.67116-21.92123,20.54423a.13494.13494,0,0,1-.22933.07978.15447.15447,0,0,1-.04186-.10558c.01132-.51894,15.4967-14.75317,22.154-20.84912a.12984.12984,0,0,1,.12111-.03186.13418.13418,0,0,1,.095.08136l1.00682,2.51679,2.55233-2.29747a.13482.13482,0,0,1,.21906.14007l-1.05448,3.42724,1.29065,1.29065a.135.135,0,0,1,.02528.1556L83.13164,226.381,93.901,263.26686a.13514.13514,0,0,1-.12928.17245ZM58.28078,239.21614Zm-.00053-.00053Zm-.00079-.00079.00026.00026Zm-.00079-.00079.00053.00053Z" fill="#fff"/>
    </g>
    <path d="M96.96014,265.65043a.26924.26924,0,0,1-.24249-.15192c-.68139-1.40544-2.83431-6.063-1.93676-6.99534.1535-.15955.44865-.29962.98549-.06451,2.63869,1.15768,1.50707,6.75917,1.45783,6.99692a.26975.26975,0,0,1-.23091.21274A.28419.28419,0,0,1,96.96014,265.65043ZM95.254,258.8515a.1162.1162,0,0,0-.08478.02554c-.39493.41021.511,3.08128,1.6632,5.59964.20589-1.56262.41021-4.80135-1.28248-5.54409A.81532.81532,0,0,0,95.254,258.8515Z" fill="#4fa7db"/>
    <path d="M97.00674,265.731a.26955.26955,0,0,1-.065-.53106,7.20007,7.20007,0,0,0,3.86457-3.12393,3.04593,3.04593,0,0,0,0-2.70267.26966.26966,0,0,1,.48972-.2259,3.56283,3.56283,0,0,1-.00342,3.16158,7.7192,7.7192,0,0,1-4.22027,3.41381A.26773.26773,0,0,1,97.00674,265.731Z" fill="#4fa7db"/>
    <path d="M124.93045,262.04257a.26974.26974,0,0,1-.22959-.12822c-.7667-1.24562-2.48572-4.22369-1.89437-4.97617.11348-.14481.34254-.28646.78618-.14244,2.03839.66007,1.6245,4.82821,1.6058,5.0054a.26974.26974,0,0,1-.20826.23485A.27345.27345,0,0,1,124.93045,262.04257Zm-1.675-4.76791a.1159.1159,0,0,0-.03344.00342c-.18088.258.48472,1.84619,1.48522,3.59127.01-1.31461-.21247-3.21477-1.28064-3.56073A.577.577,0,0,0,123.2554,257.27466Z" fill="#4fa7db"/>
    <path d="M124.96994,262.09733a.26966.26966,0,0,1-.09136-.52342,5.10988,5.10988,0,0,0,2.50836-2.48151,2.13,2.13,0,0,0-.18957-1.88041.26958.26958,0,1,1,.46444-.27382,2.64716,2.64716,0,0,1,.23248,2.33722,5.60181,5.60181,0,0,1-2.833,2.80614A.27132.27132,0,0,1,124.96994,262.09733Z" fill="#4fa7db"/>
    <path d="M115.20558,200.48571a.13415.13415,0,0,1-.06029-.01422l-7.00982-3.50491a.13482.13482,0,0,1,.12059-.24117l7.00982,3.50491a.13481.13481,0,0,1-.06029.25539Z" fill="#fff"/>
    <path d="M113.99234,201.42934c-.27461,0-5.79343-3.02836-8.15329-4.33059a.13469.13469,0,0,1,.13007-.23591c3.05864,1.68742,7.72387,4.22475,8.04034,4.29847a.12691.12691,0,0,1,.12612.134A.14151.14151,0,0,1,113.99234,201.42934Z" fill="#fff"/>
    <path d="M108.60017,201.69895a.13342.13342,0,0,1-.06872-.019l-7.27943-4.31374a.1347.1347,0,0,1,.13744-.23169l7.27943,4.31374a.13478.13478,0,0,1-.06872.25065Z" fill="#fff"/>
    <g>
      <polygon points="81.878 193.88 91.366 192.324 84.474 183.458 81.878 193.88" fill="#080b4a"/>
      <polygon points="78.539 191.249 81.878 193.88 84.474 183.458 78.539 191.249" fill="#4fa7db"/>
    </g>
    <path d="M170.58751,166.19249h-.00263c-.407-.00184-.73747-.38993-1.01051-1.18612a.26969.26969,0,1,1,.51026-.17482c.27777.8112.49367.82173.50262.82173h.00053c.17245,0,.47234-.48182.62531-.91309a.2696.2696,0,0,1,.50841.17956C171.64646,165.13249,171.23941,166.19249,170.58751,166.19249Z" fill="#28211d"/>
    <rect x="174.78907" y="165.03218" width="1.34804" height="6.201" rx="0.67402" ry="0.67402" transform="translate(350.92618 336.26536) rotate(-180)" fill="#6d3321"/>
    <path d="M174.48446,168.79485a.26957.26957,0,0,1-.26013-.34149,1.69693,1.69693,0,0,0-.02817-1.13241,1.75371,1.75371,0,0,1-.0882-1.20666.865.865,0,0,1,.49419-.62742.69781.69781,0,0,1,.64427.13612,1.83319,1.83319,0,0,1,.60293,1.92333.26968.26968,0,0,1-.52-.14323,1.29613,1.29613,0,0,0-.39309-1.33909c-.09215-.06477-.14507-.07293-.159-.06714-.02686.00922-.09347.07872-.15376.2754a1.23829,1.23829,0,0,0,.06925.83858,2.22668,2.22668,0,0,1,.05134,1.48627A.2698.2698,0,0,1,174.48446,168.79485Z" fill="#28211d"/>
    <ellipse cx="131.05266" cy="152.69812" rx="0.40441" ry="0.80883" transform="translate(-27.32118 28.56415) rotate(-11.27279)" fill="#363c49"/>
    <path d="M93.63688,175.54691c-.42106.33685-4.58335-1.348-6.47061-2.96569s1.88726-5.93139,4.31374-2.42648S94.98492,174.46848,93.63688,175.54691Z" fill="#f6c39c"/>
    <ellipse cx="124.9713" cy="152.83186" rx="0.40441" ry="0.80883" transform="translate(-27.46465 27.37794) rotate(-11.27279)" fill="#363c49"/>
    <path d="M97.14179,166.64983S86.89667,174.46848,85.279,180.93909c0,0-5.12256-9.4363-8.62748-8.62748l12.6716-14.55886S95.25453,166.11061,97.14179,166.64983Z" fill="#fc5150"/>
    <g>
      <path d="M85.42463,173.656a1.77129,1.77129,0,0,1-1.35357-.61136,1.72425,1.72425,0,0,1-.40731-1.27353,1.84688,1.84688,0,0,1,.66191-1.27011l4.88481-4.10416a1.8396,1.8396,0,0,1,2.57339.16508,1.72376,1.72376,0,0,1,.40731,1.273,1.84722,1.84722,0,0,1-.66165,1.27064l-4.88508,4.1039A1.89483,1.89483,0,0,1,85.42463,173.656Zm5.00593-7.43635a1.62831,1.62831,0,0,0-1.04684.38361l-4.88481,4.10416a1.57846,1.57846,0,0,0-.56634,1.08554,1.45661,1.45661,0,0,0,.34333,1.07633,1.57,1.57,0,0,0,2.19531.13375l4.88508-4.1039a1.58014,1.58014,0,0,0,.56634-1.08607,1.45666,1.45666,0,0,0-.34359-1.0758A1.5027,1.5027,0,0,0,90.43055,166.21961Z" fill="#fff"/>
      <path d="M85.86564,172.53725l-.87412-.19483-.23933-.85385.63216-.64954.87438.19483.23933.85385Zm-.65822-.42284.56976.12691.41916-.43048-.1535-.549-.57-.12691-.41889.43048Z" fill="#fff"/>
      <path d="M87.25949,170.5373l-.42758-.49867,1.59369-1.33909.42758.49867Zm-.04581-.4676.07688.08952,1.18085-.99208-.07688-.08952Z" fill="#fff"/>
      <rect x="87.22406" y="163.67016" width="0.26964" height="3.93886" transform="translate(-86.78422 96.77576) rotate(-40.61666)" fill="#fff"/>
      <path d="M86.00018,164.88737a.79151.79151,0,0,1-.60478-.27382h0a.77274.77274,0,0,1-.18351-.57055.83183.83183,0,0,1,1.44151-.48972.77323.77323,0,0,1,.18351.57029.82208.82208,0,0,1-.29515.56555A.84246.84246,0,0,1,86.00018,164.88737Zm.04845-1.33856a.57306.57306,0,0,0-.36861.13533.55462.55462,0,0,0-.19957.38072.50639.50639,0,0,0,.1198.37334h0a.54886.54886,0,0,0,.76828.0445.55605.55605,0,0,0,.19984-.381.50612.50612,0,0,0-.1198-.37308A.52321.52321,0,0,0,86.04862,163.5488Z" fill="#fff"/>
    </g>
    <path d="M96.06336,173.92926c0-.26961-3.2353-5.39217-5.66178-5.12256s.80883,1.61765,1.07843,2.15687,1.88726,4.31374,2.96569,4.04413A2.91694,2.91694,0,0,0,96.06336,173.92926Z" fill="#f6c39c"/>
    <path d="M49.15841,164.128s4.27943-1.801-.00695-5.02724c-6.41667-4.8296-11.61559,3.6575-13.84093,4.58209a.8899.8899,0,0,0-.58356.74359c-.02082.37024.15331.81512.93512,1.11092,1.56.59023,7.82758,1.65165,7.82758,1.65165S46.20066,163.96917,49.15841,164.128Z" fill="#491600"/>
    <path d="M92.01923,175.64667c.24532.54192.52033,1.13774.81962,1.76323,2.27818,4.81252,5.837,11.54194,8.07746,11.88705,3.07088.47182,9.03729-5.67526,10.46892-7.20665.20221-.21838.31542-.34239.31542-.34239l-4.51325-.93285-3.3054-.6848-1.88726,1.61765-.0054-.0081L96.794,174.215l-1.07574-1.55835L93.033,174.827Z" fill="#0a106c"/>
    <rect x="93.36727" y="172.31161" width="1.88726" height="5.39217" transform="translate(17.42903 358.34187) rotate(-128.92904)" fill="#d3e2f4"/>
    <path d="M73.14663,176.895s2.42912-5.50035,4.75958-6.12008-1.38047,2.07528-.85025,3.96321A2.338,2.338,0,0,1,73.14663,176.895Z" fill="#f6c39c"/>
    <g>
      <g opacity="0.31">
        <ellipse cx="216.3088" cy="197.94093" rx="4.85295" ry="0.79232" fill="#1b4b78"/>
      </g>
      <g>
        <path d="M222.48691,190.5589c-.35705-.56277-1.15939-1.13259-2.95071-.88759l.07058-.72926h-6.82041a39.37106,39.37106,0,0,0,.85255,8.8097h5.11531l.21994-2.27264a4.18029,4.18029,0,0,0,2.94633-1.64571A2.92961,2.92961,0,0,0,222.48691,190.5589Zm-1.23817,2.74942a3.57463,3.57463,0,0,1-1.58817,1.17974.41937.41937,0,0,1-.54783-.441l.30686-3.17084a.42308.42308,0,0,1,.37308-.37791c.9955-.11383,1.68547.0621,1.97434.51709A2.19334,2.19334,0,0,1,221.24874,193.30833Z" fill="#588cc9"/>
        <ellipse cx="216.17399" cy="189.14289" rx="3.37011" ry="0.38516" fill="#61443b"/>
      </g>
    </g>
    <path d="M46.113,181.17364a.79592.79592,0,0,0,.11058.399l1.375,2.38335.0782.07278a3.80119,3.80119,0,0,0,4.15734,1.54487c.0728,0,1.44243,1.29682,1.44243,1.29682l2.48039-1.34a6.36981,6.36981,0,0,0-1.437-2.25932,2.75424,2.75424,0,0,0-3.11932-.55,2.10586,2.10586,0,0,1-1.62575.05392l-1.00833-.49879-1.81446-.90048A2.078,2.078,0,0,0,46.113,181.17364Z" fill="#f6c39c"/>
    <path d="M34.60377,193.73364c-.42892,1.90379,13.46479,7.47217,19.88625,9.44488,1.7443.53564,3.47807,1.05366,5.14486,1.54346,1.66679.49335,3.26664.95851,4.75371,1.38138l.074.02114c1.71617.4898,8.41445,2.85389,7.38917-2.87536-1.08051-6.03785-16.095-18.2723-16.095-18.2723l-2.86442,1.69143,8.95581,12.183a.15226.15226,0,0,1-.20844.21657c-2.52351-1.76878-8.12125-6.48078-9.96874-7.53922C46.47319,188.54738,38.4042,176.8653,34.60377,193.73364Z" fill="#0d2d88"/>
    <path d="M221.137,206.07477h0c-.20331-.00017-.30625-.11539-.22992-.25736l4.97536-9.25389a.6156.6156,0,0,1,.50633-.25675h0c.20331.00017.30625.11539.22992.25736L221.6433,205.818A.61561.61561,0,0,1,221.137,206.07477Z" fill="#fff"/>
    <polygon points="220.892 205.97 220.896 206.381 221.467 205.978 220.892 205.97" fill="#78bae6"/>
    <rect x="223.40716" y="201.62802" width="5.63821" height="1.40955" rx="0.53922" ry="0.53922" transform="translate(452.45252 404.66559) rotate(180)" fill="#d6947f"/>
    <polygon points="113.588 186.87 113.588 187.949 118.178 193.557 142.179 193.254 142.26 191.842 118.424 192.128 113.588 186.87" fill="#66bfe2"/>
    <g>
      <g>
        <g>
          <path d="M338.76536,256.97867l-2.18312-.07834-2.00166.16695,1.80733,28.51154a.234.234,0,0,0,.46694.00079Z" fill="#97e3f1"/>
          <ellipse cx="323.70459" cy="256.66023" rx="19.32025" ry="3.02165" fill="#97e3f1"/>
          <path d="M312.944,257.1618l-2.18312-.07834-2.00166.16695,1.80733,28.51154a.234.234,0,0,0,.46694.00079Z" fill="#97e3f1"/>
        </g>
        <path d="M325.50029,251.981l-15.6373-2.83089s1.61765,3.77452.26961,4.853L323.613,256.6991S326.57872,254.81184,325.50029,251.981Z" fill="#ceeef7"/>
        <polygon points="341.138 249.689 326.309 247.802 309.863 249.15 324.152 251.846 341.138 249.689" fill="#97e3f1"/>
        <path d="M311.12116,253.01445" fill="none" stroke="#fff" stroke-linecap="round" stroke-linejoin="round" stroke-width="2"/>
        <path d="M324.69146,255.62067" fill="none" stroke="#fff" stroke-linecap="round" stroke-linejoin="round" stroke-width="2"/>
        <path d="M311.39077,250.85758" fill="none" stroke="#fff" stroke-linecap="round" stroke-linejoin="round" stroke-width="2"/>
        <path d="M324.96107,253.4638" fill="none" stroke="#fff" stroke-linecap="round" stroke-linejoin="round" stroke-width="2"/>
        <path d="M340.868,254.27263l-17.255,2.42648a4.50528,4.50528,0,0,0,.53922-5.12256l16.98534-1.88726S343.83367,252.11576,340.868,254.27263Z" fill="#0a106c"/>
        <path d="M329.049,246.58878l15.6373-2.83089s-1.61765,3.77452-.26961,4.853l-13.48043,2.69609S327.97053,249.41967,329.049,246.58878Z" fill="#03092e"/>
        <polygon points="313.412 244.297 328.24 242.41 344.686 243.758 330.397 246.184 313.412 244.297" fill="#03092e"/>
        <path d="M343.42809,247.62228" fill="none" stroke="#fff" stroke-linecap="round" stroke-linejoin="round" stroke-width="2"/>
        <path d="M329.85779,250.2285" fill="none" stroke="#fff" stroke-linecap="round" stroke-linejoin="round" stroke-width="2"/>
        <path d="M313.68127,248.88045l17.255,2.42648a4.50528,4.50528,0,0,1-.53922-5.12256l-16.98534-1.88726S310.71558,246.72359,313.68127,248.88045Z" fill="#0d2d88"/>
        <g>
          <path d="M333.3627,243.35348,349,240.52259s-1.61765,3.77452-.26961,4.853L335.25,248.07163S332.28427,246.18437,333.3627,243.35348Z" fill="#ceeef7"/>
          <polygon points="317.725 241.062 332.554 239.175 349 240.523 334.441 243.219 317.725 241.062" fill="#97e3f1"/>
          <path d="M347.74183,244.387" fill="none" stroke="#fff" stroke-linecap="round" stroke-linejoin="round" stroke-width="2"/>
          <path d="M334.17153,246.99319" fill="none" stroke="#fff" stroke-linecap="round" stroke-linejoin="round" stroke-width="2"/>
          <path d="M347.47222,242.23011" fill="none" stroke="#fff" stroke-linecap="round" stroke-linejoin="round" stroke-width="2"/>
          <path d="M333.90192,244.83633" fill="none" stroke="#fff" stroke-linecap="round" stroke-linejoin="round" stroke-width="2"/>
          <path d="M317.995,245.64515l17.255,2.42648a4.50528,4.50528,0,0,1-.53922-5.12256l-16.98534-1.88726S315.02932,243.48828,317.995,245.64515Z" fill="#66bfe2"/>
        </g>
        <ellipse cx="323.07381" cy="285.81683" rx="20.49025" ry="2.15687" fill="#ceeef7"/>
      </g>
      <g>
        <g>
          <g>
            <path d="M329.77922,207.942h0a3.77255,3.77255,0,0,1-5.42384,1.2093l-6.85368-4.23055a4.42151,4.42151,0,0,1-1.78432-5.65866h0a3.77255,3.77255,0,0,1,5.42384-1.2093l6.85368,4.23055A4.42151,4.42151,0,0,1,329.77922,207.942Z" fill="#0a106c"/>
            <path d="M329.80788,203.63358h0a2.82409,2.82409,0,0,1,.131-3.781l4.77235-4.7473a2.35859,2.35859,0,0,1,3.50745.16167h0a2.82409,2.82409,0,0,1-.131,3.781l-4.77235,4.7473A2.35859,2.35859,0,0,1,329.80788,203.63358Z" fill="#0a106c"/>
            <path d="M344.10607,205.666h0a4.289,4.289,0,0,1-2.6302,5.22366l-7.29137,2.67867a3.83414,3.83414,0,0,1-5.03829-2.40645h0a4.289,4.289,0,0,1,2.6302-5.22366l7.29137-2.67867A3.83414,3.83414,0,0,1,344.10607,205.666Z" fill="#0a106c"/>
            <path d="M329.81035,230.80615a.40455.40455,0,0,1-.40441-.39967l-.49025-41.22642a.40437.40437,0,0,1,.39967-.40915h.00474a.40455.40455,0,0,1,.40441.39967l.49025,41.22642a.40437.40437,0,0,1-.39967.40915Z" fill="#0a106c"/>
            <path d="M329.68766,210.98044a.13483.13483,0,0,1-.04713-.26118l12.74269-4.75685a.13488.13488,0,1,1,.09426.25276L329.73479,210.972A.134.134,0,0,1,329.68766,210.98044Z" fill="#fff"/>
            <path d="M329.4428,208.07345a.13629.13629,0,0,1-.07082-.02l-12.62026-7.796a.13488.13488,0,0,1,.14165-.22959l12.62026,7.796a.13482.13482,0,0,1-.07082.2496Z" fill="#fff"/>
            <path d="M329.74742,203.28185a.1348.1348,0,0,1-.09478-.23064l7.56537-7.499a.13479.13479,0,1,1,.18957.19167l-7.56536,7.499A.13372.13372,0,0,1,329.74742,203.28185Z" fill="#fff"/>
            <path d="M321.13366,188.11225h0a2.87371,2.87371,0,0,1,3.96117.42354l4.01955,4.13363a2.78507,2.78507,0,0,1,.26628,3.92389h0a2.87371,2.87371,0,0,1-3.96117-.42354l-4.01955-4.13363A2.78507,2.78507,0,0,1,321.13366,188.11225Z" fill="#0a106c"/>
            <path d="M329.3201,196.57744a.13481.13481,0,0,1-.09715-.04134l-7.39475-7.69438a.13482.13482,0,1,1,.19431-.18694l7.39475,7.69438a.1348.1348,0,0,1-.09715.22827Z" fill="#fff"/>
          </g>
          <path d="M328.98995,193.00336h0a1.86931,1.86931,0,0,1,.53067-2.43087l3.71863-2.99834a1.559,1.559,0,0,1,2.30444.14492h0a1.86931,1.86931,0,0,1-.53067,2.43087l-3.71863,2.99834A1.559,1.559,0,0,1,328.98995,193.00336Z" fill="#0a106c"/>
          <path d="M329.38277,192.93535a.13481.13481,0,0,1-.08873-.23643l4.83137-4.22185a.13491.13491,0,1,1,.17746.20326l-4.83137,4.22185A.13523.13523,0,0,1,329.38277,192.93535Z" fill="#fff"/>
        </g>
        <path d="M323.80392,204.34633a.1346.1346,0,0,1-.12954-.09768l-.594-2.07815a.13475.13475,0,0,1,.25908-.07425l.594,2.07815a.13454.13454,0,0,1-.09241.16666A.13037.13037,0,0,1,323.80392,204.34633Z" fill="#fff"/>
        <path d="M323.29788,206.38445a.1348.1348,0,0,1-.05029-.25987l2.00469-.80751a.13479.13479,0,0,1,.10058.25013l-2.00469.80751A.13449.13449,0,0,1,323.29788,206.38445Z" fill="#fff"/>
        <path d="M318.69637,203.4651a.1348.1348,0,0,1-.05029-.25987l2.005-.80725a.13479.13479,0,0,1,.10058.25013l-2.005.80725A.13449.13449,0,0,1,318.69637,203.4651Z" fill="#fff"/>
        <path d="M336.00029,210.41594a.134.134,0,0,1-.05819-.01316l-1.94913-.93389a.13484.13484,0,1,1,.11637-.24328l1.94913.93389a.13482.13482,0,0,1-.05819.25644Z" fill="#fff"/>
        <path d="M337.05766,208.25091a.13141.13141,0,0,1-.05134-.01027.13452.13452,0,0,1-.07319-.17588l1.0708-2.59367a.1347.1347,0,1,1,.24907.10268l-1.0708,2.59367A.13443.13443,0,0,1,337.05766,208.25091Z" fill="#fff"/>
        <path d="M341.49567,208.6806a.13385.13385,0,0,1-.05555-.01211l-2.3804-1.07975a.13474.13474,0,1,1,.11137-.24539l2.3804,1.07975a.13483.13483,0,0,1-.05582.2575Z" fill="#fff"/>
        <polygon points="322.896 230.539 326.08 240.231 333.732 240.231 336.491 230.539 322.896 230.539" fill="#1776dc"/>
      </g>
    </g>
    <path d="M46.11027,181.15477a.04585.04585,0,0,0,.0027.01887.79592.79592,0,0,0,.11058.399l1.375,2.38335.213.36666a.83471.83471,0,0,0,.4233.36128.83756.83756,0,0,0,1.02986-1.19976l-.69824-1.20786-.88972-1.54215a.83958.83958,0,0,0-1.56644.42059Z" fill="#dd8e62"/>
    <rect x="47.62803" y="179.82406" width="1.67784" height="5.0893" rx="0.83892" ry="0.83892" transform="translate(126.27306 354.28033) rotate(170.53188)" fill="#f6c39c"/>
    <g>
      <polygon points="120.671 186.848 113.556 186.848 118.178 192.407 120.671 186.848" fill="#fc5150"/>
      <path d="M117.89533,190.01731h1.932a.128.128,0,0,0,.06141-.24029l-.68739-.37591a.128.128,0,0,0-.06141-.0157h-1.7167a.128.128,0,0,0-.08622.22258l.36835.33574A.282.282,0,0,0,117.89533,190.01731Z" fill="#fff"/>
      <path d="M116.84619,188.66927h1.90272a.128.128,0,0,0,.06141-.24029l-.68739-.37591a.128.128,0,0,0-.06141-.0157h-1.7167a.128.128,0,0,0-.08622.22258l.3467.316A.3576.3576,0,0,0,116.84619,188.66927Z" fill="#fff"/>
      <path d="M118.17787,192.40657h24.0149L144.07645,176.5a.90372.90372,0,0,0-.882-1.00987l-24.0974-.41192a.90372.90372,0,0,0-.91917.90359Z" fill="#fc5150"/>
      <g>
        <path d="M129.04305,185.89036a2.49343,2.49343,0,0,0,2.05706.69431,2.19753,2.19753,0,0,0,2.0109-1.80528,1.889,1.889,0,0,0-.6191-1.61761,2.24979,2.24979,0,0,1-.51262-.7002,1.947,1.947,0,0,1-.18149-.80726.4725.4725,0,0,0-.4973-.44522h-1.036a.47153.47153,0,0,0-.49728.43717v.039a1.944,1.944,0,0,1-.15207.75082.35987.35987,0,0,0,.16187.46821,1.2318,1.2318,0,0,1,.71365,1.33783,1.3704,1.3704,0,0,1-1.15249,1.0247l-.01545.00245C128.98731,185.321,128.821,185.66341,129.04305,185.89036Z" fill="#fff"/>
        <path d="M130.14037,180.59889c.17737.27008.44167.42786.59032.35241s.12537-.35556-.052-.62564-.44167-.42786-.59032-.35241S129.963,180.32881,130.14037,180.59889Z" fill="#fff"/>
      </g>
    </g>
    <g>
      <g opacity="0.31">
        <ellipse cx="131.38209" cy="196.63691" rx="4.58335" ry="0.7483" fill="#1b4b78"/>
      </g>
      <path d="M141.62721,187.40969l.027.53922.08893,1.75515.1537,3.0978c.0728,0,.86813.09975,1.96276.124,3.0924.0701,8.53848-.49337,6.39511-5.78579-1.27254-3.14095-3.43211-4.38384-5.039-4.35149-1.74436.03235-2.83359,1.56912-1.43164,3.81227.25881.41249.04851.63357-.32622.74412A5.82985,5.82985,0,0,1,141.62721,187.40969Z" fill="#0a106c"/>
      <path d="M128.7588,196.02369c.0647.35319.10512.55269.10512.55269H130.034v-.26961h1.07843v.26961h.80883v-.26961h1.07843v.26961h.949l.16179-.54179.61735-2.04889a4.25616,4.25616,0,0,0,2.60716-1.18333,5.16254,5.16254,0,0,0,.63084-.68969,4.8371,4.8371,0,0,0,.83042-1.65169,2.6573,2.6573,0,0,0-.2076-2.07667,1.83981,1.83981,0,0,0-.3559-.42732,2.81244,2.81244,0,0,0-1.97349-.639,6.53207,6.53207,0,0,0-.914.08358l.0782-.80073h-7.49513a.64373.64373,0,0,0-.0081.089c-.0027.03775-.00533.04315-.0081.0809A44.60531,44.60531,0,0,0,128.7588,196.02369Zm6.1228-3.66939.2858-3.07083.035-.36128.01619-.18063a.4738.4738,0,0,1,.40981-.43138,4.73824,4.73824,0,0,1,.68482-.03505,2.607,2.607,0,0,1,.833.13212,1.18818,1.18818,0,0,1,.6525.49337,1.28469,1.28469,0,0,1,.16442.52034,3.18965,3.18965,0,0,1-.73333,2.09217,4.21564,4.21564,0,0,1-.96246.93015,3.40677,3.40677,0,0,1-.7846.41251A.46478.46478,0,0,1,134.8816,192.3543Z" fill="#588cc9"/>
      <path d="M135.69582,189.52072V191.23a1.57045,1.57045,0,0,0,1.57184,1.57182h4.62916v-4.853h-4.62916a1.53874,1.53874,0,0,0-.95443.32622,1.31855,1.31855,0,0,0-.22919.213A1.55361,1.55361,0,0,0,135.69582,189.52072Z" fill="#f6c39c"/>
      <path d="M139.22519,190.992l1.545-1.08387-1.61572-2.30309a2.87683,2.87683,0,0,0-2.52125-1.21994.547.547,0,0,0-.39717.88786Z" fill="#f6c39c"/>
      <polygon points="141.358 187.205 141.358 187.949 141.358 189.699 141.358 189.701 141.635 192.802 141.716 193.557 143.881 193.403 143.853 192.926 143.611 189.502 143.456 187.345 143.472 187.051 141.358 187.205" fill="#d3e2f4"/>
      <rect x="134.67596" y="188.03737" width="2.87807" height="1.79879" rx="0.8994" ry="0.8994" transform="matrix(-1, 0, 0, -1, 272.22998, 377.87355)" fill="#f6c39c"/>
      <ellipse cx="131.51689" cy="186.71641" rx="3.63972" ry="0.38516" fill="#61443b"/>
    </g>
    <path d="M48.00011,168.61476a.26955.26955,0,0,1-.25407-.35992c.37282-1.04974.89492-1.64635,1.55262-1.77352a2.29432,2.29432,0,0,1,1.863.79882.26962.26962,0,0,1-.40389.35728h0c-.00685-.00764-.67981-.75722-1.35857-.62663-.56792.11111-.936.83594-1.145,1.42466A.26988.26988,0,0,1,48.00011,168.61476Z" fill="#491600"/>
    <path d="M93.07673,265.86542l.9813,2.9439s13.41108-.6542,18.97177-3.92519-11.44848-.6542-14.39238,0l-3.73954-1.61037Z" fill="#382b25"/>
    <g>
      <path d="M128.53938,273.35118l15.27352.34419.44127-3.89782-8.36042-.46479a10.92393,10.92393,0,0,0-2.26515.04413,5.63341,5.63341,0,0,0-5.00686,3.68011A2.351,2.351,0,0,0,128.53938,273.35118Z" fill="#080b4a"/>
      <path d="M128.62174,273.057h5.40988c.35007-2.09453.01176-3.15061-.403-3.68011A5.63341,5.63341,0,0,0,128.62174,273.057Z" fill="#03092e"/>
      <path d="M139.80479,270.75363h0a.5532.5532,0,0,0,.55157-.5516v-1.98566a.55319.55319,0,0,0-.55157-.55157h0a.5532.5532,0,0,0-.5516.55157V270.202A.55321.55321,0,0,0,139.80479,270.75363Z" fill="#1776dc"/>
      <rect x="128.4668" y="272.3961" width="15.76284" height="1.27475" transform="translate(272.69645 546.06694) rotate(-180)" fill="#0d2d88"/>
      <path d="M141.93755,270.38591h1.94891a.47943.47943,0,0,0,.478-.47805h0a.47943.47943,0,0,0-.478-.478h-1.94891a.47943.47943,0,0,0-.478.478h0A.47943.47943,0,0,0,141.93755,270.38591Z" fill="#1776dc"/>
      <path d="M138.21134,270.55749h0a.23358.23358,0,0,0,.2329-.23286v-1.37282a.23359.23359,0,0,0-.2329-.2329h0a.23357.23357,0,0,0-.2329.2329v1.37282A.23356.23356,0,0,0,138.21134,270.55749Z" fill="#1776dc"/>
      <path d="M137.05916,270.50847h0a.23359.23359,0,0,0,.2329-.2329v-1.37282a.23358.23358,0,0,0-.2329-.23286h0a.23356.23356,0,0,0-.2329.23286v1.37282A.23357.23357,0,0,0,137.05916,270.50847Z" fill="#1776dc"/>
    </g>
    <g opacity="0.3">
      <path d="M141.627,261.57391a.13476.13476,0,0,1-.13375-.12032l-3.18291-29.63378a.13457.13457,0,0,1,.05187-.12138l1.24984-.96259-2.42384-2.93989a.1352.1352,0,0,1-.00658-.163.13369.13369,0,0,1,.15534-.05l3.10866,1.09765-1.76272-2.75664a.13486.13486,0,0,1,.16535-.1972l24.21817,10.09716a.13491.13491,0,1,1-.10374.24907l-23.82087-9.93155,1.74192,2.724a.1348.1348,0,0,1-.15824.19984l-3.02046-1.06659,2.20373,2.67318a.13471.13471,0,0,1-.02185.19273l-1.30039,1.00155,3.17475,29.55848a.13485.13485,0,0,1-.11953.1485Z" fill="#fff"/>
    </g>
    <g>
      <g opacity="0.31">
        <ellipse cx="114.53155" cy="207.89995" rx="6.60541" ry="1.07843" fill="#1b4b78"/>
      </g>
      <g>
        <circle cx="114.39674" cy="200.89012" r="7.27943" fill="#ceeef7"/>
        <g>
          <path d="M108.38616,200.72376a6.06233,6.06233,0,1,0,.0083-.24044A2.328,2.328,0,0,0,108.38616,200.72376Z" fill="#97e3f1"/>
          <polygon points="110.215 194.957 118.643 194.957 118.643 192.263 108.316 192.263 110.215 194.957" fill="#395b9e"/>
          <g>
            <rect x="117.15812" y="192.26265" width="6.2864" height="1.65795" transform="translate(240.60264 386.18325) rotate(-180)" fill="#223b74"/>
            <rect x="121.85565" y="192.26265" width="1.58887" height="2.69417" transform="translate(245.30017 387.21947) rotate(-180)" fill="#223b74"/>
          </g>
          <path d="M108.38616,200.72376a5.97485,5.97485,0,1,0,11.9497,0c-.40619-.10362-11.5725-.23629-11.9414-.24044A2.328,2.328,0,0,0,108.38616,200.72376Z" fill="#5b3631"/>
        </g>
      </g>
    </g>
    <g>
      <path d="M230.70957,280.17036c.01012.1011.02023.16174.02023.16174h13.775a1.87538,1.87538,0,0,0,.11116-.192,3.84731,3.84731,0,0,0-.05052-4.21434,3.606,3.606,0,0,0-.63671-.76809s-.60636.06064-1.74838.14144c-.65694.04046-1.49578.091-2.4963.1415-.27283.01012-.55584.03035-.8489.04046-.4144.02017-.849.0404-1.31388.06064q-1.04592.03026-2.24358.06064a.86823.86823,0,0,0-.16167.01012C230.467,275.79435,230.60853,279.36186,230.70957,280.17036Z" fill="#0d2d88"/>
      <rect x="242.98377" y="273.70232" width="1.51595" height="3.03191" rx="0.20221" ry="0.20221" transform="translate(350.07107 627.14045) rotate(-155.28251)" fill="#0d2d88"/>
      <path d="M236.97553,274.58157l.54572.96012.60642,1.04092a.63281.63281,0,0,0,.17179.192.76255.76255,0,0,0,.86913.08087l.34364-.20214a.75447.75447,0,0,0,.27289-1.03087l-.1011-.18191-.48509-.82873-.566-.9904a.75034.75034,0,0,0-1.03087-.27289l-.34358.192A.76287.76287,0,0,0,236.97553,274.58157Z" fill="#0d2d88"/>
      <path d="M241.06859,275.36984l-1.83937,4.44682.97023-.01012,1.98087-4.50746C241.85692,275.31932,241.483,275.33955,241.06859,275.36984Z" fill="#4fa7db"/>
      <path d="M237.026,279.82678l1.041-.01012,1.708-4.37607h-.091c-.27283.01012-.55584.03035-.8489.04046l-.53567,1.29358Z" fill="#4fa7db"/>
      <path d="M242.52391,280.0188l2.092.12127a3.84731,3.84731,0,0,0-.05052-4.21434A8.54029,8.54029,0,0,0,242.52391,280.0188Z" fill="#4fa7db"/>
      <path d="M230.70957,280.17036l2.92075-.11116c-.101-1.63723,1.03087-3.67873,1.48567-4.44676C230.467,275.79435,230.60853,279.36186,230.70957,280.17036Z" fill="#4fa7db"/>
      <rect x="230.53778" y="279.82678" width="14.47232" height="1.64734" fill="#0c1031"/>
    </g>
  </g>
</svg>
