<svg xmlns="http://www.w3.org/2000/svg" viewBox="0 0 360 360">
  <g>
    <path d="M205.73566,166.571s17.1324,3.90144,22.22123,4.41032,22.56048-12.04357,26.80118-11.87394l2.714,9.83841s-17.81091,9.66878-25.953,10.17766-21.37309-5.08883-21.37309-5.08883Z" fill="#b56757"/>
    <path d="M211.00505,233.47336a.71214.71214,0,0,1-.6227-.365c-2.45784-4.39282-3.07219-8.964-1.603-11.92935a5.93183,5.93183,0,0,1,4.71509-3.28347c2.52378-.35756,4.619-1.95262,5.09493-3.87878.48015-1.941-.69468-4.04966-3.30808-5.93821a9.9004,9.9004,0,0,0-8.25024-1.9647,8.87,8.87,0,0,0-3.34941,1.52077.71317.71317,0,1,1-.90735-1.10053c.05944-.04969,6.06683-4.86925,13.34285.3882,4.20476,3.03876,4.22148,5.96375,3.857,7.43715-.62177,2.51543-3.14556,4.50427-6.279,4.94866a4.506,4.506,0,0,0-3.63778,2.50428c-1.26305,2.54979-.66171,6.61106,1.56953,10.59943a.71337.71337,0,0,1-.62177,1.06152Z" fill="#d62327"/>
    <path d="M212.69039,170.47239s2.54442,5.59771-4.07106,7.12436S211.16374,167.41909,212.69039,170.47239Z" fill="#b56757"/>
    <polygon points="197.246 195.876 210.146 174.035 189.791 171.999 181.958 183.937 197.246 195.876" fill="#0a106c"/>
    <path d="M200.99954,202.72128c-.19364,0-.31437-.00789-.339-.00975a.71323.71323,0,0,1,.10216-1.42279,6.18091,6.18091,0,0,0,4.50009-1.64058c1.12746-1.23333,1.49616-3.13441,1.09588-5.6503-.775-4.87436,1.04713-6.92311,2.71185-7.78356,1.96145-1.01276,4.45273-.69654,5.17434.00975a.71322.71322,0,1,1-.99744,1.01973,4.50725,4.50725,0,0,0-3.7613.37334c-1.60807.98769-2.202,3.11677-1.71859,6.15692.47272,2.97282-.01857,5.276-1.46087,6.84649A7.3689,7.3689,0,0,1,200.99954,202.72128Z" fill="#d62327"/>
    <path d="M202.51273,213.21857c1.52665.50888,12.72208-3.0533,12.72208-3.0533l-16.28426-4.07106Z" fill="#0a106c"/>
    <ellipse cx="155.18354" cy="289.04216" rx="40.17498" ry="2.54442" fill="#ceeef7"/>
    <path d="M219.55991,187.21544a.7132.7132,0,0,1-.19967-1.39772c.11563-.0339,11.53929-3.47757,9.68371-11.36515-.95983-4.07892-1.37775-9.75012,2.08357-13.602,2.90827-3.237,7.94934-4.43369,14.983-3.55373a.71316.71316,0,1,1-.17646,1.41536c-6.54373-.81681-11.16734.22289-13.74545,3.09169-3.2101,3.57277-2.47828,9.25325-1.7562,12.32173,2.1653,9.2031-10.5437,13.02384-10.67233,13.06145A.72594.72594,0,0,1,219.55991,187.21544Z" fill="#d62327"/>
    <ellipse cx="268.66753" cy="285.73442" rx="76.33247" ry="4.83439" fill="#ceeef7"/>
    <path d="M269.6853,150.62595s-10.68655,2.54442-23.40862,11.70431l4.57995,10.68655s18.31979-4.07106,21.882-5.59771S269.6853,150.62595,269.6853,150.62595Z" fill="#1a2d84"/>
    <ellipse cx="235.59013" cy="305.64897" rx="68.79948" ry="10.17613" fill="#ceeef7"/>
    <g>
      <path d="M294.62057,212.70969l-25.953-7.63325-40.07181-16.69661a10.08785,10.08785,0,0,0-2.90009-.70806,10.58683,10.58683,0,0,0-11.23393,12.55354l11.96853,64.89934,10.68655-.50888s.13387-37.92378-7.956-60.9777l51.72,30.9536Z" fill="#0c1031"/>
      <polygon points="311.753 266.482 322.1 267.16 321.591 275.302 309.887 274.793 311.753 266.482" fill="#c58877"/>
      <polygon points="226.939 263.089 227.957 273.012 235.59 273.267 235.59 261.562 226.939 263.089" fill="#c58877"/>
      <path d="M314.467,275.30231l-1.01777-9.66878c-27.61685-4.09138-36.84843.2709-48.59014,1.81945l36.88583-53.72553L281.22686,197.504,247.38272,267.157a10.98677,10.98677,0,0,0,2.87733,13.2659h0a10.98677,10.98677,0,0,0,8.31117,2.44453Z" fill="#1a2d84"/>
      <path d="M245.981,154.84792a.803.803,0,0,0-.9969.69744c-.06132.82783.34592,2.18581,2.81919,3.7316,4.07106,2.54442,10.17766,7.294,10.4321,4.41032C258.47908,160.92586,251.48964,156.14228,245.981,154.84792Z" fill="#b56757"/>
      <g>
        <path d="M253.86191,126.46049c.12885,2.58.39355,5.10973-1.29014,5.19382s-3.153-1.93925-3.28189-4.51925,1.13159-4.73967,2.81528-4.82376S253.73306,123.88049,253.86191,126.46049Z" fill="#8e574e"/>
        <path d="M278.37224,124.12348c1.13172,10.50667-1.84425,17.05928-10.14336,20.74778-7.09706,3.15425-14.93649-5.03826-16.06822-15.54494s4.21057-19.69828,11.93234-20.53S277.24052,113.6168,278.37224,124.12348Z" fill="#c58877"/>
        <polygon points="257.584 124.005 253.014 133.345 258.547 134.267 257.584 124.005" fill="#b56757"/>
        <ellipse cx="262.55206" cy="126.19826" rx="0.77804" ry="2.07478" transform="translate(-8.42342 19.27831) rotate(-4.13881)" fill="#564842"/>
        <ellipse cx="254.25295" cy="126.19826" rx="0.77804" ry="2.07478" transform="translate(-8.44506 18.67933) rotate(-4.13881)" fill="#564842"/>
        <path d="M259.92977,123.21582a.4755.4755,0,0,1-.00093-.951,8.54992,8.54992,0,0,0,4.77545-1.74041.47573.47573,0,1,1,.59438.743A9.37447,9.37447,0,0,1,259.92977,123.21582Z" fill="#564842"/>
        <path d="M255.78027,122.2936a.47536.47536,0,0,1-.44068-.29719c-.07058-.17088-.35338-.67007-.71929-.72254-.33062-.04086-.76387.25168-1.23519.84142a.47573.47573,0,1,1-.743-.59438c.71279-.89064,1.42418-1.29231,2.11979-1.18736a2.12384,2.12384,0,0,1,1.45994,1.3081.47565.47565,0,0,1-.26515.61806A.47087.47087,0,0,1,255.78027,122.2936Z" fill="#564842"/>
        <path d="M260.85245,137.04764a.4722.4722,0,0,1-.11563-.0144,10.77055,10.77055,0,0,0-3.94147.00511.47542.47542,0,0,1-.18621-.93243,11.50442,11.50442,0,0,1,4.358.00511.4754.4754,0,0,1-.1147.93661Z" fill="#564842"/>
        <path d="M254.397,113.51906s.92212,4.61062,6.45486,3.22743,6.91593-4.14956,8.76017-1.38319-.46106,7.377,4.14956,11.9876c2.20259,2.20259-.11723,13.14156,3.68849,10.60442,17.98141-11.9876,6.74246-26.33643,0-30.43007C264.54039,99.68721,254.397,113.51906,254.397,113.51906Z" fill="#4a261c"/>
        <path d="M271.4183,127.91432c.01425-2.58318-.10992-5.12369,1.57584-5.11439s3.04079,2.11092,3.02653,4.6941-1.39238,4.66972-3.07814,4.66042S271.404,130.49749,271.4183,127.91432Z" fill="#b56757"/>
        <ellipse cx="285.59554" cy="112.29364" rx="5.1636" ry="5.88832" transform="translate(-6.93322 205.03844) rotate(-39.05527)" fill="#4a261c"/>
        <path d="M266.8457,142.10488c0,.92212.30353,11.06548,6.45486,11.06548.46106,0,5.9938-2.30531,5.9938-2.30531s-5.53274-8.29911-4.61062-11.9876Z" fill="#c58877"/>
      </g>
      <path d="M269.56237,150.83956a24.40869,24.40869,0,0,1,16.20841-.264c13.42974,4.63031,22.08076,55.00973,15.97416,64.67851,0,0-32.05964-4.57995-34.60405-5.59771-1.49413-.59765,4.57995-24.93527-2.03553-35.62182C261.46571,168.15515,264.61719,152.62974,269.56237,150.83956Z" fill="#2872d8"/>
      <path d="M243.73226,162.83914c.55261.9947-1.52665,4.57995,2.54442,7.63325s10.68655,3.56218,11.70431,2.54442,5.614-6.36931-3.56218-12.72208C247.80333,155.71478,241.18785,158.2592,243.73226,162.83914Z" fill="#c58877"/>
      <path d="M286.79339,151.04491q-.22717-.07794-.45614-.13623c-4.89868-1.25078-8.95378,4.15421-6.88638,8.91,2.13743,4.91691,9.67472,18.54471,13.74893,27.64837a1.16927,1.16927,0,0,1-1.67824,1.4735c-12.67129-7.7393-31.505-19.48593-31.505-19.48593l-4.07106,4.07106s19.82885,24.4044,37.823,25.99862a9.48409,9.48409,0,0,0,10.36134-8.3812C305.74063,175.83108,290.42727,152.29262,286.79339,151.04491Z" fill="#c58877"/>
      <g>
        <path d="M212.51219,280.54246c.01848.18467.037.29543.037.29543h25.1612a3.42548,3.42548,0,0,0,.203-.35075,7.02745,7.02745,0,0,0-.09228-7.69785,6.58672,6.58672,0,0,0-1.163-1.403s-1.10756.11076-3.19357.25836c-1.2.07391-2.73218.16619-4.55972.25847-.49835.01848-1.01529.05543-1.55059.07391-.75693.03684-1.5507.0738-2.39991.11076q-1.91046.05527-4.0981.11076a1.5859,1.5859,0,0,0-.29531.01848C212.06916,272.54929,212.32763,279.06567,212.51219,280.54246Z" fill="#1a2d84"/>
        <rect x="234.93209" y="268.72802" width="2.76902" height="5.53805" rx="0.35663" ry="0.35663" transform="translate(337.45707 616.93414) rotate(-155.28251)" fill="#1a2d84"/>
        <path d="M223.95751,270.334l.99681,1.75374,1.10768,1.90134a1.15588,1.15588,0,0,0,.31379.35075,1.39286,1.39286,0,0,0,1.58755.14771l.6277-.36923a1.37811,1.37811,0,0,0,.49846-1.883l-.18467-.33227-.88605-1.51375-1.03376-1.80906a1.37056,1.37056,0,0,0-1.883-.49846l-.62758.35075A1.39344,1.39344,0,0,0,223.95751,270.334Z" fill="#1a2d84"/>
        <path d="M231.43385,271.77388l-3.35976,8.12251,1.77222-.01848,3.61823-8.23327C232.8738,271.6816,232.19078,271.71856,231.43385,271.77388Z" fill="#54a4d8"/>
        <path d="M224.04979,279.91487l1.90145-.01848,3.11977-7.99328h-.16619c-.49835.01848-1.01529.05543-1.55059.07391l-.97844,2.36284Z" fill="#54a4d8"/>
        <path d="M234.09212,280.26562l3.82127.22151a7.02745,7.02745,0,0,0-.09228-7.69785A15.59959,15.59959,0,0,0,234.09212,280.26562Z" fill="#54a4d8"/>
        <path d="M212.51219,280.54246l5.335-.203c-.18456-2.99054,1.883-6.71952,2.7137-8.1224C212.06916,272.54929,212.32763,279.06567,212.51219,280.54246Z" fill="#54a4d8"/>
        <rect x="212.1984" y="279.91487" width="26.43496" height="3.00901" fill="#141734"/>
      </g>
      <rect x="225.41247" y="261.56247" width="12.72208" height="3.56218" fill="#4177bb"/>
      <rect x="306.91446" y="267.88638" width="13.31813" height="3.56218" transform="translate(76.24992 608.38034) rotate(-95.67742)" fill="#6198d1"/>
      <path d="M290.04062,183.70335l15.26649,2.03553s-8.03724-36.97129-23.75459-36.9914a4.63252,4.63252,0,0,0-4.19366,6.53122Z" fill="#1a2d84"/>
      <g>
        <g>
          <path d="M329.76336,271.58372a3.48033,3.48033,0,0,1-.14262.34235l-.59914,3.81354-1.26961,8.09306-18.45421,2.21583s-.0285-.09511-.06658-.26152c-.03332-.13791-.02618-.3281-.0642-.55636a8.20707,8.20707,0,0,1-.05944-1.30287V283.923a7.0066,7.0066,0,0,1,.08324-1.3837c.40887-2.06369,1.89127-4.40316,6.38956-5.13542a1.16085,1.16085,0,0,1,.249-.0523c.9795-.14267,1.90529-.28056,2.79448-.41844.29481-.04281.5865-.09035.87185-.13315.76073-.12839,1.47243-.24727,2.14766-.36615.36139-.05706-.26227-6.14824-.59992-9.16291-.1046-.99381-.18108-1.65-.18108-1.65S331.12811,268.31226,329.76336,271.58372Z" fill="#1a2d84"/>
          <path d="M321.295,274.81111l6.43288,8.60137,1.06651-1.20257-6.3903-8.88028C322.08075,273.76,321.70091,274.252,321.295,274.81111Z" fill="#54a4d8"/>
          <path d="M325.2815,286.12075l1.14569-1.289-6.44482-9.74361-.10182.11111c-.286.35089-.56411.73191-.87277,1.10751l1.87066,2.91784Z" fill="#54a4d8"/>
          <path d="M329.76453,271.58539c-.038.107-.09259.22992-.14436.33861l-.59943,3.81682c-3.23333-1.97787-6.27724-6.08075-7.97576-8.47081-.10806-.991-.18469-1.65114-.18469-1.65114S331.12827,268.31147,329.76453,271.58539Z" fill="#54a4d8"/>
          <rect x="308.97223" y="284.03644" width="19.81945" height="2.72876" transform="translate(-32.48814 41.10922) rotate(-7.01956)" fill="#141734"/>
          <path d="M318.40191,275.33115l1.09155,1.468,1.2077,1.58856a1.04822,1.04822,0,0,0,.3213.28092,1.26313,1.26313,0,0,0,1.44526-.043l.524-.40189a1.24975,1.24975,0,0,0,.24-1.75l-.203-.2786-.96526-1.26427-1.13094-1.5137a1.24291,1.24291,0,0,0-1.75-.24l-.526.38525A1.26366,1.26366,0,0,0,318.40191,275.33115Z" fill="#1a2d84"/>
        </g>
        <rect x="321.04003" y="275.39134" width="16.70216" height="2.72876" transform="translate(-10.4833 540.53141) rotate(-77.85206)" fill="#141734"/>
      </g>
    </g>
    <path d="M198.95055,176.579c1.52665,3.56218,5.59771,0,5.59771,0s-1.52665,2.03553.50888,2.03553c2.74765,0,2.81554-5.80224,5.11938-6.92694,3.53163-1.72408,1.81251-3.12632.68566-3.74076C201.495,162.83914,197.4239,173.01681,198.95055,176.579Z" fill="#b56757"/>
    <g>
      <g>
        <path d="M213.96208,194.33962a.71317.71317,0,0,1-.65521-.99419l1.52681-3.56209a.71332.71332,0,1,1,1.31135.56187l-1.52681,3.56209A.71406.71406,0,0,1,213.96208,194.33962Z" fill="#fc7371"/>
        <path d="M218.50629,194.484a.71318.71318,0,0,1-.70768-.63246l-.43789-3.85045a.7132.7132,0,0,1,1.41722-.1616l.43789,3.85045a.71341.71341,0,0,1-.62781.78941A.69448.69448,0,0,1,218.50629,194.484Z" fill="#fc7371"/>
        <path d="M223.32725,192.28623a.71093.71093,0,0,1-.46111-.16949l-2.95471-2.508a.71325.71325,0,0,1,.92314-1.08753l2.95471,2.508a.71325.71325,0,0,1-.462,1.257Z" fill="#fc7371"/>
      </g>
      <g>
        <path d="M219.6435,184.0007a.71329.71329,0,0,1-.64221-1.02252l1.68-3.49243a.71321.71321,0,0,1,1.28534.61852l-1.68,3.49243A.7124.7124,0,0,1,219.6435,184.0007Z" fill="#fc7371"/>
        <path d="M217.05935,184.0332a.71293.71293,0,0,1-.71047-.66357l-.27026-3.86624a.71313.71313,0,0,1,1.42279-.09937l.27026,3.86624a.71319.71319,0,0,1-.66171.76108C217.09325,184.03274,217.07606,184.0332,217.05935,184.0332Z" fill="#fc7371"/>
        <path d="M214.72177,184.78778a.71072.71072,0,0,1-.48479-.18992l-2.84326-2.63384a.71337.71337,0,1,1,.96958-1.04666l2.84326,2.63384a.71326.71326,0,0,1-.48479,1.23658Z" fill="#fc7371"/>
      </g>
      <circle cx="216.88868" cy="186.62943" r="1.39943" fill="#fff"/>
    </g>
    <g>
      <polygon points="248.259 306.652 208.25 305.801 211.23 302.396 252.09 304.098 248.259 306.652" fill="#fff"/>
      <polygon points="192.077 298.565 192.077 301.544 198.461 302.396 199.738 305.375 203.143 303.672 201.44 299.416 192.077 298.565" fill="#1a2d84"/>
      <path d="M183.56431,306.65183l.42562,3.8306s17.45051,7.23558,26.81421-.85124l37.45476.42562v-3.405l-38.306-.95765a24.04832,24.04832,0,0,1-13.61991,2.66014C188.67178,307.50308,183.56431,306.65183,183.56431,306.65183Z" fill="#1a2d84"/>
      <path d="M211.65538,303.24685c0,3.29005-6.861,5.95871-15.3224,5.95871-5.25643,0-9.89146-1.03-12.65374-2.60055a41.15222,41.15222,0,0,1,4.56692-2.0813l2.38347.42562,6.55459.85124,5.10747-2.55373-1.70249-3.08576-8.572-1.37478,1.01724-1.35774c1.0598-.09362,2.16645-.14044,3.29857-.14044C204.79435,297.28814,211.65538,299.95678,211.65538,303.24685Z" fill="#fff"/>
      <polygon points="252.09 304.098 252.09 307.503 248.259 310.057 248.259 306.652 252.09 304.098" fill="#5373b7"/>
    </g>
    <g>
      <polygon points="248.968 300.229 249.106 298.854 269.138 300.857 269.295 299.286 249.263 297.283 249.361 296.301 244.176 296.576 243.941 298.933 248.968 300.229" fill="#0c1031"/>
      <path d="M264.63057,300.30689l.13745-1.37473a2.26757,2.26757,0,0,1,2.4843-2.03268l20.27538,2.02719c.08645.00864.17678.01767.26279.03025a2.93871,2.93871,0,0,1,2.54568,3.42422,2.7344,2.7344,0,0,1-2.87,2.47811c-.08325-.00041-.16218-.00433-.24077-.01218l-20.5621-2.05585A2.26757,2.26757,0,0,1,264.63057,300.30689Z" fill="#1776dc"/>
      <path d="M264.67966,299.81592l.08836-.88376a2.26757,2.26757,0,0,1,2.4843-2.03268l20.27538,2.02719c.08645.00864.17678.01767.26279.03025a2.93871,2.93871,0,0,1,2.54568,3.42422Z" fill="#fff"/>
    </g>
    <g>
      <g>
        <g>
          <g>
            <path d="M119.34029,151.2204h.79721a1.80232,1.80232,0,0,1,1.80232,1.80232v48.88391a0,0,0,0,1,0,0H117.538a0,0,0,0,1,0,0V153.02272a1.80232,1.80232,0,0,1,1.80232-1.80232Z" transform="translate(263.97998 19.38022) rotate(76.68509)" fill="#0a106c"/>
            <polygon points="97.259 177.045 98.162 179.408 98.283 179.713 99.757 183.551 100.381 185.181 101.348 187.699 101.361 187.723 102.598 190.947 104.53 190.207 106.343 189.508 105.289 186.764 103.694 182.62 102.103 178.473 101.273 176.312 91.39 152.016 87.967 153.444 97.259 177.045" fill="#0a106c"/>
            <polygon points="81.226 155.103 97.692 195.175 98.043 195.039 101.437 193.736 101.406 193.653 100.955 192.482 99.634 189.047 99.364 188.335 97.773 184.187 96.179 180.043 95.586 178.497 85.038 153.849 81.226 155.103" fill="#0a106c"/>
            <path d="M121.36781,159.78744h.79721a1.80232,1.80232,0,0,1,1.80232,1.80232v48.88391a0,0,0,0,1,0,0h-4.40185a0,0,0,0,1,0,0V161.58976A1.80232,1.80232,0,0,1,121.36781,159.78744Z" transform="translate(273.8773 24.00123) rotate(76.68509)" fill="#0a106c"/>
            <rect x="91.15666" y="180.59765" width="19.4939" height="11.31904" rx="3.80305" ry="3.80305" transform="translate(264.54155 51.73618) rotate(79.02391)" fill="#fd6e6c"/>
            <g>
              <circle cx="99.87108" cy="182.24011" r="2.98697" transform="translate(-60.85474 50.5097) rotate(-21.93847)" fill="#97e3f1"/>
              <path d="M99.8708,185.70443a3.47027,3.47027,0,1,1,1.29416-.25261A3.45407,3.45407,0,0,1,99.8708,185.70443Zm-.00279-5.97582a2.51181,2.51181,0,1,0,2.33247,1.57324A2.5005,2.5005,0,0,0,99.868,179.72861Z" fill="#fff"/>
            </g>
            <g>
              <circle cx="101.58452" cy="190.70199" r="2.98697" transform="translate(-63.89211 51.76262) rotate(-21.93847)" fill="#97e3f1"/>
              <path d="M101.58892,194.16456a3.46167,3.46167,0,1,1,1.28952-.25075H102.878A3.44756,3.44756,0,0,1,101.58892,194.16456Zm1.11167-.69189h0Zm-1.11539-5.28346a2.51208,2.51208,0,1,0,.938,4.84232h-.00046a2.5127,2.5127,0,0,0-.93754-4.84232Z" fill="#fff"/>
            </g>
          </g>
          <g>
            <ellipse cx="74.22968" cy="156.47738" rx="15.29375" ry="16.79314" transform="translate(-44.90513 30.77093) rotate(-18.08382)" fill="#ceeef7"/>
            <path d="M61.56709,160.61219c2.46674,7.55421,10.04393,11.86237,16.9254,9.61531s10.4617-10.19854,7.995-17.75275Z" fill="#684435"/>
            <rect x="79.88093" y="135.49536" width="4.07106" height="10.17766" transform="translate(190.12876 19.07567) rotate(71.91618)" fill="#293c72"/>
            <rect x="61.21666" y="138.92837" width="16.28426" height="5.08883" transform="translate(179.20578 254.42779) rotate(161.91618)" fill="#293c72"/>
            <polygon points="59.486 150.585 53.395 146.686 63.07 143.526 63.86 145.945 59.486 150.585" fill="#293c72"/>
            <rect x="82.48476" y="136.54967" width="6.61548" height="17.05463" transform="translate(212.38019 256.35699) rotate(161.91618)" fill="#293c72"/>
          </g>
          <g>
            <path d="M94.55437,136.78853h-.02a.95142.95142,0,0,1-.9315-.96865c.00093-.05061.03436-4.19222-2.66681-6.36309-1.76317-1.41629-4.358-1.73066-7.71112-.93429a.95083.95083,0,0,1-.44021-1.85c3.96283-.94265,7.10978-.50011,9.35495,1.31181,3.43021,2.7685,3.36938,7.66562,3.3652,7.87272A.95116.95116,0,0,1,94.55437,136.78853Z" fill="#97e3f1"/>
            <path d="M99.52811,139.68426c-.02461,0-.04922-.00093-.0743-.00279a.95141.95141,0,0,1-.87485-1.02112c.007-.08962.62781-9.01318-4.44065-13.0777-2.92452-2.345-7.24769-2.66959-12.8497-.964a.95084.95084,0,1,1-.55351-1.81935c6.24236-1.90062,11.15526-1.46133,14.59987,1.30485,5.85091,4.69976,5.172,14.29757,5.14044,14.70388A.95071.95071,0,0,1,99.52811,139.68426Z" fill="#97e3f1"/>
          </g>
          <rect x="71.93812" y="128.05603" width="3.73321" height="14.08138" transform="translate(101.81015 -16.27685) rotate(39.12993)" fill="#2872d8"/>
          <rect x="84.99207" y="142.46711" width="3.73321" height="14.08138" transform="translate(257.38039 120.88345) rotate(110.62603)" fill="#2872d8"/>
        </g>
        <g>
          <path d="M72.74814,182.19249a7.18373,7.18373,0,0,1-1.244-.1082c-5.05685-.88367-7.76174-6.88689-7.87411-7.14229a.95094.95094,0,0,1,1.73948-.769c.032.07151,2.42209,5.33686,6.4685,6.039,2.34733.40446,4.88783-.80287,7.55278-3.59552a.95116.95116,0,0,1,1.37636,1.3132C78.06317,180.7632,75.37176,182.19249,72.74814,182.19249Z" fill="#97e3f1"/>
          <path d="M72.41566,188.7051a9.97114,9.97114,0,0,1-1.65079-.13791c-8.56926-1.43347-13.31174-13.5611-13.50956-14.077a.95094.95094,0,0,1,1.7757-.68121c.04458.11609,4.554,11.63216,12.05147,12.88314,3.89782.6501,8.02782-1.59971,12.29015-6.6835a.95093.95093,0,1,1,1.45715,1.22219C80.66543,186.19757,76.49689,188.7051,72.41566,188.7051Z" fill="#97e3f1"/>
        </g>
      </g>
      <g>
        <path d="M176.58686,101.98724a16.464,16.464,0,1,1,16.4638-16.4638A16.48252,16.48252,0,0,1,176.58686,101.98724Zm0-31.50156a15.03753,15.03753,0,1,0,15.03729,15.03776A15.05455,15.05455,0,0,0,176.58686,70.48568Z" fill="#fc7371"/>
        <path d="M176.58686,98.42515a12.90171,12.90171,0,1,1,12.90171-12.90171A12.91641,12.91641,0,0,1,176.58686,98.42515Zm0-24.37692a11.47521,11.47521,0,1,0,11.47521,11.47521A11.48835,11.48835,0,0,0,176.58686,74.04824Z" fill="#fc7371"/>
      </g>
      <path d="M166.81541,278.86449c3.2974,0,7.2331-1.36036,11.46909-3.58984,34.64687-18.23525,38.68979-66.07881,8.3536-90.83048-7.32917-5.98-14.42964-9.90072-19.82269-9.90072,0,0-38.4752-4.07106-35.31285,5.59771l-3.16235,86.51013C126.232,282.93556,166.81541,278.86449,166.81541,278.86449Z" fill="#fd4a48"/>
      <ellipse cx="139.40842" cy="226.95842" rx="27.93405" ry="52.41496" fill="#fd6e6c"/>
      <path d="M173.04786,166.65539l-.12939,2.1835a23.12622,23.12622,0,0,1-15.10122,20.347,22.32848,22.32848,0,0,1-30.05686-20.97242l-.51222-7.40773,36.28384,4.63659Z" fill="#fd4a48"/>
      <path d="M173.04786,166.65539l-.12939,2.1835a23.12622,23.12622,0,0,1-15.10122,20.347,22.10439,22.10439,0,0,1-15.112.124c16.96661-3.36421,9.823-20.51413,9.823-20.51413a86.78987,86.78987,0,0,1,11.00373-3.35341Z" fill="#fd6e6c"/>
      <rect x="151.67614" y="115.51301" width="5.59771" height="14.24873" transform="translate(308.94999 245.27476) rotate(-180)" fill="#fd6e6c"/>
      <path d="M151.67614,170.47239l27.92869.19228A16.5387,16.5387,0,0,0,195.949,154.12712V143.756a16.5387,16.5387,0,0,0-16.5387-16.5387H152.6939Z" fill="#fc9593"/>
      <path d="M119.36206,127.21733h32.05964a8.39657,8.39657,0,0,1,8.39657,8.39657v26.8133a8.39657,8.39657,0,0,1-11.3448,7.862l-32.05964-12.02236a8.39657,8.39657,0,0,1-5.44834-7.862V135.6139A8.39657,8.39657,0,0,1,119.36206,127.21733Z" fill="#fd6e6c"/>
      <g>
        <polygon points="145.607 153.405 148.11 144.066 145.607 134.728 140.601 134.728 138.097 144.066 140.601 153.405 145.607 153.405" fill="#97e3f1"/>
        <path d="M145.60678,153.88014h-5.00624a.47549.47549,0,0,1-.45925-.35245l-2.50289-9.33823a.47073.47073,0,0,1,0-.24611l2.50289-9.3387a.47549.47549,0,0,1,.45925-.35245h5.00624a.47549.47549,0,0,1,.45925.35245l2.50289,9.3387a.47073.47073,0,0,1,0,.24611l-2.50289,9.33823A.47549.47549,0,0,1,145.60678,153.88014Zm-4.64125-.951h4.27627l2.37565-8.86273-2.37565-8.86319h-4.27627l-2.37565,8.86319Z" fill="#fff"/>
      </g>
      <g>
        <polygon points="119.741 147.298 121.648 140.182 119.741 133.067 115.926 133.067 114.019 140.182 115.926 147.298 119.741 147.298" fill="#97e3f1"/>
        <path d="M119.74066,147.77337H115.926a.47549.47549,0,0,1-.45925-.35245l-1.90712-7.11535a.47073.47073,0,0,1,0-.24611l1.90712-7.11582a.47549.47549,0,0,1,.45925-.35245h0l3.8147.00046a.47509.47509,0,0,1,.45925.35245l1.90712,7.11535a.47073.47073,0,0,1,0,.24611l-1.90712,7.11535A.47549.47549,0,0,1,119.74066,147.77337Zm-3.44971-.951h3.08473l1.77988-6.63985-1.77988-6.63985-3.08473-.00046-1.77988,6.64031Z" fill="#fff"/>
      </g>
      <path d="M155.21393,121.34284l2.93629-.28505c2.87166-.1465,5.05451-5.00772,4.89623-10.904l-.18122-6.75084c-.1596-5.94563-2.63811-10.70245-5.5359-10.62466l-2.88009.07731Z" fill="#fd6e6c"/>
      <path d="M143.87467,93.1395l10.171-.273c1.47119-.03949,2.72951,2.37551,2.81053,5.39406l.46851,17.45354c.10244,3.81609-1.68433,6.50735-3.46178,5.21418l-9.769-3.71671c-1.06117-.77205-1.80471-2.79288-1.86586-5.07117l-.87048-13.46381C141.27654,95.658,142.40349,93.179,143.87467,93.1395Z" fill="#fc9593"/>
      <path d="M176.51442,128.08043a.71344.71344,0,0,1-.71325-.71325V84.8543a.71325.71325,0,1,1,1.42651,0v42.51287A.71344.71344,0,0,1,176.51442,128.08043Z" fill="#fc5150"/>
      <path d="M116.05432,227.95581a64.20832,64.20832,0,0,0,1.888,15.7245c3.13471,12.38113,9.85706,20.93546,17.64806,20.93546,4.31532,0,8.305-2.62076,11.53637-7.06839a35.99306,35.99306,0,0,0,4.54432-8.768h.00509c.37147-1.00761.71751-2.05591,1.033-3.13474a63.22134,63.22134,0,0,0,2.42226-17.68878c0-12.61011-3.39424-23.73428-8.56448-30.32942-3.12455-3.99472-6.90555-6.33051-10.97661-6.33051C124.802,191.29588,116.05432,207.70736,116.05432,227.95581Z" fill="#fc9593"/>
      <path d="M121.652,227.72174c0,17.28674,8.7477,31.29631,19.536,31.29631a12.96176,12.96176,0,0,0,5.93866-1.47068c4.85473-6.66636,8.00472-17.43943,8.00472-29.59157a60.68917,60.68917,0,0,0-3.58762-21.17462,34.843,34.843,0,0,0-4.97686-9.1548,13.0695,13.0695,0,0,0-3.58256-1.06864,11.13436,11.13436,0,0,0-1.64878-.12722,1.42846,1.42846,0,0,0-.14756-.00509,14.52369,14.52369,0,0,0-10.10641,4.5036C125.433,206.41481,121.652,216.35837,121.652,227.72174Z" fill="#fd4a48"/>
      <path d="M131.08165,200.929a12.06237,12.06237,0,0,0,15.94329,8.7477,12.33359,12.33359,0,0,0,4.51888-2.89555,34.843,34.843,0,0,0-4.97686-9.1548,13.0695,13.0695,0,0,0-3.58256-1.06864l-1.64878-.12722a1.42846,1.42846,0,0,0-.14756-.00509A14.52369,14.52369,0,0,0,131.08165,200.929Z" fill="#fff"/>
      <path d="M176.5655,93.35623a7.8574,7.8574,0,1,1,7.85415-7.85415A7.86646,7.86646,0,0,1,176.5655,93.35623Zm0-14.28828a6.43089,6.43089,0,1,0,6.42764,6.43414A6.44156,6.44156,0,0,0,176.5655,79.06794Z" fill="#fc5150"/>
      <path d="M145.56954,101.26429,146.53,110.326l4.7223,1.01777.20866-2.91965.00514.00311a1.05818,1.05818,0,0,0,.47932.11753c.82053,0,1.623-.99491,1.92148-2.50168.357-1.80122-.13935-3.66282-1.10641-4.14983a1.0467,1.0467,0,0,0-.8287-.05746l.04084-.57147Zm5.96687,6.10405.31656-4.42943a.76622.76622,0,0,1,.42431-.1462.6426.6426,0,0,1,.29086.07106c.6313.3178.94087,1.60666.68991,2.87266-.2508,1.26649-.96877,2.04025-1.5996,1.72021A.84784.84784,0,0,1,151.53641,107.36834Z" fill="#fd4a48"/>
      <g opacity="0.68">
        <path d="M157.30634,93.284,118.24827,76.62494C100.78864,69.60317,80.84742,79.8332,79.9126,96.50887q-.03676.65582-.04262,1.31357c-.118,13.31683,12.62926,24.21239,27.82162,24.26719l50.9173-1.24287Z" fill="#feecec"/>
      </g>
      <g opacity="0.73">
        <path d="M101.443,91.98908l2.33975,23.217,14.45262-.06725.67106-5.21809c.02914,0,.0587.00051.08774.00038,5.516-.02567,9.647-2.29409,11.092-6.11215a6.96183,6.96183,0,0,0-1.8034-7.75819c-2.29649-1.971-5.34957-1.99173-7.37261-1.71144l.31408-2.44233Zm17.796,15.34523,1.32677-10.317c1.45495-.29315,4.21575-.57061,6.03594.9916a4.37884,4.37884,0,0,1,1.07072,4.88684C126.64238,105.61728,123.5135,107.26234,119.239,107.33431Z" fill="#fc9593"/>
        <g>
          <path d="M110.05551,79.90846l3.1363,9.23774a5.11218,5.11218,0,0,0-3.1363-9.23774Z" fill="#fc9593"/>
          <path d="M106.46209,86.27975a4.89686,4.89686,0,0,0,4.96,3.46728l-3.1363-9.23774A4.8969,4.8969,0,0,0,106.46209,86.27975Z" fill="#fc9593"/>
        </g>
      </g>
      <path d="M117.94229,243.68031c3.13471,12.38113,9.85706,20.93546,17.64806,20.93546,4.31532,0,8.305-2.62076,11.53637-7.06839a35.99306,35.99306,0,0,0,4.54432-8.768h.00509c.37147-1.00761.71751-2.05591,1.033-3.13474l-28.56445-3.41968Z" fill="#fff"/>
      <g>
        <ellipse cx="144.49523" cy="173.6105" rx="1.58319" ry="2.96848" fill="#97e3f1"/>
        <path d="M144.49511,177.05437c-1.17343,0-2.0585-1.48037-2.0585-3.44368s.88507-3.44414,2.0585-3.44414c1.1739,0,2.059,1.48084,2.059,3.44414S145.669,177.05437,144.49511,177.05437Zm0-5.93681c-.52287,0-1.10749,1.06617-1.10749,2.49314,0,1.42651.58463,2.49267,1.10749,2.49267s1.108-1.06617,1.108-2.49267C145.60306,172.18372,145.018,171.11756,144.49511,171.11756Z" fill="#fff"/>
      </g>
      <g>
        <ellipse cx="136.7489" cy="171.23572" rx="1.58319" ry="2.96848" fill="#97e3f1"/>
        <path d="M136.74869,174.67965c-1.17343,0-2.0585-1.48084-2.0585-3.44414s.88507-3.44368,2.0585-3.44368c1.1739,0,2.059,1.48037,2.059,3.44368S137.92259,174.67965,136.74869,174.67965Zm0-5.93681c-.52287,0-1.10749,1.06617-1.10749,2.49267,0,1.427.58463,2.49314,1.10749,2.49314s1.108-1.06617,1.108-2.49314C137.85665,169.809,137.27156,168.74283,136.74869,168.74283Z" fill="#fff"/>
      </g>
      <g>
        <ellipse cx="130.6423" cy="168.86093" rx="1.58319" ry="2.96848" fill="#97e3f1"/>
        <path d="M130.64239,172.30492c-1.1739,0-2.059-1.48084-2.059-3.44414s.88507-3.44368,2.059-3.44368c1.17343,0,2.0585,1.48037,2.0585,3.44368S131.81582,172.30492,130.64239,172.30492Zm0-5.93681c-.52287,0-1.108,1.06617-1.108,2.49267,0,1.427.58509,2.49314,1.108,2.49314s1.10749-1.06617,1.10749-2.49314C131.74988,167.43427,131.16526,166.36811,130.64239,166.36811Z" fill="#fff"/>
      </g>
      <g>
        <g>
          <path d="M171.18375,195.03017h.79721a1.80232,1.80232,0,0,1,1.80232,1.80232V245.7164a0,0,0,0,1,0,0h-4.40185a0,0,0,0,1,0,0V196.83249A1.80232,1.80232,0,0,1,171.18375,195.03017Z" transform="translate(37.6537 -24.71446) rotate(9.2498)" fill="#0a106c"/>
          <polygon points="143.96 240.795 147.647 240.895 147.749 240.891 163.401 241.317 165.929 241.389 166.257 241.396 170.368 241.507 172.112 241.556 174.809 241.629 174.836 241.626 178.287 241.721 178.345 239.654 178.396 237.711 175.457 237.631 171.019 237.514 166.578 237.391 164.264 237.329 147.746 236.878 143.959 236.775 143.959 239.287 143.965 240.485 143.96 240.795" fill="#0a106c"/>
          <path d="M143.9868,247.34115l2.33658.06135,33.75054.92292.00882-.3761.09977-3.6338-.08894-.00355-1.25378-.03319-3.67929-.09807-.76153-.02414-4.44085-.12222-4.43838-.11776-1.655-.04562-17.23655-.46969-.52435-.01472-3.68517,1.52362c-.002.00689-.00651.00933-.00406.0138l-.0205.73634A1.63188,1.63188,0,0,0,143.9868,247.34115Z" fill="#0a106c"/>
          <path d="M179.873,196.44527h.79721a1.80232,1.80232,0,0,1,1.80232,1.80232V247.1315a0,0,0,0,1,0,0h-4.40185a0,0,0,0,1,0,0V198.24759A1.80232,1.80232,0,0,1,179.873,196.44527Z" transform="translate(37.99414 -26.09276) rotate(9.2498)" fill="#0a106c"/>
          <rect x="163.55939" y="235.82687" width="19.4939" height="11.31904" rx="3.80305" ry="3.80305" transform="translate(52.0434 -29.89169) rotate(11.58862)" fill="#fd6e6c"/>
          <g>
            <circle cx="169.20059" cy="240.89842" r="2.98697" transform="translate(-73.53275 407.45595) rotate(-89.37376)" fill="#97e3f1"/>
            <path d="M169.20172,244.36069h-.039a3.46246,3.46246,0,1,1,3.50033-3.42464h0a3.46239,3.46239,0,0,1-3.46132,3.42464Zm-.00186-5.9735a2.51132,2.51132,0,0,0-.02693,5.02249h.02833a2.51118,2.51118,0,0,0,2.51078-2.48385h0a2.51483,2.51483,0,0,0-2.48385-2.53864Zm2.98768,2.54375h0Z" fill="#fff"/>
          </g>
          <g>
            <circle cx="177.67218" cy="242.5632" r="2.98697" transform="matrix(0.01093, -0.99994, 0.99994, 0.01093, -66.81844, 417.57362)" fill="#97e3f1"/>
            <path d="M177.67346,246.02541h-.039a3.46234,3.46234,0,0,1-2.38355-5.93728,3.42989,3.42989,0,0,1,2.45924-.98722,3.46613,3.46613,0,0,1,3.42417,3.49986l-.4755-.00511.4755.00511a3.46159,3.46159,0,0,1-3.46086,3.42464Zm-.00186-5.9735a2.51132,2.51132,0,0,0-.02693,5.02249h.02833a2.51132,2.51132,0,0,0,.02693-5.02249Z" fill="#fff"/>
          </g>
        </g>
        <g>
          <rect x="133.17247" y="238.64074" width="3.90509" height="12.86505" transform="translate(-83.33454 70.15872) rotate(-22.44587)" fill="#2872d8"/>
          <polygon points="135.775 251.766 139.384 250.272 146.323 247.402 147.999 246.712 146.628 243.401 146.548 243.202 146.104 243.387 142.419 244.91 137.933 246.762 134.328 248.253 135.775 251.766" fill="#2872d8"/>
        </g>
        <g>
          <polygon points="143.96 240.911 144.208 240.909 147.647 240.895 147.749 240.891 147.747 238.641 147.746 236.878 147.743 228.404 147.702 228.404 143.96 228.433 143.96 231.71 143.959 236.775 143.959 239.287 143.965 240.485 143.96 240.795 143.96 240.911" fill="#2872d8"/>
          <polygon points="134.881 231.772 143.961 231.712 147.698 231.685 147.701 228.405 147.698 227.997 134.876 228.085 134.881 231.772" fill="#2872d8"/>
        </g>
      </g>
      <ellipse cx="128.21579" cy="145.79156" rx="1.52665" ry="5.85216" fill="#fff"/>
      <g>
        <g>
          <ellipse cx="179.41027" cy="279.88226" rx="4.83439" ry="9.1599" fill="#fc9593"/>
          <ellipse cx="163.63489" cy="279.37338" rx="4.83439" ry="9.1599" fill="#fc9593"/>
          <ellipse cx="147.85951" cy="279.37338" rx="4.83439" ry="9.1599" fill="#fc9593"/>
          <ellipse cx="132.08414" cy="279.37338" rx="4.83439" ry="9.1599" fill="#fc9593"/>
        </g>
        <g>
          <ellipse cx="132.22497" cy="279.24959" rx="2.48252" ry="4.70373" fill="#fd6e6c"/>
          <ellipse cx="147.95908" cy="278.98828" rx="2.48252" ry="4.70373" fill="#fd6e6c"/>
          <ellipse cx="163.6932" cy="279.49716" rx="2.48252" ry="4.70373" fill="#fd6e6c"/>
          <ellipse cx="179.42732" cy="278.98828" rx="2.48252" ry="4.70373" fill="#fd6e6c"/>
        </g>
      </g>
      <path d="M53.29134,141.44241a1.91988,1.91988,0,0,1-.09712,3.567c-2.38369.86679-4.76348,2.82718-4.93159,7.18244-.34309,8.88839-9.8233,19.59143-17.4455,16.58053-12.45623-4.92042-22.4549-18.614-10.32731-28.41525s11.01349,10.63846,17.04154,8.98768C42.735,147.91974,44.31145,137.65778,53.29134,141.44241Z" fill="#684435"/>
      <ellipse cx="18.82247" cy="132.85153" rx="2.69568" ry="2.15655" fill="#684435"/>
      <ellipse cx="37.1045" cy="141.74728" rx="2.42611" ry="2.96525" fill="#684435"/>
      <g>
        <polygon points="165.03 144.206 167.883 144.206 167.883 153.488 165.03 153.364 165.03 144.206" fill="#fd4a48"/>
        <polygon points="169.785 144.206 172.638 144.206 172.638 153.702 172.588 153.697 169.785 153.574 169.785 144.206" fill="#fd4a48"/>
        <polygon points="174.54 144.206 177.393 144.206 177.393 153.716 177.422 153.716 174.54 153.788 174.54 144.206" fill="#fd4a48"/>
        <polygon points="179.295 144.206 182.624 144.206 182.624 154.149 182.519 154.239 179.429 154.192 179.295 154.192 179.295 144.206" fill="#fd4a48"/>
        <polygon points="187.855 144.206 187.855 154.382 184.526 154.235 184.526 144.206 187.855 144.206" fill="#fd4a48"/>
      </g>
    </g>
  </g>
</svg>
