<svg xmlns="http://www.w3.org/2000/svg" viewBox="0 0 360 360">

  <g>
    <polygon points="140.367 118.329 142.261 135.278 134.741 135.868 132.867 120.316 140.367 118.329" fill="#b56757"/>
    <polygon points="172.453 117.541 170.559 134.49 178.079 135.08 179.952 119.528 172.453 117.541" fill="#b56757"/>
    <ellipse cx="231.42441" cy="286.5226" rx="35.77937" ry="2.26603" fill="#ceeef7"/>
    <ellipse cx="84.77484" cy="288.78862" rx="35.77937" ry="2.26603" fill="#ceeef7"/>
    <g>
      <g>
        <path d="M151.69071,100.11357c-8.38908,6.18143-8.58438,13.1339-10.74465,22.495,0,0-10.15521,1.32459-10.15521.44153s2.20765-20.75194,11.92133-27.81643C150.511,89.56187,158.88816,94.81019,151.69071,100.11357Z" fill="#1a2d84"/>
        <g>
          <polygon points="158.771 94.442 151.691 94.442 152.816 84.957 157.913 84.957 158.771 94.442" fill="#c58877"/>
          <path d="M166.42615,73.91409c2.973-12.3166-5.35532-22.38992-16.98842-17.83784-9.76834,3.82239-6.37066,18.26255-5.52124,19.112Z" fill="#4a261c"/>
          <ellipse cx="144.34121" cy="73.91409" rx="3.39768" ry="4.2471" transform="translate(-14.19882 39.81516) rotate(-14.97772)" fill="#b56757"/>
          <ellipse cx="165.15202" cy="73.91409" rx="4.2471" ry="3.39768" transform="translate(57.07726 219.02897) rotate(-77.43398)" fill="#b56757"/>
          <path d="M165.57673,74.12645c0,8.09236-4.329,13.37838-10.19305,13.37838s-11.04247-5.286-11.04247-13.37838,4.75373-14.65251,10.61776-14.65251S165.57673,66.03409,165.57673,74.12645Z" fill="#c58877"/>
          <path d="M154.91594,68.49076a.10886.10886,0,0,0-.212-.00548c-.45605,1.83726-2.158,8.69869-2.14171,8.71029h0a3.26828,3.26828,0,0,0,4.21067-.34849h0Z" fill="#b56757"/>
          <path d="M155.05568,81.66553a7.66327,7.66327,0,0,1-2.805-.59605.39406.39406,0,0,1,.31977-.72034c.03521.01539,3.54052,1.53111,5.03372-.70764a.394.394,0,0,1,.65569.43713A3.63969,3.63969,0,0,1,155.05568,81.66553Z" fill="#564842"/>
          <path d="M162.51786,68.96068a.39443.39443,0,0,1-.34247-.19856c-.01154-.02039-1.17652-2.02711-2.62663-2.22451a1.96162,1.96162,0,0,0-1.67829.68763.394.394,0,1,1-.55411-.56026,2.73147,2.73147,0,0,1,2.34111-.90774c1.83548.25166,3.14726,2.51773,3.20228,2.61431a.394.394,0,0,1-.34189.58912Z" fill="#564842"/>
          <ellipse cx="150.49951" cy="71.36583" rx="1.27413" ry="0.63707" transform="translate(35.20382 191.57434) rotate(-71.56505)" fill="#352b28"/>
          <ellipse cx="158.99372" cy="71.79054" rx="1.27413" ry="0.63707" transform="translate(50.39783 208.31825) rotate(-75.80145)" fill="#352b28"/>
          <path d="M144.65974,69.77316s2.01737-6.26448,5.73359-8.91892c0,0,6.68919,2.22973,9.66216.42471l4.99035,8.0695s-.31853-6.05212-1.168-7.751-8.91892-4.2471-11.46718-4.2471A9.481,9.481,0,0,0,144.65974,69.77316Z" fill="#4a261c"/>
          <circle cx="154.53426" cy="52.67857" r="4.2471" fill="#4a261c"/>
        </g>
        <rect x="140.94606" y="263.01537" width="7.06449" height="8.38908" fill="#c58877"/>
        <rect x="164.34719" y="263.01537" width="7.06449" height="8.38908" fill="#c58877"/>
        <polygon points="173.619 265.223 172.295 157.048 139.621 157.49 140.063 265.665 149.335 265.223 155.517 175.151 163.464 264.781 173.619 265.223" fill="#0c1031"/>
        <rect x="139.31718" y="263.4569" width="11.34256" height="3.33467" fill="#4177bb"/>
        <rect x="162.7183" y="263.01537" width="11.78409" height="3.33467" fill="#4177bb"/>
        <path d="M160.7234,97.44137c8.38908,6.18143,8.43647,15.80611,10.59674,25.16725,0,0,10.15521,1.32459,10.15521.44153S179.26769,102.2982,169.554,95.23371C161.75523,89.56187,153.526,92.138,160.7234,97.44137Z" fill="#1a2d84"/>
        <path d="M173.17729,158.95241H139.1802l1.76526-38.48515s1.90318-21.92,11.01321-27.56254a6.38309,6.38309,0,0,0,3.27835.99294,4.66743,4.66743,0,0,0,3.07184-1.24238,1.643,1.643,0,0,1,1.71132-.12505l.00033.00015c5.26825,3.03405,11.78556,12.5972,11.39153,27.94476A325.36348,325.36348,0,0,0,173.17729,158.95241Z" fill="#2872d8"/>
      </g>
      <g>
        <g>
          <path d="M151.11622,280.328H137.49606v-.81721a8.92429,8.92429,0,0,1,.28649-2.23559,11.439,11.439,0,0,1,1.66262-3.61639,2.33679,2.33679,0,0,0,.3992-1.315v-.93932h8.45389v.93932a2.34,2.34,0,0,0,.53542,1.49352,9.74684,9.74684,0,0,1,1.81288,3.25.0046.0046,0,0,1,.0047.0047,7.86193,7.86193,0,0,1,.33814,1.69547Z" fill="#f2704d"/>
          <path d="M151.11622,280.328H137.49606v-.81721a8.92429,8.92429,0,0,1,.28649-2.23559,9.55855,9.55855,0,0,1,12.864-.18788.0046.0046,0,0,1,.0047.0047,7.86193,7.86193,0,0,1,.33814,1.69547Z" fill="#fff"/>
        </g>
        <path d="M141.55222,272.21568h5.273s1.21685-3.24493-2.83931-3.24493C141.033,268.97075,140.33537,270.59322,141.55222,272.21568Z" fill="#f05a23"/>
        <rect x="137.49606" y="279.92239" width="13.79095" height="1.21685" fill="#684435"/>
      </g>
      <g>
        <g>
          <path d="M175.335,279.96509H161.71487v-.81721a8.92429,8.92429,0,0,1,.28649-2.23559,11.439,11.439,0,0,1,1.66262-3.61639,2.33679,2.33679,0,0,0,.3992-1.315v-.93932h8.45389v.93932a2.34,2.34,0,0,0,.53542,1.49352,9.74684,9.74684,0,0,1,1.81288,3.25.0046.0046,0,0,1,.0047.0047,7.86193,7.86193,0,0,1,.33814,1.69547Z" fill="#f2704d"/>
          <path d="M175.335,279.96509H161.71487v-.81721a8.92429,8.92429,0,0,1,.28649-2.23559,9.55855,9.55855,0,0,1,12.864-.18788.0046.0046,0,0,1,.0047.0047,7.86193,7.86193,0,0,1,.33814,1.69547Z" fill="#fff"/>
        </g>
        <path d="M165.771,271.85276h5.273s1.21685-3.24493-2.83931-3.24493C165.2518,268.60783,164.55419,270.2303,165.771,271.85276Z" fill="#f05a23"/>
        <rect x="161.71487" y="279.55947" width="13.79095" height="1.21685" fill="#684435"/>
      </g>
    </g>
    <rect x="210.95988" y="270.0527" width="5.12242" height="7.48661" fill="#f8c69d"/>
    <rect x="239.72424" y="268.8706" width="5.12242" height="7.48661" fill="#f8c69d"/>
    <g>
      <path d="M244.41863,221.38884l-1.946-65.345L227.94308,157.127l-14.5296-1.08319-1.946,65.345s-5.10127,34.02928-1.18613,51.81612h6.65573l4.48484-53.49933,6.47754-39.30156.04359-.861.04356.861,6.47754,39.30156L238.949,273.205h6.65573C249.5199,255.41812,244.41863,221.38884,244.41863,221.38884Z" fill="#0d2d88"/>
      <g>
        <rect x="223.88344" y="91.46989" width="5.80006" height="7.73341" fill="#f8c69d"/>
        <g>
          <path d="M217.59747,65.77851l-1.5136,9.38432,1.66229,1.53883s-.45141-8.19867,4.39211-12.28539Z" fill="#60433b"/>
          <ellipse cx="227.43587" cy="77.58459" rx="10.44384" ry="15.74144" fill="#f0b189"/>
          <g>
            <path d="M224.257,75.1486a.58994.58994,0,0,1-.34324-.11005,2.15482,2.15482,0,0,0-2.8752-.05926.591.591,0,0,1-.83193-.83963,3.34932,3.34932,0,0,1,4.39438-.06311.59106.59106,0,0,1-.344,1.072Z" fill="#4a1d08"/>
            <path d="M233.33861,75.45105a.58994.58994,0,0,1-.34324-.11005,2.15446,2.15446,0,0,0-2.8752-.05926.591.591,0,0,1-.83193-.83963,3.34924,3.34924,0,0,1,4.39438-.06311.59106.59106,0,0,1-.344,1.072Z" fill="#4a1d08"/>
          </g>
          <path d="M219.469,72.10332a.591.591,0,0,1-.54487-.81923,4.34655,4.34655,0,0,1,5.25594-2.2222.591.591,0,1,1-.2709,1.15054c-2.92946-.68994-3.8853,1.50571-3.89453,1.528A.59129.59129,0,0,1,219.469,72.10332Z" fill="#4a1d08"/>
          <path d="M234.34755,70.89737a.58994.58994,0,0,1-.34324-.11005c-2.42268-1.73043-4.11464-.12929-4.18544-.06041a.591.591,0,0,1-.83309-.83847,4.34782,4.34782,0,0,1,5.70577-.06311.59106.59106,0,0,1-.344,1.072Z" fill="#4a1d08"/>
          <path d="M235.90582,77.55937c0-.90816,3.44565-14.25136-8.16723-14.05125l3.63264-2.119s8.47616,2.72448,7.26528,13.31968Z" fill="#60433b"/>
          <path d="M225.77091,82.27675s-2.87584.90816-5.2976,1.81632-2.42176-5.2976-2.42176-5.2976l-.90816.45408s-.60544,14.22784,8.47616,15.136,13.31968-9.38432,11.95744-14.3792l-1.36224-1.665s-.30272,4.23808-2.119,5.14624S228.64675,81.36859,225.77091,82.27675Z" fill="#4a1d08"/>
          <path d="M227.1099,86.73985a4.73693,4.73693,0,0,1-2.779-.98623.39413.39413,0,0,1,.45868-.64107c2.582,1.84741,4.36244.11929,4.43671.04464a.39426.39426,0,1,1,.55719.558A4.086,4.086,0,0,1,227.1099,86.73985Z" fill="#f8c69d"/>
          <polygon points="226.982 73.044 224.863 81.52 226.982 83.034 228.798 81.217 226.982 73.044" fill="#db8d65"/>
          <path d="M229.254,63.46838a13.49319,13.49319,0,0,0-4.918,1.31393c-1.65893.77832-3.76626,1.84085-5.866,3.10069-4.5408,2.72448-2.22078-6.16894,2.32-8.89342s15.11575,2.43985,15.11575,5.36025C235.90582,65.2464,231.39749,63.34247,229.254,63.46838Z" fill="#4a1d08"/>
          <path d="M217.50936,76.96133c.42206,1.8329,1.42973,3.68324.13992,3.98024s-4.38869-1.0718-4.81075-2.9047.2814-3.55952,1.57122-3.85652S217.0873,75.12843,217.50936,76.96133Z" fill="#db8d65"/>
          <path d="M236.89133,76.82587c-.58806,1.78657-1.76088,3.5369-.50367,3.95072s4.46838-.66558,5.05644-2.45214.04561-3.57033-1.21161-3.98416S237.47939,75.0393,236.89133,76.82587Z" fill="#db8d65"/>
        </g>
        <path d="M276.47061,116.99014l-20.59385-15.15174a25.35464,25.35464,0,0,0-22.68907-3.74618l-3.5042,1.11109h-5.80006l-1.046-.37773a25.35464,25.35464,0,0,0-23.82434,3.56369l-19.98339,14.98754,10.4401,3.48,21.4497-11.09468L212.67,157.20385h30.16029l2.04739-47.6748,21.15283,10.94111Z" fill="#0c1031"/>
        <path d="M276.5866,116.99014l-10.4401,3.48-21.142,14.2436a9.11349,9.11349,0,0,0-3.94776,5.94579,4.35291,4.35291,0,0,0,.16111,2.47335,3.85288,3.85288,0,0,0,.97439,1.31082l.77334,9.28009,3.8667-9.28009-.90867-5.80006C283.102,120.88391,277.31742,117.63974,276.5866,116.99014Z" fill="#f0b189"/>
        <path d="M179.06807,117.37681l10.4401,3.48,21.142,14.2436a9.11349,9.11349,0,0,1,3.94776,5.94579,4.3529,4.3529,0,0,1-.16111,2.47335,3.85288,3.85288,0,0,1-.97439,1.31082l-.77334,9.28009-3.8667-9.28009.90867-5.80006C172.55266,121.27058,178.33725,118.02641,179.06807,117.37681Z" fill="#f0b189"/>
      </g>
    </g>
    <ellipse cx="170.6031" cy="309.30251" rx="35.77937" ry="2.26603" fill="#ceeef7"/>
    <g>
      <g>
        <path d="M220.64478,284.63189H207.41359V283.838a8.66943,8.66943,0,0,1,.2783-2.17174,11.11236,11.11236,0,0,1,1.61514-3.51311,2.27005,2.27005,0,0,0,.3878-1.27749v-.9125h8.21246v.9125a2.27322,2.27322,0,0,0,.52013,1.45086,9.46848,9.46848,0,0,1,1.76111,3.15723.00447.00447,0,0,1,.00457.00457,7.6374,7.6374,0,0,1,.32849,1.647Z" fill="#201917"/>
        <path d="M220.64478,284.63189H207.41359V283.838a8.66943,8.66943,0,0,1,.2783-2.17174,9.28557,9.28557,0,0,1,12.49664-.18251.00447.00447,0,0,1,.00457.00457,7.6374,7.6374,0,0,1,.32849,1.647Z" fill="#66bfe2"/>
      </g>
      <path d="M211.35392,276.75124h5.12242s1.1821-3.15226-2.75823-3.15226C210.84951,273.599,210.17182,275.17512,211.35392,276.75124Z" fill="#2872d8"/>
      <rect x="207.41359" y="284.23786" width="13.3971" height="1.1821" fill="#684435"/>
    </g>
    <g>
      <g>
        <path d="M249.0151,284.63189H235.78392V283.838a8.66943,8.66943,0,0,1,.2783-2.17174,11.11236,11.11236,0,0,1,1.61514-3.51311,2.27005,2.27005,0,0,0,.3878-1.27749v-.9125h8.21246v.9125a2.27322,2.27322,0,0,0,.52013,1.45086,9.46848,9.46848,0,0,1,1.76111,3.15723.00447.00447,0,0,1,.00457.00457,7.6374,7.6374,0,0,1,.32849,1.647Z" fill="#201917"/>
        <path d="M249.0151,284.63189H235.78392V283.838a8.66943,8.66943,0,0,1,.2783-2.17174,9.28557,9.28557,0,0,1,12.49664-.18251.00447.00447,0,0,1,.00457.00457,7.6374,7.6374,0,0,1,.32849,1.647Z" fill="#66bfe2"/>
      </g>
      <path d="M239.72424,276.75124h5.12242s1.1821-3.15226-2.75823-3.15226C239.21983,273.599,238.54214,275.17512,239.72424,276.75124Z" fill="#2872d8"/>
      <rect x="235.78392" y="284.23786" width="13.3971" height="1.1821" fill="#684435"/>
    </g>
    <line x1="152.86099" y1="205.84225" x2="152.86099" y2="205.84225" fill="none"/>
    <polyline points="154.437 206.209 154.547 206.236 154.437 206.236" fill="none"/>
    <g>
      <path d="M153.05608,165.05068a12.787,12.787,0,1,1,12.78719-12.78681A12.80137,12.80137,0,0,1,153.05608,165.05068Zm0-24.3919a11.6049,11.6049,0,1,0,11.6051,11.6051A11.61806,11.61806,0,0,0,153.05608,140.65877Z" fill="#fc7371"/>
      <path d="M153.05608,162.29245a10.02877,10.02877,0,1,1,10.029-10.02858A10.03992,10.03992,0,0,1,153.05608,162.29245Zm0-18.87545a8.84668,8.84668,0,1,0,8.84687,8.84687A8.85686,8.85686,0,0,0,153.05608,143.417Z" fill="#fc7371"/>
    </g>
    <g>
      <path d="M204.08631,212.95684h3.40839a0,0,0,0,1,0,0V250.4994a1.70419,1.70419,0,0,1-1.70419,1.70419h0a1.70419,1.70419,0,0,1-1.70419-1.70419V212.95684a0,0,0,0,1,0,0Z" transform="translate(491.14967 110.0509) rotate(108.26487)" fill="#0a106c"/>
      <polygon points="223.1 234.454 222.245 236.216 222.132 236.443 220.738 239.306 220.148 240.521 219.234 242.399 219.222 242.417 218.052 244.821 216.612 244.121 215.26 243.461 216.256 241.415 217.763 238.325 219.267 235.231 220.052 233.62 229.299 215.537 231.845 216.868 223.1 234.454" fill="#0a106c"/>
      <polygon points="236.934 218.598 221.554 248.41 221.293 248.282 218.762 247.051 218.791 246.988 219.217 246.115 220.466 243.554 220.722 243.022 222.226 239.929 223.733 236.839 224.294 235.686 234.077 217.376 236.934 218.598" fill="#0a106c"/>
      <path d="M201.94986,219.43017h3.40839a0,0,0,0,1,0,0v37.54256a1.70419,1.70419,0,0,1-1.70419,1.70419h0a1.70419,1.70419,0,0,1-1.70419-1.70419V219.43017A0,0,0,0,1,201.94986,219.43017Z" transform="translate(494.49082 120.58184) rotate(108.26487)" fill="#0a106c"/>
      <rect x="212.12563" y="236.93431" width="15.09428" height="8.76442" rx="3.15146" ry="3.15146" transform="translate(512.00417 96.29191) rotate(105.92605)" fill="#fd6e6c"/>
      <g>
        <circle cx="220.73767" cy="238.28666" r="2.31283" transform="translate(-91.61717 327.39391) rotate(-63.11157)" fill="#97e3f1"/>
        <path d="M220.735,240.995a2.714,2.714,0,1,1,.84424-.13545A2.69333,2.69333,0,0,1,220.735,240.995Zm.00577-4.6268a1.91845,1.91845,0,0,0-.8708,3.62979h0a1.91879,1.91879,0,1,0,.8708-3.62979Z" fill="#fff"/>
      </g>
      <g>
        <circle cx="218.85053" cy="244.69985" r="2.31283" transform="translate(-98.37069 329.22359) rotate(-63.11157)" fill="#97e3f1"/>
        <path d="M218.846,247.4065a2.686,2.686,0,0,1-1.21942-.29245h0a2.70715,2.70715,0,1,1,1.21942.29245Zm-.8631-.99509a1.919,1.919,0,1,0-.84386-2.5793,1.92119,1.92119,0,0,0,.84386,2.5793Z" fill="#fff"/>
      </g>
    </g>
    <path d="M241.37971,208.9777l.265,1.9875a7.58171,7.58171,0,0,0-5.99673,1.42149,5.6688,5.6688,0,0,0-1.439,6.324c1.19113,3.10341,4.56339,4.93484,9.05494,4.93484l.07144-.00064.56619,4.24634h11.76843l1.81719-18.91355Zm-5.20882,8.98024a3.56555,3.56555,0,0,1,.85333-3.98321c1.47618-1.27894,3.72525-1.06348,4.91106-.83029l1.11943,8.39568C239.57391,221.49771,237.02,220.17006,236.17089,217.95794Z" fill="#fd6e6c"/>
    <path d="M160.62227,301.96931c-2.55321,0-5.60065-1.05334-8.88061-2.77964-26.82735-14.1197-29.95781-51.16535-6.46826-70.33077,5.675-4.63033,11.173-7.6662,15.34887-7.6662,0,0,29.79165-3.15226,27.343,4.33435l2.44863,66.98548C192.04634,305.12157,160.62227,301.96931,160.62227,301.96931Z" fill="#fd4a48"/>
    <ellipse cx="181.84372" cy="261.77802" rx="21.62956" ry="40.58532" fill="#fd6e6c"/>
    <path d="M191.25944,210.55486l-.394,5.73711A17.30319,17.30319,0,0,1,167.58992,232.53a17.90378,17.90378,0,0,1-11.52544-14.15758c-.08276-.52407-.1379-1.056-.16943-1.59583l-.09851-1.69041Z" fill="#fd4a48"/>
    <rect x="168.01037" y="175.48496" width="4.33435" height="11.0329" fill="#fd6e6c"/>
    <path d="M169.60538,179.999l-2.27359-.22072c-2.22355-.11343-3.91374-3.87752-3.79119-8.443l.14032-5.22723c.12358-4.60375,2.04271-8.287,4.28649-8.22676l2.23008.05986Z" fill="#fd6e6c"/>
    <path d="M178.38546,158.161l-7.87545-.2114c-1.13915-.03058-2.11348,1.83938-2.17622,4.17666l-.36277,13.51441c-.07932,2.95483,1.30419,5.0387,2.68048,4.03738l7.5642-2.87788c.82167-.59781,1.3974-2.16255,1.44475-3.92665l.674-10.42513C180.39722,160.11108,179.52461,158.19155,178.38546,158.161Z" fill="#fc9593"/>
    <path d="M153.11207,185.25484a.59108.59108,0,0,1-.591-.591V151.74593a.591.591,0,1,1,1.1821,0v32.91785A.59108.59108,0,0,1,153.11207,185.25484Z" fill="#fc5150"/>
    <path d="M199.927,262.55031a49.717,49.717,0,0,1-1.46187,12.17561c-2.42723,9.58681-7.6324,16.21049-13.665,16.21049-3.34139,0-6.43061-2.02928-8.9327-5.47311a27.86971,27.86971,0,0,1-3.5187-6.78917h-.00394c-.28764-.7802-.55557-1.59191-.7999-2.42725a48.95279,48.95279,0,0,1-1.87557-13.69656c0-9.76411,2.62819-18.37765,6.63155-23.48431,2.41936-3.09314,5.347-4.90176,8.49928-4.90176C193.15357,234.16423,199.927,246.87177,199.927,262.55031Z" fill="#fc9593"/>
    <path d="M195.59263,262.36907c0,13.38526-6.77342,24.233-15.1269,24.233a10.03639,10.03639,0,0,1-4.59835-1.13876c-3.75906-5.16181-6.19812-13.50349-6.19812-22.913a46.99211,46.99211,0,0,1,2.77792-16.39568,26.97918,26.97918,0,0,1,3.85362-7.08864,10.11982,10.11982,0,0,1,2.774-.82746,8.62143,8.62143,0,0,1,1.27666-.09851,1.10609,1.10609,0,0,1,.11426-.00394,11.24581,11.24581,0,0,1,7.82547,3.48718C192.665,245.87094,195.59263,253.57032,195.59263,262.36907Z" fill="#fd4a48"/>
    <path d="M188.2912,241.62326a9.34,9.34,0,0,1-12.345,6.77342,9.55,9.55,0,0,1-3.499-2.242,26.97918,26.97918,0,0,1,3.85362-7.08864,10.11982,10.11982,0,0,1,2.774-.82746l1.27666-.09851a1.10609,1.10609,0,0,1,.11426-.00394A11.24581,11.24581,0,0,1,188.2912,241.62326Z" fill="#fff"/>
    <path d="M153.07263,158.36752a6.12289,6.12289,0,1,1,6.12539-6.1202A6.12715,6.12715,0,0,1,153.07263,158.36752Zm0-11.06369a4.9408,4.9408,0,1,0,4.9433,4.94349A4.94639,4.94639,0,0,0,153.07263,147.30384Z" fill="#fc5150"/>
    <g>
      <path d="M154.93405,239.70544h3.40839a0,0,0,0,1,0,0V277.248a1.70419,1.70419,0,0,1-1.70419,1.70419h0a1.70419,1.70419,0,0,1-1.70419-1.70419V239.70544a0,0,0,0,1,0,0Z" transform="translate(439.61501 367.54678) rotate(142.06077)" fill="#0a106c"/>
      <polygon points="182.991 262.933 180.525 264.371 180.454 264.406 169.981 270.514 168.29 271.503 168.069 271.629 165.319 273.233 164.153 273.914 162.348 274.966 162.328 274.974 160.019 276.322 159.212 274.939 158.455 273.638 160.421 272.492 163.392 270.762 166.363 269.028 167.912 268.126 178.964 261.68 181.498 260.202 182.432 261.908 182.873 262.724 182.991 262.933" fill="#0a106c"/>
      <path d="M185.4069,267.389l-1.56432.91021-22.582,13.1725-.14579-.25219-1.41851-2.43117.05909-.03547.83929-.4886,2.4627-1.43426.50829-.29947,2.971-1.73375,2.971-1.72981,1.10723-.64619,11.53333-6.72613.35069-.2049,3.0695-.33492c.00394.00392.00789.00392.00789.00786l.28764.49254A1.26358,1.26358,0,0,1,185.4069,267.389Z" fill="#0a106c"/>
      <path d="M149.55791,243.89657h3.40839a0,0,0,0,1,0,0v37.54256a1.70419,1.70419,0,0,1-1.70419,1.70419h0a1.70419,1.70419,0,0,1-1.70419-1.70419V243.89657a0,0,0,0,1,0,0Z" transform="translate(432.57572 378.34868) rotate(142.06077)" fill="#0a106c"/>
      <rect x="155.76816" y="269.92851" width="15.09428" height="8.76442" rx="3.15146" ry="3.15146" transform="translate(465.25237 378.00383) rotate(139.72195)" fill="#fd6e6c"/>
      <g>
        <circle cx="165.88557" cy="272.38517" r="2.31283" transform="translate(-112.12141 116.10395) rotate(-29.31567)" fill="#97e3f1"/>
        <path d="M165.89022,275.09149a2.70918,2.70918,0,0,1-2.365-1.381h0a2.709,2.709,0,1,1,2.365,1.381Zm-1.67772-1.7666a1.91883,1.91883,0,1,0,.73362-2.61277,1.92111,1.92111,0,0,0-.73362,2.61277Z" fill="#fff"/>
      </g>
      <g>
        <circle cx="160.75007" cy="276.66499" r="2.31283" transform="translate(-114.87458 114.1376) rotate(-29.31567)" fill="#97e3f1"/>
        <path d="M160.75491,279.37121a2.70926,2.70926,0,0,1-2.36516-1.381h0a2.709,2.709,0,1,1,2.36516,1.381Zm-1.67791-1.7666a1.91883,1.91883,0,1,0,.73362-2.61277,1.92188,1.92188,0,0,0-.73362,2.61277Z" fill="#fff"/>
      </g>
    </g>
    <path d="M172.11513,164.45205l.03162.44249a.81047.81047,0,0,0-.64167.04449c-.7488.3771-1.13309,1.81855-.8567,3.21325.23113,1.1667.85248,1.93707,1.48782,1.93707a.81936.81936,0,0,0,.37114-.091l.004-.00241.16157,2.26071,3.65652-.78806.7437-7.01653Zm.24328,4.79479c-.48846.24781-1.04438-.35132-1.23858-1.332-.19432-.98027.04538-1.97824.5342-2.22432a.49757.49757,0,0,1,.22522-.055.59329.59329,0,0,1,.32855.1132l.24512,3.42974A.65647.65647,0,0,1,172.35841,169.24684Z" fill="#fd4a48"/>
    <g opacity="0.68">
      <path d="M168.61762,157.92252l25.20784-11.3405a17.71305,17.71305,0,0,1,24.988,14.968q.02841.48511.03679.97143a17.64173,17.64173,0,0,1-17.86463,17.74679l-33.00336-.21962Z" fill="#feecec"/>
    </g>
    <ellipse cx="197.5839" cy="256.26157" rx="11.84208" ry="13.00306" fill="#ceeef7"/>
    <path d="M207.89812,256.26157c0,6.15324-4.5418,11.14548-10.14705,11.14548s-10.15167-4.99225-10.15167-11.14548Z" fill="#684435"/>
    <g>
      <path d="M195.69846,159.653l.21078,1.58086a6.0305,6.0305,0,0,0-4.7698,1.13066,4.509,4.509,0,0,0-1.14461,5.03012c.94742,2.46846,3.62972,3.92518,7.20231,3.92518l.05683-.00051.45035,3.37754h9.36062l1.4454-15.04385Zm-4.1431,7.14289a2.836,2.836,0,0,1,.67874-3.16825,4.74743,4.74743,0,0,1,3.90626-.66041l.89039,6.67793C194.26212,169.61147,192.23071,168.55546,191.55536,166.79593Z" fill="#fc9593"/>
      <g>
        <path d="M202.89592,151.85484l-2.00342,5.99239a3.311,3.311,0,0,1,2.00342-5.99239Z" fill="#fc9593"/>
        <path d="M205.24244,155.97044a3.17155,3.17155,0,0,1-3.202,2.26058l2.00342-5.99239A3.17157,3.17157,0,0,1,205.24244,155.97044Z" fill="#fc9593"/>
      </g>
    </g>
    <g>
      <rect x="189.07138" y="257.57376" width="3.02374" height="9.96151" transform="matrix(0.99407, -0.10876, 0.10876, 0.99407, -27.42375, 22.28425)" fill="#66bfe2"/>
      <polygon points="192.629 267.342 189.623 267.669 183.843 268.299 182.448 268.453 182.148 265.695 182.129 265.529 182.499 265.49 185.568 265.155 189.304 264.745 192.306 264.418 192.629 267.342" fill="#66bfe2"/>
    </g>
    <g>
      <polygon points="183.035 263.011 182.865 263.102 180.525 264.371 180.454 264.406 179.619 262.877 178.964 261.68 175.816 255.923 175.844 255.907 178.397 254.536 179.615 256.762 181.498 260.202 182.432 261.908 182.873 262.724 182.991 262.933 183.035 263.011" fill="#66bfe2"/>
      <polygon points="185.805 253.429 179.615 256.763 177.067 258.134 175.846 255.907 175.695 255.629 184.438 250.923 185.805 253.429" fill="#66bfe2"/>
    </g>
    <rect x="186.52989" y="242.47044" width="3.15226" height="7.88064" transform="translate(434.51678 58.30475) rotate(90)" fill="#293c72"/>
    <rect x="191.25827" y="242.07641" width="12.60903" height="3.94032" fill="#293c72"/>
    <polygon points="207.02 248.381 210.566 244.047 202.685 244.047 202.685 246.017 207.02 248.381" fill="#293c72"/>
    <rect x="183.77166" y="244.04657" width="5.12242" height="15.36726" fill="#293c72"/>
    <rect x="228.2973" y="215.28221" width="11.82097" height="3.94032" fill="#66bfe2"/>
    <path d="M198.46511,274.72591c-2.42723,9.58681-7.6324,16.21049-13.665,16.21049-3.34139,0-6.43061-2.02928-8.9327-5.47311a27.86971,27.86971,0,0,1-3.5187-6.78917h-.00394c-.28764-.7802-.55557-1.59191-.7999-2.42725Z" fill="#fff"/>
    <g>
      <ellipse cx="150.86997" cy="302.75737" rx="3.74331" ry="7.09258" fill="#fc9593"/>
      <ellipse cx="163.08497" cy="302.36334" rx="3.74331" ry="7.09258" fill="#fc9593"/>
      <ellipse cx="175.29997" cy="302.36334" rx="3.74331" ry="7.09258" fill="#fc9593"/>
      <ellipse cx="187.51497" cy="302.36334" rx="3.74331" ry="7.09258" fill="#fc9593"/>
    </g>
    <ellipse cx="177.90496" cy="220.4703" rx="1.22588" ry="2.29852" fill="#fff"/>
    <ellipse cx="183.903" cy="218.63149" rx="1.22588" ry="2.29852" fill="#fff"/>
    <ellipse cx="188.63139" cy="216.79267" rx="1.22588" ry="2.29852" fill="#fff"/>
    <g>
      <ellipse cx="151.01906" cy="302.66153" rx="1.92224" ry="3.64214" fill="#fd6e6c"/>
      <ellipse cx="163.20211" cy="302.45919" rx="1.92224" ry="3.64214" fill="#fd6e6c"/>
      <ellipse cx="175.38516" cy="302.85322" rx="1.92224" ry="3.64214" fill="#fd6e6c"/>
      <ellipse cx="187.56821" cy="302.45919" rx="1.92224" ry="3.64214" fill="#fd6e6c"/>
    </g>
    <path d="M163.0226,115.36818l15.05645,19.71139-2.01094,6.487a2.34024,2.34024,0,0,1-3.27264,1.40484h0a123.79453,123.79453,0,0,1-11.02739-21.03382l-1.71258-4.20446Z" fill="#c58877"/>
    <path d="M182.54344,231.08a17.16489,17.16489,0,0,1-14.95353,1.45,17.90378,17.90378,0,0,1-11.52544-14.15758l-.16943-1.59583,13.17223.016S166.43935,232.4,182.54344,231.08Z" fill="#fd6e6c"/>
    <path d="M172.34472,218.04044l-21.62541.14889a12.806,12.806,0,0,1-12.6554-12.80516v-8.03042a12.806,12.806,0,0,1,12.806-12.806h20.68669Z" fill="#fc9593"/>
    <path d="M197.36577,184.5477h-24.824a6.50153,6.50153,0,0,0-6.50153,6.50153V211.811a6.50153,6.50153,0,0,0,8.78437,6.08757l24.824-9.309a6.50153,6.50153,0,0,0,4.21869-6.08757V191.04923A6.50153,6.50153,0,0,0,197.36577,184.5477Z" fill="#fd6e6c"/>
    <g>
      <polygon points="177.044 204.825 175.106 197.594 177.044 190.363 180.921 190.363 182.859 197.594 180.921 204.825 177.044 204.825" fill="#97e3f1"/>
      <path d="M180.92078,205.21888h-3.87645a.39386.39386,0,0,1-.38056-.29206l-1.93822-7.23072a.39413.39413,0,0,1,0-.20394l1.93822-7.23111a.39386.39386,0,0,1,.38056-.29206h3.87645a.394.394,0,0,1,.38056.29206l1.93784,7.23111a.39008.39008,0,0,1,0,.20394l-1.93784,7.23072A.394.394,0,0,1,180.92078,205.21888Zm-3.57419-.78806h3.27174l1.8324-6.83669-1.8324-6.83708h-3.27174l-1.8326,6.83708Z" fill="#fff"/>
    </g>
    <g>
      <polygon points="197.861 200.096 196.384 194.587 197.861 189.077 200.814 189.077 202.291 194.587 200.814 200.096 197.861 200.096" fill="#97e3f1"/>
      <path d="M200.8144,200.49049h-2.9537a.394.394,0,0,1-.38056-.29206l-1.47685-5.50991a.39008.39008,0,0,1,0-.20394l1.47685-5.50953a.394.394,0,0,1,.38056-.29206h2.9537a.394.394,0,0,1,.38056.29206l1.47685,5.50953a.39008.39008,0,0,1,0,.20394l-1.47685,5.50991A.394.394,0,0,1,200.8144,200.49049Zm-2.65125-.78806h2.3488l1.37142-5.11588-1.37142-5.11549h-2.3488l-1.37142,5.11549Z" fill="#fff"/>
    </g>
    <polygon points="193.622 196.369 193.622 200.703 190.076 204.643 186.451 202.039 186.463 200.746 186.471 200.124 186.498 197.295 193.622 196.369" fill="#66bfe2"/>
    <polygon points="193.622 196.369 193.622 198.93 186.471 200.124 186.498 197.295 193.622 196.369" fill="#fff"/>
    <g>
      <polygon points="142.616 197.962 144.98 197.962 144.98 205.653 142.616 205.551 142.616 197.962" fill="#fff"/>
      <polygon points="146.556 197.962 148.921 197.962 148.921 205.83 148.879 205.826 146.556 205.724 146.556 197.962" fill="#fff"/>
      <polygon points="150.497 197.962 152.861 197.962 152.861 205.842 152.885 205.842 150.497 205.901 150.497 197.962" fill="#fff"/>
      <polygon points="154.437 197.962 157.195 197.962 157.195 206.201 157.109 206.276 154.547 206.236 154.437 206.236 154.437 197.962" fill="#fd4a48"/>
      <polygon points="161.53 197.962 161.53 206.394 158.771 206.272 158.771 197.962 161.53 197.962" fill="#fd4a48"/>
    </g>
    <path d="M154.8408,115.80431s2.4967-6.48688,1.36312-7.19323-3.24624,5.154-3.24624,5.154Z" fill="#b56757"/>
    <path d="M154.04308,103.85355c-.45971-3.34927-1.63238-1.97016-1.63238-1.97016L149.797,116.15624l-15.05646,19.71138,2.01095,6.48705a2.34022,2.34022,0,0,0,3.27263,1.40482,123.7935,123.7935,0,0,0,11.0274-21.03383l.65734-1.61378a8.85044,8.85044,0,0,1,1.98155-2.82629c.90678-.91975,1.15249-3.691,1.15249-3.691S154.5028,107.20283,154.04308,103.85355Z" fill="#c58877"/>
    <path d="M151.54458,112.45661s-.911-8.73438-.651-9.25976,1.11371-1.37334,1.50774,4.56709Z" fill="#c58877"/>
    <path d="M160.05549,117.73316c.75075.72114,1.908-.10094,2.86275-.51586a17.64016,17.64016,0,0,0,6.84827-5.57314c3.86937-5.056-.38083-3.76889-3.36134-2.59613C163.70408,110.11085,157.59344,115.36818,160.05549,117.73316Z" fill="#c58877"/>
    <path d="M160.05549,117.73316s-2.46612-1.78387.78465-8.45426c1.528-3.13529,1.14784,2.89926,1.14784,2.89926Z" fill="#b56757"/>
    <path d="M148.23072,68.74558a.39428.39428,0,0,1-.33651-.59874c.63164-1.03972,2.42076-2.72744,4.6749-1.66463a.39384.39384,0,1,1-.33554.71264c-2.18218-1.02625-3.60613,1.26329-3.66558,1.36141A.39413.39413,0,0,1,148.23072,68.74558Z" fill="#564842"/>
    <g>
      <g>
        <path d="M122.74681,145.665s2.97576,2.04052,8.44841-.58278a4.79548,4.79548,0,0,0,2.22708-2.0939c.55356-1.08012.58507-2.34026-2.28176-2.34026a41.166,41.166,0,0,0-6.94654.38592Z" fill="#f7c49c"/>
        <polygon points="92.549 270.317 91.777 278.807 96.408 278.421 96.794 270.317 92.549 270.317" fill="#f7c49c"/>
        <g>
          <path d="M96.07578,141.77536c.5401.30322,12.95933,8.13671,25.44651,3.18623l.15759-3.12747s-17.29844-1.14655-21.91606-5.99579Z" fill="#dfa47d"/>
          <path d="M84.518,110.863c-1.62163.49931-.84842,3.55423-1.4777,6.18782a17.16528,17.16528,0,0,0,.17477,5.3914c.83532,7.42041,7.67033,15.53554,14.06816,20.29949l3.141-6.49512a23.34594,23.34594,0,0,1-7.79431-11.95239,26.97258,26.97258,0,0,0-6.49918-11.74642Z" fill="#3a2f2b"/>
          <path d="M121.43935,141.94624a6.59439,6.59439,0,0,1,8.44255-.35891c3.46659,2.45959-.00293,2.06541-1.38092,1.42958s-2.0019-.29709-2.59015.75069-2.65865,2.50369-4.271,1.5985S121.43935,141.94624,121.43935,141.94624Z" fill="#dfa47d"/>
        </g>
        <path d="M84.04547,105.76762a18.32678,18.32678,0,0,0,19.67815-3.42533s-4.60771-2.2785-4.49484-13.31545C99.22878,89.02684,86.46182,81.8671,84.04547,105.76762Z" fill="#ba5927"/>
        <path d="M90.75724,277.77692l-2.09116,9.17038,3.12987.1998.86129-2.10589L95.006,287.352l13.91036.888s-.36467-2.4019-7.09534-4.41065a4.49929,4.49929,0,0,1-2.94117-6.35577l-.00061-.00092Z" fill="#0d2d88"/>
        <polygon points="80.585 270.703 80.602 281.128 75.382 281.223 75.954 271.089 80.585 270.703" fill="#f7c49c"/>
        <path d="M71.433,150.37476l17.25647,4.1664s14.45628,64.98936,13.89307,65.99209l-5.01694,51.32718-6.1747-.38592.38592-47.468-9.36822-41.7276a.26436.26436,0,0,0-.48605.19737L82.51479,217.06l-1.261,55.34952-6.92847.85419-3.00213-52.73045S61.28926,173.83709,71.433,150.37476Z" fill="#2872d8"/>
        <path d="M92.54868,170.36382l-25.85655,1.15776L70.02678,116.145a7.22443,7.22443,0,0,1,6.50775-6.7813c7.73337-.71356,20.41109,2.47221,14.08455,33.214C88.89751,150.94313,92.54868,170.36382,92.54868,170.36382Z" fill="#12104a"/>
        <path d="M78.69428,100.72792l-.87389,11.52871,3.01166.08956a2.56184,2.56184,0,0,0,2.65961-2.15829l.827-6.10312Z" fill="#f7c49c"/>
        <path d="M96.07608,93.66767c-1.30115,7.52173-4.91925,11.77134-10.9092,10.79394S73.08341,97.64992,74.38455,90.1282s7.21175-12.827,13.2017-11.84955S97.37723,86.14594,96.07608,93.66767Z" fill="#f7c49c"/>
        <path d="M91.59568,87.73058l2.18965,4.51124a1.41138,1.41138,0,0,1-1.02181,1.9903l-2.39879.51664Z" fill="#d19f7d"/>
        <path d="M86.05262,78.68435s.58347,9.8999-5.54743,11.85905a6.08319,6.08319,0,0,0-1.91193,6.97292c1.22019,3.43389-.1492,8.47065-.1492,8.47065s-10.746-6.43374-14.84011-7.10032c0,0,6.26705-10.23344,9.66021-17.69957C76.70343,73.61945,84.52482,73.65223,86.05262,78.68435Z" fill="#ee7f33"/>
        <path d="M85.34323,80.01775s6.968-2.10073,9.0094,4.5433,3.32967,5.94077,4.87616,4.46579,1.69569-9.94563-5.7309-13.39761-10.02922-1.65275-10.94462-.333S85.34323,80.01775,85.34323,80.01775Z" fill="#ee7f33"/>
        <ellipse cx="88.05205" cy="89.07281" rx="1.18073" ry="0.61939" transform="translate(-6.66457 171.02335) rotate(-86.19714)" fill="#28211e"/>
        <ellipse cx="94.23234" cy="89.48362" rx="1.18073" ry="0.61939" transform="translate(-1.30408 177.57359) rotate(-86.19714)" fill="#28211e"/>
        <path d="M90.30375,98.378a4.70671,4.70671,0,0,1-3.67385-2.06867.3941.3941,0,0,1,.66782-.41866h0a3.66729,3.66729,0,0,0,5.18476,1.0378.39415.39415,0,0,1,.39557.68186A5.1091,5.1091,0,0,1,90.30375,98.378Z" fill="#b26b37"/>
        <path d="M85.76315,86.55361a.39406.39406,0,0,1-.22164-.72c.10755-.07388,2.66164-1.777,4.23739-.30437a.39394.39394,0,1,1-.53795.57566c-1.11649-1.0428-3.23634.36671-3.2575.38095A.39223.39223,0,0,1,85.76315,86.55361Z" fill="#b26b37"/>
        <path d="M97.36439,87.486a.39429.39429,0,0,1-.36594-.24742c-.547-1.36334-3.10281-.9516-3.12821-.947a.39391.39391,0,1,1-.13737-.77575c.13025-.02424,3.20555-.54372,3.99708,1.42952a.39379.39379,0,0,1-.21895.51216A.38657.38657,0,0,1,97.36439,87.486Z" fill="#b26b37"/>
        <g opacity="0.58">
          <path d="M91.16882,89.00765c-.39377,2.65312-2.02257,4.564-3.638,4.268S84.925,90.589,85.31872,87.93591s2.02257-4.564,3.638-4.268S91.56259,86.35453,91.16882,89.00765Z" fill="#fff"/>
        </g>
        <g opacity="0.58">
          <path d="M98.80076,89.10548c-.49735,2.63217-2.202,4.47779-3.8074,4.1223s-2.50369-2.77746-2.00635-5.40963,2.202-4.47779,3.8074-4.1223S99.29811,86.47331,98.80076,89.10548Z" fill="#fff"/>
        </g>
        <path d="M78.49433,88.64806a.197.197,0,0,1-.01251-.39365l7.144-.4633a.197.197,0,1,1,.0254.39326l-7.144.4633Z" fill="#fff"/>
        <ellipse cx="79.28218" cy="90.26488" rx="3.93576" ry="2.78727" transform="translate(-16.04224 163.3858) rotate(-86.19714)" fill="#f7c49c"/>
        <path d="M92.82109,89.151a.19717.19717,0,0,1-.18028-.11736c-.12083-.27282-.27436-.42828-.45637-.46291a1.137,1.137,0,0,0-.82058.359.197.197,0,0,1-.27821-.279,1.54929,1.54929,0,0,1,1.17017-.46753,1.05525,1.05525,0,0,1,.74516.6911.1967.1967,0,0,1-.10043.25974A.19425.19425,0,0,1,92.82109,89.151Z" fill="#fff"/>
        <path d="M88.04191,102.961a5.507,5.507,0,0,1-1.00451-.10274.39419.39419,0,0,1,.14468-.775c.67436.12583,1.55362.18239,1.91437-.26359.37787-.4683.11217-1.41028-.01077-1.7035a.39409.39409,0,0,1,.72688-.30476,2.78066,2.78066,0,0,1-.10313,2.50311A2.02279,2.02279,0,0,1,88.04191,102.961Z" fill="#b26b37"/>
        <path d="M74.04229,279.29158,72.43461,288.559l3.136.0355.74974-2.14813,2.46667,2.18454,13.93778.15777s-.49-2.37949-7.31674-4.03274a4.49929,4.49929,0,0,1-3.27022-6.1929l-.0003-.00041Z" fill="#0d2d88"/>
        <g>
          <polygon points="118.734 129.957 116.861 128.265 128.053 115.949 130.171 117.687 118.734 129.957" fill="#787878"/>
          <polygon points="129.983 117.107 135 119.037 125.376 129.226 118.159 129.368 129.983 117.107" fill="#a4a4a4"/>
        </g>
        <path d="M127.75859,123.7363a6.81851,6.81851,0,0,0-4.72235,1.475c-1.15776.77184-2.30245,1.42363-2.93385,1.976a.26136.26136,0,0,1-.4052-.3144l.91318-1.82565c.31886-.77828.43453-1.68769-.53034-1.88586-.67105-.13782-3.86933,6.4126-3.86933,6.4126-.00575.014-.00654.02864-.01175.04277l-.52366.33963a23.46029,23.46029,0,0,1-9.41434,3.61961,23.214,23.214,0,0,1-7.45439-.12987,19.80189,19.80189,0,0,1-3.82175-1.07263c-6.42725-2.58946-12.83591-8.36234-15.78733-18.28859-1.03949-3.49438-4.94687-4.56636-7.425-1.85624-1.601,1.74949-4.6406,5.56872.05568,12.59459,2.88647,4.31575,8.47374,9.22087,14.09814,12.73842a25.2629,25.2629,0,0,0,7.56882,3.17418c6.48072,1.55309,18.77222-2.94025,23.365-7.16834.83015-.093,8.98608-1.17545,11.89652-8.08815A1.24709,1.24709,0,0,0,127.75859,123.7363Z" fill="#f7c49c"/>
        <polygon points="77.884 107.459 83.93 107.716 83.287 113.248 79.042 114.406 76.597 111.704 77.884 107.459" fill="#28211e"/>
        <path d="M94.9848,131.90946l-1.48964,9.29049a25.2629,25.2629,0,0,1-7.56882-3.17418c-5.6244-3.51755-11.73142-8.9517-14.61789-13.26746-4.69628-7.02587-.67289-11.70825.92812-13.45774,2.47809-2.71012,6.38547-1.63814,7.425,1.85624C82.61295,123.08306,88.55755,129.32,94.9848,131.90946Z" fill="#0a106c"/>
        <polygon points="128.053 115.949 133.842 117.879 135 119.037 129.597 117.493 128.053 115.949" fill="#3a2f2b"/>
        <path d="M129.6102,120.08252a.5008.5008,0,0,1-.36421-.13968c-.24685-.24665-.15873-.72188.20086-1.08166a1.19035,1.19035,0,0,1,.53468-.31861.516.516,0,0,1,.66474.66493,1.18878,1.18878,0,0,1-.31861.53448h0A1.06314,1.06314,0,0,1,129.6102,120.08252Zm.55276-1.169a.36466.36466,0,0,0-.086.01154.80469.80469,0,0,0-.35151.21472c-.218.21818-.26513.46022-.20086.52448.06445.06426.3063.01693.52448-.20086h0a.80467.80467,0,0,0,.21491-.35132.196.196,0,0,0-.014-.17277A.12423.12423,0,0,0,130.163,118.9135Z" fill="#fff"/>
        <g>
          <path d="M136.34646,125.60551l-.00943-.00038a.19642.19642,0,0,1-.181-.14661,2.78851,2.78851,0,0,0-1.98613-1.98632.19683.19683,0,0,1-.01809-.37518l.27475-.1012a2.79559,2.79559,0,0,0,1.71119-1.82971l.01982-.067a.19718.19718,0,0,1,.18894-.14084h.00019a.19706.19706,0,0,1,.18894.14161l.01943.06619a2.79516,2.79516,0,0,0,1.711,1.82933l.27513.10159a.19693.19693,0,0,1-.01231.37364l-.06657.01962a2.79639,2.79639,0,0,0-1.8299,1.71119l-.101.27475A.19661.19661,0,0,1,136.34646,125.60551Zm-1.56285-2.3311a3.18805,3.18805,0,0,1,1.57,1.57,3.19688,3.19688,0,0,1,1.56035-1.56766,3.19771,3.19771,0,0,1-1.56747-1.5515A3.19641,3.19641,0,0,1,134.7836,123.27441Z" fill="#fff"/>
          <path d="M135.96051,119.04472l-.00943-.00038a.19642.19642,0,0,1-.181-.14661,2.789,2.789,0,0,0-1.98613-1.98594.19683.19683,0,0,1-.01809-.37518l.27494-.1012a2.79693,2.79693,0,0,0,1.71119-1.82971l.01943-.06619a.20469.20469,0,0,1,.37826,0l.01943.06657a2.7959,2.7959,0,0,0,1.711,1.82894l.27513.10159a.197.197,0,0,1-.01347.374l-.06657.01924a2.79533,2.79533,0,0,0-1.82875,1.71119l-.101.27475A.197.197,0,0,1,135.96051,119.04472Zm-1.56285-2.33072a3.18729,3.18729,0,0,1,1.57,1.57,3.19767,3.19767,0,0,1,1.56-1.568,3.19617,3.19617,0,0,1-1.56709-1.55112A3.198,3.198,0,0,1,134.39765,116.714Z" fill="#fff"/>
        </g>
        <g>
          <path d="M123.611,119.04472l-.00943-.00038a.19642.19642,0,0,1-.181-.14661,2.78873,2.78873,0,0,0-1.98594-1.98594.19683.19683,0,0,1-.01809-.37518l.27475-.1012a2.796,2.796,0,0,0,1.71119-1.82971l.01943-.06619a.19659.19659,0,0,1,.18894-.142h.00019a.19671.19671,0,0,1,.18894.14122l.01962.06657a2.79526,2.79526,0,0,0,1.71119,1.82971l.27494.10159a.197.197,0,0,1-.01328.374l-.06638.01924a2.79521,2.79521,0,0,0-1.82894,1.71119l-.1012.27475A.19717.19717,0,0,1,123.611,119.04472Zm-1.56266-2.33072a3.18693,3.18693,0,0,1,1.56978,1.57,3.198,3.198,0,0,1,1.56016-1.568,3.19574,3.19574,0,0,1-1.56728-1.5515A3.196,3.196,0,0,1,122.04836,116.714Z" fill="#fff"/>
          <path d="M123.22526,112.48393l-.00943-.00038a.19642.19642,0,0,1-.181-.14661,2.7893,2.7893,0,0,0-1.98613-1.98594.19683.19683,0,0,1-.01809-.37518l.27475-.1012a2.79642,2.79642,0,0,0,1.71119-1.82971l.01982-.067a.19718.19718,0,0,1,.18894-.14084h.00019a.19706.19706,0,0,1,.18894.14161l.01943.06619a2.79516,2.79516,0,0,0,1.711,1.82933l.27513.10159a.19693.19693,0,0,1-.01231.37364l-.06657.01962a2.79639,2.79639,0,0,0-1.8299,1.71119l-.101.27475A.197.197,0,0,1,123.22526,112.48393Zm-1.56285-2.33072a3.18882,3.18882,0,0,1,1.57,1.57,3.19688,3.19688,0,0,1,1.56035-1.56766,3.19771,3.19771,0,0,1-1.56747-1.5515A3.19641,3.19641,0,0,1,121.66241,110.15321Z" fill="#fff"/>
        </g>
        <path d="M128.54061,137.10883,128.72,138.454a5.13155,5.13155,0,0,0-4.05878.96211,3.83682,3.83682,0,0,0-.974,4.2803c.80619,2.10049,3.08865,3.34006,6.12868,3.34006l.04836-.00043.38322,2.87406h7.96525l1.22993-12.8013Zm-3.5255,6.07812a2.41328,2.41328,0,0,1,.57756-2.696,4.03974,4.03974,0,0,1,3.324-.562l.75766,5.68247C127.31838,145.58278,125.58979,144.68419,125.01511,143.187Z" fill="#97e3f1"/>
      </g>
      <g opacity="0.35">
        <path d="M129.45179,131.12618h0a24.347,24.347,0,0,0-18.08-18.08h0l2.4138-.936A27.7125,27.7125,0,0,0,130.1393,94.678l.18341-.58273.15619.57475a24.31537,24.31537,0,0,0,15.55137,16.68177l2.37242.82346-.58273.18341a27.7125,27.7125,0,0,0-17.43213,16.35368Z" fill="#fff"/>
      </g>
    </g>
    <g>
      <ellipse cx="75.38266" cy="308.21858" rx="35.77937" ry="2.26603" fill="#ceeef7"/>
      <polygon points="62.612 296.864 60.066 302.363 63.81 302.757 65.977 298.817 62.612 296.864" fill="#f5d4ad"/>
      <polygon points="70.187 295.868 69.045 301.819 72.773 301.298 73.924 296.951 70.187 295.868" fill="#f5d4ad"/>
      <path d="M59.582,300.09563l-.35761,7.657,19.81616.92549a.73843.73843,0,0,0,.60214-1.24316c-2.07149-2.17666-7.48733-4.34252-13.88063-4.64112l-.558-2.10833Z" fill="#282f3f"/>
      <g>
        <path d="M97.71593,210.09469a55.62255,55.62255,0,0,0,24.86445-4.459V200.9028s-16.6373,5.39644-22.96595,1.87429" fill="#f3c18e"/>
        <path d="M121.88064,206.33869s8.4931.99421,10.19614,0-.878-7.947-5.35119-6.32185A7.70537,7.70537,0,0,0,121.88064,206.33869Z" fill="#f5a672"/>
        <path d="M126.06569,195.06765l.194,1.455a5.55048,5.55048,0,0,0-4.39013,1.04066,4.15005,4.15005,0,0,0-1.0535,4.62973c.872,2.272,3.3408,3.61274,6.629,3.61274l.0523-.00047.4145,3.10869h8.61552l1.33034-13.84637Zm-3.81331,6.57432a2.61029,2.61029,0,0,1,.62471-2.91606,4.36953,4.36953,0,0,1,3.59533-.60784l.81952,6.14637C124.74369,204.23339,122.874,203.26143,122.25238,201.642Z" fill="#66bfe2"/>
        <path d="M120.24305,201.4784a8.69873,8.69873,0,0,1,9.97746-3.411c4.83025,1.57432.73093,2.358-1.06759,2.12228s-2.72914.34182-2.68884,1.77746c.06848,2.43936-2.42177,4.83126-4.58344,4.3715S120.24305,201.4784,120.24305,201.4784Z" fill="#f3c18e"/>
      </g>
      <path d="M116.37551,200.779l-25.29515,4.57725-4.675-29.26441a3.91352,3.91352,0,0,0-5.5264-2.82661h0A11.91711,11.91711,0,0,0,75.114,186.04643l4.45263,21.39327h0l1.46353,7.03172a3.79691,3.79691,0,0,0,4.692,2.896l33.17857-8.81331Z" fill="#54a4d8"/>
      <path d="M49.62454,254.70225H67.356s33.13989-72.81051,18.24458-81.81747l-12.3341,6.1436Z" fill="#54a4d8"/>
      <polygon points="84.775 174.707 81.303 171.009 84.689 163.539 88.959 165.475 84.775 174.707" fill="#f5a672"/>
      <path d="M58.74306,212.41669,46.01278,223.95062l44.26441,34.00657h0a59.74421,59.74421,0,0,0-11.80935,13.46461L61.30991,298.21734l4.30564,1.8891,37.03536-42.128Z" fill="#0c1031"/>
      <g>
        <path d="M102.47814,155.58081c0,9.12114-7.00013,11.75482-15.0029,12.75334-4.68865.585-10.7835-6.58514-10.7835-15.70628s3.11892-13.56235,11.18374-13.56235S102.47814,146.45966,102.47814,155.58081Z" fill="#f3c18e"/>
        <path d="M90.51674,155.34494a.87862.87862,0,0,1-.87753-.85425l-.17681-6.42573a.88064.88064,0,0,1,.85367-.90273l6.4263-.17662a.8758.8758,0,0,1,.90273.85463l.17681,6.425a.8786.8786,0,0,1-.855.90273l-6.425.17662Zm-.00654-1.18171h0Zm.14218-5.82775.16008,5.81929,5.81948-.16008-.16008-5.81929Z" fill="#fff"/>
        <path d="M100.1561,155.146a.87862.87862,0,0,1-.87753-.85425l-.19163-6.9656a.88064.88064,0,0,1,.85367-.90273l3.037-.0835a.87784.87784,0,0,1,.90273.85425l.19163,6.9656a.87824.87824,0,0,1-.855.90235l-3.0347.0835Zm-.00654-1.18171h0Zm.12737-6.36762.17489,6.35916,2.43019-.067-.17508-6.35916Z" fill="#fff"/>
        <path d="M98.48339,148.93365l3.21685,5.09028a2.24359,2.24359,0,0,1-.53667,2.69744l-2.68019.80713Z" fill="#f5a672"/>
        <ellipse cx="101.16891" cy="151.34631" rx="0.43669" ry="0.85343" transform="translate(-4.12382 2.83942) rotate(-1.57585)" fill="#363c49"/>
        <ellipse cx="94.91319" cy="151.58781" rx="0.50967" ry="0.85343" transform="translate(-4.13283 2.66748) rotate(-1.57585)" fill="#363c49"/>
        <path d="M90.68008,147.40735a9.7898,9.7898,0,0,1-1.07955-.05426.39406.39406,0,0,1,.09254-.78268c.04887.00577,4.90385.54179,5.40678-2.29224a.394.394,0,0,1,.77594.13776C95.4102,147.04063,92.35183,147.40735,90.68008,147.40735Z" fill="#363c49"/>
        <path d="M98.47723,146.089a.39413.39413,0,0,1-.27571-.6757,2.97566,2.97566,0,0,1,2.41133-1.05088,2.49776,2.49776,0,0,1,1.67637,1.11861.394.394,0,0,1-.67378.40865,1.71355,1.71355,0,0,0-1.10822-.74612,2.257,2.257,0,0,0-1.75429.83309A.39305.39305,0,0,1,98.47723,146.089Z" fill="#363c49"/>
        <rect x="97.73454" y="148.93365" width="2.23148" height="2.23148" fill="#fff"/>
        <path d="M97.922,160.26842a6.33361,6.33361,0,0,1-3.20613-.88542.394.394,0,0,1,.3948-.68186,5.40342,5.40342,0,0,0,4.92252.33824.394.394,0,0,1,.36286.69956A5.75824,5.75824,0,0,1,97.922,160.26842Z" fill="#d79161"/>
        <path d="M84.78909,155.68055l2.1637-2.44947s-3.89325-9.55828-.02687-11.69951c0,0,10.8749.93756,11.93779,0,3.61443-3.18825-20.37473-13.88072-23.51991,2.81557a.90511.90511,0,0,1-.25186.35344c-9.70611,9.09676,4.93,18.99074,4.93,18.99074l4.982-3.82114Z" fill="#363c49"/>
        <path d="M86.07944,154.38017c.52546,2.52587,1.27036,4.4268.05562,4.6795s-2.62544-1.59006-3.1509-4.11593.03331-4.77835,1.248-5.03105S85.554,151.8543,86.07944,154.38017Z" fill="#f5a672"/>
      </g>
      <path d="M38.8953,211.81923l-.81591,4.56122a17.53039,17.53039,0,0,0,10.2772,19.168l38.48616,16.70312h0a59.74421,59.74421,0,0,0-8.181,15.932L68.53414,298.34688l4.63575.78548,25.68038-49.86889Z" fill="#0c1031"/>
      <path d="M67.91022,300.55613l.2108,7.66244,19.83025-.54555a.73843.73843,0,0,0,.50836-1.28436c-2.2271-2.01717-7.78855-3.77573-14.1864-3.59972l-.7127-2.06119Z" fill="#282f3f"/>
      <path d="M85.87039,187.51143c-6.93413,8.7341-20.97324,27.80564-20.76325,38.80369,0,0-25.33286-.32754-27.303-11.821,0,0,22.06526-48.25838,41.63827-44.16572.19149.04.38094.0749.56606.11633A10.67537,10.67537,0,0,1,85.87039,187.51143Z" fill="#232d81"/>
      <path d="M85.60057,171.67185s-34.46557,85.48981-38.14321,85.767l-27.58226-9.452s28.37032-74.84932,57.76914-78.72424Z" fill="#69bde0"/>
      <path d="M123.80689,184.01641a81.41933,81.41933,0,0,1-5.20522,6.36028l-4.48014-4.23249c3.30707-2.47585,5.96031-4.5363,5.96031-4.5363s.71317-6.03863,1.77217-8.13883c1.05542-2.10119,5.62669-7.81264,6.40539-7.00038s-3.17433,6.30489-3.17433,6.30489,4.94811,1.34042,4.808,2.79666S125.65611,183.97432,123.80689,184.01641Z" fill="#f3c18e"/>
      <path d="M117.66078,180.67844,97.04407,196.0325,79.83642,171.90455a3.91352,3.91352,0,0,0-6.2069-.07247h0a11.91711,11.91711,0,0,0,.524,14.01138l13.50634,17.17779h0l4.43938,5.64614a3.79691,3.79691,0,0,0,5.49053.50584l25.792-22.65537Z" fill="#98e2f0"/>
    </g>
    <polygon points="314.486 295.844 315.595 300.844 319.212 300.446 318.252 294.604 314.486 295.844" fill="#844529"/>
    <g>
      <path d="M300.43013,304.86215l19.44813.43827.56187-4.96318-10.64552-.59183a13.9097,13.9097,0,0,0-2.88427.0562c-4.61856.59179-6.01948,3.61465-6.37535,4.686A2.99355,2.99355,0,0,0,300.43013,304.86215Z" fill="#080b4a"/>
      <path d="M300.535,304.48757h6.88852c.44576-2.667.015-4.01174-.51317-4.686C302.29179,300.3934,300.89087,303.41625,300.535,304.48757Z" fill="#03092e"/>
      <path d="M314.77464,301.55464h0a.7044.7044,0,0,0,.70232-.70236v-2.52839a.70439.70439,0,0,0-.70232-.70232h0a.7044.7044,0,0,0-.70236.70232v2.52839A.70441.70441,0,0,0,314.77464,301.55464Z" fill="#1776dc"/>
      <rect x="300.33771" y="303.64603" width="20.0712" height="1.62316" transform="translate(620.74662 608.91522) rotate(-180)" fill="#0d2d88"/>
      <path d="M317.49032,301.08641h2.48159a.61047.61047,0,0,0,.60868-.60872h0a.61046.61046,0,0,0-.60868-.60868h-2.48159a.61046.61046,0,0,0-.60868.60868h0A.61047.61047,0,0,0,317.49032,301.08641Z" fill="#1776dc"/>
      <path d="M312.74566,301.30489h0a.29742.29742,0,0,0,.29655-.29651v-1.748a.29743.29743,0,0,0-.29655-.29655h0a.29741.29741,0,0,0-.29655.29655v1.748A.2974.2974,0,0,0,312.74566,301.30489Z" fill="#1776dc"/>
      <path d="M311.27856,301.24247h0a.29743.29743,0,0,0,.29655-.29655v-1.748a.29742.29742,0,0,0-.29655-.29651h0a.2974.2974,0,0,0-.29655.29651v1.748A.2974.2974,0,0,0,311.27856,301.24247Z" fill="#1776dc"/>
    </g>
    <ellipse cx="304.34553" cy="307.03648" rx="35.77937" ry="2.26603" fill="#ceeef7"/>
    <path d="M294.49309,171.25693c-.94482-5.84776-4.64941-30.42165-4.64941-30.42165s-2.52076,5.346-4.12185,9.29593c-1.28861,3.179,4.66814,37.3821,7.0428,51.38352-.5366,1.87341-1.28686,4.27416-2.21023,6.67491-1.97016,5.12242.67744,13.3971.67744,13.3971l4.55364-21.67177S296.41026,183.12308,294.49309,171.25693Z" fill="#6d3321"/>
    <polygon points="304.346 297.241 304.346 302.363 308.68 302.757 309.074 296.847 304.346 297.241" fill="#844529"/>
    <path d="M304.00088,228.36827l8.00835-67.02263L298.1485,164.4082c.15412,1.68432-7.5941,58.36063-7.5941,58.36063l24.43,75.26016,3.94032-1.57613S313.8023,234.98383,304.00088,228.36827Z" fill="#1a2d84"/>
    <path d="M305.52762,234.58979l13.79113-64.832-22.35681-4.89055c0,1.69135-2.86126,63.56336-2.86126,67.75238-.06626-.00991,9.85081,65.80339,9.85081,65.80339l5.51645-.394S313.01424,242.86447,305.52762,234.58979Z" fill="#2872d8"/>
    <g>
      <path d="M275.657,94.81232c-5.402-7.14269-14.40466-9.43768-20.10663-5.12292-5.70012,4.31121-5.94292,13.59677-.54093,20.73946a16.76453,16.76453,0,0,0,6.14465,4.97814,9.737,9.737,0,0,0,1.55831-3.60631s1.37576,2.865.96982,4.56528c4.13866,1.18578,8.30254.51563,10.50388-2.41893,1.04091,1.80669,2.85469,4.995,3.73167,6.776l5.33944-5.26531-5.35-8.67275C279.4473,102.88746,279.311,99.6438,275.657,94.81232Z" fill="#844529"/>
      <path d="M253.59148,108.01l1.06234,5.45427a1.65585,1.65585,0,0,0,2.4229,1.2593l1.49069-.93339Z" fill="#6d3321"/>
      <ellipse cx="256.39508" cy="107.3812" rx="0.71119" ry="1.56461" transform="translate(9.5377 235.17241) rotate(-50.09384)" fill="#382c28"/>
      <path d="M252.86514,104.87149a.591.591,0,0,1-.32477-1.08513,4.88252,4.88252,0,0,1,4.86576-.40635.591.591,0,0,1-.56065,1.04049,3.7045,3.7045,0,0,0-3.65634.354A.58914.58914,0,0,1,252.86514,104.87149Z" fill="#382c28"/>
      <path d="M251.14657,98.38362s5.07119-2.4315,6.98394,1.7377,4.61118,4.2123,4.61118,4.2123,14.74761,5.44989,16.26182,1.42938c1.78515-4.73992-.64085-16.20492-3.48181-18.58953s-6.86648-9.46661-20.31664-1.0443C251.31735,88.5636,243.22005,99.33,251.14657,98.38362Z" fill="#03092e"/>
      <path d="M265.86461,101.51965c1.401,1.43914,1.74927,3.37243.77785,4.31811s-2.11292-.21537-3.51393-1.65451-2.531-2.6114-1.55959-3.55708S264.46359,100.08051,265.86461,101.51965Z" fill="#6d3321"/>
    </g>
    <path d="M287.32868,111.8504c10.277,5.24924,29.16849,23.34505,32.3841,61.6644,0,0-26.79419,20.93979-26.79419,9.06274s-15.25059-43.605-15.94924-56.53006l-.06987-.48906c-2.81186-4.065-1.09849-8.33722,1.10467-11.43281A7.34674,7.34674,0,0,1,287.32868,111.8504Z" fill="#12104a"/>
    <path d="M276.76327,121.50254s-5.91048,27.97629-13.00306,30.34048-29.55242,7.09258-29.55242,7.09258-8.27468-3.15226-11.821-3.54629-14.57919,0-14.18516,1.1821,10.63887,1.1821,10.63887,1.1821-2.36419,5.12242-.394,5.91048,14.18516,1.57613,15.76129,0c0,0,27.58226,0,34.28081-5.91048s16.54935-29.15839,17.33742-32.31064Z" fill="#844529"/>
    <g>
      <path d="M288.73311,307.04012l19.44813.43827.56187-4.96318-10.64552-.59183a13.9097,13.9097,0,0,0-2.88427.0562c-4.61856.59179-6.01948,3.61465-6.37535,4.686A2.99356,2.99356,0,0,0,288.73311,307.04012Z" fill="#080b4a"/>
      <path d="M288.838,306.66554h6.88852c.44576-2.667.015-4.01174-.51317-4.686C290.59477,302.57136,289.19385,305.59422,288.838,306.66554Z" fill="#03092e"/>
      <path d="M303.07762,303.7326h0a.7044.7044,0,0,0,.70232-.70236v-2.52839a.70439.70439,0,0,0-.70232-.70232h0a.7044.7044,0,0,0-.70236.70232v2.52839A.70441.70441,0,0,0,303.07762,303.7326Z" fill="#1776dc"/>
      <rect x="288.6407" y="305.82399" width="20.0712" height="1.62316" transform="translate(597.35259 613.27115) rotate(-180)" fill="#0d2d88"/>
      <path d="M305.7933,303.26437h2.48159a.61047.61047,0,0,0,.60868-.60872h0a.61046.61046,0,0,0-.60868-.60868H305.7933a.61046.61046,0,0,0-.60868.60868h0A.61047.61047,0,0,0,305.7933,303.26437Z" fill="#1776dc"/>
      <path d="M301.04864,303.48285h0a.29742.29742,0,0,0,.29655-.29651v-1.748a.29743.29743,0,0,0-.29655-.29655h0a.2974.2974,0,0,0-.29655.29655v1.748A.2974.2974,0,0,0,301.04864,303.48285Z" fill="#1776dc"/>
      <path d="M299.58154,303.42044h0a.29743.29743,0,0,0,.29655-.29655v-1.748a.29742.29742,0,0,0-.29655-.29651h0a.2974.2974,0,0,0-.29655.29651v1.748A.29741.29741,0,0,0,299.58154,303.42044Z" fill="#1776dc"/>
    </g>
    <path d="M290.23523,132.43693c-.0197.05123-.03547.10637-.05123.1576q-.3369,1.09346-.74473,2.15931l-16.19472-3.239c2.1317-4.77567.57145-14.73467,5.09483-17.499C292.52456,105.34722,291.34246,128.81972,290.23523,132.43693Z" fill="#1a2d84"/>
  </g>
</svg>
