<svg xmlns="http://www.w3.org/2000/svg" viewBox="0 0 360 360">
  <g>
    <ellipse cx="204.8749" cy="249.77072" rx="14.21319" ry="1.48991" transform="translate(-6.79131 5.7286) rotate(-1.57585)" fill="#ceeef7"/>
    <rect x="132.6851" y="106.80445" width="11.40803" height="5.49276" fill="#54a4d8"/>
    <ellipse cx="144.83266" cy="285.56587" rx="49.30755" ry="5.16869" transform="translate(-7.7984 4.09096) rotate(-1.57585)" fill="#ceeef7"/>
    <rect x="135.76524" y="102.29624" width="5.24517" height="9.49872" transform="translate(-2.89146 3.8462) rotate(-1.57585)" fill="#ffa670"/>
    <rect x="122.89256" y="272.45256" width="4.67879" height="8.84969" transform="translate(258.03079 550.20617) rotate(178.42415)" fill="#f5d4ad"/>
    <rect x="146.26482" y="273.34923" width="4.67879" height="8.84969" transform="translate(304.79113 551.35643) rotate(178.42415)" fill="#f5d4ad"/>
    <path d="M153.95224,164.78273s8.93067,43.62735,10.45328,49.33714c1.15665,4.33744-11.9338,62.58552-11.9338,62.58552l-7.48474.20591s7.00638-53.186,7.6183-57.46229-10.7034-36.11363-10.7034-36.11363,2.07739,36.26767.42577,38.01689-13.49551,56.00346-13.49551,56.00346l-7.47063.20552s7.07728-49.26237,8.78525-58.11225-9.13567-54.814-9.13567-54.814Z" fill="#0c1031"/>
    <path d="M125.17988,85.32249c1.2663-7.94019,6.15031-13.89609,12.14758-14.06108,5.89031-.162,11.711,5.18043,13.75113,12.774,1.88835-.50208,3.02649,2.21524,3.09452,4.68812a5.6212,5.6212,0,0,1-2.71926,5.07246c-1.42541,6.6147-6.27964,8.78513-11.1248,11.08743-4.21857,2.00456-12.22956-2.10214-14.6657-9.98415a6.00072,6.00072,0,0,1-4.44833-5.59918C121.14124,86.61886,122.41458,83.53089,125.17988,85.32249Z" fill="#ffc18c"/>
    <path d="M152.625,91.69856a.21684.21684,0,0,1-.23258-.08881.58479.58479,0,0,1-.13015-.52744,3.11781,3.11781,0,0,0-.53358-2.72757.6167.6167,0,0,1-.11173-.41448c.03053-.231.32646-2.25064,1.16974-2.15784.41305.04618.849.561,1.29548,1.5301.089.19289.07577.40916-.02966.4832-.10616.0727-.2627-.02262-.35136-.21524-.21386-.46376-.52354-1.02281-.78483-1.05191-.38228-.04408-.66441.93772-.77633,1.57316a4.23345,4.23345,0,0,1,.58045,3.4858A.17641.17641,0,0,1,152.625,91.69856Z" fill="#d79161"/>
    <g>
      <path d="M127.0785,86.79857l-3.08286-1.99523s-2.74253-7.59556,1.62829-10.4461,6.33048.996,6.33048.996S128.7165,78.95266,127.0785,86.79857Z" fill="#303948"/>
      <path d="M151.07859,84.03545s-2.99423-15.36667-19.12419-8.68224l-4.49948-1.82643s9.96554-7.98327,21.06427-2.52971C155.28449,74.32134,154.24143,77.70777,151.07859,84.03545Z" fill="#303948"/>
    </g>
    <path d="M148.71383,82.07363a.56951.56951,0,0,1-.44318-.21082h0c-.07312-.08982-1.81724-2.18136-3.97076-.92013a.56993.56993,0,0,1-.57605-.9836,4.251,4.251,0,0,1,5.43353,1.18663.57011.57011,0,0,1-.44355.92792Z" fill="#303948"/>
    <path d="M131.4159,82.42736a.57021.57021,0,0,1-.497-.84849,3.96628,3.96628,0,0,1,2.41853-2.01062,5.5153,5.5153,0,0,1,3.79594.56492.57011.57011,0,0,1-.56455.99065,4.415,4.415,0,0,0-2.933-.45505,2.87251,2.87251,0,0,0-1.72222,1.46686A.56922.56922,0,0,1,131.4159,82.42736Z" fill="#303948"/>
    <path d="M125.36534,92.69952a.35533.35533,0,0,0,.34132-.06274.4032.4032,0,0,0,.06516-.546,2.28358,2.28358,0,0,1,.11828-2.84267.40479.40479,0,0,0,.066-.42772c-.10871-.25122-1.10473-2.45184-2.40262-2.46945-.63554-.00785-1.18352.4822-1.6284,1.45664a.3996.3996,0,0,0,.17379.5208.3625.3625,0,0,0,.49428-.18147c.21321-.46627.55155-1.02115.95361-1.01607.58784.00584,1.28885,1.09476,1.63171,1.78975a3.07491,3.07491,0,0,0,.00794,3.64694A.37069.37069,0,0,0,125.36534,92.69952Z" fill="#d79161"/>
    <path d="M148.2023,72.956c6.25118,3.60326,1.63207,5.41569-1.70233,5.50742s-15.28655-3.08983-15.28655-3.08983S139.16046,67.74416,148.2023,72.956Z" fill="#303948"/>
    <path d="M155.078,165.58291l-17.47465.48265-15.06565.41371-4.92562-44.98586a29.11509,29.11509,0,0,1,21.547-11.351c5.1454-.21116,9.959,2.59,15.07428,3.42167l.65072,40.06884Z" fill="#012986"/>
    <g opacity="0.56">
      <path d="M155.078,165.58291l-17.47465.48265c-2.77954-3.91294-1.14626-10.48047-3.64142-12.62223-3.01658-2.58564,0-5.60222,1.72376-6.03316s3.87846,3.01658,6.03316-3.87846,7.97239.86188,7.97239.86188c1.48241-.39648,3.55526,4.10685,5.19285,9.23936Z" fill="#ad7059"/>
    </g>
    <path d="M131.55516,108.83132l4.57585,8.6067S122.83379,225.17233,116.15,230.4884L96.73572,216.39574s29.96612-72.29026,20.43151-94.27249l-.10123-.20605S117.47439,116.94493,131.55516,108.83132Z" fill="#69bde0"/>
    <path d="M148.21829,161.31248c-2.21013-.42577-5.997-1.408-8.04362-3.36273,2.18225-.33707,4.366-.83228,3.29493-1.68912-1.79082-1.43265-9.64541-.16965-10.56758-.01538l.00288-.025-10.66632-1.85336-2.8601,5.48452L131.76,161.2537c.89109.43469,8.17321,3.90232,13.53818,3.81564a5.09384,5.09384,0,0,0,3.61569-1.52793l.041-.04361A1.32168,1.32168,0,0,0,148.21829,161.31248Z" fill="#ffc18c"/>
    <ellipse cx="146.58558" cy="86.44101" rx="0.50871" ry="0.99417" transform="matrix(0.99962, -0.0275, 0.0275, 0.99962, -2.32172, 4.06385)" fill="#303948"/>
    <ellipse cx="137.20454" cy="86.72234" rx="0.59372" ry="0.99417" transform="translate(-2.33301 3.80598) rotate(-1.57585)" fill="#303948"/>
    <polygon points="141.703 107.995 139.098 110.156 140.207 115.457 143.432 110.109 141.703 107.995" fill="#d2e1f3"/>
    <polygon points="135.298 108.171 138.018 110.185 137.202 115.54 133.688 110.377 135.298 108.171" fill="#d2e1f3"/>
    <path d="M125.92478,112.71973s-20.28095,12.25307-20.16041,32.85989c.06381,10.90773,11.22351,16.11427,18.15371,16.18022l1.80968-8.2613s-6.46956-2.24917-9.09842-7.82227c-1.26754-2.68715,1.69854-8.02289,4.64772-10.14047C137.39186,123.96493,125.92478,112.71973,125.92478,112.71973Z" fill="#98e2f0"/>
    <path d="M142.26366,90.46093a.84859.84859,0,0,1-.84664-.82325l-.17222-6.26644a.84911.84911,0,0,1,.82288-.87076l9.07878-.24943a.81875.81875,0,0,1,.60575.23124.84091.84091,0,0,1,.26464.59313l.17259,6.265a.84917.84917,0,0,1-.82325.87076l-9.07841.24943Zm-.00668-1.13986h0Zm.13548-5.6889.15626,5.68073,8.49308-.23346-.15663-5.68073Zm8.7863-.24163h0Z" fill="#fff"/>
    <path d="M141.09275,84.07277c.56651.27836,2.09317,3.99816,2.41593,6.95429.09427.86342-2.77206,3.97668-3.59767,3.9994l-1.11147.03058S139.58935,83.33405,141.09275,84.07277Z" fill="#ffa670"/>
    <path d="M130.03812,90.79758a.84879.84879,0,0,1-.847-.82511l-.17259-6.265a.84746.84746,0,0,1,.82474-.87039l9.07692-.2498a.83906.83906,0,0,1,.87076.82288l.17222,6.26644a.8481.8481,0,0,1-.82288.87076l-9.07915.2498Zm8.78556-1.08975v0Zm-8.79224-.05011h0Zm.13473-5.6889.15663,5.68073,8.4927-.23384-.15626-5.68073Z" fill="#fff"/>
    <rect x="139.45179" y="84.0775" width="2.96503" height="1.94947" transform="translate(284.15428 166.19656) rotate(178.42415)" fill="#fff"/>
    <polygon points="132.685 106.804 136.065 117.367 133.953 122.015 128.724 109.974 132.685 106.804" fill="#98e2f0"/>
    <path d="M145.60216,277.81469l.21807,7.92673,18.769-.51635a.77259.77259,0,0,0,.47808-1.32735c-2.11294-2.092-7.38138-3.92455-13.43684-3.758l-.67959-2.13387Z" fill="#141734"/>
    <path d="M127.62094,278.64773l.30781,3.2158s17.10855,2.51478,11.04805,4.63868c-3.97305,1.39235-16.91325.4653-16.91325.4653l.09588-8.16952Z" fill="#141734"/>
    <g>
      <path d="M178.79222,98.8266s2.04638-3.03875,4.02509-4.10849a.724.724,0,0,1,.95023,1.03515c-.4573.68687-1.1483,1.6587-2.16441,2.95263-2.356,3.0001-1.34173,6.07328-2.01834,7.676S178.79222,98.8266,178.79222,98.8266Z" fill="#ecb087"/>
      <path d="M176.20463,95.39642s1.72742-4.19515,3.8621-5.98471a.89654.89654,0,0,1,1.41007,1.01967c-.38408.947-.98086,2.2977-1.892,4.12-2.1126,4.2252,1.26756,8.02788.845,10.14047S176.20463,95.39642,176.20463,95.39642Z" fill="#ffa670"/>
      <path d="M178.33149,96.33234s1.97916-3.08295,3.93391-4.19588a.724.724,0,0,1,.97273,1.014c-.44211.69675-1.1116,1.68351-2.09906,2.99944-2.28952,3.0511-.15422,6.56106-.79548,8.17829S178.33149,96.33234,178.33149,96.33234Z" fill="#ffa670"/>
    </g>
    <path d="M176.228,106.749a5.78621,5.78621,0,0,1-2.76121-4.31535c-.34843-2.73909-.48376-10.11824,3.16032-12.95253,3.80268-2.95764-1.26756,7.18284.42252,8.4504s5.49276,8.02788,2.53512,9.718C177.9661,108.57446,177.35147,107.39943,176.228,106.749Z" fill="#ffa670"/>
    <path d="M140.0155,99.99958c-.02116,0-.04268-.00037-.06384-.00186-.804-.04974-1.37778-.99622-1.30614-2.15463a2.66738,2.66738,0,0,1,.45245-1.3711,1.18553,1.18553,0,0,1,2.13459.13176,2.83978,2.83978,0,0,1-.17222,2.78747A1.31035,1.31035,0,0,1,140.0155,99.99958Zm.12768-3.37578a.58191.58191,0,0,0-.42647.28988,1.924,1.924,0,0,0-.31252.97617c-.046.74828.27578,1.32953.59424,1.3492a.56616.56616,0,0,0,.44355-.28951,2.088,2.088,0,0,0,.12211-1.98352.56293.56293,0,0,0-.4042-.34185Z" fill="#d79161"/>
    <g>
      <path d="M168.59566,87.85682l3.91226-3.995,1.52442,1.49284-.37751.38549,12.353,12.0971a2.25627,2.25627,0,0,1,.0334,3.19067h0a2.25627,2.25627,0,0,1-3.19067.0334l-12.353-12.0971-.37748.38547Z" fill="#ceeef7"/>
      <rect x="177.47209" y="85.78914" width="3.23725" height="16.77484" rx="1.04029" ry="1.04029" transform="translate(371.68078 32.11389) rotate(134.40026)" fill="#684c47"/>
    </g>
    <path d="M149.16337,111.45217s5.07024-.845,15.63323,11.83055c11.25709,13.50851,9.718-7.18284,9.718-13.94315,0-3.82608-2.95764-10.14047,2.95764-13.09811,3.61012-1.80506,5.62935.13158,2.95764,1.69008-5.07024,2.95764,0,8.87292,0,8.87292s6.02663,32.92737-7.18284,31.689c-13.52063-1.26756-19.43591-16.47827-19.43591-16.47827Z" fill="#ffc18c"/>
    <path d="M147.05077,108.91705a39.86388,39.86388,0,0,1,19.14182,14.306,11.37641,11.37641,0,0,0,2.69462,3.22959c1.73789,1.14974,3.60718,1.59661,4.35979-3.16994l9.29543,1.26756s.42252,17.32331-10.563,14.78819S153.544,126.25381,153.544,126.25381Z" fill="#98e2f0"/>
    <rect x="172.40162" y="122.86483" width="11.04994" height="3.38016" transform="translate(19.74235 -24.27232) rotate(8.26091)" fill="#98e2f0"/>
    <path d="M174.90124,275.39942s23.70171,3.01658,25.85642,3.87846c0,0,24.5636-7.75692,27.58018-7.75692l-24.5636-3.87846Z" fill="#4fa7db"/>
    <path d="M165.8515,272.38284s18.43467,2.34623,20.11055,3.01658c0,0,19.105-6.03316,21.45125-6.03316l-19.105-3.01658Z" fill="#66bfe2"/>
    <polygon points="218.777 281.651 230.843 288.977 264.456 283.375 242.479 277.342 218.777 281.651" fill="#97e3f1"/>
    <path d="M147.05077,108.91705l-4.30359,8.339s26.69451,107.02382,30.0327,108.66411L155.078,128.17418Z" fill="#69bde0"/>
    <ellipse cx="175.30227" cy="261.54138" rx="9.45077" ry="0.99068" fill="#ceeef7"/>
    <path d="M169.61828,250.28659a10.08487,10.08487,0,0,0,2.20961-6.723l-.74012.02036-.02313-.84092a.5212.5212,0,0,1,.50667-.53534l5.24354-.14425a.5212.5212,0,0,1,.53534.50667l.02313.84092-.58421.01607h0a10.90578,10.90578,0,0,0,2.59532,6.78887,7.06394,7.06394,0,0,1,1.67517,4.40667,6.52953,6.52953,0,1,1-13.03614.35863A7.03968,7.03968,0,0,1,169.61828,250.28659Z" fill="#97e3f1"/>
    <g>
      <g>
        <g>
          <path d="M204.65844,216.47961h0a3.81638,3.81638,0,0,0,5.48686,1.22335l6.93331-4.2797a4.47288,4.47288,0,0,0,1.80505-5.7244h0a3.81638,3.81638,0,0,0-5.48686-1.22335l-6.93331,4.2797A4.47288,4.47288,0,0,0,204.65844,216.47961Z" fill="#0a106c"/>
          <path d="M204.62944,212.12117h0a2.8569,2.8569,0,0,0-.13254-3.825l-4.8278-4.80245a2.386,2.386,0,0,0-3.5482.16354h0a2.8569,2.8569,0,0,0,.13254,3.825l4.8278,4.80245A2.386,2.386,0,0,0,204.62944,212.12117Z" fill="#0a106c"/>
          <path d="M190.16514,214.17716h0a4.33886,4.33886,0,0,0,2.66075,5.28435l7.37608,2.70979a3.87868,3.87868,0,0,0,5.09683-2.43441h0a4.33886,4.33886,0,0,0-2.66075-5.28435l-7.37608-2.70979A3.87868,3.87868,0,0,0,190.16514,214.17716Z" fill="#0a106c"/>
          <path d="M204.627,239.77047h-.00668a.57006.57006,0,0,1-.56343-.5768l.49588-41.7056a.57031.57031,0,0,1,.57011-.56343h.00668a.57006.57006,0,0,1,.56343.5768l-.49588,41.7056A.57031.57031,0,0,1,204.627,239.77047Z" fill="#0a106c"/>
          <path d="M204.751,219.60712a.18887.18887,0,0,1-.06644-.01188l-12.89068-4.8122a.19015.19015,0,0,1,.13288-.35632l12.89068,4.8122a.19008.19008,0,0,1-.06644.3682Z" fill="#fff"/>
          <path d="M204.99892,216.66635a.19007.19007,0,0,1-.09984-.35187l12.76671-7.88659a.19015.19015,0,0,1,.19969.32366l-12.76671,7.88659A.19213.19213,0,0,1,204.99892,216.66635Z" fill="#fff"/>
          <path d="M204.69085,211.81889a.18851.18851,0,0,1-.13362-.05493l-7.65349-7.58631a.19.19,0,1,1,.26724-.27021l7.65349,7.58631a.19.19,0,0,1-.13362.32514Z" fill="#fff"/>
          <path d="M213.40444,196.41951h0a2.9071,2.9071,0,0,0-4.00719.42847l-4.06624,4.18166a2.81742,2.81742,0,0,0-.26937,3.96947h0a2.9071,2.9071,0,0,0,4.00719-.42847l4.06624-4.18166A2.81742,2.81742,0,0,0,213.40444,196.41951Z" fill="#0a106c"/>
          <path d="M205.12289,205.0369a.19.19,0,0,1-.137-.3218l7.48053-7.78377a.19005.19005,0,0,1,.27392.26353l-7.48053,7.78377A.19.19,0,0,1,205.12289,205.0369Z" fill="#fff"/>
        </g>
        <path d="M205.45688,201.36744h0a1.891,1.891,0,0,0-.53683-2.45911l-3.76183-3.03317a1.57714,1.57714,0,0,0-2.33121.1466h0a1.891,1.891,0,0,0,.53683,2.45911l3.76183,3.03317A1.57714,1.57714,0,0,0,205.45688,201.36744Z" fill="#0a106c"/>
        <path d="M205.05942,201.35232a.19064.19064,0,0,1-.12508-.04677l-4.88755-4.271a.19019.19019,0,1,1,.25017-.28654l4.88755,4.271a.19005.19005,0,0,1-.12508.33331Z" fill="#fff"/>
      </g>
      <path d="M210.70341,212.89565a.18379.18379,0,0,1-.05233-.00742.18966.18966,0,0,1-.13028-.23495l.60055-2.10193a.18728.18728,0,0,1,.23495-.13028.18966.18966,0,0,1,.13028.23495l-.60055,2.10193A.18974.18974,0,0,1,210.70341,212.89565Z" fill="#fff"/>
      <path d="M211.21525,214.95749a.1896.1896,0,0,1-.07089-.01373l-2.02806-.81657a.19.19,0,0,1,.14179-.35261l2.02806.81657a.19.19,0,0,1-.07089.36634Z" fill="#fff"/>
      <path d="M215.87007,212.00448a.1896.1896,0,0,1-.07089-.01373l-2.02806-.81657a.19.19,0,0,1,.14179-.35261l2.02806.81657a.19.19,0,0,1-.07089.36634Z" fill="#fff"/>
      <path d="M198.365,219.03589a.19005.19005,0,0,1-.082-.36152l1.97165-.94462a.19009.19009,0,0,1,.16406.343l-1.97165.94462A.18892.18892,0,0,1,198.365,219.03589Z" fill="#fff"/>
      <path d="M197.29569,216.846a.1895.1895,0,0,1-.17556-.11766l-1.08344-2.62416a.1899.1899,0,0,1,.35113-.14476l1.08344,2.62416a.18963.18963,0,0,1-.10318.24794A.18525.18525,0,0,1,197.29569,216.846Z" fill="#fff"/>
      <path d="M192.80567,217.28027a.19.19,0,0,1-.07832-.363l2.40851-1.092a.18987.18987,0,0,1,.15663.34593l-2.40851,1.092A.18869.18869,0,0,1,192.80567,217.28027Z" fill="#fff"/>
      <polygon points="211.621 239.339 208.401 249.144 200.659 249.144 197.869 239.339 211.621 239.339" fill="#1776dc"/>
    </g>
    <path d="M168.05637,84.9936a.57873.57873,0,0,1-.02928,1.07523,2.19,2.19,0,0,0-1.48658,2.16507c-.10342,2.67931-2.96113,5.90563-5.25877,4.998-3.7548-1.48321-6.7688-5.611-3.11306-8.56548s3.3199,3.20686,5.137,2.70924C164.87428,86.94612,165.34948,83.85276,168.05637,84.9936Z" fill="#684435"/>
    <polygon points="148.064 107.798 145.727 121.706 142.826 116.945 144.048 106.305 148.064 107.798" fill="#98e2f0"/>
  </g>
</svg>
