<svg xmlns="http://www.w3.org/2000/svg" viewBox="0 0 600 600">
  <g>
    <rect width="600" height="600" fill="transparent"/>
    <g>
      <g>
        <ellipse cx="163.2584" cy="439.71667" rx="92.64906" ry="13.70372" fill="#ceeef7"/>
        <g>
          <polygon points="180.319,441.067,126.441,439.921,130.453,435.336,185.477,437.628,180.319,441.067" fill="#fff"/>
          <polygon points="104.661,430.177,104.661,434.189,113.258,435.336,114.978,439.348,119.563,437.055,117.271,431.323,104.661,430.177" fill="#1a2d84"/>
          <path d="M93.19765,441.06718l.57317,5.15849s23.4998,9.74382,36.10944-1.14633l50.43859.57317v-4.58533l-51.58492-1.28962a32.38475,32.38475,0,0,1-18.3413,3.58229C100.07564,442.21351,93.19765,441.06718,93.19765,441.06718Z" fill="#1a2d84"/>
          <path d="M131.02659,436.48186c0,4.43056-9.23943,8.02432-20.634,8.02432-7.07858,0-13.32037-1.38709-17.04021-3.502,1.51883-1.07755,4.96356-2.178,6.15006-2.80279l3.20971.57317,8.82677,1.14633,6.878-3.439-2.29266-4.15545-11.54357-1.85135,1.36987-1.8284c1.42718-.12608,2.91746-.18912,4.442-.18912C121.78716,428.45753,131.02659,432.05126,131.02659,436.48186Z" fill="#fff"/>
          <polygon points="185.477,437.628,185.477,442.214,180.319,445.653,180.319,441.067,185.477,437.628" fill="#5373b7"/>
        </g>
        <g>
          <polygon points="181.274,432.417,181.459,430.566,208.435,433.263,208.647,431.147,181.671,428.45,181.803,427.128,174.821,427.498,174.504,430.672,181.274,432.417" fill="#0c1031"/>
          <path d="M202.36581,432.52275l.1851-1.85129a3.05363,3.05363,0,0,1,3.3455-2.73732l27.3039,2.72992c.11642.01164.23806.0238.35388.04073a3.95743,3.95743,0,0,1,3.42815,4.61123,3.68228,3.68228,0,0,1-3.865,3.33716c-.11211-.00055-.2184-.00583-.32423-.01641l-27.69-2.76852A3.05363,3.05363,0,0,1,202.36581,432.52275Z" fill="#1776dc"/>
          <path d="M202.43191,431.86157l.119-1.19012a3.05363,3.05363,0,0,1,3.3455-2.73732l27.3039,2.72992c.11642.01164.23806.0238.35388.04073a3.95743,3.95743,0,0,1,3.42815,4.61123Z" fill="#fff"/>
        </g>
      </g>
      <path d="M196.51223,234.2301s36.03011,8.20488,46.73212,9.27508,47.44559-25.3281,56.36394-24.97136l5.70774,20.69056s-37.457,20.33382-54.58027,21.404-44.94845-10.702-44.94845-10.702Z" fill="#b56757"/>
      <path d="M207.594,374.92851a1.49766,1.49766,0,0,1-1.30957-.76758c-5.16895-9.23828-6.46094-18.85156-3.37109-25.08789a12.47488,12.47488,0,0,1,9.916-6.90527c5.30762-.752,9.71387-4.10645,10.71484-8.15723,1.00977-4.082-1.46094-8.5166-6.957-12.48828-5.66406-4.09277-11.501-5.48437-17.35059-4.13184a18.65392,18.65392,0,0,0-7.04395,3.19824,1.49983,1.49983,0,0,1-1.9082-2.31445c.125-.10449,12.75879-10.24023,28.06055.81641,8.84277,6.39063,8.87793,12.542,8.11133,15.64063-1.30762,5.29-6.61523,9.47266-13.20508,10.40723a9.47619,9.47619,0,0,0-7.65039,5.2666c-2.65625,5.3623-1.3916,13.90332,3.30078,22.291a1.50024,1.50024,0,0,1-1.30762,2.23242Z" fill="#d62327"/>
      <path d="M211.13832,242.435s5.351,11.77221-8.56161,14.98282S207.92772,236.01377,211.13832,242.435Z" fill="#b56757"/>
      <polygon points="178.659,295.859,205.787,249.926,162.979,245.646,146.507,270.752,178.659,295.859" fill="#0a106c"/>
      <path d="M186.552,310.25566c-.40723,0-.66113-.0166-.71289-.02051a1.49995,1.49995,0,0,1,.21484-2.99219c.09961.00781,5.999.34375,9.46387-3.4502,2.37109-2.59375,3.14648-6.5918,2.30469-11.88281-1.62988-10.251,2.20215-14.55957,5.70313-16.36914,4.125-2.12988,9.36426-1.46484,10.88184.02051a1.49993,1.49993,0,0,1-2.09766,2.14453,9.47893,9.47893,0,0,0-7.91016.78516c-3.38184,2.07715-4.63086,6.55469-3.61426,12.94824.99414,6.252-.03906,11.0957-3.07227,14.39844C194.009,309.87187,188.509,310.25566,186.552,310.25566Z" fill="#d62327"/>
      <path d="M189.73429,332.33189c3.2106,1.0702,26.755-6.42121,26.755-6.42121l-34.24644-8.56161Z" fill="#0a106c"/>
      <path d="M225.5852,277.64629a1.49989,1.49989,0,0,1-.41992-2.93945c.24316-.07129,24.26758-7.31348,20.36523-23.90137-2.01855-8.57812-2.89746-20.50488,4.38184-28.60547,6.11621-6.80762,16.71777-9.32422,31.50977-7.47363a1.4998,1.4998,0,0,1-.37109,2.97656c-13.76172-1.71777-23.48535.46875-28.90723,6.502-6.751,7.51367-5.21191,19.46-3.69336,25.91309,4.55371,19.35449-22.17383,27.38965-22.44434,27.46875A1.52668,1.52668,0,0,1,225.5852,277.64629Z" fill="#d62327"/>
      <ellipse cx="328.86046" cy="484.83558" rx="160.5302" ry="10.16691" fill="#ceeef7"/>
      <path d="M331.00087,200.69713s-22.47423,5.351-49.22926,24.61463l9.63181,22.47423s38.52725-8.56161,46.01866-11.77221S331.00087,200.69713,331.00087,200.69713Z" fill="#1a2d84"/>
      <g>
        <path d="M383.44073,331.26169l-54.58027-16.053L244.58786,280.095a21.21515,21.21515,0,0,0-6.099-1.48909c-14.58182-1.426-26.27967,11.99164-23.62539,26.40059l25.1703,136.48588,22.47423-1.0702s.28153-79.75521-16.73182-128.23852l108.76914,65.09664Z" fill="#0c1031"/>
        <polygon points="419.471,444.346,441.232,445.773,440.161,462.896,415.547,461.826,419.471,444.346" fill="#c58877"/>
        <polygon points="241.104,437.212,243.244,458.081,259.297,458.616,259.297,434.001,241.104,437.212" fill="#c58877"/>
        <path d="M425.17858,462.89645l-2.1404-20.33382c-58.07932-8.60433-77.49371.56972-102.187,3.82637l77.57235-112.98691-43.15033-34.11848L284.09766,445.76649a23.1056,23.1056,0,0,0,6.05114,27.89871l0,0a23.1056,23.1056,0,0,0,17.47872,5.14094Z" fill="#1a2d84"/>
        <path d="M281.14987,209.57611a1.68871,1.68871,0,0,0-2.09652,1.46674c-.129,1.741.72748,4.59683,5.92886,7.8477,8.56161,5.351,21.404,15.33955,21.93913,9.27508C307.43375,222.35825,292.73467,212.29819,281.14987,209.57611Z" fill="#b56757"/>
        <g>
          <path d="M297.72366,149.87622c.271,5.42585.82765,10.746-2.71321,10.92281s-6.631-4.07832-6.902-9.50416,2.37978-9.96772,5.92064-10.14456S297.45268,144.45037,297.72366,149.87622Z" fill="#8e574e"/>
          <path d="M349.26985,144.96138c2.38006,22.096-3.87852,35.87635-21.33188,43.63339-14.9254,6.63351-31.412-10.59567-33.79209-32.69162s8.855-41.42626,25.09419-43.17546S346.8898,122.86543,349.26985,144.96138Z" fill="#c58877"/>
          <polygon points="305.551,144.713,295.94,164.354,307.576,166.293,305.551,144.713" fill="#b56757"/>
          <ellipse cx="315.99939" cy="149.32472" rx="1.63625" ry="4.36334" transform="translate(-9.95314 23.19608) rotate(-4.13881)" fill="#564842"/>
          <ellipse cx="298.54603" cy="149.32472" rx="1.63625" ry="4.36334" transform="matrix(0.99739, -0.07217, 0.07217, 0.99739, -9.99866, 21.93641)" fill="#564842"/>
          <path d="M310.48461,143.05254a1,1,0,0,1-.002-2,17.98081,17.98081,0,0,0,10.043-3.66016,1.00049,1.00049,0,0,1,1.25,1.5625A19.71488,19.71488,0,0,1,310.48461,143.05254Z" fill="#564842"/>
          <path d="M301.758,141.11308a.99971.99971,0,0,1-.92676-.625c-.14844-.35937-.74316-1.40918-1.5127-1.51953-.69531-.08594-1.60645.5293-2.59766,1.76953a1.00049,1.00049,0,0,1-1.5625-1.25c1.499-1.873,2.99512-2.71777,4.458-2.49707,2.03516.30176,2.96973,2.501,3.07031,2.751a1.0003,1.0003,0,0,1-.55762,1.2998A.99025.99025,0,0,1,301.758,141.11308Z" fill="#564842"/>
          <path d="M312.425,172.1414a.99305.99305,0,0,1-.24316-.03027,22.65089,22.65089,0,0,0-8.28906.01074.99983.99983,0,0,1-.3916-1.96094,24.19425,24.19425,0,0,1,9.165.01074.99979.99979,0,0,1-.24121,1.96973Z" fill="#564842"/>
          <path d="M298.849,122.65987s1.93926,9.69631,13.57483,6.78742,14.54446-8.72668,18.423-2.90889-.96963,15.5141,8.72668,25.21041c4.63214,4.63214-.24653,27.63723,7.757,22.30151,37.81561-25.21041,14.17967-55.38656,0-63.99564C320.18092,93.57094,298.849,122.65987,298.849,122.65987Z" fill="#4a261c"/>
          <path d="M334.64543,152.93367c.03-5.43253-.23116-10.77532,3.31406-10.75576s6.39489,4.43935,6.36492,9.87187-2.92824,9.8206-6.47346,9.801S334.61546,158.36619,334.64543,152.93367Z" fill="#b56757"/>
          <ellipse cx="364.46073" cy="120.08277" rx="10.85926" ry="12.38336" transform="translate(5.78242 256.46959) rotate(-39.05527)" fill="#4a261c"/>
          <path d="M325.02908,182.777c0,1.93926.63834,23.27114,13.57483,23.27114.96963,0,12.6052-4.84815,12.6052-4.84815s-11.63557-17.45336-9.69631-25.21041Z" fill="#c58877"/>
        </g>
        <path d="M330.74234,201.14636a51.33244,51.33244,0,0,1,34.08692-.55513c28.24328,9.73772,46.4367,115.68765,33.59429,136.02147,0,0-67.42268-9.63181-72.77369-11.77221-3.14222-1.25689,9.63181-52.43986-4.28081-74.91409C313.71474,237.56172,320.34242,204.91118,330.74234,201.14636Z" fill="#2872d8"/>
        <path d="M276.4206,226.382c1.16216,2.0919-3.2106,9.63181,5.351,16.053s22.47423,7.49141,24.61463,5.351,11.80655-13.39491-7.49141-26.755C284.98221,211.39914,271.06959,216.75015,276.4206,226.382Z" fill="#c58877"/>
        <path d="M366.97985,201.57823q-.47775-.16392-.95929-.28649c-10.30212-2.63043-18.83016,8.73647-14.48234,18.73806,4.49511,10.34045,20.34632,39.00025,28.91453,58.14562a2.459,2.459,0,0,1-3.52941,3.09884c-26.64821-16.276-66.25631-40.97968-66.25631-40.97968l-8.56161,8.56161s41.70085,51.32341,79.54323,54.67612a19.94543,19.94543,0,0,0,21.79031-17.626C406.82666,253.70451,374.62205,204.2022,366.97985,201.57823Z" fill="#c58877"/>
        <g>
          <path d="M210.76355,473.91668c.03886.38837.07772.62129.07772.62129h52.915a7.204,7.204,0,0,0,.427-.73764c4.07631-7.14343,1.94112-12.88908-.19406-16.18889a13.85214,13.85214,0,0,0-2.44583-2.95054s-2.32925.23293-6.71621.54333c-2.52355.15544-5.74588.34951-9.58927.54357-1.048.03886-2.13519.11658-3.261.15544-1.59185.07748-3.26119.1552-5.04711.23293q-4.01778.11623-8.61847.23293a3.3352,3.3352,0,0,0-.62105.03886C209.83185,457.10673,210.37542,470.81093,210.76355,473.91668Z" fill="#1a2d84"/>
          <rect x="257.91348" y="449.07046" width="5.82337" height="11.64673" rx="0.75" ry="0.75" transform="translate(307.54242 977.17312) rotate(-155.28251)" fill="#1a2d84"/>
          <path d="M234.83351,452.448l2.09633,3.68818,2.32949,3.99859a2.43085,2.43085,0,0,0,.65992.73764,2.92923,2.92923,0,0,0,3.33867.31065l1.32007-.7765a2.89821,2.89821,0,0,0,1.04828-3.96l-.38837-.69878-1.8634-3.18347-2.174-3.80452a2.88235,2.88235,0,0,0-3.96-1.04828l-1.31983.73764A2.93047,2.93047,0,0,0,234.83351,452.448Z" fill="#1a2d84"/>
          <path d="M250.55655,455.476l-7.06571,17.082,3.727-.03886,7.60928-17.31489C253.58482,455.282,252.14841,455.35968,250.55655,455.476Z" fill="#54a4d8"/>
          <path d="M235.02758,472.59685l3.99883-.03886,6.561-16.81018h-.34951c-1.048.03886-2.13519.11658-3.261.15544l-2.0577,4.96915Z" fill="#54a4d8"/>
          <path d="M256.147,473.33449l8.03627.46585c4.07631-7.14343,1.94112-12.88908-.19406-16.18889C261.97036,459.90184,257.35048,465.76406,256.147,473.33449Z" fill="#54a4d8"/>
          <path d="M210.76355,473.91668l11.21974-.427c-.38813-6.28922,3.96-14.13143,5.707-17.08173C209.83185,457.10673,210.37542,470.81093,210.76355,473.91668Z" fill="#54a4d8"/>
          <rect x="210.10363" y="472.59685" width="55.59377" height="6.32808" fill="#141734"/>
        </g>
        <rect x="237.89335" y="434.00102" width="26.75503" height="7.49141" fill="#4177bb"/>
        <rect x="409.29526" y="447.30045" width="28.00854" height="7.49141" transform="translate(16.3419 916.89013) rotate(-95.67742)" fill="#6198d1"/>
        <path d="M373.80892,270.26022l32.106,4.28081s-16.90263-77.75208-49.95685-77.79437a9.74237,9.74237,0,0,0-8.81943,13.73542Z" fill="#1a2d84"/>
        <g>
          <g>
            <path d="M457.3474,455.0761a7.31922,7.31922,0,0,1-.29993.72l-1.26,8.02-2.67,17.02-38.80994,4.66s-.05994-.2-.14-.55c-.07007-.29-.05505-.69-.135-1.17a17.25978,17.25978,0,0,1-.125-2.74v-.01a14.73515,14.73515,0,0,1,.175-2.91c.85986-4.34,3.97742-9.26,13.4375-10.8a2.44132,2.44132,0,0,1,.52368-.11c2.05994-.3,4.0069-.59,5.87689-.88.62-.09,1.23343-.19,1.83353-.28,1.59985-.27,3.09657-.52,4.51662-.77.76-.12-.55157-12.93-1.26165-19.27-.22-2.09-.38082-3.47-.38082-3.47S460.21752,448.19609,457.3474,455.0761Z" fill="#1a2d84"/>
            <path d="M439.53805,461.86344l13.5286,18.089,2.24291-2.52906L441.8705,458.74781C441.19057,459.65287,440.39174,460.68769,439.53805,461.86344Z" fill="#54a4d8"/>
            <path d="M447.92188,485.64806l2.40943-2.71077-13.55371-20.4912-.21414.23367c-.60151.73793-1.18634,1.53923-1.83547,2.32913l3.93407,6.13633Z" fill="#54a4d8"/>
            <path d="M457.34987,455.07961c-.08.22495-.19471.48354-.3036.7121l-1.26063,8.02693c-6.79982-4.15954-13.20129-12.78805-16.77333-17.81445-.22726-2.08415-.38841-3.47242-.38841-3.47242S460.21786,448.19442,457.34987,455.07961Z" fill="#54a4d8"/>
            <rect x="413.62283" y="481.26467" width="41.68108" height="5.73868" transform="translate(-55.90863 56.72383) rotate(-7.01956)" fill="#141734"/>
            <path d="M433.45383,462.95711l2.29557,3.08727,2.53983,3.34081a2.20445,2.20445,0,0,0,.67571.59078,2.65641,2.65641,0,0,0,3.03944-.09041l1.10209-.84519a2.62828,2.62828,0,0,0,.50465-3.6804l-.427-.5859-2.03-2.65881-2.37842-3.18337a2.61389,2.61389,0,0,0-3.6804-.50465l-1.10618.81019A2.65753,2.65753,0,0,0,433.45383,462.95711Z" fill="#1a2d84"/>
          </g>
          <rect x="439.0019" y="463.08368" width="35.12529" height="5.73868" transform="matrix(0.21044, -0.97761, 0.97761, 0.21044, -95.03252, 814.24038)" fill="#141734"/>
        </g>
      </g>
      <path d="M182.24288,255.2774c3.2106,7.49141,11.77221,0,11.77221,0s-3.2106,4.28081,1.0702,4.28081c5.77843,0,5.92119-12.20235,10.76626-14.56762,7.42716-3.6258,3.81178-6.57477,1.442-7.867C187.59389,226.382,179.03228,247.786,182.24288,255.2774Z" fill="#b56757"/>
      <g>
        <g>
          <path d="M213.81274,292.62871a1.49983,1.49983,0,0,1-1.37793-2.09082l3.21094-7.49121a1.50015,1.50015,0,1,1,2.75781,1.18164l-3.21094,7.49121A1.5017,1.5017,0,0,1,213.81274,292.62871Z" fill="#fc7371"/>
          <path d="M223.36938,292.93242a1.49985,1.49985,0,0,1-1.48828-1.33008l-.9209-8.09766a1.49989,1.49989,0,0,1,2.98047-.33984l.9209,8.09766a1.50033,1.50033,0,0,1-1.32031,1.66016A1.46051,1.46051,0,0,1,223.36938,292.93242Z" fill="#fc7371"/>
          <path d="M233.508,288.31035a1.49512,1.49512,0,0,1-.96973-.35645l-6.21387-5.27441a1.5,1.5,0,0,1,1.94141-2.28711l6.21387,5.27441a1.5,1.5,0,0,1-.97168,2.64355Z" fill="#fc7371"/>
        </g>
        <g>
          <path d="M225.761,270.88554a1.50008,1.50008,0,0,1-1.35059-2.15039l3.5332-7.34473a1.49991,1.49991,0,1,1,2.70313,1.30078l-3.5332,7.34473A1.49821,1.49821,0,0,1,225.761,270.88554Z" fill="#fc7371"/>
          <path d="M220.32641,270.9539a1.49932,1.49932,0,0,1-1.49414-1.39551l-.56836-8.13086a1.49974,1.49974,0,0,1,2.99219-.209l.56836,8.13086a1.49987,1.49987,0,0,1-1.3916,1.60059C220.3977,270.95293,220.36156,270.9539,220.32641,270.9539Z" fill="#fc7371"/>
          <path d="M215.41039,272.54082a1.49467,1.49467,0,0,1-1.01953-.39941l-5.97949-5.53906a1.50024,1.50024,0,1,1,2.03906-2.20117l5.97949,5.53906a1.5,1.5,0,0,1-1.01953,2.60059Z" fill="#fc7371"/>
        </g>
        <circle cx="219.96748" cy="276.41387" r="2.94305" fill="#fff"/>
      </g>
      <path d="M435.85741,481.06609l-21.92993,2.71-.395.06006.375-2.8v-.01l.175-2.91c.85986-4.34,3.97742-9.26,13.4375-10.8a2.44132,2.44132,0,0,1,.52368-.11c2.05994-.3,4.0069-.59,5.87689-.88Z" fill="#54a4d8"/>
    </g>
  </g>
</svg>
