<svg xmlns="http://www.w3.org/2000/svg" viewBox="0 0 300 300">
  <g>
    <g opacity="0.1">
      <ellipse cx="142.5905" cy="287.01778" rx="58.51534" ry="3.70597" fill="#000822"/>
    </g>
    <line x1="113.57418" y1="117.81378" x2="113.57418" y2="117.81378" fill="none"/>
    <polyline points="116.152 118.413 116.332 118.458 116.152 118.458" fill="none"/>
    <g>
      <path d="M113.89325,51.10123a20.91249,20.91249,0,1,1,20.9128-20.91218A20.936,20.936,0,0,1,113.89325,51.10123Zm0-39.89172a18.97923,18.97923,0,1,0,18.97955,18.97955A19.00076,19.00076,0,0,0,113.89325,11.20951Z" fill="#fc7371"/>
      <path d="M113.89325,46.59029a16.40155,16.40155,0,1,1,16.40187-16.40124A16.41979,16.41979,0,0,1,113.89325,46.59029Zm0-30.86984a14.46829,14.46829,0,1,0,14.46861,14.46861A14.485,14.485,0,0,0,113.89325,15.72045Z" fill="#fc7371"/>
    </g>
    <g>
      <path d="M197.35059,129.44933h5.57424a0,0,0,0,1,0,0v61.39895a2.78712,2.78712,0,0,1-2.78712,2.78712h0a2.78712,2.78712,0,0,1-2.78712-2.78712V129.44933A0,0,0,0,1,197.35059,129.44933Z" transform="translate(416.26642 22.11704) rotate(108.26487)" fill="#0a106c"/>
      <polygon points="228.446 164.606 227.048 167.488 226.863 167.86 224.584 172.542 223.619 174.529 222.123 177.601 222.104 177.63 220.191 181.562 217.835 180.417 215.624 179.338 217.254 175.991 219.718 170.937 222.179 165.878 223.462 163.243 238.585 133.67 242.748 135.846 228.446 164.606" fill="#0a106c"/>
      <polygon points="251.071 138.676 225.919 187.432 225.491 187.222 221.352 185.208 221.4 185.106 222.096 183.678 224.138 179.489 224.557 178.619 227.017 173.56 229.482 168.507 230.399 166.621 246.399 136.677 251.071 138.676" fill="#0a106c"/>
      <path d="M193.85654,140.03613h5.57424a0,0,0,0,1,0,0v61.39895a2.78712,2.78712,0,0,1-2.78712,2.78712h0a2.78712,2.78712,0,0,1-2.78712-2.78712V140.03613A0,0,0,0,1,193.85654,140.03613Z" transform="translate(421.73072 39.33987) rotate(108.26487)" fill="#0a106c"/>
      <rect x="210.49849" y="168.66325" width="24.68593" height="14.33377" rx="5.15405" ry="5.15405" transform="translate(453.06955 9.78924) rotate(105.92605)" fill="#fd6e6c"/>
      <g>
        <circle cx="224.58305" cy="170.87496" r="3.78252" transform="translate(-29.38714 293.89911) rotate(-63.11157)" fill="#97e3f1"/>
        <path d="M224.57863,175.30432a4.43858,4.43858,0,1,1,1.38072-.22152A4.4048,4.4048,0,0,1,224.57863,175.30432Zm.00944-7.5669a3.13752,3.13752,0,0,0-1.42414,5.93634h0a3.13809,3.13809,0,1,0,1.42414-5.93634Z" fill="#fff"/>
      </g>
      <g>
        <circle cx="221.49674" cy="181.3634" r="3.78252" transform="translate(-40.43218 296.89146) rotate(-63.11157)" fill="#97e3f1"/>
        <path d="M221.48931,185.79a4.39276,4.39276,0,0,1-1.9943-.47828h0a4.42741,4.42741,0,1,1,1.9943.47828Zm-1.41156-1.62741a3.13837,3.13837,0,1,0-1.38009-4.21831,3.142,3.142,0,0,0,1.38009,4.21831Z" fill="#fff"/>
      </g>
    </g>
    <path d="M258.34206,122.94164l.43339,3.25046c-2.69578-.36072-6.76137-.3142-9.80735,2.32478a9.271,9.271,0,0,0-2.35347,10.3426c1.948,5.07548,7.46319,8.07069,14.8089,8.07069.03868,0,.078-.00084.11684-.001l.926,6.94467H281.713l2.97192-30.93215Zm-8.51876,14.68673a5.83128,5.83128,0,0,1,1.39557-6.51435c2.41422-2.09164,6.09245-1.73926,8.03179-1.3579l1.83076,13.73071C255.38877,143.41749,251.21191,141.24618,249.8233,137.62837Z" fill="#fd6e6c"/>
    <path d="M126.26736,275.0247c-4.17564,0-9.15957-1.72268-14.52379-4.546-43.87476-23.09205-48.99448-83.67833-10.5785-115.0224,9.28123-7.57267,18.27285-12.53769,25.10229-12.53769,0,0,48.72273-5.15536,44.71813,7.08862l4.00461,109.55135C177.65983,280.18006,126.26736,275.0247,126.26736,275.0247Z" fill="#fd4a48"/>
    <ellipse cx="160.97396" cy="209.29388" rx="35.37404" ry="66.37523" fill="#fd6e6c"/>
    <path d="M176.37289,125.521l-.64442,9.38275a28.29848,28.29848,0,0,1-38.06588,26.55655,29.28072,29.28072,0,0,1-18.84928-23.154c-.13534-.85709-.22553-1.727-.2771-2.60989l-.16111-2.76459Z" fill="#fd4a48"/>
    <rect x="138.35023" y="68.16596" width="7.08862" height="18.04375" fill="#fd6e6c"/>
    <path d="M140.95879,75.54851l-3.71834-.361c-3.6365-.18552-6.40073-6.34149-6.2003-13.80813l.22948-8.54886c.20211-7.52919,3.34075-13.553,7.01034-13.45445l3.64718.0979Z" fill="#fd6e6c"/>
    <path d="M155.31816,39.83346l-12.8799-.34574c-1.863-.05-3.45649,3.00821-3.5591,6.83072l-.5933,22.10214c-.12972,4.83248,2.13294,8.24053,4.38379,6.60293l12.37087-4.70662c1.34381-.97768,2.28537-3.53674,2.36282-6.42183l1.10233-17.04977C158.60828,43.02277,157.18119,39.88347,155.31816,39.83346Z" fill="#fc9593"/>
    <path d="M113.98481,84.1441a.96668.96668,0,0,1-.96663-.96663V29.342a.96663.96663,0,0,1,1.93326,0V83.17748A.96668.96668,0,0,1,113.98481,84.1441Z" fill="#fc5150"/>
    <path d="M190.54823,210.55692a81.30966,81.30966,0,0,1-2.39081,19.91259c-3.96961,15.67874-12.48241,26.51144-22.34847,26.51144-5.46467,0-10.51693-3.31878-14.609-8.951a45.5795,45.5795,0,0,1-5.75466-11.10334h-.00645c-.47041-1.276-.90861-2.60348-1.30819-3.96965a80.0598,80.0598,0,0,1-3.0674-22.4c0-15.9687,4.29827-30.05571,10.84556-38.4074,3.95675-5.05868,8.74478-8.01658,13.90014-8.01658C179.47065,164.13294,190.54823,184.91548,190.54823,210.55692Z" fill="#fc9593"/>
    <path d="M183.45961,210.26051c0,21.89092-11.07758,39.63181-24.73928,39.63181A16.414,16.414,0,0,1,151.2,248.02995c-6.14775-8.44188-10.13671-22.08428-10.13671-37.473a76.85321,76.85321,0,0,1,4.54315-26.8143,44.12308,44.12308,0,0,1,6.3024-11.5931,16.55044,16.55044,0,0,1,4.53674-1.35327,14.0999,14.0999,0,0,1,2.08791-.1611,1.80892,1.80892,0,0,1,.18687-.00645c4.68494,0,9.06054,2.08146,12.79817,5.7031C178.67158,183.27866,183.45961,195.87061,183.45961,210.26051Z" fill="#fd4a48"/>
    <path d="M171.51849,176.3318a15.27508,15.27508,0,0,1-20.18964,11.07758,15.61853,15.61853,0,0,1-5.72245-3.66675,44.12308,44.12308,0,0,1,6.3024-11.5931,16.55044,16.55044,0,0,1,4.53674-1.35327l2.08791-.1611a1.80892,1.80892,0,0,1,.18687-.00645C163.40527,170.6287,167.78087,172.71016,171.51849,176.3318Z" fill="#fff"/>
    <path d="M113.92031,40.17127A10.01368,10.01368,0,1,1,123.93808,30.162,10.02065,10.02065,0,0,1,113.92031,40.17127Zm0-18.0941a8.08042,8.08042,0,1,0,8.08451,8.08482A8.08957,8.08957,0,0,0,113.92031,22.07717Z" fill="#fc5150"/>
    <g>
      <path d="M116.96458,173.19531h5.57424a0,0,0,0,1,0,0v61.39895a2.78712,2.78712,0,0,1-2.78712,2.78712h0a2.78712,2.78712,0,0,1-2.78712-2.78712V173.19531A0,0,0,0,1,116.96458,173.19531Z" transform="translate(340.41194 293.56535) rotate(142.06077)" fill="#0a106c"/>
      <polygon points="162.851 211.182 158.817 213.534 158.701 213.592 141.572 223.581 138.808 225.198 138.447 225.404 133.949 228.027 132.041 229.142 129.09 230.863 129.058 230.875 125.281 233.079 123.96 230.817 122.723 228.691 125.939 226.816 130.798 223.987 135.657 221.151 138.189 219.675 156.265 209.133 160.409 206.716 161.936 209.507 162.658 210.84 162.851 211.182" fill="#0a106c"/>
      <path d="M166.80137,218.47042,164.243,219.959,127.31131,241.502l-.23843-.41244-2.3199-3.97606.09664-.058,1.37262-.79907,4.02762-2.34566.83129-.48977,4.85895-2.83546,4.85891-2.829,1.81082-1.05682L161.472,215.69942l.57354-.33511,5.02-.54774c.00645.00641.0129.00641.0129.01286l.47041.80552A2.06651,2.06651,0,0,1,166.80137,218.47042Z" fill="#0a106c"/>
      <path d="M108.17217,180.04968h5.57424a0,0,0,0,1,0,0v61.39895a2.78712,2.78712,0,0,1-2.78712,2.78712h0a2.78712,2.78712,0,0,1-2.78712-2.78712V180.04968A0,0,0,0,1,108.17217,180.04968Z" transform="translate(328.89954 311.2313) rotate(142.06077)" fill="#0a106c"/>
      <rect x="118.32871" y="222.62359" width="24.68593" height="14.33377" rx="5.15405" ry="5.15405" transform="translate(378.92218 320.62241) rotate(139.72195)" fill="#fd6e6c"/>
      <g>
        <circle cx="134.87523" cy="226.64134" r="3.78252" transform="translate(-93.6956 95.06248) rotate(-29.31567)" fill="#97e3f1"/>
        <path d="M134.88283,231.0674a4.43073,4.43073,0,0,1-3.86778-2.25862h0a4.43039,4.43039,0,1,1,3.86778,2.25862Zm-2.74382-2.88919a3.13816,3.13816,0,1,0,1.19979-4.27306,3.14188,3.14188,0,0,0-1.19979,4.27306Z" fill="#fff"/>
      </g>
      <g>
        <circle cx="126.47638" cy="233.64077" r="3.78252" transform="translate(-98.19827 91.8466) rotate(-29.31567)" fill="#97e3f1"/>
        <path d="M126.48429,238.06665a4.43085,4.43085,0,0,1-3.86809-2.25862h0a4.43039,4.43039,0,1,1,3.86809,2.25862Zm-2.74413-2.88919a3.13816,3.13816,0,1,0,1.19979-4.27306,3.14314,3.14314,0,0,0-1.19979,4.27306Z" fill="#fff"/>
      </g>
    </g>
    <path d="M145.06336,50.12221l.05172.72367a1.32548,1.32548,0,0,0-1.04941.07276c-1.22462.61673-1.85312,2.97415-1.40109,5.2551.378,1.90809,1.39418,3.168,2.43325,3.168a1.34,1.34,0,0,0,.607-.14883l.00651-.00393.26423,3.69727,5.98-1.28884,1.21628-11.47519Zm.39787,7.84163c-.79885.40528-1.708-.57457-2.02564-2.17838-.3178-1.60318.07422-3.23531.87366-3.63776a.81376.81376,0,0,1,.36833-.09.9703.9703,0,0,1,.53733.18514l.40088,5.60917A1.07364,1.07364,0,0,1,145.46122,57.96385Z" fill="#fd4a48"/>
    <g opacity="0.68">
      <path d="M139.34336,39.44348l41.22615-18.54682c18.42879-8.29075,39.68526,4.30605,40.86661,24.47933q.04646.79338.06017,1.58873c.27713,16.10277-13.11189,29.13113-29.21669,29.024l-53.97532-.35917Z" fill="#feecec"/>
    </g>
    <ellipse cx="186.71623" cy="200.27201" rx="19.36711" ry="21.26585" fill="#ceeef7"/>
    <path d="M203.58462,200.272c0,10.0633-7.42788,18.22787-16.595,18.22787s-16.60254-8.16457-16.60254-18.22787Z" fill="#684435"/>
    <g>
      <path d="M183.63269,42.27367l.34472,2.58542c-2.14423-.28692-5.378-.24991-7.80077,1.84913a7.37418,7.37418,0,0,0-1.872,8.22651c1.54946,4.037,5.93622,6.41943,11.779,6.41943.03077,0,.06207-.00067.09294-.00083l.73652,5.5238H202.222l2.36387-24.60345Zm-6.77583,11.68183a4.6382,4.6382,0,0,1,1.11-5.18152c1.92028-1.66369,4.84594-1.38341,6.3885-1.08007l1.45619,10.92142C181.28364,58.56018,177.96136,56.83312,176.85686,53.95551Z" fill="#fc9593"/>
      <g>
        <path d="M195.40377,29.5201l-3.2765,9.80025a5.415,5.415,0,0,1,3.2765-9.80025Z" fill="#fc9593"/>
        <path d="M199.24139,36.251a5.1869,5.1869,0,0,1-5.23667,3.69706l3.2765-9.80025A5.18694,5.18694,0,0,1,199.24139,36.251Z" fill="#fc9593"/>
      </g>
    </g>
    <g>
      <rect x="172.79444" y="202.41803" width="4.94518" height="16.29155" transform="translate(-21.86033 20.31016) rotate(-6.24357)" fill="#66bfe2"/>
      <polygon points="178.614 218.393 173.697 218.928 164.243 219.959 161.962 220.21 161.472 215.699 161.44 215.429 162.046 215.364 167.066 214.817 173.175 214.146 178.085 213.612 178.614 218.393" fill="#66bfe2"/>
    </g>
    <g>
      <polygon points="162.922 211.311 162.645 211.459 158.817 213.534 158.701 213.592 157.335 211.092 156.265 209.133 151.116 199.718 151.161 199.692 155.337 197.449 157.328 201.09 160.409 206.716 161.936 209.507 162.658 210.84 162.851 211.182 162.922 211.311" fill="#66bfe2"/>
      <polygon points="167.453 195.639 157.329 201.093 153.161 203.334 151.164 199.693 150.919 199.238 165.216 191.54 167.453 195.639" fill="#66bfe2"/>
    </g>
    <rect x="168.63796" y="177.71732" width="5.15536" height="12.88839" transform="translate(355.37715 12.94588) rotate(90)" fill="#293c72"/>
    <rect x="176.37099" y="177.0729" width="20.62143" height="6.4442" fill="#293c72"/>
    <polygon points="202.148 187.384 207.948 180.295 195.059 180.295 195.059 183.517 202.148 187.384" fill="#293c72"/>
    <rect x="164.12702" y="180.295" width="8.37746" height="25.13237" fill="#293c72"/>
    <rect x="236.94645" y="133.25236" width="19.33259" height="6.4442" fill="#66bfe2"/>
    <path d="M188.15741,230.46951c-3.96961,15.67874-12.48241,26.51144-22.34847,26.51144-5.46467,0-10.51693-3.31878-14.609-8.951a45.5795,45.5795,0,0,1-5.75466-11.10334h-.00645c-.47041-1.276-.90861-2.60348-1.30819-3.96965Z" fill="#fff"/>
    <g>
      <ellipse cx="110.31797" cy="276.31354" rx="6.12199" ry="11.59956" fill="#fc9593"/>
      <ellipse cx="130.29498" cy="275.66912" rx="6.12199" ry="11.59956" fill="#fc9593"/>
      <ellipse cx="150.27199" cy="275.66912" rx="6.12199" ry="11.59956" fill="#fc9593"/>
      <ellipse cx="170.249" cy="275.66912" rx="6.12199" ry="11.59956" fill="#fc9593"/>
    </g>
    <ellipse cx="154.53232" cy="141.73722" rx="2.00486" ry="3.75912" fill="#fff"/>
    <ellipse cx="164.34182" cy="138.72992" rx="2.00486" ry="3.75912" fill="#fff"/>
    <ellipse cx="172.07486" cy="135.72263" rx="2.00486" ry="3.75912" fill="#fff"/>
    <g>
      <ellipse cx="110.5618" cy="276.15679" rx="3.14372" ry="5.95653" fill="#fd6e6c"/>
      <ellipse cx="130.48657" cy="275.82587" rx="3.14372" ry="5.95653" fill="#fd6e6c"/>
      <ellipse cx="150.41133" cy="276.47029" rx="3.14372" ry="5.95653" fill="#fd6e6c"/>
      <ellipse cx="170.33609" cy="275.82587" rx="3.14372" ry="5.95653" fill="#fd6e6c"/>
    </g>
    <path d="M162.11833,159.08885a28.07231,28.07231,0,0,1-24.45574,2.37146,29.28072,29.28072,0,0,1-18.84928-23.154l-.2771-2.60989,21.54252.02621S135.7809,161.24764,162.11833,159.08885Z" fill="#fd6e6c"/>
    <path d="M145.43884,137.7633l-35.36725.2435A20.94364,20.94364,0,0,1,89.37433,117.0646V103.93126A20.94364,20.94364,0,0,1,110.318,82.98762H144.15Z" fill="#fc9593"/>
    <path d="M186.3595,82.98762H145.76105a10.63293,10.63293,0,0,0-10.63293,10.63293v33.95479a10.63293,10.63293,0,0,0,14.36639,9.95592L190.093,122.30684a10.63293,10.63293,0,0,0,6.89946-9.95592V93.62054A10.63293,10.63293,0,0,0,186.3595,82.98762Z" fill="#fd6e6c"/>
    <g>
      <polygon points="153.125 116.15 149.955 104.324 153.125 92.499 159.464 92.499 162.634 104.324 159.464 116.15 153.125 116.15" fill="#97e3f1"/>
      <path d="M159.46455,116.79428h-6.33973a.64413.64413,0,0,1-.62239-.47765l-3.16987-11.82548a.64458.64458,0,0,1,0-.33354l3.16987-11.82611a.64413.64413,0,0,1,.62239-.47765h6.33973a.64441.64441,0,0,1,.62239.47765l3.16924,11.82611a.638.638,0,0,1,0,.33354l-3.16924,11.82548A.64441.64441,0,0,1,159.46455,116.79428Zm-5.8454-1.28884h5.35076l2.9968-11.18106L158.9699,93.1427h-5.35076L150.622,104.32439Z" fill="#fff"/>
    </g>
    <g>
      <polygon points="187.169 108.417 184.754 99.406 187.169 90.395 191.999 90.395 194.415 99.406 191.999 108.417 187.169 108.417" fill="#97e3f1"/>
      <path d="M191.99956,109.06125h-4.83063a.64441.64441,0,0,1-.62239-.47765l-2.41532-9.01118a.638.638,0,0,1,0-.33354l2.41532-9.01055a.64441.64441,0,0,1,.62239-.47765h4.83063a.64441.64441,0,0,1,.62239.47765l2.41532,9.01055a.638.638,0,0,1,0,.33354L192.622,108.5836A.64441.64441,0,0,1,191.99956,109.06125Zm-4.336-1.28884h3.84135l2.24288-8.36676-2.24288-8.36613h-3.84135l-2.24288,8.36613Z" fill="#fff"/>
    </g>
    <polygon points="180.238 102.32 180.238 109.409 174.438 115.853 168.509 111.593 168.528 109.48 168.541 108.462 168.586 103.835 180.238 102.32" fill="#66bfe2"/>
    <polygon points="180.238 102.32 180.238 106.509 168.541 108.462 168.586 103.835 180.238 102.32" fill="#fff"/>
    <g>
      <polygon points="96.819 104.925 100.686 104.925 100.686 117.504 96.819 117.337 96.819 104.925" fill="#fff"/>
      <polygon points="103.263 104.925 107.13 104.925 107.13 117.794 107.062 117.788 103.263 117.62 103.263 104.925" fill="#fff"/>
      <polygon points="109.708 104.925 113.574 104.925 113.574 117.814 113.613 117.814 109.708 117.91 109.708 104.925" fill="#fff"/>
      <polygon points="116.152 104.925 120.663 104.925 120.663 118.4 120.521 118.523 116.332 118.458 116.152 118.458 116.152 104.925" fill="#fd4a48"/>
      <polygon points="127.751 104.925 127.751 118.716 123.24 118.516 123.24 104.925 127.751 104.925" fill="#fd4a48"/>
    </g>
  </g>
</svg>
