<svg xmlns="http://www.w3.org/2000/svg" viewBox="0 0 360 360">
  <g>
    <g>
      <rect x="70.00015" y="50.04633" width="219.99971" height="151.03291" transform="translate(360 251.12557) rotate(-180)" fill="#ceeef7"/>
      <rect x="79.41662" y="58.45554" width="201.03988" height="135.40746" transform="translate(359.87313 252.31855) rotate(-180)" fill="#fff"/>
      <g>
        <polygon points="173.971 111.026 173.971 129.458 189.933 138.674 205.896 129.458 205.896 111.026 189.933 101.81 173.971 111.026" fill="none" stroke="#ffb6b5" stroke-linecap="round" stroke-linejoin="round" stroke-width="2"/>
        <g>
          <line x1="189.93342" y1="79.04707" x2="189.87249" y2="101.9359" fill="none" stroke="#ffb6b5" stroke-linecap="round" stroke-linejoin="round" stroke-width="2"/>
          <line x1="227.28762" y1="98.64508" x2="205.66077" y2="111.19247" fill="none" stroke="#ffb6b5" stroke-linecap="round" stroke-linejoin="round" stroke-width="2"/>
          <line x1="227.00354" y1="141.34285" x2="205.69108" y2="129.41425" fill="none" stroke="#ffb6b5" stroke-linecap="round" stroke-linejoin="round" stroke-width="2"/>
          <line x1="190.70394" y1="163.68042" x2="190.20354" y2="138.68225" fill="none" stroke="#ffb6b5" stroke-linecap="round" stroke-linejoin="round" stroke-width="2"/>
          <line x1="154.41621" y1="137.86578" x2="173.86425" y2="130.18558" fill="none" stroke="#ffb6b5" stroke-linecap="round" stroke-linejoin="round" stroke-width="2"/>
          <line x1="150.27343" y1="98.4121" x2="174.49949" y2="110.77353" fill="none" stroke="#ffb6b5" stroke-linecap="round" stroke-linejoin="round" stroke-width="2"/>
          <line x1="140.36346" y1="130.58543" x2="130.17462" y2="118.88264" fill="none" stroke="#ffb6b5" stroke-linecap="round" stroke-linejoin="round" stroke-width="2"/>
          <line x1="150.0531" y1="98.43319" x2="130.17462" y2="118.88264" fill="none" stroke="#ffb6b5" stroke-linecap="round" stroke-linejoin="round" stroke-width="2"/>
          <line x1="147.15456" y1="77.1248" x2="150.0531" y2="98.43319" fill="none" stroke="#ffb6b5" stroke-linecap="round" stroke-linejoin="round" stroke-width="2"/>
          <circle cx="189.72727" cy="72.63239" r="6.2988" fill="none" stroke="#ffb6b5" stroke-linecap="round" stroke-linejoin="round" stroke-width="2"/>
          <circle cx="146.41638" cy="70.826" r="6.2988" fill="none" stroke="#ffb6b5" stroke-linecap="round" stroke-linejoin="round" stroke-width="2"/>
          <circle cx="190.94626" cy="169.97922" r="6.2988" fill="none" stroke="#ffb6b5" stroke-linecap="round" stroke-linejoin="round" stroke-width="2"/>
          <circle cx="232.40862" cy="144.98105" r="6.2988" fill="none" stroke="#ffb6b5" stroke-linecap="round" stroke-linejoin="round" stroke-width="2"/>
          <circle cx="232.8324" cy="95.29523" r="6.2988" fill="none" stroke="#ffb6b5" stroke-linecap="round" stroke-linejoin="round" stroke-width="2"/>
        </g>
      </g>
      <polygon points="250.366 127.698 250.769 129.126 271.579 129.032 271.176 127.698 250.366 127.698" fill="#ffb6b5"/>
      <polygon points="250.818 131.085 251.221 132.512 272.03 132.418 271.627 131.085 250.818 131.085" fill="#ffb6b5"/>
      <polygon points="251.269 134.471 251.569 135.898 267.064 135.804 266.764 134.471 251.269 134.471" fill="#ffb6b5"/>
      <polygon points="245.4 80.467 245.687 94.804 260.517 93.86 260.23 80.467 245.4 80.467" fill="#fdd"/>
      <polygon points="116.186 83.628 116.039 93.676 132.207 96.177 131.903 83.628 116.186 83.628" fill="#fdd"/>
      <polygon points="221.018 172.346 221.515 176.074 247.197 175.828 246.7 172.346 221.018 172.346" fill="#ffb6b5"/>
    </g>
    <g>
      <ellipse cx="144.92636" cy="302.88042" rx="67.4763" ry="7.07325" fill="#ceeef7"/>
      <g>
        <rect x="144.7585" y="120.69499" width="5.18687" height="9.39316" transform="translate(294.70387 250.78314) rotate(-180)" fill="#ffa670"/>
        <rect x="127.41528" y="288.5391" width="4.62679" height="8.75135" transform="translate(259.45735 585.82955) rotate(-180)" fill="#ffc18c"/>
        <rect x="150.49466" y="290.06108" width="4.62679" height="8.75135" transform="translate(305.6161 588.8735) rotate(-180)" fill="#ffc18c"/>
        <polygon points="109.616 237.282 169.997 243.26 161.167 182.889 136.172 181.892 109.616 237.282" fill="#00a8dd"/>
        <path d="M161.1674,182.88875s2.56568,54.737.03789,58.38611-4.54511,52.21066-4.54511,52.21066h-7.40436s.74547-57.2633,1.46665-61.47384-3.67549-31.158-3.67549-31.158-7.67509,38.45624-9.3553,40.14045-4.4172,52.49136-4.4172,52.49136h-7.3904s.72338-52.21066,2.65241-60.91243,1.23592-48.327,1.23592-48.327Z" fill="#00022b"/>
        <path d="M134.88648,103.5588c1.46768-7.81455,6.45755-13.56922,12.39041-13.56922,5.827,0,11.43556,5.4394,13.24577,13.00127,1.88031-.445,2.93148,2.27209,2.93148,4.71843a5.55874,5.55874,0,0,1-2.826,4.94025c-1.58892,6.5-6.4464,8.51344-11.29852,10.65753-4.22462,1.86681-12.0319-2.41057-14.22571-10.2683a5.934,5.934,0,0,1-4.245-5.65583C130.859,104.73045,132.20167,101.71257,134.88648,103.5588Z" fill="#ffc18c"/>
        <path d="M161.84294,110.608a.21443.21443,0,0,1-.22749-.09411.57829.57829,0,0,1-.11431-.52492,3.08316,3.08316,0,0,0-.45328-2.71075.60985.60985,0,0,1-.09918-.41276c.03646-.2275.38392-2.21591,1.215-2.10124.40705.05688.824.5776,1.239,1.54775.08273.19309.06377.40652-.04246.47685-.10692.069-.25906-.02951-.34147-.22232-.1988-.46425-.48971-1.0253-.74721-1.06117-.37669-.054-.68228.90888-.81019,1.534a4.18641,4.18641,0,0,1,.479,3.46154A.17445.17445,0,0,1,161.84294,110.608Z" fill="#ec915e"/>
        <g>
          <path d="M136.72315,105.06956,133.73,103.01341s-2.50446-7.5829,1.89366-10.28183,6.23067,1.15669,6.23067,1.15669S138.5557,97.35832,136.72315,105.06956Z" fill="#303948"/>
          <path d="M160.52266,102.99085s-2.54193-15.27158-18.66838-9.10259l-4.39812-1.92781s10.06816-7.62056,20.89107-1.92781C164.94442,93.5027,163.82125,96.82186,160.52266,102.99085Z" fill="#303948"/>
        </g>
        <path d="M153.58362,99.64468s3.66094.4271,4.76435.054" fill="none" stroke="#303948" stroke-linecap="round" stroke-linejoin="round" stroke-width="2"/>
        <path d="M193.16331,98.42113s7.33645-12.58475,10.41083-11.607,6.32961,6.30468,6.6913,7.25591c.309.81256-1.44677.98812-3.57867-.88275a22.76267,22.76267,0,0,1-2.42812-2.24717c-.51444-.6035-1.21162-1.265-1.59486-.964-.657.51607-1.92291,6.51692-1.92291,6.51692Z" fill="#ffc18c"/>
        <path d="M141.94186,99.59585s3.44555,1.52392,5.38741,1.15238" fill="none" stroke="#303948" stroke-linecap="round" stroke-linejoin="round" stroke-width="2"/>
        <path d="M201.25,82.631h6.60628v2.52082h-.63746v20.42728a2.6657,2.6657,0,0,1-2.6657,2.6657h0a2.6657,2.6657,0,0,1-2.6657-2.6657V85.15185H201.25Z" fill="#ceeef7"/>
        <path d="M134.86919,110.85614a.35138.35138,0,0,0,.3391-.05273.39872.39872,0,0,0,.07926-.53791,2.2582,2.2582,0,0,1,.19422-2.8068.40029.40029,0,0,0,.07691-.421c-.10063-.25129-1.02536-2.45372-2.30786-2.50643-.628-.025-1.183.44448-1.64931,1.39562a.39516.39516,0,0,0,.15763.51954.35847.35847,0,0,0,.49353-.16595c.22344-.45512.573-.99442.97029-.97847.58093.02176,1.24427,1.11723,1.5643,1.81356a3.04074,3.04074,0,0,0-.09133,3.60527A.36657.36657,0,0,0,134.86919,110.85614Z" fill="#ec915e"/>
        <rect x="202.67856" y="86.80478" width="3.82469" height="19.81887" rx="1.85364" ry="1.85364" transform="translate(409.18181 193.42843) rotate(-180)" fill="#724b45"/>
        <path d="M157.98073,91.96045c6.08137,3.73187,1.466,5.39787-1.83255,5.39787s-15.02691-3.47006-15.02691-3.47006S149.18449,86.56259,157.98073,91.96045Z" fill="#303948"/>
        <path d="M144.83843,114.17655s4.35048,4.06925,8.41891.68864" fill="none" stroke="#ec915e" stroke-linecap="round" stroke-linejoin="round" stroke-width="2"/>
        <path d="M129.51782,184.11533h32.19187l1.00086-53.90261a75.73767,75.73767,0,0,0-15.23072-1.33574c-8.30031.11364-15.36962,4.29424-21.6092,10.6355h0Z" fill="#012986"/>
        <path d="M140.5492,126.971l4.28923,8.63227S128.76416,241.7384,122.01258,246.81165l-18.808-14.45875s31.58778-70.645,22.7605-92.634l-.09446-.20644S127.25693,137.259,140.5492,126.971Z" fill="#69bde0"/>
        <ellipse cx="156.90864" cy="103.18124" rx="0.50305" ry="0.98313" fill="#303948"/>
        <ellipse cx="146.79239" cy="103.18124" rx="0.58712" ry="0.98313" fill="#303948"/>
        <polygon points="131.929 171.981 142.616 172.615 142.616 177.689 129.729 177.689 131.929 171.981" fill="#ffc18c"/>
        <path d="M192.60282,113.55192s3.07438-6.1842,7.41469-13.95607c0,0,9.94653-4.34743,6.51046-6.82063l-8.68061,2.68072s-3.61692.58785-4.15946,1.90239-8.31892,15.44231-8.31892,15.44231Z" fill="#ffc18c"/>
        <polygon points="150.603 126.42 147.969 128.485 148.922 133.756 152.255 128.557 150.603 126.42" fill="#cce1f3"/>
        <polygon points="144.267 126.42 146.901 128.485 145.949 133.756 142.616 128.557 144.267 126.42" fill="#cce1f3"/>
        <path d="M152.255,128.55689s26.18154-1.58593,32.20974-17.67873l10.12738,1.92246-2.0226,4.14312a44.99443,44.99443,0,0,1-18.90487,19.909l-11.466,6.211Z" fill="#98e2f0"/>
        <path d="M125.87063,139.51249s-10.12738,12.42945-11.81528,23.08327,10.65635,16.23439,17.50514,16.48805l2.01355-8.11719s-7.39066-1.522-9.83775-7.10254c-1.1799-2.69075,1.06512-5.73534,3.70661-8.167a9.20609,9.20609,0,0,0,1.36078-11.74185Z" fill="#98e2f0"/>
        <rect x="151.38355" y="101.79228" width="9.52926" height="6.74733" rx="0.49488" ry="0.49488" transform="translate(312.29635 210.33189) rotate(-180)" fill="none" stroke="#fff" stroke-miterlimit="10" stroke-width="2"/>
        <path d="M150.65053,102.75618c.55243.29057,1.96039,4.00916,2.19906,6.94011.06971.85606-2.84836,3.85562-3.6651,3.85562H148.085S149.18449,101.98506,150.65053,102.75618Z" fill="#ffa670"/>
        <rect x="139.28872" y="101.79228" width="9.52926" height="6.74733" rx="0.49488" ry="0.49488" transform="translate(288.10669 210.33189) rotate(180)" fill="none" stroke="#fff" stroke-miterlimit="10" stroke-width="2"/>
        <path d="M153.58362,128.49294l-2.20008,7.1103s15.35829,105.94492,18.61352,107.65714l-6.95164-100.19661Z" fill="#69bde0"/>
        <rect x="149.00123" y="102.75618" width="2.93208" height="1.92781" transform="translate(300.93454 207.44018) rotate(-180)" fill="#fff"/>
        <polygon points="141.942 125.392 144.838 135.603 142.616 139.512 138.114 128.87 141.942 125.392" fill="#98e2f0"/>
        <polygon points="155.966 128.129 154.263 140.464 151.384 135.603 151.933 126.971 155.966 128.129" fill="#98e2f0"/>
        <path d="M149.83937,294.39526v7.84161h18.56741a.764.764,0,0,0,.50869-1.2991c-2.03178-2.12543-7.80361-3.64732-13.794-3.64732v-2.56072Z" fill="#202b3d"/>
        <path d="M132.04207,294.72973l.43819,2.42909s16.62225,3.7093,10.57362,5.644c-3.96528,1.26831-16.7316,0-16.7316,0l.31694-8.07308Z" fill="#202b3d"/>
        <path d="M144.73285,163.79941a13.30546,13.30546,0,0,0,3.15807-8.78651h-.97684V153.903a.68764.68764,0,0,1,.68764-.68764h6.92067a.68764.68764,0,0,1,.68764.68764v1.10988H154.439a14.38854,14.38854,0,0,0,3.17652,9.04766,9.3198,9.3198,0,0,1,2.04941,5.87251,8.61471,8.61471,0,1,1-17.20569,0A9.2878,9.2878,0,0,1,144.73285,163.79941Z" fill="#ceeef7"/>
        <path d="M158.61845,172.34106a3.37,3.37,0,0,0-5.39322-3.43741q-.14685.117-.29632.2484c-3.28928,2.89457-6.97326-2.89457-5.9207-6.447.6147-2.07463-.65528-.29012-1.81828,1.5536a11.23047,11.23047,0,0,0-1.64494,8.02517c.51332,2.73359,2.09566,5.56585,6.37172,5.96057C155.53559,178.76307,157.91112,175.3,158.61845,172.34106Z" fill="#724b45"/>
        <path d="M143.567,173.02736l8.41367,5.61053s2.3509,2.09683-.14316,2.34777-9.25117-5.29352-9.25117-5.29352Z" fill="#ffc18c"/>
        <path d="M150.35759,178.44908s-3.28875,3.49317-8.23717.27347-1.78544-6.5788,1.49963-4.7943A55.58742,55.58742,0,0,1,150.35759,178.44908Z" fill="#ffc18c"/>
        <rect x="140.5492" y="170.71296" width="8.45203" height="2.53662" rx="1.26831" ry="1.26831" transform="translate(365.39358 215.16645) rotate(141.16633)" fill="#ffc18c"/>
      </g>
    </g>
  </g>
</svg>
