<svg xmlns="http://www.w3.org/2000/svg" viewBox="0 0 480 300">
  <g>
    <g>
      <polygon points="451.305 235.024 333.597 166.351 332.343 0 454.345 47.076 451.305 235.024" fill="#e0f6fa"/>
      <polygon points="443.917 221.139 340.935 160.662 339.063 12.741 446.874 56.145 443.917 221.139" fill="#fff"/>
      <g opacity="0.22">
        <polygon points="395.994 108.122 395.377 122.81 379.622 114.417 381.616 102.547 395.994 108.122" fill="#524648"/>
      </g>
      <path d="M375.60634,114.77856l13.9009,8.03163c5.86927-6.17818,6.48708-15.75435,6.48708-15.75435l-14.2098-6.17818S381.1667,111.99838,375.60634,114.77856Z" fill="#fd4a48"/>
      <g opacity="0.22">
        <polygon points="404.026 132.268 403.46 145.716 389.037 138.032 390.862 127.165 404.026 132.268" fill="#524648"/>
      </g>
      <path d="M385.3609,138.36289l12.72617,7.3529c5.37327-5.65608,5.93888-14.51871,5.93888-14.51871l-13.009-5.56036S390.45137,135.81766,385.3609,138.36289Z" fill="#fd4a48"/>
      <g opacity="0.22">
        <polygon points="379.514 123.449 379.099 133.326 368.504 127.682 369.845 119.7 379.514 123.449" fill="#524648"/>
      </g>
      <path d="M365.804,127.92531l9.3479,5.401c3.94689-4.15462,4.36235-10.59429,4.36235-10.59429l-9.55563-4.15462S369.54313,126.05573,365.804,127.92531Z" fill="#fd6e6c"/>
      <g>
        <g opacity="0.22">
          <polygon points="371.032 141.508 370.737 148.513 363.224 144.51 364.175 138.85 371.032 141.508" fill="#524648"/>
        </g>
        <path d="M361.3094,144.68281l6.62893,3.83c2.79888-2.94619,3.0935-7.51279,3.0935-7.51279l-6.77624-2.94619S363.961,143.357,361.3094,144.68281Z" fill="#fdb6b5"/>
      </g>
      <g>
        <g opacity="0.22">
          <polygon points="426.09 119.785 425.796 126.789 418.283 122.786 419.234 117.126 426.09 119.785" fill="#524648"/>
        </g>
        <path d="M416.3679,122.959l6.62893,3.83c2.79888-2.94619,3.0935-7.51279,3.0935-7.51279l-6.77624-2.94619S419.01947,121.63326,416.3679,122.959Z" fill="#fdb6b5"/>
      </g>
      <g>
        <g opacity="0.22">
          <polygon points="406.614 156.865 406.319 163.869 398.806 159.867 399.757 154.207 406.614 156.865" fill="#524648"/>
        </g>
        <path d="M396.89142,160.03926l6.62893,3.83c2.79888-2.94619,3.0935-7.51279,3.0935-7.51279l-6.77624-2.94619S399.543,158.71348,396.89142,160.03926Z" fill="#fdb6b5"/>
      </g>
      <g>
        <g opacity="0.22">
          <polygon points="366.537 97.312 366.243 104.316 358.73 100.314 359.68 94.654 366.537 97.312" fill="#524648"/>
        </g>
        <path d="M356.81483,100.48619l6.62893,3.83c2.79888-2.94619,3.0935-7.51279,3.0935-7.51279L359.761,93.85726S359.4664,99.16041,356.81483,100.48619Z" fill="#fdb6b5"/>
      </g>
      <g>
        <path d="M389.73034,108.65165l-5.47987,7.406a1.91844,1.91844,0,0,0,.69147.45946c1.54463.59029,3.58711-.99767,4.56341-3.55084A6.26977,6.26977,0,0,0,389.73034,108.65165Z" fill="#fff"/>
        <path d="M383.66772,115.09778l5.46631-7.38838a1.89293,1.89293,0,0,0-.65959-.43052c-1.54464-.59027-3.58711.99767-4.56342,3.55086A6.31421,6.31421,0,0,0,383.66772,115.09778Z" fill="#fff"/>
      </g>
      <polygon points="400.557 126.986 399.81 126.932 400.54 116.718 397.048 115.321 397.326 114.626 401.326 116.226 400.557 126.986" fill="#fc9593"/>
      <polygon points="418.176 148.786 417.472 146.322 407.133 141.152 407.468 140.482 418.102 145.8 418.897 148.58 418.176 148.786" fill="#fc9593"/>
      <polygon points="422.932 151.591 422.932 154.875 412.643 149.431 412.643 146.419 422.932 151.591" fill="#fd6e6c"/>
      <polygon points="364.05 121.671 359.025 118.965 358.242 115.047 358.976 114.9 359.691 118.473 364.404 121.011 364.05 121.671" fill="#fc9593"/>
      <polygon points="363.754 113.609 363.754 116.893 353.464 111.449 353.464 108.437 363.754 113.609" fill="#fd6e6c"/>
      <path d="M409.5773,88.70271c0,8.04153,3.84286,14.55866,8.5846,14.55866,4.738,0,8.58085-6.51714,8.58085-14.55866,0-8.0378-3.84286-14.55491-8.58085-14.55491C413.42016,74.1478,409.5773,80.66491,409.5773,88.70271Zm6.83924-4.34474c0,1.56936-.3783,2.8428-.839,2.8428-.46453,0-.83907-1.27345-.83907-2.8428s.37455-2.84283.83907-2.84283C416.03825,81.51514,416.41654,82.78861,416.41654,84.358Zm4.46458,4.26608c-.46444,0-.839-1.27345-.839-2.8428s.37455-2.84283.839-2.84283.839,1.27347.839,2.84283S421.34556,88.624,420.88112,88.624Zm.07909,5.23432c-1.26335,1.786-2.51411,2.56359-3.71567,2.31518-2.34456-.48462-3.30748-4.73623-3.41245-5.21674a.56285.56285,0,0,1,1.10084-.23528c.22155,1.03838,1.16338,4.06852,2.54138,4.35364.8934.18141,1.89441-.91206,2.57217-1.8628a.55952.55952,0,1,1,.91373.646Z" fill="#fd6e6c"/>
      <rect x="390.00992" y="65.04428" width="0.74951" height="33.53056" transform="translate(143.79647 395.31755) rotate(-63.64906)" fill="#fd4a48"/>
      <polygon points="401.679 91.352 401.428 90.647 405.19 89.309 404.341 85.978 405.067 85.792 406.084 89.786 401.679 91.352" fill="#fd4a48"/>
      <g>
        <path d="M394.65906,80.8582l-5.73965-2.57172-.41-12.97091,8.13215,3.12586Zm-5.00592-3.064,4.42,1.98064,1.733-10.852-6.51252-2.50332Z" fill="#fd4a48"/>
        <path d="M389.06206,74.74693c-.056-.01683-5.58529-1.759-4.04175-7.00484a2.64242,2.64242,0,0,1,1.27434-1.6573,3.95461,3.95461,0,0,1,2.71437-.20154l-.21507.71764a3.72041,3.72041,0,0,0-1.35883-.09839,1.8991,1.8991,0,0,0-1.69644,1.451c-1.3325,4.52932,3.3413,6.01544,3.541,6.07652Z" fill="#fd4a48"/>
      </g>
      <path d="M356.796,65.04255c.63671,8.01156,4.98525,14.20284,9.71209,13.82829,4.723-.3783,8.03778-7.18007,7.39732-15.1954-.63671-8.01158-4.98525-14.20284-9.71209-13.82829C359.46656,50.22544,356.15553,57.02722,356.796,65.04255Zm6.80934-5.03017c0,1.56936-.3783,2.8428-.839,2.8428-.46453,0-.83907-1.27345-.83907-2.8428s.37455-2.84283.83907-2.84283C363.227,57.16955,363.60533,58.443,363.60533,60.01237Zm4.46458,4.26608c-.46444,0-.839-1.27345-.839-2.8428s.37455-2.84283.839-2.84283.839,1.27347.839,2.84283S368.53434,64.27845,368.06991,64.27845Zm-.23763,7.61544a.56239.56239,0,0,1-.66789-.43068c-.20948-.964-1.09925-3.78194-2.43214-4.059-.92365-.19553-1.95958.93245-2.66021,1.91055a.56259.56259,0,0,1-.91388-.65638c1.1395-1.58239,2.25771-2.38917,3.33264-2.40138a2.02566,2.02566,0,0,1,.4725.04708c2.28274.476,3.2046,4.46971,3.29963,4.92187A.55868.55868,0,0,1,367.83228,71.8939Z" fill="#fd6e6c"/>
      <path d="M391.33348,64.87628l-.034-.00073a.37446.37446,0,0,1,.0117-.74873.19292.19292,0,0,0,.02085.00037c.2052,0,.39284-.23117.44039-.45136a1.85654,1.85654,0,0,0-.147-.97477l-.07206-.195a3.85672,3.85672,0,0,1-.28274-1.0611,2.18581,2.18581,0,0,1,1.37493-2.17047.37464.37464,0,1,1,.267.70008,1.441,1.441,0,0,0-.895,1.4126,3.26191,3.26191,0,0,0,.23738.85663l.07535.203a2.51981,2.51981,0,0,1,.17447,1.38809A1.27845,1.27845,0,0,1,391.33348,64.87628Z" fill="#fd4a48"/>
      <path d="M393.32656,66.10307a.37454.37454,0,0,1-.256-.64778c.36577-.34309.331-1.004.26994-1.59695a2.57188,2.57188,0,0,1,.534-2.21766.37462.37462,0,0,1,.49818.55963c-.36175.32151-.3515.95027-.28676,1.58159a2.61372,2.61372,0,0,1-.5033,2.21985A.37314.37314,0,0,1,393.32656,66.10307Z" fill="#fd4a48"/>
    </g>
    <g>
      <g>
        <path d="M368.14894,89.44819s6.2487-4.59913,7.94115-6.36747c.58507-.61131,2.741-2.11424,2.53177-.44865-.28467,2.26667,2.56092,2.23611,1.48191,4.24971a16.62585,16.62585,0,0,1-2.97365,3.00674A53.43692,53.43692,0,0,1,369.427,93.356Z" fill="#f6c39c"/>
        <path d="M378.18361,86.52l1.27923,1.48259,4.04886-4.00022c.24-.23713.48693-.46709.7369-.6937a5.35633,5.35633,0,0,0,.80525-1.04108c.37971-.604-.37991-1.33221-.92754-.875l-.01234.01048Z" fill="#f6c39c"/>
        <rect x="377.56014" y="85.67391" width="2.13737" height="5.43303" rx="0.81764" ry="0.81764" transform="translate(559.05341 432.80243) rotate(-130.78866)" fill="#f6c39c"/>
        <path d="M376.69208,84.9812l1.053,1.651,3.8615-2.46281a.97909.97909,0,0,0,.299-1.352h0c-.29077-.45591-1.89827-.07427-2.35417.2165Z" fill="#f6c39c"/>
        <path d="M377.43,81.30356h1.49812a0,0,0,0,1,0,0V85.602a.5731.5731,0,0,1-.5731.5731h-.35192a.5731.5731,0,0,1-.5731-.5731V81.30356a0,0,0,0,1,0,0Z" transform="translate(561.83133 424.77233) rotate(-130.78867)" fill="#f6c39c"/>
      </g>
      <g>
        <ellipse cx="316.72136" cy="235.58985" rx="34.08383" ry="2.78939" fill="#ceeef7"/>
        <path d="M284.823,136.3227c.29691-.22832-5.4509-1.15355-7.08807-1.50765s-5.07107,2.84485-5.07107,2.84485S280.30053,139.80034,284.823,136.3227Z" fill="#f6c39c"/>
        <path d="M286.71643,148.75393c.35088-.131-8.8974-15.12031-15.08324-16.62958,0,0-6.412,6.66784-9.5935,6.32249l14.2316,15.4796S276.83549,152.44361,286.71643,148.75393Z" fill="#fc5150"/>
        <polygon points="306.867 228.002 310.712 227.878 311.273 219.68 306.867 219.68 306.867 228.002" fill="#f6c39c"/>
        <rect x="330.36521" y="217.72139" width="4.40592" height="8.3223" transform="translate(665.13634 443.76508) rotate(-180)" fill="#f6c39c"/>
        <path d="M305.88751,223.596l1.914-.18355,8.36733-.794c-.68911-4.135,3.2249-34.66812,5.607-52.41792a1.60978,1.60978,0,0,1,3.1949.0337l2.19114,19.11317c.21343,1.839.69661,5.60322,1.23228,9.77943a129.73027,129.73027,0,0,1,1.03376,17.42769l-.04124,5.08261,10.76824.49066s2.0975-24.38679,1.58058-41.08038a142.82657,142.82657,0,0,0-7.9029-42.64224l-1.01885-2.929c-6.58823,0-10.64461-.13483-13.14282-.30713a17.11643,17.11643,0,0,1-3.71548-.49066c-.31465-.10488-.27725-.17978-.27725-.17978-.0524.06742-.10854.13483-.15728.20225C299.07826,155.50327,305.88751,223.596,305.88751,223.596Z" fill="#1776dc"/>
        <path d="M286.19945,137.67406s-3.33411,3.9443-6.24561,3.14321-9.50538-.86692-.7491-2.99638a66.6021,66.6021,0,0,0,6.89306-2.05395Z" fill="#f6c39c"/>
        <g>
          <path d="M297.84609,234.30339a2.33165,2.33165,0,0,0,.36453.868,2.30814,2.30814,0,0,0,.763.7383c.93908.50043,11.62115-2.85741,12.31928-3.07674a.39046.39046,0,0,1,.03707-.01235l.0556-1.01323-.04833-4.48937a.64158.64158,0,0,0-.68157-.63343l-3.95934-.04214c0,2.16236-3.70691,3.398-3.70691,3.398C298.467,231.35948,297.60824,233.06157,297.84609,234.30339Z" fill="#080b4a"/>
          <path d="M297.84609,234.30339a2.33165,2.33165,0,0,0,.36453.868,2.30814,2.30814,0,0,0,.763.7383c.93908.50043,11.62115-2.85741,12.31928-3.07674a.39046.39046,0,0,1,.03707-.01235l.0556-1.01323S301.63022,236.1105,297.84609,234.30339Z" fill="#fff8f5"/>
        </g>
        <path d="M306.94588,92.7784s8.0089,7.9881,14.46785,4.12234c0,0-10.645-14.48018-7.7757-14.55749s-.75325-3.26126-.75325-3.26126l-2.16019,1.699Z" fill="#e27023"/>
        <polygon points="320.863 94.801 320.902 96.196 320.922 96.955 320.927 97.166 320.995 99.741 321.074 102.546 327.594 102.369 327.521 99.741 327.516 99.515 327.423 96.015 327.384 94.625 326.033 94.659 320.863 94.801" fill="#f6c39c"/>
        <path d="M331.32984,84.32776c.21347,7.92328-2.46424,12.7824-7.85558,12.92765-5.73855.15461-12.15813-8.42624-10.24319-16.1176,1.8507-7.43335,2.12349-10.73643,7.66979-10.88586S331.11637,76.40448,331.32984,84.32776Z" fill="#f6c39c"/>
        <path d="M324.0564,71.0098s-2.67708,4.20353,5.13914,10.92548l.49442,1.50025a8.03325,8.03325,0,0,1-1.59372,7.78521c-2.006,2.30867-3.68087,5.58278-.579,8.295,0,0,12.42391-8.08285,14.47239-7.73025,0,0-4.55936-2.73173-5.20839-11.68576S328.97486,65.93028,324.0564,71.0098Z" fill="#e27023"/>
        <path d="M333.03512,84.85757c-.71075,2.48962-2.42767,2.71354-3.83485,2.31182s-1.48219-1.277-.77144-3.76661,2.42767-4.18219,3.83485-3.78046S333.74588,82.36795,333.03512,84.85757Z" fill="#f6c39c"/>
        <ellipse cx="321.84192" cy="80.61306" rx="0.61147" ry="1.01724" transform="translate(-2.05432 8.69707) rotate(-1.54327)" fill="#554743"/>
        <ellipse cx="315.72941" cy="80.77774" rx="0.61147" ry="1.01724" transform="translate(-2.06098 8.5325) rotate(-1.54327)" fill="#554743"/>
        <path d="M318.79159,88.67066a6.56,6.56,0,0,1-2.73522-.59.37447.37447,0,0,1,.34529-.6646h0a5.48414,5.48414,0,0,0,6.45034-1.33433.37438.37438,0,0,1,.54353.515A6.18315,6.18315,0,0,1,318.79159,88.67066Z" fill="#b26b39"/>
        <path d="M310.70119,80.80237h0c1.60784-.04332,3.50934-.09051,3.99852-1.62275,1.06848-3.34674,3.18471-9.5172,8.89021-7.01636l5.17432-2.04246s-4.19577-4.37271-9.85686-2.589S310.1839,76.73835,310.70119,80.80237Z" fill="#e27023"/>
        <path d="M324.75253,78.44449a.37414.37414,0,0,1-.32334-.18508,2.56258,2.56258,0,0,0-3.857-1.09475.3746.3746,0,1,1-.42649-.616,3.305,3.305,0,0,1,4.92947,1.33177.3746.3746,0,0,1-.32261.564Z" fill="#b26b39"/>
        <path d="M313.04791,77.93314a.37453.37453,0,0,1-.233-.66789,2.563,2.563,0,0,1,3.3424-.05523.37438.37438,0,0,1-.515.54353c-1.00916-.955-2.30764.05487-2.36214.09839A.37064.37064,0,0,1,313.04791,77.93314Z" fill="#b26b39"/>
        <polygon points="320.203 97.872 320.288 100.914 327.36 100.723 327.281 97.872 320.203 97.872" fill="#080b4a"/>
        <ellipse cx="315.43403" cy="70.12301" rx="2.69251" ry="3.6716" fill="#ceeef7"/>
        <path d="M317.64311,80.49287l-2.72128,3.54c-.37533.48826-.00413,1.14595.75768,1.34243l1.74847.451a.95074.95074,0,0,0,1.18812-.90869l.05194-4.1406C318.69342,80.35561,317.93246,80.14464,317.64311,80.49287Z" fill="#d88d64"/>
        <ellipse cx="322.77723" cy="70.12301" rx="2.69251" ry="3.6716" fill="#ceeef7"/>
        <path d="M332.8137,135.47622,332.81,135.48C332.80254,135.49494,332.8062,135.49494,332.8137,135.47622Z" fill="#3a2f28"/>
        <path d="M284.44841,134.3788v6.40475s9.89369-.41574,16.24975-6.40475c6.431-6.06018,10.11562-11.7945,10.70734-14.083l.38488,1.67424v.0075l3.3878,13.49869a32.87375,32.87375,0,0,0,10.36464,1.54688,18.57228,18.57228,0,0,0,7.26487-1.54313c.0374-.34085,2.68665-9.47232,4.31962-15.07929a13.07025,13.07025,0,0,0,.1842-6.83549c-.442-1.74166-.26946-3.82789,2.79065-4.29232,8.39358-1.27345,23.39812-5.45716,31.38341-16.38646l-3.427-4.40468s-17.34154,12.7159-29.57048,12.1316c0,0-14.62233-1.00753-18.52884-.20975-.61431.12736-1.236.221-1.86148.28841-3.70433.39327-8.66891,1.67047-14.48939,15.05682C296.7804,131.46106,286.69569,134.3788,284.44841,134.3788Z" fill="#080b4a"/>
        <path d="M330.49656,87.30159a3.21322,3.21322,0,0,1-1.43894-.3665.1873.1873,0,1,1,.16752-.335,2.53209,2.53209,0,0,0,3.45432-1.01428c1.15766-1.71546,1.27288-4.40313.22861-5.3256a1.58885,1.58885,0,0,0-1.34128-.45136c-1.23081.20154-2.2162,1.89139-2.22607,1.90822a.18728.18728,0,1,1-.3248-.18654c.04353-.07571,1.083-1.85994,2.48942-2.0911a1.94239,1.94239,0,0,1,1.65072.53988c1.30433,1.15217.97587,4.12368-.16606,5.8161A3.01136,3.01136,0,0,1,330.49656,87.30159Z" fill="#b26b39"/>
        <path d="M330.12055,84.69438a.37455.37455,0,0,1-.26628-.6379.96212.96212,0,0,0,.00146-1.43016.37457.37457,0,0,1-.05633-.45758c.08888-.14814.88662-1.43052,1.85591-1.43052l.04206.00073a1.46026,1.46026,0,0,1,1.20594.96563.37459.37459,0,0,1-.67009.335c-.12326-.24653-.32115-.54244-.56438-.55195l-.015-.00037c-.35077,0-.79665.47843-1.06366.84529a1.71393,1.71393,0,0,1-.20483,2.252A.37333.37333,0,0,1,330.12055,84.69438Z" fill="#b26b39"/>
        <g opacity="0.3">
          <path d="M311.67774,151.35618a.18725.18725,0,0,1-.11522-.33468c3.89581-3.0443,4.27072-6.30915,4.27438-6.34171a.19172.19172,0,0,1,.20483-.16752.187.187,0,0,1,.16752.20483c-.01353.13936-.38515,3.44993-4.4163,6.59921A.18383.18383,0,0,1,311.67774,151.35618Z" fill="#fff"/>
        </g>
        <g opacity="0.3">
          <path d="M335.66854,151.23584a.18667.18667,0,0,1-.10717-.03365c-4.19318-2.93091-4.74-6.21661-4.76122-6.35487a.18727.18727,0,0,1,.37016-.05706c.00512.03219.553,3.27254,4.6054,6.10469a.18728.18728,0,0,1-.10717.3409Z" fill="#fff"/>
        </g>
        <path d="M320.03045,93.62427a2.40591,2.40591,0,0,1-2.27508-.94222,2.77213,2.77213,0,0,1,.26847-2.43419.37452.37452,0,0,1,.64266.38479c-.17264.29042-.556,1.15876-.2586,1.68144.26372.4638,1.02781.56109,1.62255.56109a.37455.37455,0,0,1,0,.7491Z" fill="#b26b39"/>
        <g opacity="0.3">
          <path d="M327.70831,101.86432a.18726.18726,0,0,1-.038-.37052,25.56045,25.56045,0,0,1,8.6819-.30761,34.574,34.574,0,0,0,8.935-.06913c8.10069-1.10462,22.99042-11.47418,23.13965-11.57879a.18722.18722,0,0,1,.21507.30651c-.15033.10534-15.11395,10.52647-23.30425,11.64316a34.86649,34.86649,0,0,1-9.0206.071,25.26406,25.26406,0,0,0-8.57.30139A.17456.17456,0,0,1,327.70831,101.86432Z" fill="#fff"/>
        </g>
        <g opacity="0.3">
          <path d="M285.759,135.94815a.18733.18733,0,0,1-.01756-.37382c11.36408-1.0995,16.2749-13.61246,16.32318-13.73865,2.25167-6.00447,6.14712-13.987,11.91456-17.91025,3.48176-2.36836,5.96679-2.13609,6.071-2.12256a.18739.18739,0,0,1,.16643.20556.19224.19224,0,0,1-.20556.16679c-.09693-.01061-9.88418-.77177-17.59642,19.79323-.04938.12948-5.04505,12.85715-16.63738,13.979Z" fill="#fff"/>
        </g>
        <path d="M332.76507,79.82856a.18647.18647,0,0,1-.14265-.06584l-7.8655-9.239a.18734.18734,0,1,1,.2853-.24287l7.8655,9.239a.18727.18727,0,0,1-.14265.30871Z" fill="#e6f5fc"/>
        <path d="M321.01181,69.775c-.01061-.01244-1.0728-1.23667-2.01173-1.08816-.42539.06547-.77689.41551-1.04464,1.04025l-.34455-.14777a1.83436,1.83436,0,0,1,1.33323-1.26264c1.15-.1774,2.30361,1.15766,2.35226,1.21472Z" fill="#e6f5fc"/>
      </g>
    </g>
    <polygon points="326.792 272.734 331.151 272.563 324.395 257.725 321.003 259.683 326.792 272.734" fill="#b18b7d"/>
    <g>
      <path d="M316.93856,281.4704c.06076.12741.10249.20192.10249.20192l18.00742-6.47622a2.60529,2.60529,0,0,0,.055-.30328,5.34479,5.34479,0,0,0-2.04738-5.48546,5.00959,5.00959,0,0,0-1.19345-.70475s-.76416.36434-2.21908,1.00689c-.83976.36175-1.9126.82217-3.19678,1.3586-.3519.14149-.71235.301-1.0907.452-.53224.22119-1.09081.452-1.68907.697q-1.35306.53128-2.90443,1.13407a1.20616,1.20616,0,0,0-.20659.08923C314.56414,275.86387,316.42637,280.461,316.93856,281.4704Z" fill="#0d2d88"/>
      <rect x="330.59375" y="266.76377" width="2.10601" height="4.21201" rx="0.28091" ry="0.28091" transform="translate(638.92513 565.28254) rotate(-175.06321)" fill="#0d2d88"/>
      <path d="M322.50224,271.21853l1.16479.99855,1.28213,1.07565a.87911.87911,0,0,0,.31485.17026,1.05935,1.05935,0,0,0,1.1742-.3029l.3542-.42581a1.04813,1.04813,0,0,0-.12792-1.47591l-.21769-.19027-1.02375-.8553-1.20548-1.02863a1.04239,1.04239,0,0,0-1.47591.12792l-.35887.41256A1.0598,1.0598,0,0,0,322.50224,271.21853Z" fill="#0d2d88"/>
      <path d="M328.22352,270.32466l-.31388,6.6779,1.26359-.46937.47035-6.8237C329.23031,269.888,328.751,270.09025,328.22352,270.32466Z" fill="#4fa7db"/>
      <path d="M325.03428,278.0516l1.35608-.50264.17538-6.52364-.11894.04278c-.3519.14149-.71235.301-1.0907.452L325.264,273.463Z" fill="#4fa7db"/>
      <path d="M332.31167,275.71784l2.79183-.825a5.34479,5.34479,0,0,0-2.04738-5.48546A11.86441,11.86441,0,0,0,332.31167,275.71784Z" fill="#4fa7db"/>
      <path d="M316.93856,281.4704l3.76591-1.51848c-.90181-2.09277-.38192-5.2937-.14847-6.51153C314.56414,275.86387,316.42637,280.461,316.93856,281.4704Z" fill="#4fa7db"/>
      <rect x="316.34654" y="277.63247" width="20.10534" height="2.28853" transform="translate(-75.08463 126.90955) rotate(-19.78069)" fill="#0c1031"/>
    </g>
    <polygon points="232.061 264.3 236.759 265.453 227.478 248.857 224.228 250.734 232.061 264.3" fill="#844529"/>
    <g>
      <path d="M215.43892,269.57277l21.2184.47816.613-5.415-11.61453-.64571a15.17582,15.17582,0,0,0-3.14681.06131c-5.039.64566-6.5674,3.94367-6.95567,5.11251A3.266,3.266,0,0,0,215.43892,269.57277Z" fill="#080b4a"/>
      <path d="M215.55333,269.16409h7.51555c.48633-2.90978.01634-4.37691-.55988-5.11251C217.47,264.69724,215.9416,267.99525,215.55333,269.16409Z" fill="#03092e"/>
      <path d="M231.08913,265.96418h0a.76852.76852,0,0,0,.76625-.76629v-2.75854a.76851.76851,0,0,0-.76625-.76625h0a.76852.76852,0,0,0-.76629.76625v2.75854A.76853.76853,0,0,0,231.08913,265.96418Z" fill="#1776dc"/>
      <rect x="215.33809" y="268.24594" width="21.89817" height="1.77091" transform="translate(452.57436 538.2628) rotate(-180)" fill="#0d2d88"/>
      <path d="M234.052,265.45333h2.70748a.666.666,0,0,0,.66408-.66412h0a.666.666,0,0,0-.66408-.66408H234.052a.666.666,0,0,0-.66408.66408h0A.666.666,0,0,0,234.052,265.45333Z" fill="#1776dc"/>
      <path d="M228.87547,265.6917h0a.3245.3245,0,0,0,.32354-.3235V263.461a.3245.3245,0,0,0-.32354-.32354h0a.32448.32448,0,0,0-.32354.32354v1.90715A.32447.32447,0,0,0,228.87547,265.6917Z" fill="#1776dc"/>
      <path d="M227.27483,265.6236h0a.3245.3245,0,0,0,.32354-.32354V263.3929a.3245.3245,0,0,0-.32354-.3235h0a.32447.32447,0,0,0-.32354.3235v1.90715A.32448.32448,0,0,0,227.27483,265.6236Z" fill="#1776dc"/>
    </g>
    <ellipse cx="169.30355" cy="253.5561" rx="34.08383" ry="2.78939" fill="#ceeef7"/>
    <ellipse cx="161.03497" cy="232.20688" rx="31.64927" ry="1.87274" fill="#ceeef7"/>
    <g>
      <rect x="163.17621" y="190.69015" width="1.81766" height="29.0826" transform="translate(328.17008 410.46289) rotate(-180)" fill="#66bfe2"/>
      <rect x="146.36283" y="219.77274" width="36.35324" height="1.36325" rx="0.48448" ry="0.48448" transform="translate(329.07891 440.90873) rotate(180)" fill="#66bfe2"/>
      <ellipse cx="183.62491" cy="227.72502" rx="2.27208" ry="5.22578" fill="#b5e1e8"/>
      <ellipse cx="170.90127" cy="227.72502" rx="2.27208" ry="5.22578" fill="#b5e1e8"/>
      <ellipse cx="157.26881" cy="227.72502" rx="2.27208" ry="5.22578" fill="#b5e1e8"/>
      <ellipse cx="145.454" cy="227.72502" rx="2.27208" ry="5.22578" fill="#b5e1e8"/>
    </g>
    <path d="M145.01018,193.62848h40.28963a10.00627,10.00627,0,0,1,10.00627,10.00627v1.60471a0,0,0,0,1,0,0H135.00391a0,0,0,0,1,0,0v-1.60471A10.00627,10.00627,0,0,1,145.01018,193.62848Z" transform="translate(330.30999 398.86794) rotate(-180)" fill="#97e3f1"/>
    <polygon points="162.531 248.641 165.416 248.065 164.782 238.245 160.025 238.073 162.531 248.641" fill="#f4c28c"/>
    <g>
      <path d="M165.81231,244.9982l.49586,6.077s-10.81932,2.63726-17.60251,2.68288c0,0-.985-4.99827,12.32547-6.246l-.09292-1.516Z" fill="#29303f"/>
      <rect x="148.16536" y="251.5844" width="18.8266" height="1.7265" transform="translate(364.17728 466.63881) rotate(168.00625)" fill="#0d2d88"/>
    </g>
    <polygon points="171.335 246.44 174.706 246.44 175.455 235.578 170.586 239.698 171.335 246.44" fill="#f4c28c"/>
    <g>
      <path d="M170.53636,245.87667l1.14747,5.98824s12.37594.76771,17.67882-2.12258c0,0-.38769-5.07962-13.54694-2.722l-.31592-1.48564Z" fill="#29303f"/>
      <rect x="170.90716" y="250.0733" width="18.8266" height="1.7265" transform="translate(368.7458 495.84573) rotate(178.1271)" fill="#0d2d88"/>
    </g>
    <polygon points="183.836 198.47 175.83 241.571 170.211 241.196 168.699 198.47 183.836 198.47" fill="#03092e"/>
    <path d="M161.02268,196.45l4.31959,43.24783s-4.01913,4.43774-6.22181,1.864l-12.93038-42.09376Z" fill="#03092e"/>
    <path d="M95.30187,148.68277c0-.37455,5.85264-4.84621,7.1164-6.74186,1.49819-2.24729,1.49819-3.74548-3.74548-2.99638s-6.74186,10.48733-6.74186,10.48733Z" fill="#f2b288"/>
    <path d="M12.07924,277.47589l3.88694-2.83942,45.33206-33.13253a.657.657,0,0,1,.82243,1.02315l-35.311,30.8121-2.79777,2.44229c14.59245-1.53939,36.39494-2.51715,60.76011-2.51715,25.65925,0,48.47694,1.0843,63.02358,2.76709,14.53109-1.40048,35.30824-2.27755,58.38407-2.27755,43.935,0,79.55131,3.17808,79.55131,7.09844s-35.61631,7.09844-79.55131,7.09844c-18.63786,0-35.77643-.57209-49.33512-1.53a210.64347,210.64347,0,0,0-27.54754-.17511c-12.70517.76732-28.02761,1.21559-44.525,1.21559-43.935,0-79.5514-3.17808-79.5514-7.09841C5.22061,279.33473,7.67328,278.3579,12.07924,277.47589Z" fill="#ceeef7"/>
    <path d="M145.8658,190.25755h39.702l2.9068-61.40622A1.89068,1.89068,0,0,0,186.502,126.959H145.65846a1.89277,1.89277,0,0,0-1.97346,1.87265Z" fill="#66bfe2"/>
    <path d="M357.976,279.98968c5.9111,0,11.66959.058,17.213.16713l-.1-.00784-84.67629-39.1218a.65775.65775,0,0,1,.42822-1.24256l140.80164,44.62057c3.79047.82778,5.88486,1.73347,5.88486,2.68294,0,3.92036-35.6164,7.09844-79.5514,7.09844s-79.5514-3.17808-79.5514-7.09844S314.041,279.98968,357.976,279.98968Z" fill="#ceeef7"/>
    <path d="M84.54709,161.71695,61.303,240.5799a.65776.65776,0,0,0,1.24346.42566l29.9013-76.40974Z" fill="#4fa7db"/>
    <path d="M275.82975,163.65872l13.41768,75.32607a.66151.66151,0,0,0,1.30367-.1665l-6.36222-76.07251Z" fill="#4fa7db"/>
    <polygon points="323.607 283.12 327.443 282.33 324.974 270.343 319.887 270.441 323.607 283.12" fill="#b18b7d"/>
    <path d="M55.0772,199.05431,41.03877,280.064a.65776.65776,0,0,1-1.30348-.16829l6.98276-81.75437Z" fill="#66bfe2"/>
    <path d="M359.40641,195.13793l14.03842,81.00972a.65776.65776,0,0,0,1.30348-.16829L367.76555,194.225Z" fill="#66bfe2"/>
    <polygon points="371.172 193.379 284.522 158.448 64.715 157.672 42.196 193.379 371.172 193.379" fill="#ceeef7"/>
    <rect x="41.33211" y="193.379" width="328.9755" height="7.3432" transform="translate(411.63971 394.1012) rotate(-180)" fill="#66bfe2"/>
    <polygon points="162.28 180.421 125.074 183.358 107.45 173.567 142.208 171.609 162.28 180.421" fill="#588cc9"/>
    <g>
      <rect x="82.43617" y="235.20541" width="1.81766" height="29.0826" transform="translate(166.69001 499.49342) rotate(-180)" fill="#97e3f1"/>
      <rect x="56.53449" y="232.47892" width="50.44013" height="5.9074" transform="translate(163.5091 470.86524) rotate(-180)" fill="#97e3f1"/>
      <path d="M56.388,238.21605l3.05735-4.31966L22.70516,166.48686a2.3094,2.3094,0,0,0-3.1547-.8453l-.32889.18989a2.3094,2.3094,0,0,0-.8453,3.1547Z" fill="#97e3f1"/>
      <rect x="65.6228" y="264.28801" width="36.35324" height="1.36325" rx="0.48448" ry="0.48448" transform="translate(167.59884 529.93926) rotate(180)" fill="#97e3f1"/>
      <ellipse cx="102.88487" cy="272.24028" rx="2.27208" ry="5.22578" fill="#97e3f1"/>
      <ellipse cx="90.16124" cy="272.24028" rx="2.27208" ry="5.22578" fill="#97e3f1"/>
      <ellipse cx="76.52877" cy="272.24028" rx="2.27208" ry="5.22578" fill="#97e3f1"/>
      <ellipse cx="64.71397" cy="272.24028" rx="2.27208" ry="5.22578" fill="#97e3f1"/>
    </g>
    <path d="M37.93958,171.94424c1.21407,10.68189,14.657,43.29553,20.48256,56.337,1.58129,3.54431,2.59952,5.63959,2.65833,5.46826.29856-.85184,22.5485-9.44338,22.1422-11.02951-.41126-1.58613-16.18445-33.578-16.85513-37.17619-.12239-.64621-.38186-1.8309-.72942-3.34361-1.01824-4.40592-2.77575-11.57287-3.91637-16.18442-.64618-2.624-1.09664-4.42549-1.09664-4.42549a14.5162,14.5162,0,0,0-8.63555-8.63561,6.25146,6.25146,0,0,0-1.66937-.28395c-2.55052-.07341-4.69964,1.56656-6.42775,3.81849-.0245.03427-.044.06364-.06848.093a37.98452,37.98452,0,0,0-2.29117,3.39746,29.01949,29.01949,0,0,0-3.03027,6.932,22.587,22.587,0,0,0-.59723,2.859c-.0098.07341-.0196.15176-.0294.23007A10.49954,10.49954,0,0,0,37.93958,171.94424Z" fill="#0a106c"/>
    <path d="M70.92519,232.47669c2.52118.32312,5.07666.514,7.63208.59236a128.63029,128.63029,0,0,0,26.36209-2.203c6.72147-1.219,11.14209-2.47711,11.14209-2.47711l.26434.48955,3.56713,6.569a39.21238,39.21238,0,0,0,13.27574,14.28542l28.26888,18.14781.06851.04407,1.361-3.18205-.69515-.71965-.14689-.15666-44.14243-45.92929H78.802C73.34848,217.93714,49.718,229.75481,70.92519,232.47669Z" fill="#03092e"/>
    <g opacity="0.51">
      <polyline points="161.369 265.688 161.398 265.629 162.172 264.023 162.275 263.813 162.025 263.866" fill="#ceeef7"/>
    </g>
    <path d="M77.43619,212.93889l26.976-18.47633a4.69311,4.69311,0,0,1,7.29458,3.18526l2.27413,15.37428.72942,4.915.4161,2.8247,1.1994,8.1167,5.44866,36.809.1958,1.32665-2.72675,2.2715S99.58818,220.18908,103.015,211.86678,81.52879,232.932,81.52879,232.932l-1.689.07834-18.80345.88118-.12239.0049-2.44773-5.385Z" fill="#080b4a"/>
    <path d="M161.369,264.01819l.02937,1.61063.01467.984.0245,1.26794.00977.53849,3.51494,2.49671s14.51018-11.71975,18.06919-19.94413c.80286-1.8505.563-2.42816-.31332-2.17849-3.0303.84691-13.68774,11.53372-15.83683,13.96676l-4.60665,1.05254-.24967.05384Z" fill="#382b25"/>
    <path d="M41.53278,159.97971l.53365.72942,19.15161,6.701s-5.23873-7.98363-8.27879-12.97211l-3.33218-2.75889c-2.62183.7491-3.98652,2.55815-5.71463,4.81009-.0245.03427-.044.06364-.06848.093A37.98452,37.98452,0,0,0,41.53278,159.97971Z" fill="#0a106c"/>
    <polygon points="314.989 184.452 295.407 190.327 264.565 185.921 284.637 181.025 314.989 184.452" fill="#fc5150"/>
    <path d="M57.29772,151.63069s-1.16674,5.07687-5.92231,3.17382c-2.9742-1.1902-1.73543-3.00222-1.78138-5.20066l-.05248-2.51072S53.30248,142.50044,57.29772,151.63069Z" fill="#f2b288"/>
    <path d="M62.86078,134.31037a.74251.74251,0,0,0-1.166.79262l1.17411,4.151a1.55689,1.55689,0,0,0,1.116,1.44169.79029.79029,0,0,0,.67571-.01232c.60407-.58052,3.04166-2.88993,2.62294-3.22367C66.40383,136.763,64.461,135.55461,62.86078,134.31037Z" fill="#dd8e62"/>
    <path d="M51.00831,146.60258c.045.11236.08623.22474.13488.33335.191.46818.38954.9139.59931,1.33714,4.44958,9.12022,17.35978,1.16255,16.798-.8413-.05989-.21724-.50193-.05244-.58057-.24719-.03374.02247-.06739.04494-.10114.06367a5.68873,5.68873,0,0,1-6.64072-1.88959c1.04125.20975,3.03634-.6012,3.999-.95327.32581-.12361,1.146-.61426,1.17979-.62924-.27341-.52812-2.93146-13.07166-7.88726-15.94019-2.22878-1.29007-4.11057-.55016-5.80495.11934C50.24,128.92913,46.81715,135.77442,51.00831,146.60258Z" fill="#f2b288"/>
    <ellipse cx="60.73329" cy="136.20172" rx="0.55789" ry="1.30174" transform="translate(-44.01093 30.05046) rotate(-20.58532)" fill="#491600"/>
    <ellipse cx="48.89172" cy="141.51399" rx="3.59114" ry="5.74583" transform="translate(-62.18532 41.12225) rotate(-28.8331)" fill="#f2b288"/>
    <path d="M251.27159,146.00279l2.03431,2.71244s1.46864-7.3432,2.93728-9.30139.97909,7.3432.97909,7.3432l.6729.21813a3.86676,3.86676,0,0,1,2.61978,4.56753l-.01155.04426-1.28951,4.83559c3.98217,3.10909,24.93346,23.62368,24.93346,23.62368a2.14419,2.14419,0,0,1-.97909,2.93728c-1.95819.97909-14.44163-2.25226-14.44163-2.25226L253.3059,156.548s-2.44773-4.89547-2.93728-7.83275a14.18356,14.18356,0,0,1-.21756-2.336A.62251.62251,0,0,1,251.27159,146.00279Z" fill="#844529"/>
    <path d="M250.36862,158.99572s34.03651,17.58473,34.75783,22.02961c.56049,3.45386.1633,4.42944-3.91638,4.40592-7.873-.04539-20.97812-6.3038-28.29429-11.9814Z" fill="#0d2d88"/>
    <path d="M195.30608,185.37768c-.27169.04911-15.66376-7.28408.206-13.77512a37.85769,37.85769,0,0,1,8.43635-2.31429l17.96987-2.83729-8.75526,8.21024Z" fill="#844529"/>
    <path d="M224.888,159.84245l-26.15815,16.15938a18.09188,18.09188,0,0,0-6.46884,6.90388h0c-.70727,1.33134.49772,2.16123,1.97787,2.44734,7.934,1.53357,19.889-1.81872,24.5389-5.39556Z" fill="#0d2d88"/>
    <rect x="185.25889" y="259.84237" width="4.40592" height="15.6655" transform="translate(374.9237 535.35024) rotate(-180)" fill="#844529"/>
    <path d="M201.68343,211.56969c-2.08814-4.81018.5717-7.34371,5.76479-8.07175,3.20658-.44954,6.498-.235,8.62866,1.69732l21.76972,16.407-8.87952,9.791L214.35992,218.146l19.85366,40.71731-5.385,1.95819Z" fill="#0d2d88"/>
    <path d="M176.447,215.865l7.83275,50.831s4.77456,4.32321,5.87456-.48955c2.42413-10.60613,2.27835-33.44426-1.64537-45.17408Z" fill="#1776dc"/>
    <path d="M228.879,261.80529s3.98808-.626,5.66913-2.933l-1.33658-3.15542-6.50179,2.22239Z" fill="#1776dc"/>
    <polygon points="185.748 224.595 235.193 221.168 262.607 232.428 220.996 236.344 185.748 224.595" fill="#0d2d88"/>
    <rect x="233.21661" y="238.63224" width="1.81766" height="29.0826" transform="translate(468.25088 506.34708) rotate(-180)" fill="#97e3f1"/>
    <rect x="216.40323" y="267.71484" width="36.35324" height="1.36325" rx="0.48448" ry="0.48448" transform="translate(469.15971 536.79292) rotate(180)" fill="#97e3f1"/>
    <ellipse cx="253.66531" cy="275.66711" rx="2.27208" ry="5.22578" fill="#97e3f1"/>
    <ellipse cx="240.94167" cy="275.66711" rx="2.27208" ry="5.22578" fill="#97e3f1"/>
    <ellipse cx="227.30921" cy="275.66711" rx="2.27208" ry="5.22578" fill="#97e3f1"/>
    <g opacity="0.3">
      <path d="M227.30907,253.74337a.187.187,0,0,1-.16057-.09108l-7.90134-13.17866a.18718.18718,0,1,1,.32115-.19239l7.90134,13.17866a.18678.18678,0,0,1-.06438.25677A.18392.18392,0,0,1,227.30907,253.74337Z" fill="#fff"/>
    </g>
    <ellipse cx="215.4944" cy="275.66711" rx="2.27208" ry="5.22578" fill="#97e3f1"/>
    <polygon points="220.506 243.687 185.748 231.449 185.748 224.595 220.506 235.855 220.506 243.687" fill="#ceeef7"/>
    <path d="M176.47381,214.86534a2.475,2.475,0,0,0,1.61432,2.236l38.19636,16.75351a2.3954,2.3954,0,0,0,3.19115-1.32214L225.401,217.416l-18.14316-4.73429L187.759,207.5916a8.21373,8.21373,0,0,0-2.10125-.5431c-4.46833-.5768-8.50221,2.13118-9.08653,5.69688a5.13306,5.13306,0,0,0-.07489.79779Z" fill="#1776dc"/>
    <path d="M229.13227,137.48228a26.36245,26.36245,0,0,1-3.52533-.39926c-.17978-2.11993-.20593-4.20616-.20593-5.50211,0-10.28131,1.74161-13.2365,12.97429-11.2589,7.58779,1.33588,13.9519,4.04138,13.9519,11.74956,0,5.922-4.133,9.45365-9.54347,10.772l-1.03376,2.8428L235.75722,146.81l-.69078-.41447a12.74614,12.74614,0,0,0-5.732-1.70962,2.67069,2.67069,0,0,1-2.25173-1.13448,12.471,12.471,0,0,1-1.266-4.517c.74675-.29781,2.26106-.80136,3.369-1.16162A.20008.20008,0,0,0,229.13227,137.48228Z" fill="#844529"/>
    <path d="M228.68719,127.78212a.57762.57762,0,0,0,.989.324c.67245-.76333,1.72253-1.12681,3.06879,1.02719,2.60847,4.17355-1.46864,15.176,8.3223,16.64459,6.68445,1.00267,14.91644-9.99439,13.70731-16.64459-.97909-5.385-3.85506-12.40983-14.19686-13.21777C220.50626,114.34755,227.89433,122.43339,228.68719,127.78212Z" fill="#03092e"/>
    <rect x="234.21357" y="145.77795" width="7.83275" height="7.83275" transform="translate(476.2599 299.38865) rotate(-180)" fill="#844529"/>
    <path d="M225.81628,127.24379l-2.41913,5.68276c-.34773.99437.59674,1.54255,1.41932,2.20062l1.07481.85985Z" fill="#6d3321"/>
    <path d="M227.605,126.74982a.30891.30891,0,0,0,.26456-.46789c-.10528-.17542-1.0578-1.71815-2.0601-1.84169a1.02611,1.02611,0,0,0-.87092.31358.30888.30888,0,1,0,.43682.43682.40362.40362,0,0,1,.35853-.13711c.53335.06561,1.26806.98329,1.60593,1.54635A.30858.30858,0,0,0,227.605,126.74982Z" fill="#28211d"/>
    <polygon points="242.781 152.387 233.479 152.387 231.521 154.835 244.249 154.835 242.781 152.387" fill="#0d2d88"/>
    <path d="M233.23448,154.10025l-18.11323,11.74912.4267,51.20388a7.60512,7.60512,0,0,0,7.60486,7.54175h23.789L259.67,164.49573l-16.64459-10.39548Z" fill="#080b4a"/>
    <path d="M220.50626,243.68733l41.69786-5.15367a2.29332,2.29332,0,0,0,2.00619-2.11261l4.56868-63.96155a2.51459,2.51459,0,0,0-2.5082-2.69375H220.50626Z" fill="#97e3f1"/>
    <polygon points="220.506 243.687 223.933 243.198 223.933 171.234 220.506 169.766 220.506 243.687" fill="#ceeef7"/>
    <path d="M53.33714,149.43186c1.81571,4.31174,9.87229,7.1164,13.787,3.83911,1.70565-1.42792,2.98776-3.10958,1.79085-5.83921a7.20362,7.20362,0,0,0-1.51718-2.11993c-2.24354,1.38958-5.31189.37455-5.31189.37455,1.04125.20975,4.68292-1.44579,5.03123-1.59562-.35205-.427-1.07686-2.37076-1.35777-2.57678,0,0-4.094,1.7848-6.65066,1.78466-2.99638-.00017-3.291-.93039-4.258-1.73228C51.39726,138.70262,52.23477,146.81407,53.33714,149.43186Z" fill="#491600"/>
    <polygon points="308.625 229.001 358.069 225.574 385.484 236.834 343.872 240.75 308.625 229.001" fill="#080b4a"/>
    <rect x="360.98834" y="238.63224" width="1.81766" height="29.0826" transform="translate(723.79435 506.34708) rotate(-180)" fill="#97e3f1"/>
    <rect x="344.17497" y="267.71484" width="36.35324" height="1.36325" rx="0.48448" ry="0.48448" transform="translate(724.70318 536.79292) rotate(180)" fill="#97e3f1"/>
    <ellipse cx="381.43704" cy="275.66711" rx="2.27208" ry="5.22578" fill="#97e3f1"/>
    <ellipse cx="368.71341" cy="275.66711" rx="2.27208" ry="5.22578" fill="#97e3f1"/>
    <ellipse cx="355.08094" cy="275.66711" rx="2.27208" ry="5.22578" fill="#97e3f1"/>
    <ellipse cx="343.26614" cy="275.66711" rx="2.27208" ry="5.22578" fill="#97e3f1"/>
    <polygon points="351.997 243.698 320.793 232.95 320.572 226.1 353.181 234.844 351.997 243.698" fill="#ceeef7"/>
    <path d="M338.46746,178.15819s-4.51544,6.61363-14.974,6.23685-16.22665-2.4636-16.22665-2.4636l.78362-4.57766s24.04307,1.75985,27.73-3.26317Z" fill="#d6947f"/>
    <path d="M328.20683,176.12961l.14978.854,1.19853,6.7868h0a.55059.55059,0,0,0,.75714.41157l17.76056-7.528.62921-.26594,3.73048-1.58058,2.88775-1.22478,1.281-.53935,1.95888-.83148,8.77707-8.03327s-2.31669-11.75033-21.7327,3.25029h0Z" fill="#0d2d88"/>
    <path d="M297.35155,223.53235l1.7567,2.56192,5.84664,8.52846,20.36036,29.7091.29225.427,3.67049-1.5731-10.91428-27.65283L313.73426,223.802l31.7879-8.42357,12.19145,1.87274,5.18752.79779a10.23277,10.23277,0,0,0-.32206-5.49838,16.56082,16.56082,0,0,0-1.7791-3.944c-1.16113-1.90646-3.75672-2.899-7.25878-3.23985-.7491-.07489-1.53943-.11611-2.37082-.13108-.35589-.0075-.71919-.0075-1.09-.00375-1.56558.01125-3.2398.11611-5.00025.28841-18.16922,1.79782-44.96062,11.2926-44.96062,11.2926A4.33905,4.33905,0,0,0,297.35155,223.53235Z" fill="#0d2d88"/>
    <g>
      <path d="M366.84888,153.17734s.2028,6.36731,4.32282,7.8655L363.478,162.541s-3.37093-7.1164-2.99638-8.24Z" fill="#c58978"/>
      <g>
        <g>
          <path d="M349.48315,143.07438c-.59437,8.58145,5.24342,12.31368,11.26548,12.73078s9.948-2.63887,10.54235-11.22032-3.80565-15.87621-9.82771-16.29331S350.07752,134.49293,349.48315,143.07438Z" fill="#c58978"/>
          <path d="M352.73809,139.2233l-3.01289,5.13151a1.2701,1.2701,0,0,0,.72413,1.85774l3.01.91971.33379-7.55834A.57254.57254,0,0,0,352.73809,139.2233Z" fill="#b56758"/>
          <ellipse cx="357.10806" cy="140.5506" rx="0.5465" ry="1.36626" fill="#554743"/>
          <ellipse cx="351.09653" cy="139.45759" rx="0.5465" ry="1.36626" fill="#554743"/>
          <path d="M355.09977,150.35388a5.233,5.233,0,0,0,3.85545-1.7128.26605.26605,0,0,0-.41518-.33282h0a4.74015,4.74015,0,0,1-5.69919,1.01508.266.266,0,1,0-.20967.489A6.23379,6.23379,0,0,0,355.09977,150.35388Z" fill="#554743"/>
          <path d="M359.00666,137.992a.266.266,0,0,0,.24682-.36464,2.33951,2.33951,0,0,0-1.43766-1.36881,2.12075,2.12075,0,0,0-1.89155.79723.266.266,0,1,0,.3762.3762,1.64891,1.64891,0,0,1,1.40661-.65251c.67758.13757,1.049,1.037,1.05262,1.04612A.26674.26674,0,0,0,359.00666,137.992Z" fill="#554743"/>
          <path d="M352.677,136.202a.266.266,0,0,0,.22993-.39946c-.02663-.04586-.662-1.125-1.54808-1.15a1.54618,1.54618,0,0,0-1.29931.8527.26608.26608,0,0,0,.44453.29255c.27293-.415.55456-.61627.83971-.61328.492.0139.96286.64355,1.10276.88491A.266.266,0,0,0,352.677,136.202Z" fill="#554743"/>
        </g>
        <path d="M368.813,152.902a23.6813,23.6813,0,0,1-5.23244-11.63977s-4.44485-6.4245-2.832-9.65026c0,0-5.66681.62678-6.22046-.49305s9.12364-10.47454,18.80093-2.41013C381.74736,135.724,378.81291,150.32136,368.813,152.902Z" fill="#492115"/>
        <path d="M363.32925,142.90211c0,2.13785-.96773,3.87092,1.77417,3.87092.97985,0,1.77417-1.73307,1.77417-3.87092s-.801-3.75643-1.77417-3.87092C362.36152,138.70861,363.32925,140.76426,363.32925,142.90211Z" fill="#b56758"/>
        <circle cx="379.17793" cy="132.91177" r="5.57821" fill="#492115"/>
      </g>
    </g>
    <path d="M350.36879,202.24308c-.66665,1.13688-.62547,1.55436.80158,2.99263.35205.35957.7491.72287,1.17979,1.0862a44.24275,44.24275,0,0,0,7.06767,4.58821.81068.81068,0,0,0,.09739.05242c1.00751.5431,2.03386,1.07495,3.06387,1.58808,6.607,3.26982,13.17656,5.6819,13.17656,5.6819l2.83376-53.67277a4.96408,4.96408,0,0,0-4.55211-5.2104c-5.47487-.44743-4.02115,1.921-7.1597,2.09426-6.09033.33615-2.99292-1.68583-5.36991-1.60063-5.85493.20987-9.4896,7.30631-10.02835,15.68247C350.88121,184.82473,356.72485,191.40367,350.36879,202.24308Z" fill="#1776dc"/>
    <path d="M385.57626,161.79194l-11.611-2.62183s-3.74548,3.74548-2.62183,7.8655,8.24,1.12364,9.36369.7491S385.57626,161.79194,385.57626,161.79194Z" fill="#0a106c"/>
    <path d="M360.02712,167.318l23.49825-2.44773,1.95819,4.64134c-2.309,1.60746-18.43934.96708-20.2611.88928-.236.19848-.48932.391-.74322.57187a7.86655,7.86655,0,0,1-2.93376,1.2149c-.86053.18645-2.00791,1.0661-2.00791,4.43174,0,6.05536-3.42683-.97909-3.42683-.97909S352.11543,168.592,360.02712,167.318Z" fill="#d6947f"/>
    <path d="M372.46709,171.1358l19.96442.21769a5.54071,5.54071,0,0,0,1.55712-.10069c16.30778-4.59174,7.31863-13.58088-2.262-12.21027l-19.25956,4.40977Z" fill="#0d2d88"/>
    <path d="M307.64561,182.00442s-5.44957-3.57489-7.83275-2.44773c-.70466.33328.83285,1.27158.48955,1.95819-.48955.97909-3.91637-1.46864-3.42683-2.44773,1.95819-3.91638,3.96-2.87988,4.89547-2.93728,1.46588-.08994,7.3432,1.46864,7.3432,1.46864S310.54739,181.33591,307.64561,182.00442Z" fill="#d6947f"/>
    <path d="M309.00695,219.722a8.88148,8.88148,0,0,1,2.27327-.49116l48.25736-8.34312-5.62665,19.64023-36.13928,5.08568c5.63836,14.413,9.83163,41.52292,9.83163,41.52292l-6.02856,1.89535-18.21955-48.679C301.52233,226.53633,304.11267,221.44043,309.00695,219.722Z" fill="#03092e"/>
    <path d="M351.63506,243.08784l33.47585-6.14228,14.02838-65.78711a1.78642,1.78642,0,0,0-1.82415-2.15732L365.048,170.39333Z" fill="#97e3f1"/>
    <polygon points="351.584 243.205 354.602 242.549 367.337 172.285 365.048 170.393 351.584 243.205" fill="#ceeef7"/>
    <path d="M184.27979,268.65422s3.91637.97909,6.36411-.48955v-3.42683l-6.85366-.48955Z" fill="#4fa7db"/>
    <path d="M55.50619,156.1269l25.18833,10.53415,10.86188-20.97467,4.49457,2.62183s-8.24,28.09107-12.73462,28.84017-21.34921-9.73824-21.34921-9.73824Z" fill="#080b4a"/>
    <path d="M50.27179,149.80641c-.72963.42791-15.45357-5.16236-13.53548-16.18232a8.2429,8.2429,0,0,1,2.65641-4.68511l.83477-.74967,10.12867,4.01336.113.47838a5.64118,5.64118,0,0,1-.61911,4.00876.63694.63694,0,0,0-.10336.3929C50.21879,139.78458,52.87089,148.28208,50.27179,149.80641Z" fill="#604138"/>
    <path d="M51.85435,144.56275s-2.62183,2.99638-5.24367-1.12364-1.87274-7.8655.37455-7.491A5.17136,5.17136,0,0,1,50.35616,138.57Z" fill="#dd8e62"/>
    <g opacity="0.56">
      <path d="M234.736,121.8024a.562.562,0,0,1-.5311-.74471,2.05353,2.05353,0,0,1,1.37456-1.47515,2.71535,2.71535,0,0,1,2.10061.51793,2.76358,2.76358,0,0,1,2.03953-.57023,2.33407,2.33407,0,0,1,1.53513,1.00733.56181.56181,0,0,1-.951.5984,1.24092,1.24092,0,0,0-.77543-.49818,1.987,1.987,0,0,0-1.48758.59913.56181.56181,0,0,1-.72861-.00951c-.21617-.18654-.9499-.6924-1.44479-.55853-.24909.06694-.451.32078-.60023.75458A.56182.56182,0,0,1,234.736,121.8024Z" fill="#6d5951"/>
    </g>
    <g opacity="0.56">
      <path d="M249.01966,126.89683a.56191.56191,0,0,1-.52561-.36357,1.21515,1.21515,0,0,0-.64412-.64924,1.65478,1.65478,0,0,0-1.33725.30359.56055.56055,0,0,1-.74215-.15106c-.20593-.27945-.7725-.84346-1.17229-.8153-.25823.02085-.47257.33614-.60681.5973a.56192.56192,0,0,1-.99928-.51427,1.89809,1.89809,0,0,1,1.52014-1.20338,2.49388,2.49388,0,0,1,1.84713.898,2.43963,2.43963,0,0,1,1.87274-.17155,2.31242,2.31242,0,0,1,1.31494,1.31384.56165.56165,0,0,1-.52744.75568Z" fill="#6d5951"/>
    </g>
    <g opacity="0.56">
      <path d="M238.33042,126.78125a.56193.56193,0,0,1-.49562-.29627c-.10351-.1902-.46343-.69386-.88553-.74653a1.22028,1.22028,0,0,0-.9499.515.56146.56146,0,0,1-.83615-.0128c-.38442-.43929-1.00257-.88-1.24764-.81091-.07937.02195-.23994.2052-.33834.75239a.56192.56192,0,0,1-1.10609-.199c.16606-.92247.55158-1.473,1.14632-1.63682a2.3277,2.3277,0,0,1,1.98613.74544,1.97114,1.97114,0,0,1,1.49307-.46709,2.58086,2.58086,0,0,1,1.72972,1.3314.56177.56177,0,0,1-.496.82518Z" fill="#6d5951"/>
    </g>
    <g opacity="0.56">
      <path d="M249.38579,132.65586a.56193.56193,0,0,1-.49562-.29627c-.10351-.1902-.46343-.69386-.88553-.74653a1.21421,1.21421,0,0,0-.9499.515.527.527,0,0,1-.421.18032.5622.5622,0,0,1-.41515-.19313c-.38442-.43929-1.004-.87931-1.24764-.81091-.07937.02195-.23994.2052-.33834.75239a.56192.56192,0,1,1-1.10609-.199c.16606-.92247.55158-1.473,1.14632-1.63682a2.328,2.328,0,0,1,1.98613.74544,1.96948,1.96948,0,0,1,1.49307-.46709,2.58086,2.58086,0,0,1,1.72972,1.3314.56177.56177,0,0,1-.496.82518Z" fill="#6d5951"/>
    </g>
    <g opacity="0.56">
      <path d="M246.94209,121.373a.56107.56107,0,0,1-.5011-.30725,1.26058,1.26058,0,0,0-.96783-.67192c-.10022,0-.40454,0-.41734.425a.566.566,0,0,1-.56182.54939h-.00549a.55837.55837,0,0,1-.55633-.55707,1.49759,1.49759,0,0,1,1.541-1.541,2.37224,2.37224,0,0,1,1.97113,1.2897.56177.56177,0,0,1-.5022.8131Z" fill="#6d5951"/>
    </g>
    <g opacity="0.56">
      <path d="M253.79587,129.20556a.56147.56147,0,0,1-.5011-.30725,1.2616,1.2616,0,0,0-.96783-.67192c-.10022,0-.40454,0-.41734.425a.566.566,0,0,1-.56182.54939h-.00841a.55777.55777,0,0,1-.55341-.55707,1.49759,1.49759,0,0,1,1.541-1.541,2.37292,2.37292,0,0,1,1.97113,1.2897.56177.56177,0,0,1-.5022.8131Z" fill="#6d5951"/>
    </g>
    <path d="M49.96251,142.15122a.30892.30892,0,0,0,.17527-.56352,1.7405,1.7405,0,0,1-.59308-2.17533.3088.3088,0,0,0-.051-.33968c-.14691-.16169-1.46852-1.56687-2.502-1.2474-.5059.157-.822.66729-.9394,1.51664a.30881.30881,0,1,0,.61178.08477c.05641-.4065.19065-.91194.51073-1.01119.46759-.14631,1.28662.49564,1.72645.93216a2.34006,2.34006,0,0,0,.88751,2.74986A.30729.30729,0,0,0,49.96251,142.15122Z" fill="#8c5937"/>
    <polygon points="159.741 103.91 157.579 103.635 157.888 101.782 159.741 102.091 159.741 103.91" fill="#3563a9"/>
    <rect x="163.29347" y="124.76058" width="6.48708" height="7.41381" transform="translate(333.07402 256.93497) rotate(-180)" fill="#f2b288"/>
    <path d="M156.17058,111.03937c1.288-6.26095,5.667-10.87154,10.87361-10.87154,5.11372,0,10.03565,4.358,11.62426,10.41651,1.65013-.3565,2.57261,1.82038,2.57261,3.78036a4.40173,4.40173,0,0,1-2.48,3.95808c-1.39441,5.20771-5.84536,6.95537-9.44385,8.75462-4.6681,2.334-11.03052-2.14722-12.95577-8.44277a4.84109,4.84109,0,0,1-3.72531-4.5314C152.63612,111.97808,153.81443,109.56019,156.17058,111.03937Z" fill="#f6c39c"/>
    <path d="M178.75058,116.68712a.18537.18537,0,0,1-.19174-.0754.44588.44588,0,0,1-.09635-.42056,2.366,2.366,0,0,0-.382-2.17183.4698.4698,0,0,1-.08359-.3307c.03073-.18227.32358-1.77537,1.024-1.6835.34308.04557.69447.46277,1.04426,1.24.06973.1547.05375.3257-.03579.382-.09011.05527-.21835-.02364-.28781-.17812-.16755-.372-.41275-.82146-.62977-.8502-.31749-.04324-.57505.72819-.68286,1.229a3.20969,3.20969,0,0,1,.40371,2.77336A.14287.14287,0,0,1,178.75058,116.68712Z" fill="#d79161"/>
    <path d="M176.40607,115.59164h-4.91045a2.12478,2.12478,0,0,1-2.12256-2.12219v-2.285a2.12478,2.12478,0,0,1,2.12256-2.12219h4.91045a2.12478,2.12478,0,0,1,2.12256,2.12219v2.285A2.12478,2.12478,0,0,1,176.40607,115.59164Zm-4.91045-5.4057a.99991.99991,0,0,0-.99892.99855v2.285a.99991.99991,0,0,0,.99892.99855h4.91045a.99991.99991,0,0,0,.99892-.99855v-2.285a.99991.99991,0,0,0-.99892-.99855Z" fill="#fff"/>
    <path d="M169.31719,110.39632c.46561.2328,1.65229,3.2121,1.85345,5.56036.05875.68587-2.40071,3.08909-3.08909,3.08909h-.92673S168.08155,109.7785,169.31719,110.39632Z" fill="#f2b288"/>
    <path d="M166.21209,115.59164h-4.91045a2.12478,2.12478,0,0,1-2.12256-2.12219v-2.285a2.12478,2.12478,0,0,1,2.12256-2.12219h4.91045a2.12478,2.12478,0,0,1,2.12256,2.12219v2.285A2.12478,2.12478,0,0,1,166.21209,115.59164Zm-4.91045-5.4057a.99991.99991,0,0,0-.99892.99855v2.285a.99991.99991,0,0,0,.99892.99855h4.91045a.99991.99991,0,0,0,.99892-.99855v-2.285a.99991.99991,0,0,0-.99892-.99855Z" fill="#fff"/>
    <rect x="167.9271" y="110.39632" width="2.47127" height="1.54454" transform="translate(338.32547 222.33719) rotate(-180)" fill="#fff"/>
    <path d="M168.08556,121.50137a5.33847,5.33847,0,0,1-4.12953-1.77215.56186.56186,0,0,1,.83761-.7491c2.31751,2.59,6.09591.81347,6.13358.79518a.56179.56179,0,1,1,.4872,1.01245A8.629,8.629,0,0,1,168.08556,121.50137Z" fill="#d79161"/>
    <g>
      <path d="M157.57866,112.24978l-2.52277-1.64737s-2.11086-6.07535,1.596-8.23771,5.25145.92673,5.25145.92673S159.1232,106.0716,157.57866,112.24978Z" fill="#363c49"/>
      <path d="M178.58445,110.70523s-3.08909-12.35635-16.68107-7.41381l-3.70691-1.54454s8.48583-6.10553,17.6078-1.54454C181.36463,102.98251,181.36463,105.76269,178.58445,110.70523Z" fill="#363c49"/>
    </g>
    <path d="M174.32082,108.43719c-1.12474,0-2.36287-.11888-2.56953-.13936a.37458.37458,0,0,1,.07462-.74544,15.77609,15.77609,0,0,0,3.86.01719.37476.37476,0,1,1,.237.71106A5.87827,5.87827,0,0,1,174.32082,108.43719Z" fill="#363c49"/>
    <path d="M161.90333,107.99059a.37456.37456,0,0,1-.139-.72239c1.62914-.65107,4.71513-.04572,4.84608-.01939a.37452.37452,0,1,1-.147.73446c-.02963-.00622-2.99821-.58889-4.42105-.01939A.3709.3709,0,0,1,161.90333,107.99059Z" fill="#363c49"/>
    <path d="M156.01607,116.88593a.30892.30892,0,0,0,.35261-.47322,1.7405,1.7405,0,0,1,.1637-2.24878.3088.3088,0,0,0,.06482-.33731c-.08481-.20133-.86422-1.9659-1.94516-2.00813-.52933-.02006-.99711.35611-1.3901,1.11816a.30881.30881,0,1,0,.54882.2833c.18832-.36464.48294-.79672.8178-.78394.48963.01743,1.04872.89512,1.31845,1.453a2.34006,2.34006,0,0,0-.077,2.88851A.30729.30729,0,0,0,156.01607,116.88593Z" fill="#d79161"/>
    <path d="M175.49537,101.74688c5.12562,2.98994,1.23564,4.32472-1.54454,4.32472s-12.66526-2.78018-12.66526-2.78018S168.08155,97.42215,175.49537,101.74688Z" fill="#363c49"/>
    <path d="M130.618,155.60815a28.76011,28.76011,0,0,0,2.84276.74535c2.80161.60677,6.08274,1.0787,6.21378.85023l5.004-4.29982,3.05253-2.62183.26966,7.58086,35.83669.618,1.08624-7.86925,4.47208,7.697,4.04513.05242,4.48707.05994-9.91426-20.15066a7.60088,7.60088,0,0,0-5.45344-4.06011l-13.244-2.38212h-6.4871l-12.95938,2.56564a7.61114,7.61114,0,0,0-4.17992,2.37276l-14.06428,15.657-.69661.772-.43453.48152-.65921.84566-.28466.36291C129.35571,155.08044,129.8089,155.33846,130.618,155.60815Z" fill="#0a106c"/>
    <path d="M170.68977,130.51721l-4.22386.98986v2.8608a.97121.97121,0,0,0,1.59706.74267l3.909-2.91959Z" fill="#d3e2f4"/>
    <path d="M161.94691,130.54487l4.24135.912.05261,2.86031a.97121.97121,0,0,1-1.58313.77192l-3.969-2.84714Z" fill="#d3e2f4"/>
    <g opacity="0.3">
      <path d="M325.62452,276.88083a.18727.18727,0,0,1-.18069-.13789l-11.37761-41.59673-2.2546-1.12767a.79621.79621,0,0,1,.17008-1.48722,10.069,10.069,0,0,1,3.778-.32078c.18215.03548.22275-.01975.23592-.03767.30359-.41625-.61961-2.51393-1.37273-3.87057a.18728.18728,0,0,1,.13643-.27579l41.94933-6.24222a.1871.1871,0,1,1,.05487.37016l-41.68378,6.20308c.48428.90235,1.71729,3.35264,1.21838,4.03626a.55837.55837,0,0,1-.61157.184,9.75612,9.75612,0,0,0-3.61855.31785.4217.4217,0,0,0-.08888.78787l2.32958,1.165a.18856.18856,0,0,1,.09693.11814l11.39956,41.67756a.18747.18747,0,0,1-.13131.23007A.193.193,0,0,1,325.62452,276.88083Z" fill="#fff"/>
    </g>
    <g opacity="0.3">
      <path d="M120.2093,265.91617a.187.187,0,0,1-.17959-.135l-14.9819-51.313a.18507.18507,0,0,1,.01207-.13607l1.81239-3.62477-1.77727-1.77727a.18721.18721,0,0,1-.04645-.18764l1.29885-4.22171-3.24181,2.91811a.18918.18918,0,0,1-.16789.04316.18677.18677,0,0,1-.13131-.113l-1.3976-3.49383c-8.454,7.7426-29.71143,27.32771-30.45357,28.5406a.18746.18746,0,0,1-.31858.11083.21459.21459,0,0,1-.05816-.14667c.01573-.72093,21.52844-20.49551,30.77691-28.96416a.18038.18038,0,0,1,.16825-.04426.1864.1864,0,0,1,.132.113l1.3987,3.49639,3.54577-3.1917a.1873.1873,0,0,1,.30432.19459l-1.46491,4.76122,1.793,1.793a.18753.18753,0,0,1,.03511.21617l-1.83982,3.67964,14.96106,51.24279a.18774.18774,0,0,1-.17959.23958ZM70.90435,232.26468Zm-.00073-.00073Zm-.0011-.0011.00037.00037Zm-.0011-.0011.00073.00073Z" fill="#fff"/>
    </g>
    <path d="M124.63877,268.9879a.374.374,0,0,1-.33687-.211c-.94661-1.95248-3.9375-8.42293-2.6906-9.71812.21324-.22166.62327-.41625,1.36907-.08961,3.66574,1.60829,2.09366,9.39,2.02526,9.72031a.37475.37475,0,0,1-.32078.29554A.39481.39481,0,0,1,124.63877,268.9879Zm-2.37018-9.44526a.16143.16143,0,0,0-.11778.03548c-.54865.56987.71,4.2806,2.31056,7.77918.286-2.17084.56987-6.67017-1.78166-7.702A1.13266,1.13266,0,0,0,122.26858,259.54264Z" fill="#4fa7db"/>
    <path d="M124.70351,269.09982a.37447.37447,0,0,1-.09034-.73776c1.06366-.26628,4.22317-1.94772,5.36876-4.33985a4.23149,4.23149,0,0,0,0-3.75462.37461.37461,0,0,1,.68033-.31383,4.94958,4.94958,0,0,1-.00475,4.39216c-1.27,2.65146-4.66209,4.44263-5.86291,4.74256A.37194.37194,0,0,1,124.70351,269.09982Z" fill="#4fa7db"/>
    <path d="M163.49589,263.97576a.37473.37473,0,0,1-.319-.17813c-1.06512-1.73045-3.45323-5.86767-2.63171-6.913.15765-.20117.47587-.398,1.09219-.19788,2.83178.917,2.2568,6.70747,2.23083,6.95364a.37473.37473,0,0,1-.28932.32627A.37988.37988,0,0,1,163.49589,263.97576Zm-2.327-6.62371a.161.161,0,0,0-.04645.00475c-.25128.35845.67338,2.56477,2.0633,4.98909.0139-1.82629-.29518-4.466-1.7791-4.94666A.80165.80165,0,0,0,161.16886,257.352Z" fill="#4fa7db"/>
    <path d="M163.55075,264.05184a.37462.37462,0,0,1-.12692-.72715,7.09878,7.09878,0,0,0,3.48468-3.44737,2.959,2.959,0,0,0-.26335-2.61232.3745.3745,0,1,1,.64522-.3804,3.6775,3.6775,0,0,1,.323,3.24693,7.78219,7.78219,0,0,1-3.93568,3.89837A.37693.37693,0,0,1,163.55075,264.05184Z" fill="#4fa7db"/>
    <path d="M149.98584,178.4593a.18636.18636,0,0,1-.08376-.01975l-9.73824-4.86912a.1873.1873,0,0,1,.16752-.335l9.73824,4.86912a.18728.18728,0,0,1-.08376.3548Z" fill="#fff"/>
    <path d="M148.30037,179.77022c-.3815,0-8.04838-4.20708-11.32677-6.01617a.18712.18712,0,0,1,.18069-.32773c4.24914,2.34421,10.7302,5.86913,11.16986,5.97155a.17631.17631,0,0,1,.1752.18618A.19658.19658,0,0,1,148.30037,179.77022Z" fill="#fff"/>
    <path d="M140.80942,180.14477a.18535.18535,0,0,1-.09547-.02634l-10.11279-5.99276a.18712.18712,0,0,1,.19093-.32188l10.11279,5.99276a.18723.18723,0,0,1-.09547.34821Z" fill="#fff"/>
    <g>
      <polygon points="103.686 169.283 116.867 167.121 107.293 154.805 103.686 169.283" fill="#080b4a"/>
      <polygon points="99.047 165.627 103.686 169.283 107.293 154.805 99.047 165.627" fill="#4fa7db"/>
    </g>
    <path d="M226.92391,130.81824h-.00366c-.56548-.00256-1.02452-.5417-1.40382-1.64779a.37466.37466,0,1,1,.70886-.24287c.38589,1.12693.68582,1.14157.69825,1.14157h.00073c.23958,0,.65619-.66936.8687-1.26849a.37453.37453,0,0,1,.7063.24945C228.395,129.34565,227.82956,130.81824,226.92391,130.81824Z" fill="#28211d"/>
    <rect x="232.76084" y="129.20629" width="1.87274" height="8.61459" rx="0.93637" ry="0.93637" transform="translate(467.39442 267.02717) rotate(180)" fill="#6d3321"/>
    <path d="M232.33766,134.4335a.3745.3745,0,0,1-.36138-.4744,2.35742,2.35742,0,0,0-.03914-1.57317,2.4363,2.4363,0,0,1-.12253-1.67632,1.20171,1.20171,0,0,1,.68655-.87163.96942.96942,0,0,1,.895.1891,2.54672,2.54672,0,0,1,.83761,2.67194.37465.37465,0,0,1-.72239-.199,1.80062,1.80062,0,0,0-.54609-1.8603c-.128-.09-.20154-.10132-.22092-.09327-.03731.0128-.12985.10936-.21361.38259a1.72026,1.72026,0,0,0,.0962,1.165,3.09337,3.09337,0,0,1,.07133,2.06477A.37482.37482,0,0,1,232.33766,134.4335Z" fill="#28211d"/>
    <ellipse cx="172.00103" cy="112.07148" rx="0.56182" ry="1.12364" transform="translate(-18.58947 35.78497) rotate(-11.27279)" fill="#363c49"/>
    <path d="M120.022,143.81365c-.58495.468-6.36731-1.87274-8.98914-4.12s2.62183-8.24,5.99276-3.37093S121.89475,142.31546,120.022,143.81365Z" fill="#f6c39c"/>
    <ellipse cx="163.55263" cy="112.25728" rx="0.56182" ry="1.12364" transform="translate(-18.78878 34.13706) rotate(-11.27279)" fill="#363c49"/>
    <path d="M124.89113,131.45358s-14.23281,10.86188-16.48009,19.851c0,0-7.1164-13.10917-11.98552-11.98552l17.60374-20.22557S122.2693,130.70448,124.89113,131.45358Z" fill="#fc5150"/>
    <g>
      <path d="M108.61332,141.1867a2.46072,2.46072,0,0,1-1.88042-.84932,2.39538,2.39538,0,0,1-.56584-1.76923,2.56573,2.56573,0,0,1,.91954-1.76447l6.78611-5.70161a2.55562,2.55562,0,0,1,3.575.22934,2.39469,2.39469,0,0,1,.56584,1.76849,2.56621,2.56621,0,0,1-.91918,1.7652l-6.78648,5.70124A2.63234,2.63234,0,0,1,108.61332,141.1867Zm6.95437-10.33078a2.26209,2.26209,0,0,0-1.4543.53293l-6.78611,5.70161a2.19283,2.19283,0,0,0-.78677,1.50807,2.02356,2.02356,0,0,0,.477,1.49526,2.18109,2.18109,0,0,0,3.04978.18581l6.78648-5.70124a2.19518,2.19518,0,0,0,.78677-1.5088,2.02363,2.02363,0,0,0-.47733-1.49453A2.0876,2.0876,0,0,0,115.56769,130.85591Z" fill="#fff"/>
      <path d="M109.226,139.63254l-1.21435-.27067-.33248-1.18619.87821-.90235,1.21472.27067.33248,1.18619Zm-.91442-.58743.79152.1763.5823-.598-.21324-.76263-.79189-.1763-.58194.598Z" fill="#fff"/>
      <path d="M111.16237,136.85416l-.594-.69277,2.214-1.8603.594.69277Zm-.06364-.64961.1068.12436,1.64047-1.37822-.1068-.12436Z" fill="#fff"/>
      <rect x="111.11315" y="127.31414" width="0.37459" height="5.47197" transform="translate(-57.8477 103.78745) rotate(-40.61666)" fill="#fff"/>
      <path d="M109.41289,129.00512a1.09959,1.09959,0,0,1-.84017-.3804h0a1.07352,1.07352,0,0,1-.25494-.79262,1.1556,1.1556,0,0,1,2.00259-.68033,1.07419,1.07419,0,0,1,.25494.79226,1.14205,1.14205,0,0,1-.41.78567A1.17037,1.17037,0,0,1,109.41289,129.00512Zm.0673-1.85957a.79611.79611,0,0,0-.51208.188.7705.7705,0,0,0-.27725.5289.70349.70349,0,0,0,.16643.51866h0a.76249.76249,0,0,0,1.06731.06181.77248.77248,0,0,0,.27762-.52927.70312.70312,0,0,0-.16642-.51829A.72686.72686,0,0,0,109.4802,127.14555Z" fill="#fff"/>
    </g>
    <path d="M123.39294,141.56637c0-.37455-4.49457-7.491-7.8655-7.1164s1.12364,2.24729,1.49819,2.99638,2.62183,5.99276,4.12,5.61821A4.05229,4.05229,0,0,0,123.39294,141.56637Z" fill="#f6c39c"/>
    <path d="M58.23131,127.95023s5.94509-2.50205-.00966-6.984c-8.91421-6.70941-16.13669,5.0811-19.22819,6.36557a1.23627,1.23627,0,0,0-.81069,1.033c-.02892.51434.213,1.13239,1.29909,1.54333,2.16714.82,10.87429,2.29451,10.87429,2.29451S54.12233,127.72953,58.23131,127.95023Z" fill="#491600"/>
    <path d="M117.77473,143.95223c.34081.75284.72285,1.58058,1.13864,2.44953,3.16491,6.68569,8.10892,16.03438,11.22143,16.51381,4.26615.65546,12.55484-7.88422,14.54371-10.01167.28091-.30338.43819-.47566.43819-.47566l-6.26992-1.29594-4.592-.95134-2.62183,2.24729-.0075-.01125-7.21754-10.45361-1.49444-2.1649-3.73048,3.0151Z" fill="#0a106c"/>
    <rect x="119.64746" y="139.31908" width="2.62183" height="7.49095" transform="translate(85.67001 327.05675) rotate(-128.92904)" fill="#d3e2f4"/>
    <path d="M91.55639,145.68639s3.3746-7.64123,6.61214-8.50218-1.91779,2.883-1.1812,5.5058C97.50372,144.5287,95.21229,148.354,91.55639,145.68639Z" fill="#f6c39c"/>
    <g>
      <g opacity="0.31">
        <ellipse cx="290.44117" cy="174.92403" rx="6.74186" ry="1.10071" fill="#1b4b78"/>
      </g>
      <g>
        <path d="M299.024,164.66872c-.496-.78181-1.61065-1.57342-4.09921-1.23306l.098-1.01311h-9.4751c-.3948,4.73755,1.18439,12.23867,1.18439,12.23867h7.10633l.30554-3.15721a5.80738,5.80738,0,0,0,4.09312-2.28627C299.46888,167.64241,299.7777,165.857,299.024,164.66872Zm-1.7201,3.81957a4.966,4.966,0,0,1-2.20633,1.63893.5826.5826,0,0,1-.76107-.61261l.42629-4.405a.58775.58775,0,0,1,.51829-.525c1.383-.15814,2.3415.08627,2.74281.71835C298.49076,166.03932,298.19486,167.349,297.30387,168.48829Z" fill="#588cc9"/>
        <ellipse cx="290.2539" cy="162.70155" rx="4.68185" ry="0.53507" fill="#61443b"/>
      </g>
    </g>
    <path d="M54.0005,151.63046a1.10571,1.10571,0,0,0,.15362.55432l1.91014,3.311.10863.10111a5.28072,5.28072,0,0,0,5.77549,2.14617c.10114,0,2.00387,1.80157,2.00387,1.80157l3.44582-1.86151a8.84912,8.84912,0,0,0-1.99637-3.13871,3.82627,3.82627,0,0,0-4.33345-.76407,2.92552,2.92552,0,0,1-2.25853.07491l-1.4008-.69293-2.5207-1.251A2.88676,2.88676,0,0,0,54.0005,151.63046Z" fill="#f6c39c"/>
    <path d="M38.0116,169.07914c-.59587,2.64479,18.70565,10.38054,27.62652,13.12108,2.42323.74412,4.83183,1.46377,7.14737,2.14422,2.31555.68538,4.53811,1.33158,6.604,1.919l.10279.02937c2.38415.68045,11.68958,3.9647,10.26524-3.99452C88.25643,173.91039,67.39783,156.914,67.39783,156.914l-3.97932,2.34978,12.44166,16.92489a.21153.21153,0,0,1-.28957.30086c-3.50573-2.45724-11.28227-9.00328-13.84884-10.47369C54.50093,161.87425,43.29127,145.64519,38.0116,169.07914Z" fill="#0d2d88"/>
    <path d="M297.1486,186.22378h0c-.28244-.00023-.42545-.1603-.31941-.35753l6.91191-12.85575a.85522.85522,0,0,1,.7034-.35668h0c.28244.00023.42545.1603.31941.35753L297.852,185.86709A.85521.85521,0,0,1,297.1486,186.22378Z" fill="#fff"/>
    <polygon points="296.808 186.078 296.814 186.649 297.607 186.089 296.808 186.078" fill="#78bae6"/>
    <rect x="300.3024" y="180.04623" width="7.83275" height="1.95819" rx="0.74909" ry="0.74909" transform="translate(608.43755 362.05065) rotate(180)" fill="#d6947f"/>
    <polygon points="147.739 159.545 147.739 161.043 154.115 168.833 187.459 168.413 187.57 166.451 154.457 166.848 147.739 159.545" fill="#66bfe2"/>
    <g>
      <g>
        <g>
          <path d="M460.56114,256.94085l-3.03285-.10884-2.78077.23193,2.51079,39.609a.325.325,0,0,0,.64869.0011Z" fill="#97e3f1"/>
          <ellipse cx="439.63832" cy="256.49847" rx="26.84022" ry="4.19776" fill="#97e3f1"/>
          <path d="M424.68938,257.19526l-3.03285-.10884-2.78077.23193,2.51079,39.609a.325.325,0,0,0,.64869.0011Z" fill="#97e3f1"/>
        </g>
        <path d="M442.13295,249.9979l-21.72376-3.93275s2.24729,5.24367.37455,6.74186l18.72738,3.74548S443.63114,253.93065,442.13295,249.9979Z" fill="#ceeef7"/>
        <polygon points="463.857 246.814 443.257 244.192 420.409 246.065 440.26 249.811 463.857 246.814" fill="#97e3f1"/>
        <path d="M422.15708,251.43366" fill="none" stroke="#fff" stroke-linecap="round" stroke-linejoin="round" stroke-width="2"/>
        <path d="M441.0093,255.05429" fill="none" stroke="#fff" stroke-linecap="round" stroke-linejoin="round" stroke-width="2"/>
        <path d="M422.53162,248.43728" fill="none" stroke="#fff" stroke-linecap="round" stroke-linejoin="round" stroke-width="2"/>
        <path d="M441.38385,252.05791" fill="none" stroke="#fff" stroke-linecap="round" stroke-linejoin="round" stroke-width="2"/>
        <path d="M463.48216,253.18155l-23.971,3.37093s2.99638-3.37093.7491-7.1164l23.5965-2.62183S467.60218,250.18517,463.48216,253.18155Z" fill="#0a106c"/>
        <path d="M447.06287,242.50694l21.72376-3.93275s-2.24729,5.24367-.37455,6.74186l-18.72738,3.74548S445.56468,246.43969,447.06287,242.50694Z" fill="#03092e"/>
        <polygon points="425.339 239.323 445.939 236.701 468.787 238.574 448.936 241.945 425.339 239.323" fill="#03092e"/>
        <path d="M467.03874,243.94271" fill="none" stroke="#fff" stroke-linecap="round" stroke-linejoin="round" stroke-width="2"/>
        <path d="M448.18651,247.56334" fill="none" stroke="#fff" stroke-linecap="round" stroke-linejoin="round" stroke-width="2"/>
        <path d="M425.71365,245.6906l23.971,3.37093s-2.99638-3.37093-.7491-7.1164l-23.5965-2.62183S421.59363,242.69422,425.71365,245.6906Z" fill="#0d2d88"/>
        <g>
          <path d="M453.05563,238.01237l21.72376-3.93275s-2.24729,5.24367-.37455,6.74186L455.67746,244.567S451.55744,241.94512,453.05563,238.01237Z" fill="#ceeef7"/>
          <polygon points="431.332 234.829 451.932 232.207 474.779 234.08 454.554 237.825 431.332 234.829" fill="#97e3f1"/>
          <path d="M473.0315,239.44814" fill="none" stroke="#fff" stroke-linecap="round" stroke-linejoin="round" stroke-width="2"/>
          <path d="M454.17927,243.06876" fill="none" stroke="#fff" stroke-linecap="round" stroke-linejoin="round" stroke-width="2"/>
          <path d="M472.657,236.45176" fill="none" stroke="#fff" stroke-linecap="round" stroke-linejoin="round" stroke-width="2"/>
          <path d="M453.80472,240.07238" fill="none" stroke="#fff" stroke-linecap="round" stroke-linejoin="round" stroke-width="2"/>
          <path d="M431.70641,241.196l23.971,3.37093s-2.99638-3.37093-.7491-7.1164l-23.5965-2.62183S427.58639,238.19965,431.70641,241.196Z" fill="#66bfe2"/>
        </g>
        <ellipse cx="438.76202" cy="297.00362" rx="28.46562" ry="2.99638" fill="#ceeef7"/>
      </g>
      <g>
        <g>
          <g>
            <path d="M448.07736,188.81775h0a5.24094,5.24094,0,0,1-7.53495,1.68l-9.52132-5.87719a6.14249,6.14249,0,0,1-2.47883-7.86116h0a5.24094,5.24094,0,0,1,7.53495-1.68l9.52132,5.87719A6.14249,6.14249,0,0,1,448.07736,188.81775Z" fill="#0a106c"/>
            <path d="M448.11718,182.83241h0a3.92331,3.92331,0,0,1,.182-5.25271l6.62988-6.59507a3.27662,3.27662,0,0,1,4.87264.22459h0a3.92331,3.92331,0,0,1-.182,5.25271l-6.62988,6.59507A3.27662,3.27662,0,0,1,448.11718,182.83241Z" fill="#0a106c"/>
            <path d="M467.98061,185.65585h0a5.95844,5.95844,0,0,1-3.65394,7.25685L454.1973,196.634a5.32649,5.32649,0,0,1-6.99934-3.3431h0a5.95844,5.95844,0,0,1,3.65394-7.25685l10.12937-3.72127A5.32649,5.32649,0,0,1,467.98061,185.65585Z" fill="#0a106c"/>
            <path d="M448.12061,220.58128a.562.562,0,0,1-.56182-.55524l-.68106-57.27286a.56177.56177,0,0,1,.55524-.56841h.00658a.562.562,0,0,1,.56182.55524l.68106,57.27286a.56177.56177,0,0,1-.55524.56841Z" fill="#0a106c"/>
            <path d="M447.95016,193.03886a.18731.18731,0,0,1-.06547-.36284l17.70249-6.60835a.18738.18738,0,1,1,.13095.35114l-17.70249,6.60835A.18612.18612,0,0,1,447.95016,193.03886Z" fill="#fff"/>
            <path d="M447.61,189.0004a.18934.18934,0,0,1-.09839-.0278l-17.53241-10.83042a.18739.18739,0,1,1,.19678-.319l17.53241,10.83042a.1873.1873,0,0,1-.09839.34675Z" fill="#fff"/>
            <path d="M448.03319,182.34377a.18727.18727,0,0,1-.13168-.32041l10.51-10.41784a.18726.18726,0,0,1,.26335.26628l-10.51,10.41784A.18577.18577,0,0,1,448.03319,182.34377Z" fill="#fff"/>
            <path d="M436.06671,161.26975h0c1.41159-1.33726,3.88792-1.07248,5.503.5884l5.58406,5.74255c1.615,1.66088,1.78151,4.11391.36992,5.45117h0c-1.41159,1.33726-3.88792,1.07248-5.503-.5884l-5.58406-5.74255C434.82159,165.06,434.65512,162.607,436.06671,161.26975Z" fill="#0a106c"/>
            <path d="M447.43954,173.02983a.18728.18728,0,0,1-.135-.05743l-10.273-10.68924a.18729.18729,0,0,1,.26994-.2597l10.273,10.68924a.18727.18727,0,0,1-.135.31712Z" fill="#fff"/>
          </g>
          <path d="M446.98088,168.06462h0a2.5969,2.5969,0,0,1,.73722-3.377l5.166-4.16538a2.16584,2.16584,0,0,1,3.20139.20132h0a2.5969,2.5969,0,0,1-.73722,3.377l-5.166,4.16538A2.16584,2.16584,0,0,1,446.98088,168.06462Z" fill="#0a106c"/>
          <path d="M447.5266,167.97014a.18729.18729,0,0,1-.12326-.32846l6.71186-5.86511a.18742.18742,0,1,1,.24653.28237l-6.71186,5.86511A.18786.18786,0,0,1,447.5266,167.97014Z" fill="#fff"/>
        </g>
        <path d="M439.77631,183.82258a.187.187,0,0,1-.18-.1357l-.82518-2.887a.1872.1872,0,1,1,.35992-.10315l.82518,2.887a.1869.1869,0,0,1-.12838.23153A.18111.18111,0,0,1,439.77631,183.82258Z" fill="#fff"/>
        <path d="M439.07331,186.654a.18727.18727,0,0,1-.06986-.361l2.785-1.12181a.18726.18726,0,0,1,.13972.34748l-2.785,1.12181A.18684.18684,0,0,1,439.07331,186.654Z" fill="#fff"/>
        <path d="M432.68076,182.59835a.18727.18727,0,0,1-.06986-.361l2.78533-1.12145a.18726.18726,0,0,1,.13972.34748l-2.78533,1.12145A.18684.18684,0,0,1,432.68076,182.59835Z" fill="#fff"/>
        <path d="M456.71984,192.25465a.18618.18618,0,0,1-.08083-.01829l-2.70779-1.29738a.18732.18732,0,1,1,.16167-.338l2.70779,1.29738a.18729.18729,0,0,1-.08083.35626Z" fill="#fff"/>
        <path d="M458.18877,189.24693a.18256.18256,0,0,1-.07133-.01427.18687.18687,0,0,1-.10168-.24433l1.48758-3.60319a.18713.18713,0,0,1,.346.14265l-1.48758,3.60319A.18675.18675,0,0,1,458.18877,189.24693Z" fill="#fff"/>
        <path d="M464.35417,189.84387a.186.186,0,0,1-.07718-.01683l-3.30692-1.5a.18718.18718,0,1,1,.15472-.3409l3.30692,1.5a.18731.18731,0,0,1-.07754.35772Z" fill="#fff"/>
        <polygon points="438.515 220.21 442.938 233.675 453.569 233.675 457.402 220.21 438.515 220.21" fill="#1776dc"/>
      </g>
    </g>
    <path d="M53.99675,151.60424a.06369.06369,0,0,0,.00375.02622,1.10571,1.10571,0,0,0,.15362.55432l1.91014,3.311.29591.50938a1.1596,1.1596,0,0,0,.58807.5019,1.16356,1.16356,0,0,0,1.43071-1.66674l-.97-1.678-1.236-2.1424a1.16637,1.16637,0,0,0-2.17614.58429Z" fill="#dd8e62"/>
    <rect x="56.10526" y="149.75559" width="2.3309" height="7.0702" rx="1.16545" ry="1.16545" transform="translate(138.97741 295.07215) rotate(170.53186)" fill="#f6c39c"/>
    <g>
      <polygon points="157.579 159.513 147.694 159.513 154.115 167.236 157.579 159.513" fill="#fc5150"/>
      <path d="M153.72251,163.91632h2.684a.17781.17781,0,0,0,.08531-.33381l-.95493-.52223a.17781.17781,0,0,0-.08531-.0218h-2.38489a.17781.17781,0,0,0-.11978.30922l.51172.46641A.39172.39172,0,0,0,153.72251,163.91632Z" fill="#fff"/>
      <path d="M152.265,162.04358h2.6433a.17781.17781,0,0,0,.08531-.33381l-.95493-.52223a.17781.17781,0,0,0-.08531-.0218H151.5685a.17781.17781,0,0,0-.11978.30922l.48164.439A.49679.49679,0,0,0,152.265,162.04358Z" fill="#fff"/>
      <path d="M154.115,167.23554h33.36215l2.61685-22.09787a1.25548,1.25548,0,0,0-1.22531-1.40294l-33.47676-.57225a1.25548,1.25548,0,0,0-1.27694,1.25529Z" fill="#fc5150"/>
      <g>
        <path d="M169.20922,158.18305a3.464,3.464,0,0,0,2.85772.96456,3.05286,3.05286,0,0,0,2.7936-2.50794,2.6242,2.6242,0,0,0-.86008-2.24723,3.12546,3.12546,0,0,1-.71214-.97273,2.70479,2.70479,0,0,1-.25213-1.12147.65641.65641,0,0,0-.69087-.61852h-1.43925a.65507.65507,0,0,0-.69084.60733v.05415a2.7006,2.7006,0,0,1-.21126,1.04306.49994.49994,0,0,0,.22488.65045,1.71124,1.71124,0,0,1,.99142,1.85854,1.9038,1.9038,0,0,1-1.60107,1.42354l-.02146.00341C169.13178,157.39206,168.90071,157.86776,169.20922,158.18305Z" fill="#fff"/>
        <path d="M170.73365,150.832c.24641.3752.61358.59439.82009.48957s.17417-.494-.07224-.86915-.61358-.59439-.82009-.48957S170.48724,150.45679,170.73365,150.832Z" fill="#fff"/>
      </g>
    </g>
    <g>
      <g opacity="0.31">
        <ellipse cx="172.45867" cy="173.11245" rx="6.36731" ry="1.03956" fill="#1b4b78"/>
      </g>
      <path d="M186.69148,160.29375l.03749.7491.12354,2.43831.21352,4.30355c.10114,0,1.206.13858,2.72672.17228,4.29605.09739,11.86189-.68541,8.88426-8.03778-1.76785-4.36349-4.768-6.09015-7.00027-6.0452-2.42331.04494-3.9365,2.17987-1.98887,5.29611.35955.573.06739.88018-.45319,1.03376A8.099,8.099,0,0,1,186.69148,160.29375Z" fill="#0a106c"/>
      <path d="M168.81433,172.26055c.08989.49066.146.76782.146.76782h1.62557v-.37455h1.49819v.37455h1.12364v-.37455H174.706v.37455h1.31841l.22477-.75267.85764-2.84638a5.91277,5.91277,0,0,0,3.62194-1.64392,7.17193,7.17193,0,0,0,.87638-.95814,6.71983,6.71983,0,0,0,1.15364-2.29457,3.6916,3.6916,0,0,0-.28841-2.885,2.55591,2.55591,0,0,0-.49443-.59365,3.90712,3.90712,0,0,0-2.74162-.88769,9.0745,9.0745,0,0,0-1.26977.11611l.10863-1.1124H167.6607a.89426.89426,0,0,0-.01125.12358c-.00375.05244-.00741.05994-.01125.11238C167.35729,163.822,168.41354,170.0994,168.81433,172.26055Zm8.506-5.09761.397-4.26608.04865-.5019.02249-.25094a.65822.65822,0,0,1,.56932-.59929,6.5825,6.5825,0,0,1,.95137-.04869,3.6217,3.6217,0,0,1,1.15729.18355,1.65065,1.65065,0,0,1,.90647.68541,1.78473,1.78473,0,0,1,.22842.72287,4.43114,4.43114,0,0,1-1.01876,2.90649,5.85649,5.85649,0,0,1-1.33707,1.29219,4.73278,4.73278,0,0,1-1.09.57307A.64569.64569,0,0,1,177.3203,167.16294Z" fill="#588cc9"/>
      <path d="M178.45144,163.22644v2.37464a2.18171,2.18171,0,0,0,2.18364,2.18362h6.431v-6.74186h-6.431a2.13766,2.13766,0,0,0-1.32591.45319,1.83177,1.83177,0,0,0-.3184.29591A2.15831,2.15831,0,0,0,178.45144,163.22644Z" fill="#f6c39c"/>
      <path d="M183.35453,165.27041l2.14633-1.50575-2.2446-3.19952a3.99657,3.99657,0,0,0-3.50259-1.69477.75994.75994,0,0,0-.55176,1.23343Z" fill="#f6c39c"/>
      <polygon points="186.317 160.009 186.317 161.043 186.317 163.474 186.317 163.477 186.703 167.785 186.815 168.833 189.823 168.62 189.783 167.957 189.447 163.2 189.232 160.204 189.254 159.796 186.317 160.009" fill="#d3e2f4"/>
      <rect x="177.03461" y="161.16574" width="3.9983" height="2.49893" rx="1.24947" ry="1.24947" transform="translate(358.06751 324.83041) rotate(-180)" fill="#f6c39c"/>
      <ellipse cx="172.64595" cy="159.33062" rx="5.05639" ry="0.53507" fill="#61443b"/>
    </g>
    <path d="M56.62217,134.18332a.37447.37447,0,0,1-.353-.5c.51793-1.45832,1.24325-2.28715,2.15694-2.46382a3.18733,3.18733,0,0,1,2.58818,1.10974.37456.37456,0,0,1-.56109.49635h0c-.00951-.01061-.94442-1.052-1.88737-.87053-.789.15435-1.30031,1.16132-1.59073,1.97918A.37492.37492,0,0,1,56.62217,134.18332Z" fill="#491600"/>
    <path d="M119.24383,269.28658l1.36325,4.08974s18.631-.90883,26.3561-5.453-15.90454-.90883-19.99428,0l-5.19507-2.23716Z" fill="#382b25"/>
    <g>
      <path d="M168.50952,279.686l21.2184.47816.613-5.415-11.61453-.64571a15.17582,15.17582,0,0,0-3.14681.06131c-5.039.64566-6.5674,3.94367-6.95567,5.11251A3.266,3.266,0,0,0,168.50952,279.686Z" fill="#080b4a"/>
      <path d="M168.62392,279.27731h7.51555c.48633-2.90978.01634-4.37691-.55988-5.11251C170.54063,274.81047,169.01219,278.10848,168.62392,279.27731Z" fill="#03092e"/>
      <path d="M184.15973,276.07741h0a.76852.76852,0,0,0,.76625-.76629v-2.75854a.76851.76851,0,0,0-.76625-.76625h0a.76852.76852,0,0,0-.76629.76625v2.75854A.76853.76853,0,0,0,184.15973,276.07741Z" fill="#1776dc"/>
      <rect x="168.40869" y="278.35917" width="21.89817" height="1.77091" transform="translate(358.71554 558.48925) rotate(-180)" fill="#0d2d88"/>
      <path d="M187.1226,275.56656h2.70748a.666.666,0,0,0,.66408-.66412h0a.666.666,0,0,0-.66408-.66408H187.1226a.666.666,0,0,0-.66408.66408h0A.666.666,0,0,0,187.1226,275.56656Z" fill="#1776dc"/>
      <path d="M181.94606,275.80492h0a.3245.3245,0,0,0,.32354-.3235v-1.90715a.3245.3245,0,0,0-.32354-.32354h0a.32448.32448,0,0,0-.32354.32354v1.90715A.32447.32447,0,0,0,181.94606,275.80492Z" fill="#1776dc"/>
      <path d="M180.34542,275.73682h0a.3245.3245,0,0,0,.32354-.32354v-1.90715a.3245.3245,0,0,0-.32354-.3235h0a.32447.32447,0,0,0-.32354.3235v1.90715A.32448.32448,0,0,0,180.34542,275.73682Z" fill="#1776dc"/>
    </g>
    <g opacity="0.3">
      <path d="M186.69114,263.32469a.18721.18721,0,0,1-.18581-.16716l-4.42178-41.168a.187.187,0,0,1,.07206-.16862l1.73631-1.33725-3.36727-4.08418a.18783.18783,0,0,1-.00914-.22641.18573.18573,0,0,1,.2158-.0695l4.31864,1.52489-2.44882-3.8296a.18736.18736,0,0,1,.2297-.274l33.64454,14.02725a.18741.18741,0,0,1-.14411.346l-33.0926-13.79718,2.41993,3.78425a.18727.18727,0,0,1-.21983.27762l-4.1961-1.48173,3.06149,3.71365a.18714.18714,0,0,1-.03036.26774l-1.80653,1.39139,4.41044,41.06344a.18733.18733,0,0,1-.16606.20629Z" fill="#fff"/>
    </g>
    <g>
      <g opacity="0.31">
        <ellipse cx="149.04945" cy="188.75936" rx="9.17642" ry="1.49819" fill="#1b4b78"/>
      </g>
      <g>
        <circle cx="148.86218" cy="179.02113" r="10.11279" fill="#ceeef7"/>
        <g>
          <path d="M140.51211,178.79a8.422,8.422,0,1,0,.01153-.334A3.23407,3.23407,0,0,0,140.51211,178.79Z" fill="#97e3f1"/>
          <polygon points="143.053 170.778 154.762 170.778 154.762 167.036 140.414 167.036 143.053 170.778" fill="#395b9e"/>
          <g>
            <rect x="152.69835" y="167.0356" width="8.73324" height="2.30327" transform="translate(314.12994 336.37448) rotate(-180)" fill="#223b74"/>
            <rect x="159.22429" y="167.0356" width="2.2073" height="3.74282" transform="translate(320.65588 337.81402) rotate(-180)" fill="#223b74"/>
          </g>
          <path d="M140.51211,178.79a8.30042,8.30042,0,1,0,16.60085,0c-.56429-.144-16.07683-.32826-16.58932-.334A3.23407,3.23407,0,0,0,140.51211,178.79Z" fill="#5b3631"/>
        </g>
      </g>
    </g>
    <g>
      <path d="M310.44711,289.15938c.01405.14045.02811.22469.02811.22469H329.6118a2.6053,2.6053,0,0,0,.15442-.26676,5.34479,5.34479,0,0,0-.07018-5.85467,5.00959,5.00959,0,0,0-.88453-1.06706s-.84237.08424-2.4289.1965c-.91264.05622-2.078.1264-3.46793.19658-.379.01405-.77218.04216-1.17931.05622-.57569.028-1.1794.05613-1.82527.08424q-1.453.042-3.11685.08424a1.20617,1.20617,0,0,0-.2246.01405C310.11017,283.08011,310.30675,288.0362,310.44711,289.15938Z" fill="#0d2d88"/>
      <rect x="327.49876" y="280.17381" width="2.10601" height="4.21201" rx="0.28091" ry="0.28091" transform="translate(508.96812 676.07938) rotate(-155.28251)" fill="#0d2d88"/>
      <path d="M319.152,281.39529l.75813,1.33382.84245,1.44608a.87911.87911,0,0,0,.23866.26676,1.05935,1.05935,0,0,0,1.20742.11234l.4774-.28082a1.04813,1.04813,0,0,0,.37911-1.43211l-.14045-.25271-.67389-1.15129-.78624-1.3759a1.04239,1.04239,0,0,0-1.43211-.37911l-.47731.26676A1.0598,1.0598,0,0,0,319.152,281.39529Z" fill="#0d2d88"/>
      <path d="M324.83815,282.49037l-2.5553,6.17765,1.34787-.01405,2.75188-6.26189C325.93331,282.42018,325.41384,282.44829,324.83815,282.49037Z" fill="#4fa7db"/>
      <path d="M319.22214,288.68207l1.44616-.01405,2.37277-6.07936h-.1264c-.379.01405-.77218.04216-1.17931.05622l-.74416,1.79708Z" fill="#4fa7db"/>
      <path d="M326.85992,288.94883l2.9063.16847a5.34479,5.34479,0,0,0-.07018-5.85467A11.86441,11.86441,0,0,0,326.85992,288.94883Z" fill="#4fa7db"/>
      <path d="M310.44711,289.15938l4.05759-.15442c-.14037-2.27448,1.43211-5.11059,2.06393-6.17756C310.11017,283.08011,310.30675,288.0362,310.44711,289.15938Z" fill="#4fa7db"/>
      <rect x="310.20846" y="288.68207" width="20.10534" height="2.28853" fill="#0c1031"/>
    </g>
  </g>
</svg>
