<svg id="Layer_1" data-name="Layer 1" xmlns="http://www.w3.org/2000/svg" viewBox="0 0 50 50">
  <title>swipes-ui-workspace-logo-slack</title>
  <g>
    <path d="M3915.89795,2087.5a24.5,24.5,0,1,1,24.5-24.5A24.52784,24.52784,0,0,1,3915.89795,2087.5Z" transform="translate(-3890.89795 -2038)" fill="#fff"/>
    <path d="M3915.89795,2039a24,24,0,1,1-24,24,24.02734,24.02734,0,0,1,24-24m0-1a25,25,0,1,0,25,25,25,25,0,0,0-25-25h0Z" transform="translate(-3890.89795 -2038)" fill="#e8e9eb"/>
  </g>
  <g>
    <path d="M3920.353,2049.84717a2.67236,2.67236,0,0,0-5.08313,1.65161l6.91021,21.26038a2.67282,2.67282,0,0,0,5.08106-1.65094Z" transform="translate(-3890.89795 -2038)" fill="#e7a635"/>
    <path d="M3909.64582,2053.32615a2.67236,2.67236,0,0,0-5.08313,1.65161l6.9102,21.26038a2.67282,2.67282,0,0,0,5.08106-1.65094Z" transform="translate(-3890.89795 -2038)" fill="#45b790"/>
    <path d="M3929.05068,2067.455a2.67236,2.67236,0,0,0-1.65161-5.08313l-21.26038,6.91021a2.67282,2.67282,0,0,0,1.65094,5.08106Z" transform="translate(-3890.89795 -2038)" fill="#dd1f66"/>
    <path d="M3910.56985,2073.4598l5.08134-1.651L3914,2066.72695l-5.08167,1.65168Z" transform="translate(-3890.89795 -2038)" fill="#462b48"/>
    <path d="M3921.277,2069.98083l5.08134-1.651-1.65152-5.08287-5.08167,1.65168Z" transform="translate(-3890.89795 -2038)" fill="#ca232d"/>
    <path d="M3925.57171,2056.74783a2.67236,2.67236,0,0,0-1.65161-5.08313l-21.26038,6.9102a2.67282,2.67282,0,0,0,1.65094,5.08106Z" transform="translate(-3890.89795 -2038)" fill="#74cad9"/>
    <path d="M3907.08983,2062.753l5.08238-1.65136-1.65119-5.08183-5.08271,1.652Z" transform="translate(-3890.89795 -2038)" fill="#24937d"/>
    <path d="M3917.797,2059.274l5.08238-1.65136-1.65152-5.08287-5.08271,1.652Z" transform="translate(-3890.89795 -2038)" fill="#66853f"/>
  </g>
</svg>
