<?xml version="1.0" encoding="UTF-8"?>
<svg width="12px" height="13px" viewBox="0 0 12 13" version="1.1" xmlns="http://www.w3.org/2000/svg" xmlns:xlink="http://www.w3.org/1999/xlink">
    <!-- Generator: Sketch 39.1 (31720) - http://www.bohemiancoding.com/sketch -->
    <title>Combined Shape</title>
    <desc>Created with Sketch.</desc>
    <defs></defs>
    <g id="Icons" stroke="none" stroke-width="1" fill="none" fill-rule="evenodd">
        <g id="Artboard-Copy" transform="translate(-5.000000, -5.000000)" fill="#000C2F">
            <path d="M12.0070007,12.5606748 L12.0353511,16.5533222 C12.0392726,17.1055931 11.5947476,17.556476 11.0424768,17.5603975 C10.490206,17.564319 10.039323,17.119794 10.0354015,16.5675232 L10.0069503,12.5606748 L6,12.5606748 C5.44771525,12.5606748 5,12.1129595 5,11.5606748 C5,11.00839 5.44771525,10.5606748 6,10.5606748 L9.99274899,10.5606748 L9.96439681,6.56777525 C9.96047533,6.01550442 10.4050003,5.56462147 10.9572711,5.56069999 C11.509542,5.55677851 11.9604249,6.00130348 11.9643464,6.55357431 L11.9927994,10.5606748 L16,10.5606748 C16.5522847,10.5606748 17,11.00839 17,11.5606748 C17,12.1129595 16.5522847,12.5606748 16,12.5606748 L12.0070007,12.5606748 Z" id="Combined-Shape"></path>
        </g>
    </g>
</svg>