<svg id="Layer_8" data-name="Layer 8" xmlns="http://www.w3.org/2000/svg" viewBox="0 0 21.058 25">
  <title>swipes-workspace-logos-apple</title>
  <path d="M7266.61666,12036.48259a13.59168,13.59168,0,0,1-1.3441,2.41659,12.27762,12.27762,0,0,1-1.73143,2.09253,3.35874,3.35874,0,0,1-2.22524.97991,5.57728,5.57728,0,0,1-2.05549-.49073,5.89819,5.89819,0,0,0-2.2129-.48918,6.09821,6.09821,0,0,0-2.27555.48918,6.12264,6.12264,0,0,1-1.9663.517,3.16247,3.16247,0,0,1-2.27555-1.00615,12.89223,12.89223,0,0,1-1.8109-2.1666,14.98429,14.98429,0,0,1-1.91507-3.80389,13.92853,13.92853,0,0,1-.80414-4.53351,8.279,8.279,0,0,1,1.08716-4.33135,6.37753,6.37753,0,0,1,2.27694-2.30317,6.12529,6.12529,0,0,1,3.0783-.86865,7.24823,7.24823,0,0,1,2.38095.55415,7.654,7.654,0,0,0,1.88852.55539,11.30011,11.30011,0,0,0,2.09407-.65415,6.92164,6.92164,0,0,1,2.84636-.50538,6.04372,6.04372,0,0,1,4.73442,2.49267,5.46605,5.46605,0,0,0-1.06016,8.76069,5.69492,5.69492,0,0,0,1.73143,1.13577q-0.20832.60414-.44134,1.15891h0Zm-4.82393-18.98245a5.33327,5.33327,0,0,1-1.36724,3.4982,4.65806,4.65806,0,0,1-3.86886,1.90966,3.89218,3.89218,0,0,1-.029-0.47375,5.47956,5.47956,0,0,1,1.45042-3.53508,5.58439,5.58439,0,0,1,1.76692-1.32666,5.2683,5.2683,0,0,1,2.02154-.57251,4.54125,4.54125,0,0,1,.02623.50012v0Z" transform="translate(-7246 -12017)" fill="#000c2f"/>
</svg>
