<svg xmlns="http://www.w3.org/2000/svg" viewBox="0 0 24 24">
  <g>
    <g>
      <path d="M15,13.34082V11.4375A5.99565,5.99565,0,0,0,16.95831,7V6A5.95846,5.95846,0,1,0,5.04169,6V7A5.99565,5.99565,0,0,0,7,11.4375v1.90332l-3.96943,1.701A5.00005,5.00005,0,0,0,0,19.6377V22H2V19.63821a3.00053,3.00053,0,0,1,1.81836-2.75784l3.96989-1.70173A1.99955,1.99955,0,0,0,9,13.34082V10.98968a1.01076,1.01076,0,0,0-.37427-.81052A3.98426,3.98426,0,0,1,7.04169,7V6a3.95853,3.95853,0,1,1,7.91663,0V7a3.98426,3.98426,0,0,1-1.584,3.17916A1.01076,1.01076,0,0,0,13,10.98968v2.35085a2,2,0,0,0,1.21191,1.83818L16,15.94531V13.769Z" stroke="none"/>
      <polygon points="20 18 20 17.659 20 14 18 14 18 18 16 18 14 18 14 20 16 20 18 20 18 24 20 24 20 22 20 20 24 20 24 18 20 18" stroke="none"/>
    </g>
    <rect width="24" height="24" fill="none"/>
  </g>
</svg>
