<?xml version="1.0" encoding="UTF-8"?>
<svg width="22px" height="22px" viewBox="0 0 22 22" version="1.1" xmlns="http://www.w3.org/2000/svg" xmlns:xlink="http://www.w3.org/1999/xlink">
    <g stroke="none" stroke-width="1" fill-rule="evenodd">
        <path d="M11,20 C7.91,20 5.185,18.441 3.564,16.068 C5.741,14.764 8.278,14 11,14 C13.722,14 16.259,14.764 18.436,16.068 C16.815,18.441 14.09,20 11,20 M11,4 C12.933,4 14.5,5.567 14.5,7.5 C14.5,9.433 12.933,11 11,11 C9.067,11 7.5,9.433 7.5,7.5 C7.5,5.567 9.067,4 11,4 M11,0 C4.925,0 0,4.925 0,11 C0,17.075 4.925,22 11,22 C17.075,22 22,17.075 22,11 C22,4.925 17.075,0 11,0"></path>
    </g>
</svg>
