<svg xmlns="http://www.w3.org/2000/svg" viewBox="0 0 30 30">
  <g>
    <rect stroke="none" opacity="0"/>
    <path d="M10,9h4.626a8.58421,8.58421,0,0,1,2.34912.26953,3.8536,3.8536,0,0,1,1.4668.73828,2.44692,2.44692,0,0,1,.74707,1.09766,4.36735,4.36735,0,0,1,.207,1.36816,3.2081,3.2081,0,0,1-.32373,1.42188,2.64184,2.64184,0,0,1-1.22412,1.13379,4.68413,4.68413,0,0,1,.94482.63965,2.72854,2.72854,0,0,1,.57617.71094,2.77253,2.77253,0,0,1,.28809.77344,3.97052,3.97052,0,0,1,.08057.792,4.749,4.749,0,0,1-.24268,1.53027,2.94128,2.94128,0,0,1-.81006,1.24219,4.05758,4.05758,0,0,1-1.48486.82813,7.2477,7.2477,0,0,1-2.26807.30566H10Zm4.93213,5.09375a2.05575,2.05575,0,0,0,1.458-.39648,1.53455,1.53455,0,0,0,.396-1.13379,1.23928,1.23928,0,0,0-.51318-1.125,3.34735,3.34735,0,0,0-1.73682-.333H12.5918v2.98828Zm-.09033,5.65137a4.07117,4.07117,0,0,0,1.10742-.126,1.77219,1.77219,0,0,0,.71094-.36816,1.32188,1.32188,0,0,0,.37793-.56738,2.33528,2.33528,0,0,0,.10791-.73828,1.66728,1.66728,0,0,0-.4502-1.25977,2.27355,2.27355,0,0,0-1.584-.43164h-2.52v3.49121Z" stroke="none"/>
  </g>
</svg>
