<svg viewBox="857 363 16 16" version="1.1" xmlns="http://www.w3.org/2000/svg" xmlns:xlink="http://www.w3.org/1999/xlink">
    <path d="M865,377 C861.691,377 859,374.309 859,371 C859,367.691 861.691,365 865,365 C868.309,365 871,367.691 871,371 C871,374.309 868.309,377 865,377 M865,363 C860.582,363 857,366.582 857,371 C857,375.418 860.582,379 865,379 C869.418,379 873,375.418 873,371 C873,366.582 869.418,363 865,363" fill-rule="evenodd"></path>
    <polygon fill-rule="evenodd" points="865 368 863 368 863 371 863 373 865 373 867 373 867 371 865 371"></polygon>
</svg>
