<svg xmlns="http://www.w3.org/2000/svg" viewBox="-10 -10 60 60" fill="#999EAC">
  <g>
    <path d="M17.35969,39.80655a35.88992,35.88992,0,0,1-5.90341-18.85417H0A19.99282,19.99282,0,0,0,17.35969,39.80655Z" />
    <path d="M20,0c-.0606,0-.1184.00837-.179.0093a33.98911,33.98911,0,0,0-6.45534,19.03832H26.63435A33.98911,33.98911,0,0,0,20.179.0093C20.1184.00837,20.0606,0,20,0Z"/>
    <path d="M20,40c.0606,0,.1184-.00837.179-.0093a33.98911,33.98911,0,0,0,6.45534-19.03832H13.36565A33.98911,33.98911,0,0,0,19.821,39.9907C19.8816,39.99163,19.9394,40,20,40Z"/>
    <path d="M22.64031.19345a35.88992,35.88992,0,0,1,5.90341,18.85417H40A19.99282,19.99282,0,0,0,22.64031.19345Z"/>
    <path d="M0,19.04762H11.45627A35.88992,35.88992,0,0,1,17.35969.19345,19.99282,19.99282,0,0,0,0,19.04762Z"/>
    <path d="M40,20.95238H28.54373a35.88992,35.88992,0,0,1-5.90341,18.85417A19.99282,19.99282,0,0,0,40,20.95238Z"/>
  </g>
</svg>
