<svg xmlns="http://www.w3.org/2000/svg" viewBox="0 0 30 30">
  <g>
    <rect stroke="none" opacity="0"/>
    <g>
      <path d="M7,9.29H8.81494v4.335h4.81494V9.29h1.81494V20H13.62988V15.30469H8.81494V20H7Z" stroke="none"/>
      <path d="M19.15283,18.93164q.91187-.80273,1.686-1.43359a17.59881,17.59881,0,0,0,1.332-1.18848,5.64405,5.64405,0,0,0,.876-1.0918,2.24426,2.24426,0,0,0,.31787-1.16992,1.3795,1.3795,0,0,0-.354-1.002,1.27988,1.27988,0,0,0-.96582-.36621,1.67971,1.67971,0,0,0-1.11572.31836,1.98051,1.98051,0,0,0-.55225,1.07422l-1.30811-.18066a4.825,4.825,0,0,1,.30615-.918,2.376,2.376,0,0,1,.55176-.76758,2.64393,2.64393,0,0,1,.876-.52832,3.58589,3.58589,0,0,1,1.26611-.19727,2.792,2.792,0,0,1,2.02832.67773,2.406,2.406,0,0,1,.6958,1.80566,2.986,2.986,0,0,1-.25781,1.2666,4.64568,4.64568,0,0,1-.73242,1.09766,12.11423,12.11423,0,0,1-1.13965,1.12207q-.6665.58154-1.49414,1.33789h3.73193L24.73291,20H19.15283V18.93164Z" stroke="none"/>
    </g>
  </g>
</svg>
