<?xml version="1.0" encoding="UTF-8"?>
<svg width="12px" height="12px" viewBox="0 0 12 12" version="1.1" xmlns="http://www.w3.org/2000/svg" xmlns:xlink="http://www.w3.org/1999/xlink">
    <!-- Generator: Sketch 39.1 (31720) - http://www.bohemiancoding.com/sketch -->
    <title>Group</title>
    <desc>Created with Sketch.</desc>
    <defs></defs>
    <g id="Icons" stroke="none" stroke-width="1" fill="none" fill-rule="evenodd">
        <g id="Artboard-Copy-2" transform="translate(-6.000000, -6.000000)" fill="#000C2F">
            <g id="Group" transform="translate(6.000000, 6.000000)">
                <path d="M7.97363817,5.40120296 C7.99113946,5.26939916 8,5.13553504 8,5 C8,3.34314575 6.65685425,2 5,2 C3.34314575,2 2,3.34314575 2,5 C2,6.65685425 3.34314575,8 5,8 C6.50802128,8 7.77732273,6.87967187 7.97363817,5.40120296 Z M0,5 C0,2.23857625 2.23857625,0 5,0 C7.76142375,0 10,2.23857625 10,5 C10,5.22527626 9.9851017,5.44707284 9.95623664,5.6644582 C9.63127533,8.11177044 7.53614749,10 5,10 C2.23857625,10 0,7.76142375 0,5 Z" id="Oval-1"></path>
                <path d="M8.98246909,7.56825553 C8.5919448,7.17773124 7.95877982,7.17773124 7.56825553,7.56825553 C7.17773124,7.95877982 7.17773124,8.5919448 7.56825553,8.98246909 L9.90158888,11.3158024 C10.2921132,11.7063267 10.9252782,11.7063267 11.3158024,11.3158024 C11.7063267,10.9252782 11.7063267,10.2921132 11.3158024,9.90158888 L8.98246909,7.56825553 Z" id="Line"></path>
            </g>
        </g>
    </g>
</svg>