<?xml version="1.0" encoding="UTF-8"?>
<svg width="240px" height="240px" viewBox="0 0 240 240" version="1.1" xmlns="http://www.w3.org/2000/svg" xmlns:xlink="http://www.w3.org/1999/xlink">
    <!-- Generator: Sketch 39.1 (31720) - http://www.bohemiancoding.com/sketch -->
    <title>Group</title>
    <desc>Created with Sketch.</desc>
    <defs>
        <linearGradient x1="94.5345031%" y1="0%" x2="0%" y2="100%" id="linearGradient-1">
            <stop stop-color="#19D7EC" offset="0%"></stop>
            <stop stop-color="#2641F6" offset="100%"></stop>
        </linearGradient>
    </defs>
    <g id="Logo" stroke="none" stroke-width="1" fill="none" fill-rule="evenodd">
        <g id="Artboard-Copy-5" transform="translate(-380.000000, -380.000000)">
            <g id="Group" transform="translate(380.000000, 380.000000)">
                <path d="M240,120 C240,186.274219 186.274219,240 120,240 C53.7257813,240 0,186.274219 0,120 C0,53.7257813 53.7257813,0 120,0 C186.274219,0 240,53.7257813 240,120" id="Fill-1-Copy-35" fill="#FFFFFF"></path>
                <path d="M163.416003,108.168 L163.416003,108.168 C161.880003,107.4 160.186003,107 158.469003,107 L93.1690027,107 C91.5450027,107 90.0890027,105.783 90.0040027,104.161 C89.9140027,102.43 91.2900027,101 93.0000027,101 L163.750003,101 L180.000003,75 L90.6420027,75 C73.8650027,75 59.7270027,88.729 60.0040027,105.504 C60.1940027,117.035 66.8940027,126.977 76.5840027,131.832 C76.5930027,131.836 76.6010027,131.841 76.6100027,131.845 C78.1940027,132.636 79.9560027,133 81.7260027,133 L147.000003,133 C148.625003,133 150.081003,134.217 150.165003,135.84 C150.255003,137.57 148.879003,139 147.169003,139 L76.2500027,139 L60.0000027,165 L149.358003,165 C166.135003,165 180.272003,151.271 179.996003,134.496 C179.806003,122.966 173.106003,113.023 163.416003,108.168" id="Fill-1-Copy-36" fill="url(#linearGradient-1)"></path>
            </g>
        </g>
    </g>
</svg>