<svg xmlns="http://www.w3.org/2000/svg" viewBox="0 0 30 30">
  <g>
    <rect stroke="none" opacity="0"/>
    <rect x="8" y="23" width="14" height="2" stroke="none"/>
    <path d="M12.29712,9v7.27539a4.30828,4.30828,0,0,0,.62012,2.55859,2.43744,2.43744,0,0,0,2.09961.8418,2.3683,2.3683,0,0,0,2.06543-.8418,4.4014,4.4014,0,0,0,.60352-2.55859V9h2.05713v7.27539a7.32226,7.32226,0,0,1-.33984,2.38867,4.08064,4.08064,0,0,1-.96924,1.59766,3.7256,3.7256,0,0,1-1.49609.90137,6.25836,6.25836,0,0,1-1.938.28027,4.693,4.693,0,0,1-3.53564-1.249,5.5526,5.5526,0,0,1-1.207-3.96973V9Z" stroke="none"/>
  </g>
</svg>
