<?xml version="1.0" encoding="utf-8"?>
<!-- Generator: Adobe Illustrator 19.0.0, SVG Export Plug-In . SVG Version: 6.00 Build 0)  -->
<svg version="1.1" id="Layer_1" xmlns="http://www.w3.org/2000/svg" xmlns:xlink="http://www.w3.org/1999/xlink" x="0px" y="0px"
	 viewBox="0 0 1389 769" style="enable-background:new 0 0 1389 769;" xml:space="preserve">
<style type="text/css">
	.st0{fill:#FFCB2A;}
	.st1{fill:#9A9FAC;}
	.st2{fill:#FFFFFF;}
	.st3{fill:#48ACE1;}
	.st4{fill:#FEE8CA;}
	.st5{fill:#1B1E23;}
	.st6{opacity:0.1;}
	.st7{fill:#0C142E;}
	.st8{opacity:0.2;}
	.st9{fill:none;}
</style>
<g>
	<g>
		<circle class="st0" cx="143.0144196" cy="625.9855957" r="143.0144043"/>
	</g>
	<g>
		<g>
			<path class="st1" d="M275.3601379,461.743988l-1.3359985-1.4879761c1.2450867-1.1187134,2.4960938-2.2307129,3.75-3.3358154
				l1.3222961,1.5006104C277.8464355,459.521698,276.6013489,460.6294861,275.3601379,461.743988z M282.8640442,455.134491
				l-1.3076172-1.5133057c1.2666016-1.0938721,2.5371094-2.1810913,3.8125-3.2617798l1.2929077,1.5256042
				C285.392334,452.9614868,284.1257324,454.0447998,282.8640442,455.134491z M290.4890442,448.6729126l-1.2774048-1.5382996
				c1.2861938-1.0692139,2.578186-2.1315002,3.8731079-3.1873169l1.2637024,1.550293
				C293.0573425,446.549408,291.7712402,447.6079102,290.4890442,448.6729126z M298.2360535,442.3591003l-1.2480164-1.5621033
				c1.3056946-1.0440979,2.6162109-2.0816956,3.9306946-3.1127014l1.234314,1.5739136
				C300.8425293,440.2853088,299.5378418,441.3190918,298.2360535,442.3591003z M306.0964355,436.1936951l-1.218811-1.5848999
				c1.3243103-1.0192871,2.6534119-2.0319824,3.9864197-3.0384827l1.2051086,1.5963745
				C308.7400513,434.1693115,307.416748,435.1783142,306.0964355,436.1936951z M314.0691528,430.1760864l-1.1905212-1.6068726
				c1.342804-0.9945068,2.6905212-1.9824219,4.0410156-2.9642029l1.1757813,1.617981
				C316.7497253,428.2012024,315.4069519,429.1853943,314.0691528,430.1760864z M322.1491394,424.306488l-1.1611023-1.628479
				c1.3594055-0.9696045,2.7236023-1.9331055,4.092804-2.8903198l1.1464844,1.6394043
				C324.86203,422.3806152,323.5036316,423.3405151,322.1491394,424.306488z M330.329834,418.5834961l-1.132782-1.6488953
				c1.3768921-0.9450073,2.757782-1.8839111,4.1425781-2.8167114l1.1170959,1.6589966
				C333.0769348,416.7062073,331.7009277,417.6416931,330.329834,418.5834961z M338.6091309,413.0062866l-1.1034851-1.6684875
				c1.3934937-0.9205933,2.789978-1.8352051,4.1903992-2.7434082l1.0878906,1.6775208
				C341.3894348,411.1773987,339.9968262,412.0887146,338.6091309,413.0062866z M346.9812317,407.5739136l-1.0742798-1.6871033
				c1.4072876-0.8963013,2.819397-1.7868042,4.234375-2.6712036l1.0606079,1.6959839
				C349.790741,405.7930908,348.384552,406.6803894,346.9812317,407.5739136z M355.4441528,402.2850037l-1.0450134-1.7048035
				c1.4219055-0.872406,2.8476868-1.7388916,4.2774048-2.5996094l1.031189,1.7131958
				C358.2839355,400.5517883,356.86203,401.4154053,355.4441528,402.2850037z M363.9929504,397.138092l-1.0176086-1.7218018
				c1.4356079-0.8486938,2.8760071-1.6915894,4.3193054-2.5287781l1.0039063,1.7301025
				C366.8591309,395.4519958,365.42453,396.2922058,363.9929504,397.138092z M372.6237488,392.1315918l-0.9902039-1.7380066
				c1.4501953-0.8251953,2.9024048-1.6448975,4.3583984-2.4589844l0.976593,1.7457886
				C375.5163269,390.4919128,374.0681458,391.3088074,372.6237488,392.1315918z M381.3317261,387.2637939l-0.9627991-1.7533875
				c1.4627991-0.8023071,2.9277039-1.5989075,4.3955078-2.3898926l0.9492188,1.7606812
				C384.2497253,385.6697998,382.7888489,386.4639893,381.3317261,387.2637939z M390.1140442,382.5325928l-0.9356079-1.7677917
				c1.4746094-0.7796021,2.9512024-1.5535889,4.4317017-2.322113l0.921814,1.7752075
				C393.0554504,380.9838867,391.5827332,381.7556152,390.1140442,382.5325928z M398.9675293,377.9363098l-0.9082031-1.7819214
				c1.485321-0.7570801,2.9736023-1.5085754,4.4658203-2.2549744l0.8945007,1.7885742
				C401.9323425,376.4320984,400.4489441,377.181488,398.9675293,377.9363098z M407.8884277,373.4724121l-0.8808899-1.7950134
				c1.4960938-0.7348938,2.9950867-1.4645996,4.4971008-2.1890869l0.8691101,1.8014832
				C410.8757324,372.012207,409.3806458,372.7396851,407.8884277,373.4724121z M416.8728333,369.1391907l-0.8554993-1.8074951
				c1.5058899-0.7134094,3.0146179-1.4216919,4.5273132-2.1244812l0.842804,1.8136902
				C419.8796387,367.7218018,418.3747253,368.427887,416.8728333,369.1391907z M425.9187317,364.9336853l-0.8300781-1.8192749
				c1.516571-0.6923218,3.0350952-1.3792114,4.5565796-2.0610962l0.8184204,1.8250732
				C428.9460449,363.5585022,427.431427,364.2437134,425.9187317,364.9336853z M435.0212402,360.8544922l-0.8046875-1.8305969
				c1.5253906-0.6710815,3.0536804-1.3374023,4.5839844-1.9985962l0.7929993,1.8359985
				C438.0671387,359.520813,436.5427246,360.1852112,435.0212402,360.8544922z M444.1794434,356.898407l-0.7812195-1.8410034
				c1.5341187-0.6509094,3.071228-1.296814,4.610321-1.9375916l0.7695007,1.8463745
				C447.2429504,355.6052856,445.7097473,356.2495117,444.1794434,356.898407z M453.3874512,353.0635071l-0.7557983-1.8513184
				c1.5428772-0.6307983,3.0868835-1.2565918,4.6336975-1.877594l0.7460938,1.8560181
				C456.4675293,351.8100891,454.9265442,352.4342957,453.3874512,353.0635071z M462.6462402,349.34729l-0.7323914-1.8607788
				c1.5507813-0.6110229,3.1034851-1.2173157,4.6582031-1.8189087l0.7216797,1.8652039
				C465.7419434,348.1329041,464.1931458,348.737793,462.6462402,349.34729z M471.9528503,345.7468872l-0.710907-1.8695984
				c1.5575867-0.5916748,3.1181946-1.178894,4.6806946-1.7616882l0.6991882,1.8739929
				C475.0632324,344.5708008,473.5066528,345.1565857,471.9528503,345.7468872z M481.3015442,342.2604065l-0.6875-1.8782043
				c1.5653992-0.572998,3.132782-1.1416016,4.7010803-1.7054138l0.6758118,1.881897
				C484.4265442,341.1214905,482.8630371,341.6885986,481.3015442,342.2604065z M490.6921387,338.8848877l-0.6659851-1.8859863
				c1.5722961-0.5545959,3.1464844-1.1047058,4.7216797-1.6506042l0.6542969,1.8897095
				C493.8308411,337.7825928,492.2605286,338.3316956,490.6921387,338.8848877z M500.1228333,335.6178894l-0.6445923-1.8934021
				c1.578186-0.5368958,3.1582031-1.0691833,4.7412109-1.59729l0.6328735,1.8972168
				C503.2732239,334.5513,501.697052,335.0823059,500.1228333,335.6178894z M509.5905457,332.4570007l-0.6230164-1.9003906
				c1.5840149-0.519104,3.1699219-1.0339966,4.7568359-1.5447998l0.6132813,1.9040833
				C512.7526245,331.425415,511.1706238,331.939209,509.5905457,332.4570007z M519.0915527,329.3999939l-0.6015015-1.9071045
				c1.5888062-0.5020752,3.180603-0.9998779,4.7744141-1.4935913l0.5917969,1.9101868
				C522.2663574,328.4023132,520.6784668,328.8989868,519.0915527,329.3999939z M528.6276245,326.4442139l-0.5819702-1.9134216
				c1.5957031-0.4855042,3.1914063-0.9665833,4.7901001-1.4438782l0.5722046,1.9163818
				C531.8132324,325.4796143,530.2194214,325.9596863,528.6276245,326.4442139z M538.1960449,323.5869141l-0.5625-1.9193115
				c1.6005859-0.4689941,3.2011719-0.9341125,4.8046875-1.3951111l0.5527344,1.9221191
				C541.3913574,322.6546936,539.7927246,323.1188049,538.1960449,323.5869141z M547.791748,320.8258972l-0.5430298-1.9248047
				c1.6044922-0.4530945,3.2109985-0.9022827,4.819397-1.3475952l0.5332031,1.9273071
				C550.9968262,319.925293,549.3942261,320.3738098,547.791748,320.8258972z M557.4187622,318.158905l-0.5254517-1.9299011
				c1.6103516-0.4377136,3.2217407-0.8716125,4.8330078-1.3015137l0.515625,1.9324036
				C560.6325684,317.289093,559.0251465,317.7221985,557.4187622,318.158905z M567.0691528,315.5830994l-0.5059204-1.9346924
				c1.6132813-0.4223938,3.2285156-0.8413086,4.843689-1.2565918l0.4981079,1.9371948
				C570.291748,314.7434082,568.6804199,315.161499,567.0691528,315.5830994z M576.7468262,313.0968933l-0.4882813-1.9393005
				c1.6171875-0.4078064,3.2362671-0.8121033,4.8554688-1.2127075l0.4804077,1.9416199
				C579.977356,312.2864075,578.3620605,312.6896973,576.7468262,313.0968933z M586.4480591,310.6972961l-0.4717407-1.9436035
				c1.6210938-0.3934937,3.243103-0.7834778,4.8672485-1.170105l0.4628906,1.9456177
				C589.6862183,309.9150085,588.0661621,310.3044128,586.4480591,310.6972961z M596.1716309,308.3821106l-0.4550781-1.9477234
				c1.625-0.3794861,3.2520142-0.7557983,4.8770142-1.128479l0.4471436,1.9494934
				C599.4177246,307.6274109,597.7946167,308.0031128,596.1716309,308.3821106z M605.9157104,306.1489868l-0.4393921-1.9511719
				c1.6289063-0.3661194,3.2578125-0.729126,4.8887329-1.0883179l0.4295654,1.9530945
				C609.1677246,305.4212952,607.5407104,305.7833862,605.9157104,306.1489868z M615.6794434,303.9960938l-0.421875-1.9549866
				c1.631897-0.3529053,3.2636719-0.7025146,4.8974609-1.0489197l0.4141235,1.9565125
				C618.939209,303.2944031,617.3093262,303.6435852,615.6794434,303.9960938z M625.4616089,301.9204102l-0.4071655-1.9580994
				c1.6356812-0.3399963,3.2705078-0.677002,4.906311-1.0106201l0.4002686,1.9594116
				C628.727356,301.2445068,627.0944214,301.5809021,625.4616089,301.9204102z M635.2644653,299.9204102l-0.3926392-1.9609985
				c1.6376953-0.3278198,3.2764282-0.6524048,4.9150391-0.9738159l0.3847656,1.9624939
				C638.5349121,299.2691956,636.9001465,299.5931091,635.2644653,299.9204102z M645.0827637,297.9938965l-0.3779297-1.9639893
				c1.640625-0.3157043,3.281189-0.6282959,4.921875-0.9378967l0.3711548,1.9653931
				C648.3591309,297.3664856,646.720459,297.6785889,645.0827637,297.9938965z M654.9157104,296.1383972l-0.3631592-1.9664917
				c1.6425171-0.3040161,3.2850952-0.605011,4.9287109-0.9028931l0.3573608,1.9678955
				C658.1970215,295.5343933,656.5564575,295.8351135,654.9157104,296.1383972z M664.7614136,294.3523865l-0.3495483-1.9690857
				c1.6435547-0.2922058,3.2870483-0.5816956,4.9317017-0.8682861l0.343689,1.9703979
				C668.0446167,293.7716064,666.4030151,294.0604858,664.7614136,294.3523865z M674.6140137,292.6348877l-0.3378906-1.9713745
				c1.6455078-0.2812195,3.2900391-0.5594177,4.9354858-0.8348999l0.3301392,1.9723816
				C677.8982544,292.0762939,676.2556152,292.3540955,674.6140137,292.6348877z M684.470459,290.9830017l-0.3242188-1.9733887
				c1.6455078-0.2707214,3.2910156-0.5390015,4.9375-0.8050232l0.3184204,1.9745178
				C687.7575684,290.4447021,686.1140137,290.7127991,684.470459,290.9830017z M694.3376465,289.3884888l-0.3143921-1.9749756
				c1.6463623-0.2618103,3.2938843-0.5212097,4.9414063-0.7784119l0.3085938,1.9761047
				C697.6276245,288.8681946,695.9821167,289.1272888,694.3376465,289.3884888z M704.2116089,287.846405l-0.3026733-1.9768066
				c1.647522-0.2529907,3.2958984-0.5039978,4.9442749-0.7529907l0.2989502,1.977478
				C707.5056152,287.3428955,705.8591309,287.5935974,704.2116089,287.846405z M714.0935669,286.3540039l-0.2930298-1.978302
				c1.6483765-0.2449951,3.2979126-0.4880981,4.9481812-0.7293091l0.2891235,1.9790039
				C717.3894653,285.8663025,715.7419434,286.1094055,714.0935669,286.3540039z M723.9841309,284.9075928l-0.2852173-1.9795837
				c1.6504517-0.2376099,3.3008423-0.4732056,4.9512329-0.7073059l0.281311,1.9801941
				C727.2810669,284.434906,725.6325684,284.6702881,723.9841309,284.9075928z M733.8796387,283.5049133l-0.2772827-1.9807129
				c1.6513062-0.2305908,3.3026733-0.4595032,4.9541016-0.6867981l0.2733765,1.9812927
				C737.1784668,283.0458984,735.5290527,283.2746887,733.8796387,283.5049133z M743.7810669,282.1426086l-0.2696533-1.9818115
				l4.9571533-0.6677856l0.265564,1.9824829L743.7810669,282.1426086z M753.6882324,280.8171082l-0.2617188-1.982605
				l4.9590454-0.6502075l0.2577515,1.9832153L753.6882324,280.8171082z M763.5993652,279.5260925l-0.2549438-1.9835815
				l4.9620361-0.6342163l0.2518921,1.9841919L763.5993652,279.5260925z M773.517334,278.2662048l-0.25-1.9844971
				l4.9639282-0.6197205l0.2460938,1.9847107L773.517334,278.2662048z M783.4372559,277.0343018l-0.2441406-1.9851074
				l4.9629517-0.6066895l0.2421875,1.9853821L783.4372559,277.0343018z M793.3601685,275.8270874l-0.2393188-1.9856873
				l4.9657593-0.5953064l0.2364502,1.9858093L793.3601685,275.8270874z M803.2878418,274.6422119l-0.234375-1.9862061
				l4.9648438-0.5856934l0.234314,1.9862976L803.2878418,274.6422119z M813.2175293,273.475708l-0.2323608-1.9862976
				l4.9667969-0.5775146l0.2303467,1.9866943L813.2175293,273.475708z M823.1482544,272.3251038l-0.2286377-1.9869995
				l4.9667969-0.5704956l0.2286377,1.9869995L823.1482544,272.3251038z M833.0837402,271.1871033l-0.2266235-1.9869995
				l4.9678345-0.5653076l0.2265625,1.9870911L833.0837402,271.1871033z M843.0183105,270.0586853l-0.2245483-1.9872742
				l4.968689-0.561615l0.2246094,1.9873047L843.0183105,270.0586853z M852.9558105,268.9367981l-0.2245483-1.9874878
				l4.968689-0.5595093l0.2246094,1.9873962L852.9558105,268.9367981z M862.892334,267.8182068l-0.2227173-1.9875183
				l4.9678345-0.559082l0.2246094,1.9873962L862.892334,267.8182068z M872.8317261,266.7001038l-0.2246094-1.9875183
				l4.968811-0.5599976l0.2246094,1.9873047L872.8317261,266.7001038z M882.7702637,265.57901l-0.2246094-1.9873962
				l4.968811-0.5624084l0.2245483,1.9873047L882.7702637,265.57901z M892.7077637,264.4519958l-0.2265015-1.9871826
				l4.968689-0.5664063l0.2265625,1.9870911L892.7077637,264.4519958z M902.6442261,263.3164063l-0.2285156-1.986908
				l4.9668579-0.572113l0.2304688,1.9867249L902.6442261,263.3164063z M912.5808105,262.1687012l-0.2304688-1.9866943
				l4.9667969-0.5791016l0.2324219,1.9866028L912.5808105,262.1687012z M922.517334,261.0058899l-0.234375-1.986084
				l4.9657593-0.5879211l0.2364502,1.9859009L922.517334,261.0058899z M932.4509277,259.8250122l-0.2382813-1.9858093
				l4.9649048-0.598114l0.2401733,1.985321L932.4509277,259.8250122z M942.3816528,258.6225891l-0.2421875-1.9850769
				l4.9608765-0.6099243l0.2460938,1.9849243L942.3816528,258.6225891z M952.3112183,257.3959961l-0.2479858-1.9845886
				l4.9608765-0.6231079l0.25,1.9841919L952.3112183,257.3959961z M962.2360229,256.1420898l-0.2539063-1.9838867
				l4.9590454-0.6379089l0.2558594,1.9835052L962.2360229,256.1420898z M972.157959,254.8576965l-0.2597046-1.9830933
				l4.9559937-0.6542969l0.2636719,1.9825897L972.157959,254.8576965z M982.0778198,253.5393982l-0.2674561-1.9819946
				l4.953064-0.6723022l0.2714844,1.9815979L982.0778198,253.5393982z M991.9900513,252.1846008l-0.2753906-1.9810028
				c1.6513062-0.2290039,3.3016968-0.4595032,4.9501953-0.6914978l0.2792969,1.9803009
				C995.2937622,251.7248993,993.6413574,251.9553986,991.9900513,252.1846008z M1001.8982544,250.7899933l-0.2832031-1.9798889
				c1.6494141-0.2358093,3.2987671-0.4732056,4.9472046-0.7127075l0.2871094,1.9793091
				C1005.1989136,250.3162994,1003.5495605,250.5540924,1001.8982544,250.7899933z M1011.7995605,249.3527069l-0.2910156-1.978714
				c1.6483765-0.2430878,3.2958984-0.4880981,4.9434204-0.7350922l0.2967529,1.9777985
				C1015.0993652,248.8639984,1013.4499512,249.1094055,1011.7995605,249.3527069z M1021.6950684,247.8690948l-0.3008423-1.9769897
				c1.6464844-0.2510986,3.2930298-0.5039978,4.9395142-0.759201l0.3066406,1.9765015
				C1024.9919434,247.3647003,1023.3435669,247.6179962,1021.6950684,247.8690948z M1031.5827637,246.3368073l-0.3105469-1.9756012
				c1.6455078-0.2593994,3.2910156-0.5210114,4.9355469-0.7848053l0.3164063,1.9747009
				C1034.8776855,245.8153076,1033.2302246,246.0771027,1031.5827637,246.3368073z M1041.4626465,244.752594l-0.3222656-1.9738007
				c1.6435547-0.2682953,3.2871094-0.539093,4.9306641-0.8117981l0.328125,1.9730988
				C1044.7536621,244.2129974,1043.1081543,244.4839935,1041.4626465,244.752594z M1051.3337402,243.113205l-0.3339844-1.9720001
				c1.6425781-0.2778015,3.2841797-0.5577087,4.9257813-0.8403015l0.3398438,1.970993
				C1054.6218262,242.5547028,1052.9782715,242.8352051,1051.3337402,243.113205z M1061.1921387,241.415802l-0.3457031-1.9700012
				c1.640625-0.2875061,3.2802734-0.5776062,4.9208984-0.8704987l0.3515625,1.9689941
				C1064.4763184,240.8374023,1062.8347168,241.1278992,1061.1921387,241.415802z M1071.041748,239.6569977l-0.3574219-1.9676971
				c1.6386719-0.2978058,3.2763672-0.5984039,4.9130859-0.9019012l0.3652344,1.966507
				C1074.3220215,239.0576935,1072.682373,239.3587952,1071.041748,239.6569977z M1080.8796387,237.8347015l-0.3710938-1.9651947
				c1.6367188-0.3091125,3.2724609-0.6206055,4.9082031-0.9352112l0.3769531,1.9641113
				C1084.1560059,237.2133942,1082.5183105,237.5254974,1080.8796387,237.8347015z M1090.7038574,235.9450989l-0.3847656-1.9626923
				c1.6337891-0.3202057,3.2675781-0.6434021,4.8994141-0.9695129l0.3925781,1.9612122
				C1093.9753418,235.3007965,1092.3395996,235.6244965,1090.7038574,235.9450989z M1100.5134277,233.9855042l-0.3984375-1.9597015
				c1.6308594-0.3321075,3.2617188-0.6672058,4.8916016-1.0055084l0.40625,1.9582062
				C1103.7810059,233.3175049,1102.1481934,233.6531067,1100.5134277,233.9855042z M1110.3093262,231.9530029l-0.4140625-1.9566956
				c1.6289063-0.3446045,3.2568359-0.6921082,4.8847656-1.0432129l0.421875,1.9551086
				C1113.5720215,231.2597961,1111.9401855,231.6080017,1110.3093262,231.9530029z M1120.0925293,229.844101l-0.4296875-1.9533997
				c1.25-0.2745056,2.4990234-0.5511017,3.7480469-0.8296967l1.1279297-0.2521973l0.4375,1.9517975l-1.1298828,0.252594
				C1122.595459,229.2922058,1121.3444824,229.5691986,1120.0925293,229.844101z M1129.854248,227.6558075l-0.4462891-1.9496002
				c1.6220703-0.3714142,3.2431641-0.7466125,4.8652344-1.1261139l0.4550781,1.947403
				C1133.104248,226.9075928,1131.479248,227.2837067,1129.854248,227.6558075z M1139.5974121,225.3739014l-0.4667969-1.9450989
				c1.6191406-0.3878021,3.2363281-0.7801971,4.8535156-1.1775055l0.4765625,1.9421997
				C1142.8395996,224.5917969,1141.2185059,224.9850006,1139.5974121,225.3739014z M1149.3161621,222.985199l-0.4882813-1.9393005
				c1.6132813-0.4066925,3.2255859-0.8181915,4.8378906-1.2353973l0.5,1.9364014
				C1152.5495605,222.1649017,1150.9333496,222.5776062,1149.3161621,222.985199z M1159.0085449,220.4772034l-0.5136719-1.9329071
				c1.6083984-0.427597,3.2148438-0.8605957,4.8212891-1.2991943l0.5273438,1.9292908
				C1162.2331543,219.6143951,1160.6208496,220.0484924,1159.0085449,220.4772034z M1168.6687012,217.8368988l-0.5410156-1.925293
				c1.6015625-0.4504089,3.203125-0.9067078,4.8017578-1.3694l0.5566406,1.9212952
				C1171.8815918,216.9275055,1170.276123,217.3851013,1168.6687012,217.8368988z M1178.2927246,215.052002l-0.5712891-1.9165039
				c1.5947266-0.4754944,3.1875-0.9572906,4.7783203-1.4459991l0.5878906,1.9118042
				C1181.4909668,214.0915985,1179.892334,214.5751038,1178.2927246,215.052002z M1187.869873,212.1096039l-0.6035156-1.9067078
				c1.5869141-0.502594,3.1708984-1.0121002,4.7529297-1.5289001l0.6210938,1.9011078
				C1191.0524902,211.0937042,1189.4626465,211.6051941,1187.869873,212.1096039z M1197.3962402,208.9963074l-0.6386719-1.8951111
				c1.5771484-0.5319977,3.1513672-1.0712891,4.7226563-1.6183929l0.6582031,1.8889008
				C1200.5593262,207.9208984,1198.979248,208.4622955,1197.3962402,208.9963074z M1206.8640137,205.699295l-0.6777344-1.8817902
				c1.5664063-0.5635071,3.1298828-1.1348114,4.6884766-1.7142029l0.6972656,1.8746948
				C1210.0056152,204.559906,1208.4362793,205.1334991,1206.8640137,205.699295z M1216.260498,202.2059021l-0.7167969-1.8670044
				c1.5537109-0.5970001,3.1044922-1.202301,4.6494141-1.8161926l0.7382813,1.8585968
				C1219.3786621,200.9981995,1217.8220215,201.6062012,1216.260498,202.2059021z M1225.5808105,198.5030975l-0.7597656-1.8498993
				c1.5390625-0.6325989,3.0732422-1.2740021,4.6044922-1.9246979l0.7832031,1.8406982
				C1228.6696777,197.2230072,1227.1276855,197.8674011,1225.5808105,198.5030975z M1234.8103027,194.5780029l-0.8066406-1.8305969
				c1.5224609-0.670105,3.0410156-1.3497009,4.5546875-2.0389099l0.828125,1.8200989
				C1237.8649902,193.221405,1236.3405762,193.9044037,1234.8103027,194.5780029z M1243.9353027,190.4190979l-0.8535156-1.8087006
				c1.5039063-0.7097931,3.0029297-1.4293976,4.4960938-2.1591949l0.8779297,1.7967987
				C1246.9538574,188.9821014,1245.4470215,189.7053986,1243.9353027,190.4190979z M1252.947998,186.0142975l-0.9042969-1.7843018
				c1.4833984-0.7509918,2.9609375-1.5122986,4.4326172-2.2846985l0.9296875,1.7711029
				C1255.9245605,184.4931946,1254.439209,185.2590027,1252.947998,186.0142975z M1261.8269043,181.3529968l-0.9550781-1.7567902
				c1.4589844-0.793808,2.9121094-1.5989075,4.359375-2.4150085l0.9824219,1.741806
				C1264.7585449,179.7442932,1263.2956543,180.5541992,1261.8269043,181.3529968z M1270.5632324,176.425705l-1.0097656-1.7264099
				c1.4326172-0.8381958,2.859375-1.6880951,4.2802734-2.5495911l1.0371094,1.7097931
				C1273.4411621,174.726593,1272.0056152,175.5818939,1270.5632324,176.425705z M1279.1374512,171.2239075l-1.0654297-1.6925049
				c1.4042969-0.884201,2.8017578-1.7801056,4.1923828-2.6880951l1.09375,1.6747894
				C1281.9577637,169.4320068,1280.5505371,170.3339996,1279.1374512,171.2239075z M1287.5290527,165.7411041l-1.1210938-1.6558075
				c1.3730469-0.9303894,2.7382813-1.8730927,4.0957031-2.828598l1.1503906,1.6356049
				C1290.2868652,163.8545074,1288.9118652,164.8040924,1287.5290527,165.7411041z M1295.7312012,159.9689941l-1.1796875-1.6144867
				l1.2451172-0.9152069c0.9179688-0.6791992,1.8330078-1.3656006,2.7431641-2.0588989l1.2128906,1.5908051
				c-0.9179688,0.6994934-1.8408203,1.3915863-2.7675781,2.0764923L1295.7312012,159.9689941z M1303.7097168,153.8899994
				l-1.2441406-1.5653992c1.296875-1.0314941,2.5849609-2.0774078,3.8613281-3.1371002l1.2773438,1.5388947
				C1306.3161621,151.7949982,1305.0183105,152.8497009,1303.7097168,153.8899994z M1311.4304199,147.4819031l-1.3085938-1.512207
				c1.2529297-1.0851898,2.4960938-2.1841888,3.7285156-3.296402l1.3398438,1.4848022
				C1313.947998,145.2794037,1312.6950684,146.3874969,1311.4304199,147.4819031z M1318.8806152,140.7556l-1.3710938-1.4562073
				c1.2080078-1.1373901,2.4042969-2.2876892,3.5898438-3.4504852l1.4003906,1.4276886
				C1321.3044434,138.4492035,1320.0983887,139.608902,1318.8806152,140.7556z M1326.0456543,133.7212067l-1.4316406-1.3970032
				c1.1591797-1.1876068,2.3066406-2.3876038,3.4423828-3.5995026l1.4589844,1.3672028
				C1328.3718262,131.313797,1327.2145996,132.5238037,1326.0456543,133.7212067z M1332.907959,126.388298l-1.4882813-1.3350983
				c1.1083984-1.2363968,2.203125-2.4844971,3.2851563-3.7438965l1.5175781,1.3035965
				C1335.1306152,123.8828964,1334.026123,125.1415024,1332.907959,126.388298z M1339.4538574,118.7652969l-1.5449219-1.2691956
				c1.0537109-1.283699,2.09375-2.5783005,3.1201172-3.8837051l1.5722656,1.2357025
				C1341.5671387,116.1649017,1340.517334,117.4705963,1339.4538574,118.7652969z M1345.6608887,110.8610992l-1.5996094-1.1996994
				c0.9960938-1.3292007,1.9785156-2.6689987,2.9443359-4.0187988l1.6269531,1.164299
				C1347.6569824,108.168602,1346.666748,109.5201035,1345.6608887,110.8610992z M1351.5085449,102.6844025l-1.6523438-1.1257019
				c0.9345703-1.3731995,1.8544922-2.7561035,2.7568359-4.1488037l1.6777344,1.0874023
				C1353.3806152,99.9027023,1352.4528809,101.2985992,1351.5085449,102.6844025z M1356.9753418,94.2453995l-1.703125-1.0474014
				c0.8691406-1.4152985,1.7226563-2.8399963,2.5576172-4.2736969l1.7285156,1.0065002
				C1358.7155762,91.3780975,1357.854248,92.8163986,1356.9753418,94.2453995z M1362.0358887,85.5542984l-1.7519531-0.9637985
				c0.8007813-1.4555969,1.5830078-2.9197006,2.3457031-4.3925018l1.7753906,0.919899
				C1363.6345215,82.6053009,1362.8444824,84.0843964,1362.0358887,85.5542984z M1366.6647949,76.6233978l-1.7988281-0.8750992
				c0.7265625-1.4932022,1.4335938-2.9944992,2.1201172-4.5035019l1.8203125,0.827301
				C1368.1140137,73.5972977,1367.3991699,75.114502,1366.6647949,76.6233978z M1370.8308105,67.4676971l-1.8417969-0.7807007
				c0.6533203-1.5404968,1.2861328-3.0905952,1.8808594-4.6071968l1.8613281,0.7303009
				C1372.1306152,64.3432999,1371.4909668,65.9103012,1370.8308105,67.4676971z M1374.5075684,58.1040001l-1.8808594-0.6803017
				c0.5683594-1.5718994,1.1162109-3.1533966,1.6269531-4.7003975l1.8984375,0.6269989
				C1375.635498,54.9150009,1375.0827637,56.5144005,1374.5075684,58.1040001z M1377.6647949,48.5536003l-1.9160156-0.5740013
				c0.4697266-1.5690994,0.9267578-3.178299,1.3583984-4.7826996l1.9316406,0.5191994
				C1378.6022949,45.3386993,1378.1403809,46.966301,1377.6647949,48.5536003z M1380.2702637,38.8405991l-1.9453125-0.4617996
				c0.3798828-1.6036987,0.7421875-3.2355995,1.0742188-4.8504982l1.9589844,0.4032974
				C1381.0212402,35.5660019,1380.6560059,37.217701,1380.2702637,38.8405991z M1382.2995605,28.9934006l-1.9707031-0.3437004
				c0.2851563-1.6315994,0.546875-3.2812996,0.7792969-4.903101l1.9804688,0.2837009
				C1382.8532715,25.6721001,1382.5876465,27.3419991,1382.2995605,28.9934006z M1383.7243652,19.0463009l-1.9882813-0.2220001
				c0.1865234-1.6627998,0.3447266-3.3236008,0.4716797-4.9362011l1.9941406,0.1571999
				C1384.072998,15.6794004,1383.9118652,17.3621006,1383.7243652,19.0463009z M1384.5222168,9.0340996l-1.9980469-0.0952997
				c0.078125-1.6433997,0.1308594-3.3132997,0.1572266-4.9632998l2,0.0316
				C1384.6550293,5.6781998,1384.6013184,7.3695002,1384.5222168,9.0340996z"/>
		</g>
		<g>
			<g>
				<polygon class="st1" points="1388.0290527,8.1885004 1383.659668,3.7397001 1379.213623,8.1118002 1379.2460938,4.3691001 
					1383.6921387,0 1388.0615234,4.4457998 				"/>
			</g>
		</g>
	</g>
	<g>
		<g>
			<g>
				<g>
					<g>
						<g>
							<path class="st2" d="M135.5345459,301.4591064l-5.5278015-1.2232971
								c-2.5968094-0.5739136-5.2619095-0.1046143-7.5039063,1.3255005
								c-2.2425995,1.4295044-3.7939987,3.6467896-4.3684998,6.2435913L90.8184357,435.9024048l44.668808-134.3128052
								C135.5019379,301.5455017,135.5193329,301.5028992,135.5345459,301.4591064z"/>
						</g>
					</g>
					<g>
						<g>
							<path class="st2" d="M94.7890396,615.7637939v-2.421814h-19.912323v2.421814
								c0,5.4899902,4.466095,9.9561157,9.9561234,9.9561157C90.3228378,625.7199097,94.7890396,621.2537842,94.7890396,615.7637939
								z"/>
						</g>
					</g>
					<g>
						<g>
							<path class="st3" d="M174.9766388,715.3256226c0,1.6317749,1.3280945,2.9598999,2.9600067,2.9598999
								c1.6317902,0,2.9598999-1.328125,2.9598999-2.9598999c0-1.631897-1.3281097-2.960022-2.9598999-2.960022
								C176.3047333,712.3656006,174.9766388,713.6937256,174.9766388,715.3256226z"/>
						</g>
					</g>
					<g>
						<g>
							<path class="st4" d="M154.3225403,594.859375c-5.7680969-5.1112671-13.8023071-12.5426636-20.2469025-19.6868896v34.5541992
								C139.059433,603.3375244,145.8578339,598.3449097,154.3225403,594.859375z"/>
						</g>
					</g>
					<g>
						<g>
							<path class="st4" d="M100.1707382,616.8400879v-75.3441162c0-8.4571533-6.8806-15.3378906-15.3378983-15.3378906
								c-8.4573288,0-15.3379288,6.8807373-15.3379288,15.3378906v75.3441162c0,8.4573364,6.8806,15.3378906,15.3379288,15.3378906
								C93.2901382,632.1779785,100.1707382,625.2974243,100.1707382,616.8400879z M73.2622147,615.7637939v-3.2290649
								c0-0.4456177,0.361496-0.807251,0.8071976-0.807251h21.5269241c0.4456024,0,0.8072052,0.3616333,0.8072052,0.807251
								v3.2290649c0,6.3803101-5.1903992,11.5706787-11.5707016,11.5706787
								C78.4526138,627.3344727,73.2622147,622.144104,73.2622147,615.7637939z"/>
						</g>
					</g>
					<g>
						<g>
							<path class="st4" d="M134.0756378,531.809021v1.8233643c0.7288971,0.225708,1.4324036,0.560791,2.0702057,1.0014038
								c6.6667023,4.6071167,17.956192,14.2194824,28.6055908,23.6296997v-59.5999756
								c-0.0935974-0.0331116-0.1829987-0.0825195-0.2622986-0.151825
								c-1.704895-1.4915771-5.3490906-3.2295837-13.0643005-3.0366821
								c-0.1755981,0.0041809-0.3096008,0.0073853-0.3967896,0.0073853c-0.4457092,0-0.807312-0.3616028-0.807312-0.8072815
								c0-0.4457092,0.3616028-0.807312,0.807312-0.807312c0.0782928,0,0.1985931-0.0031128,0.3562927-0.0072937
								c6.0225983-0.1440125,10.5036011,0.8001099,13.3670959,2.8161926v-8.6856079l-30.6757965-10.2019958v52.405304V531.809021z"
								/>
						</g>
					</g>
					<g>
						<g>
							<path class="st2" d="M117.5573349,304.7009888l-1.0006943-0.146698
								c-2.6283035-0.3847046-5.2540054,0.2780151-7.3871994,1.8663025
								c-2.1333008,1.5887146-3.5196991,3.9128113-3.9044037,6.5437012l-15.0305023,117.936615l26.3221054-123.4387207
								C116.7723389,306.487793,117.1173401,305.566803,117.5573349,304.7009888z"/>
						</g>
					</g>
					<g>
						<g>
							<path class="st4" d="M101.7853394,616.8400879c0,8.4573364,6.8805008,15.3378906,15.3378983,15.3378906
								c8.4571991,0,15.3378983-6.8805542,15.3378983-15.3378906v-43.4901733
								c-2.5247955-2.9077148-4.7261963-5.729126-6.3340988-8.2825928
								c-6.0203018-9.5615234-4.2233963-21.3707275-0.0063019-28.2966309c1.0947037-1.7973022,2.6278-2.9503784,4.4330978-3.3341064
								c0.6170044-0.131897,1.2613068-0.1615601,1.9073029-0.1105957v-1.5169678v-1.614624
								c0-8.4572144-6.8806992-15.3378906-15.3378983-15.3378906c-8.4573975,0-15.3378983,6.8806763-15.3378983,15.3378906
								v11.3015747V616.8400879z M127.8866425,611.727478c0.445694,0,0.8072968,0.3616333,0.8072968,0.807251v3.2290649
								c0,6.3803101-5.1903992,11.5706787-11.5707016,11.5706787s-11.5707016-5.1903687-11.5707016-11.5706787v-3.2290649
								c0-0.4456177,0.3616028-0.807251,0.8072052-0.807251H127.8866425z"/>
						</g>
					</g>
					<g>
						<g>
							<path class="st2" d="M117.1232376,625.7199097c5.4899979,0,9.9561005-4.4661255,9.9561005-9.9561157v-2.421814H107.167038
								v2.421814C107.167038,621.2537842,111.6332397,625.7199097,117.1232376,625.7199097z"/>
						</g>
					</g>
					<g>
						<g>
							<path class="st2" d="M164.7514343,454.3121948c0-9.3475952,7.6047974-16.9523926,16.9524078-16.9523926
								c9.3475037,0,16.9523926,7.6047974,16.9523926,16.9523926v32.5137024l49.1791077-147.8717041
								c1.7316895-5.2088013-1.0968018-10.8569946-6.305603-12.5896912l-91.9207001-30.5707092
								c-5.2073059-1.7312012-10.8565063,1.0968018-12.5892029,6.305603L87.7778397,450.1615906l-0.0028992,0.0133972
								c-0.001503,0.0075989-0.0065002,0.0133972-0.0084,0.0210266c-0.8390045,2.5224915-0.6451035,5.2208862,0.5455017,7.5985718
								c1.1908951,2.3776245,3.2363968,4.1493225,5.7601929,4.9891052l70.6791992,23.5056152V454.3121948z"/>
						</g>
					</g>
					<g>
						<g>
							<path class="st4" d="M196.7794342,481.3169861c-1.7053986-1.4915771-5.3448944-3.2347717-13.0643005-3.0366821
								c-0.1755981,0.0041809-0.3096008,0.0073853-0.3967896,0.0073853c-0.4457092,0-0.807312-0.3616028-0.807312-0.8072815
								c0-0.4457092,0.3616028-0.807312,0.807312-0.807312c0.0782928,0,0.1985931-0.0030823,0.3562927-0.0072937
								c6.017395-0.1507874,10.5028076,0.7991028,13.3670959,2.8161926v-25.1697998
								c0-8.4573059-6.8806-15.3378906-15.3378906-15.3378906c-8.4573059,0-15.3379059,6.8805847-15.3379059,15.3378906v33.367218
								v71.5762634c0,0.1298218-0.0334015,0.2507324-0.0877991,0.3592529
								c12.9490051,11.4831543,24.5596008,22.2886963,25.1679077,22.8551636
								c2.4141998,1.940979,4.2975922,4.3574829,5.5956879,7.0391235v-74.135498
								c-0.0934906-0.0331421-0.1828918-0.0825195-0.2622986-0.1519165
								c-1.7053986-1.4915161-5.3448944-3.2305908-13.0643005-3.0366821
								c-0.1755981,0.0041504-0.3096008,0.0073853-0.3967896,0.0073853c-0.4457092,0-0.807312-0.3616028-0.807312-0.807312
								c0-0.4455872,0.3616028-0.8071899,0.807312-0.8071899c0.0782928,0,0.1985931-0.0032043,0.3562927-0.0074158
								c6.017395-0.1483765,10.5028076,0.799408,13.3670959,2.8161926V481.468811
								C196.9482422,481.4356995,196.8588409,481.3862915,196.7794342,481.3169861z"/>
						</g>
					</g>
					<g>
						<g>
							<path class="st4" d="M167.9646454,654.1052856c-0.1382141,0.0931396-0.2947998,0.1378174-0.4504089,0.1378174
								c-0.2590942,0-0.5139923-0.1251221-0.6699982-0.3563843c-0.2492065-0.3699951-0.1513977-0.8713379,0.2185974-1.1204224
								c20.3806-13.7266235,27.593399-37.7592773,30.0787048-50.8635864
								c1.2998047-6.8527832-1.278595-13.8231812-6.7292023-18.1917114
								c-0.0157928-0.0125732-0.0310059-0.0263062-0.0457001-0.039917
								c-0.3973999-0.3706055-39.9409027-37.2063599-55.138504-47.7085571
								c-1.2949982-0.8956299-2.918396-1.2504272-4.3383942-0.9465942
								c-1.3791046,0.2932739-2.5200958,1.1661987-3.3899002,2.5946655
								c-3.9670029,6.5148315-5.6608047,17.6162109-0.0063019,26.5969238
								c8.5371017,13.5578613,35.0840988,35.6444702,35.3510971,35.8662109
								c0.3432007,0.2843628,0.391098,0.7930908,0.1062012,1.1362915c-0.2837982,0.3432007-0.7940979,0.3909912-1.1362,0.1062012
								c-0.3171997-0.2631226-2.7053986-2.2496948-6.1477966-5.2714233
								c-0.0119934,0.0054932-0.0229034,0.0134277-0.0354004,0.0183716
								c-9.2814026,3.6881104-16.5332947,9.1949463-21.5558014,16.3670044v4.4099121
								c0,5.8695068-2.9994049,11.0507202-7.544899,14.0944824c-0.0031967,0.0239258-0.0031967,0.0475464-0.0084991,0.0714111
								c-1.4726028,6.7040405-1.5955048,12.6296997-1.5955048,18.1243896c0,0.4457397-0.3615952,0.807312-0.8072968,0.807312
								s-0.8072968-0.3615723-0.8072968-0.807312c0-5.2121582,0.1109009-10.8093872,1.3514938-17.1134644
								c-2.2727966,1.1339111-4.8324966,1.7755737-7.5403976,1.7755737c-7.5467987,0-13.9552002-4.958374-16.1452026-11.7876587
								c-2.1897964,6.8292847-8.5981979,11.7876587-16.145195,11.7876587c-1.1960983,0-2.3628235-0.1260986-3.4897003-0.362854
								c0.1755753,19.3150635,11.7526016,36.5606689,29.6042023,44.0188599
								c0.411499,0.171936,0.6054993,0.6444092,0.4335938,1.0559082c-0.1292953,0.3096313-0.4293976,0.4960938-0.7451935,0.4960938
								c-0.1036072,0-0.2092056-0.0198975-0.3106003-0.0625c-5.6621017-2.3654785-10.7096024-5.6881104-14.9979019-9.7280884
								v35.0831299h89.8746948V636.553772C180.8458405,643.0618286,175.2241364,649.2161255,167.9646454,654.1052856z
								 M134.8250427,560.0609131c-0.2192078-0.0158081-0.4219971-0.1199341-0.5624084-0.2885132
								c-8.8602982-10.638916,0.5041046-19.8436279,0.5997009-19.9349976
								c0.3038025-0.2932739,0.782608-0.3005981,1.0969086-0.0195313l10.2251892,9.1489258
								c0.1708984,0.1530151,0.2686005,0.371582,0.269104,0.600708c0.0005951,0.229187-0.0966949,0.447876-0.2669983,0.6013184
								l-10.7633972,9.6870728c-0.1486969,0.1334839-0.3415985,0.2070923-0.5402985,0.2070923
								C134.8634338,560.0629883,134.8445435,560.0623779,134.8250427,560.0609131z"/>
						</g>
					</g>
					<g>
						<g>
							<path class="st2" d="M89.407341,705.9075928v29.4243774h101.7145004v-29.4243774H89.407341z M182.5110321,715.3256226
								c0,2.5220947-2.0522919,4.5744019-4.5743866,4.5744019c-2.5222015,0-4.5745087-2.0523071-4.5745087-4.5744019
								c0-2.5222168,2.0523071-4.5745239,4.5745087-4.5745239
								C180.4587402,710.7510986,182.5110321,712.8034058,182.5110321,715.3256226z"/>
						</g>
					</g>
					<g>
						<g>
							<path class="st2" d="M135.4704437,541.5469971c-1.6802063,1.9277954-6.5084991,8.640686-0.4909058,16.5357056
								l9.4580078-8.5125122L135.4704437,541.5469971z"/>
						</g>
					</g>
					<g>
						<g>
							<path class="st5" d="M96.4035416,615.7637939v-3.2290649c0-0.4456177-0.3616028-0.807251-0.8072052-0.807251H74.0694122
								c-0.4457016,0-0.8071976,0.3616333-0.8071976,0.807251v3.2290649c0,6.3803101,5.1903992,11.5706787,11.5706253,11.5706787
								C91.2131424,627.3344727,96.4035416,622.144104,96.4035416,615.7637939z M74.8767166,615.7637939v-2.421814h19.912323
								v2.421814c0,5.4899902-4.4662018,9.9561157-9.9561996,9.9561157
								C79.3428116,625.7199097,74.8767166,621.2537842,74.8767166,615.7637939z"/>
						</g>
					</g>
					<g>
						<g>
							<path class="st5" d="M105.552536,612.534729v3.2290649c0,6.3803101,5.1903992,11.5706787,11.5707016,11.5706787
								s11.5707016-5.1903687,11.5707016-11.5706787v-3.2290649c0-0.4456177-0.3616028-0.807251-0.8072968-0.807251h-21.5269012
								C105.9141388,611.727478,105.552536,612.0891113,105.552536,612.534729z M127.0793381,613.34198v2.421814
								c0,5.4899902-4.4661026,9.9561157-9.9561005,9.9561157s-9.9561996-4.4661255-9.9561996-9.9561157v-2.421814H127.0793381z"/>
						</g>
					</g>
					<g>
						<g>
							<path class="st5" d="M146.1865387,550.1688232c0.1703033-0.1534424,0.2675934-0.3721313,0.2669983-0.6013184
								c-0.0005035-0.229126-0.0982056-0.4476929-0.269104-0.600708l-10.2251892-9.1489258
								c-0.3143005-0.2810669-0.7931061-0.2737427-1.0969086,0.0195313
								c-0.0955963,0.0913696-9.4599991,9.2960815-0.5997009,19.9349976
								c0.1404114,0.1685791,0.3432007,0.2727051,0.5624084,0.2885132c0.0195007,0.0014648,0.0383911,0.0020752,0.0578003,0.0020752
								c0.1987,0,0.3916016-0.0736084,0.5402985-0.2070923L146.1865387,550.1688232z M135.4704437,541.5469971l8.9671021,8.0231934
								l-9.4580078,8.5125122C128.9619446,550.1876831,133.7902374,543.4747925,135.4704437,541.5469971z"/>
						</g>
					</g>
					<g>
						<g>
							<path class="st5" d="M173.3621368,715.3256226c0,2.5220947,2.0523071,4.5744019,4.5745087,4.5744019
								c2.5220947,0,4.5743866-2.0523071,4.5743866-4.5744019c0-2.5222168-2.0522919-4.5745239-4.5743866-4.5745239
								C175.414444,710.7510986,173.3621368,712.8034058,173.3621368,715.3256226z M180.8965454,715.3256226
								c0,1.6317749-1.3281097,2.9598999-2.9598999,2.9598999c-1.6319122,0-2.9600067-1.328125-2.9600067-2.9598999
								c0-1.631897,1.3280945-2.960022,2.9600067-2.960022
								C179.5684357,712.3656006,180.8965454,713.6937256,180.8965454,715.3256226z"/>
						</g>
					</g>
				</g>
				<g class="st6">
					<g>
						<path class="st7" d="M135.5345459,301.4591064l-5.5278015-1.2232971
							c-2.5968094-0.5739136-5.2619095-0.1046143-7.5039063,1.3255005
							c-2.2425995,1.4295044-3.7939987,3.6467896-4.3684998,6.2435913L90.8184357,435.9024048l44.668808-134.3128052
							C135.5019379,301.5455017,135.5193329,301.5028992,135.5345459,301.4591064z"/>
					</g>
				</g>
				<g class="st8">
					<g>
						<path class="st7" d="M117.5573349,304.7009888l-1.0006943-0.146698
							c-2.6283035-0.3847046-5.2540054,0.2780151-7.3871994,1.8663025
							c-2.1333008,1.5887146-3.5196991,3.9128113-3.9044037,6.5437012l-15.0305023,117.936615l26.3221054-123.4387207
							C116.7723389,306.487793,117.1173401,305.566803,117.5573349,304.7009888z"/>
					</g>
				</g>
				<g>
					<g>
						<line class="st2" x1="138.8201447" y1="315.1947937" x2="238.0473328" y2="348.1451111"/>
					</g>
					<g>
						
							<rect x="136.1563873" y="330.8626709" transform="matrix(0.9490422 0.315149 -0.315149 0.9490422 114.1276245 -42.4835815)" class="st1" width="104.5549927" height="1.6145651"/>
					</g>
				</g>
				<g>
					<g>
						<line class="st2" x1="157.4443359" y1="344.7655029" x2="222.8200378" y2="366.4747925"/>
					</g>
					<g>
						
							<rect x="155.6894226" y="354.8129883" transform="matrix(0.9490412 0.3151519 -0.3151519 0.9490412 121.7632675 -41.7985535)" class="st1" width="68.8855209" height="1.6144388"/>
					</g>
				</g>
				<g>
					<g>
						<line class="st2" x1="156.2571411" y1="348.3406982" x2="185.8805389" y2="358.1777954"/>
					</g>
					<g>
						
							<rect x="155.4620361" y="352.4519653" transform="matrix(0.9490418 0.3151501 -0.3151501 0.9490418 120.0470657 -35.9109383)" class="st1" width="31.2136936" height="1.6145651"/>
					</g>
				</g>
				<g>
					<g>
						<g>
							<path class="st2" d="M232.2018433,339.6845093c-0.488205,0-0.9732971-0.0787964-1.4421082-0.2344971
								c-1.1598969-0.3851013-2.1001892-1.1987-2.6477966-2.2909241c-0.5476074-1.0922852-0.6369934-2.332489-0.2516937-3.4920959
								c0.6221924-1.8747864,2.3665924-3.1342773,4.3405914-3.1342773c0.488205,0,0.9732971,0.0787964,1.4421082,0.2344971
								c2.3938904,0.7948914,3.6946869,3.3890991,2.8994904,5.7829895
								C235.9201355,338.4249878,234.1758423,339.6845093,232.2018433,339.6845093z"/>
						</g>
					</g>
					<g>
						<g>
							<g>
								<path class="st1" d="M232.2008362,331.3399963L232.2008362,331.3399963c0.4015045,0,0.8009949,0.0649109,1.1875,0.1933899
									c1.971405,0.6545105,3.0427094,2.7911987,2.3881989,4.7626038c-0.5128937,1.5438232-1.949295,2.5812073-3.5746918,2.5812073
									c-0.4018097,0-0.8014984-0.065094-1.1878052-0.1933899c-1.971405-0.6545105-3.0426941-2.7911987-2.3880005-4.7626038
									C229.1387329,332.3774109,230.5753326,331.3399963,232.2008362,331.3399963 M232.2003326,329.7254028
									c-2.2552948,0-4.3568878,1.4292908-5.1065979,3.6871033c-0.9366913,2.8208923,0.5906982,5.8667908,3.4114075,6.8035889
									c0.5627899,0.1867981,1.1345978,0.2756958,1.696701,0.2756958c2.2556,0,4.3569946-1.4292908,5.1068878-3.6871033
									c0.936615-2.8208923-0.5906982-5.8667908-3.411499-6.8035889
									C233.3342438,329.8139954,232.7626343,329.7254028,232.2003326,329.7254028L232.2003326,329.7254028z"/>
							</g>
						</g>
					</g>
				</g>
				<g>
					<g>
						<g>
							<polygon class="st2" points="231.7330322,334.1023865 233.1783447,334.5823975 232.0357361,335.6073914 							"/>
						</g>
					</g>
					<g>
						<g>
							<polygon class="st1" points="230.667038,332.8980103 231.0948334,335.0245972 231.5227356,337.1516113 
								233.1378326,335.7030945 234.7530365,334.2546997 232.7100372,333.5762024 230.667038,332.8980103 							"/>
						</g>
					</g>
				</g>
				<g>
					<g>
						<circle class="st0" cx="141.1023865" cy="341.0400085" r="2.6908629"/>
					</g>
				</g>
				<g>
					<g>
						<line class="st2" x1="147.2681427" y1="375.4104004" x2="212.6438446" y2="397.1196899"/>
					</g>
					<g>
						
							<rect x="145.5130615" y="385.4577332" transform="matrix(0.9490426 0.315148 -0.315148 0.9490426 130.9007263 -37.0297165)" class="st1" width="68.886055" height="1.6145337"/>
					</g>
				</g>
				<g>
					<g>
						<line class="st2" x1="146.0808411" y1="378.9855957" x2="175.7042389" y2="388.8226013"/>
					</g>
					<g>
						
							<rect x="145.2856293" y="383.0969238" transform="matrix(0.9490409 0.315153 -0.315153 0.9490409 129.1875 -31.1423321)" class="st1" width="31.2137241" height="1.6144702"/>
					</g>
				</g>
				<g>
					<g>
						<circle class="st0" cx="130.9260864" cy="371.684906" r="2.6908629"/>
					</g>
				</g>
				<g>
					<g>
						<line class="st2" x1="137.0918427" y1="406.0552063" x2="202.4676361" y2="427.7645874"/>
					</g>
					<g>
						
							<rect x="135.3366547" y="416.1026306" transform="matrix(0.9490426 0.315148 -0.315148 0.9490426 140.0398407 -32.2610588)" class="st1" width="68.886055" height="1.6145337"/>
					</g>
				</g>
				<g>
					<g>
						<line class="st2" x1="135.9046326" y1="409.6304932" x2="165.5280457" y2="419.4674988"/>
					</g>
					<g>
						
							<rect x="135.1092377" y="413.7417297" transform="matrix(0.9490428 0.3151473 -0.3151473 0.9490428 138.3240814 -26.3735943)" class="st1" width="31.2142944" height="1.6145651"/>
					</g>
				</g>
				<g>
					<g>
						<circle class="st0" cx="120.7498856" cy="402.3297424" r="2.6908786"/>
					</g>
				</g>
				<g>
					<g>
						<line class="st2" x1="126.9156418" y1="436.7001038" x2="164.3900452" y2="449.199585"/>
					</g>
					<g>
						
							<rect x="125.9005814" y="442.1425781" transform="matrix(0.9486225 0.31641 -0.31641 0.9486225 147.6370392 -23.32831)" class="st1" width="39.5041237" height="1.6145642"/>
					</g>
				</g>
				<g>
					<g>
						<line class="st2" x1="125.7284393" y1="440.2753906" x2="155.3517456" y2="450.1123962"/>
					</g>
					<g>
						
							<rect x="124.9329071" y="444.3865967" transform="matrix(0.9490434 0.3151454 -0.3151454 0.9490434 147.4622192 -21.6049671)" class="st1" width="31.2141666" height="1.6145337"/>
					</g>
				</g>
				<g>
					<g>
						<circle class="st0" cx="110.5735855" cy="432.9746399" r="2.6908786"/>
					</g>
				</g>
			</g>
		</g>
		<g>
			<path class="st9" d="M100.1707382,616.8397827v-75.343689c0-8.4575195-6.8806-15.3378906-15.3378983-15.3378906
				c-8.4573288,0-15.3378296,6.8803711-15.3378296,15.3378906v75.343689c0,8.4576416,6.8805008,15.3384399,15.3378296,15.3384399
				C93.2901382,632.1782227,100.1707382,625.2974243,100.1707382,616.8397827z"/>
			<path class="st9" d="M183.3183441,476.6733093c0.0783997,0,0.1985931-0.003418,0.3562927-0.0073242
				c6.017395-0.1508789,10.5028992,0.7988281,13.3670959,2.815918v-25.1698914c0-8.4570007-6.8806-15.3379211-15.3378906-15.3379211
				c-8.4573059,0-15.3379059,6.8809204-15.3379059,15.3379211v33.3671875v71.5767212
				c0,0.1297607-0.0334015,0.2503662-0.0878906,0.3587646c12.9489899,11.4833984,24.5596924,22.2891235,25.1679993,22.8555298
				c2.4142914,1.9408569,4.2975922,4.3573608,5.5956879,7.0390625v-74.1358032
				c-0.0934906-0.0326538-0.1828918-0.0824585-0.2621918-0.1517944c-1.7055969-1.4911499-5.3450012-3.2304688-13.0644989-3.0365601
				c-0.1755066,0.0043945-0.3095093,0.0072632-0.396698,0.0072632c-0.4457092,0-0.8072052-0.3612976-0.8072052-0.8070679
				c0-0.4458008,0.361496-0.8072205,0.8072052-0.8072205c0.0783997,0,0.1985931-0.0033875,0.3562927-0.0072937
				c6.017395-0.148407,10.5028992,0.7992859,13.3670959,2.815918V481.468689
				c-0.0934906-0.0332031-0.1828918-0.082489-0.2621918-0.1517944c-1.7055969-1.4916992-5.3450012-3.2348938-13.0644989-3.0365906
				c-0.1755066,0.0043945-0.3095093,0.0072937-0.396698,0.0072937c-0.4457092,0-0.8072052-0.3617859-0.8072052-0.8070984
				C182.5111389,477.0346985,182.8726349,476.6733093,183.3183441,476.6733093z"/>
			<path class="st9" d="M117.1233368,632.1782227c8.4570999,0,15.3377991-6.8807983,15.3377991-15.3384399v-43.4896851
				c-2.5249023-2.9077148-4.7261963-5.7294922-6.3340988-8.2827148c-6.0203018-9.5614624-4.2233963-21.3706055-0.0063019-28.296875
				c1.0947037-1.7974243,2.6278-2.9501953,4.4330978-3.3339844c0.6171112-0.1318359,1.2613068-0.1616211,1.9073029-0.1103516
				v-1.5170898v-1.6148071c0-8.4569702-6.8806992-15.3378906-15.3377991-15.3378906
				c-8.4573975,0-15.3380966,6.8809204-15.3380966,15.3378906v11.3018188v75.343689
				C101.7852402,625.2974243,108.6659393,632.1782227,117.1233368,632.1782227z"/>
			<path class="st9" d="M135.4873352,301.5898132c0.0146027-0.0444031,0.0319061-0.0869141,0.0472107-0.1307983
				l-5.5278015-1.2232056c-2.5968094-0.5737-5.2619095-0.1045227-7.5039063,1.3256836
				c-2.2425995,1.4291992-3.7940979,3.6465149-4.3684006,6.2431946L90.8184357,435.9023132L135.4873352,301.5898132z"/>
			<path class="st9" d="M164.7514343,454.3120117c0-9.3471985,7.6047974-16.9521179,16.9524078-16.9521179
				c9.3475952,0,16.9523926,7.6049194,16.9523926,16.9521179v32.5137024l49.1791077-147.8716125
				c1.7317963-5.2084961-1.0968018-10.8569031-6.305603-12.5898132l-91.9207001-30.5703735
				c-5.2071991-1.7314148-10.8565063,1.0966797-12.5892944,6.3056946l-49.241806,148.0619812l-0.0029984,0.0132141
				c-0.0016022,0.007782-0.0065994,0.0137024-0.0084,0.0214844c-0.8390045,2.5220032-0.6451035,5.2207031,0.5455017,7.598114
				c1.1909943,2.3779907,3.2363968,4.1493835,5.7601929,4.9892883l70.6791992,23.5054016V454.3120117z"/>
			<path class="st9" d="M117.5573349,304.7012024l-1.0006943-0.1470032
				c-2.6283035-0.3847961-5.2538986,0.2782898-7.3871994,1.8662109c-2.1333008,1.5888977-3.5196991,3.9130859-3.9044037,6.5439758
				L90.2345352,430.9009094l26.3221054-123.4385071C116.7723389,306.487793,117.1174393,305.5668945,117.5573349,304.7012024z"/>
			<path class="st9" d="M151.0280457,493.8677063c0.0782928,0,0.1985931-0.0030212,0.3561859-0.0072937
				c6.0227051-0.144104,10.5037079,0.8002014,13.3672028,2.8163757v-8.6855774l-30.6757965-10.2021179v52.4051819v1.6148071
				v1.8232422c0.7288971,0.2255859,1.4324036,0.5610962,2.0700989,1.0014648
				c6.6668091,4.6069336,17.9562988,14.2197266,28.6056976,23.6298828v-59.6000671
				c-0.0934906-0.0332031-0.1829987-0.0825195-0.2622986-0.1519165c-1.7050018-1.4916992-5.3490906-3.2294922-13.0643005-3.0365906
				c-0.1755981,0.0039063-0.3096008,0.0072937-0.3967896,0.0072937c-0.4456024,0-0.807312-0.3617859-0.807312-0.8070984
				C150.2207336,494.2294922,150.5824432,493.8677063,151.0280457,493.8677063z"/>
			<path class="st9" d="M110.9472351,677.4487305c0.4116058,0.171875,0.6055069,0.644043,0.4337006,1.0556641
				c-0.1291962,0.3096313-0.4293976,0.4960938-0.7451935,0.4960938c-0.1035004,0-0.2092056-0.0199585-0.3105011-0.0625
				C104.6630402,676.5723267,99.6154404,673.25,95.32724,669.210022v35.0830078h89.8746948v-67.7393188
				c-4.3560944,6.5078125-9.9777985,12.6625977-17.2372894,17.5518188
				c-0.1382141,0.0926514-0.2947998,0.1376953-0.4504089,0.1376953c-0.2590942,0-0.5139923-0.125-0.6699982-0.3565063
				c-0.2490997-0.3701172-0.1513977-0.8710938,0.2185059-1.1206055c20.3806-13.7265015,27.5934906-37.7593384,30.0788879-50.8633423
				c1.2996063-6.8529663-1.2786865-13.8231812-6.7292938-18.1918945c-0.0158997-0.0126953-0.0310059-0.0263062-0.0455933-0.039978
				c-0.3975067-0.3701172-39.9410095-37.2061157-55.1386108-47.7084961c-1.2949982-0.8955078-2.918396-1.2504883-4.338501-0.9462891
				c-1.3789978,0.2929688-2.519989,1.1660156-3.3898926,2.5942993c-3.9668045,6.5150757-5.6605988,17.6162109-0.0062027,26.5971069
				c8.5371933,13.5581055,35.0840988,35.6445923,35.3512039,35.8662109
				c0.3430939,0.2841797,0.3909912,0.7929688,0.1062012,1.1362915c-0.283905,0.3432007-0.7942047,0.3910522-1.1362,0.1063843
				c-0.3173065-0.2631836-2.7055054-2.25-6.1479034-5.2714844c-0.0121002,0.0053711-0.0227966,0.0131836-0.0355072,0.0185547
				c-9.281189,3.6880493-16.5331879,9.1948242-21.5556946,16.3666992v4.4096069
				c0,5.8696899-2.9994965,11.0508423-7.544899,14.0947876c-0.0031967,0.0239258-0.0031967,0.0473022-0.0084991,0.0713501
				c-1.4726028,6.7041016-1.5955048,12.6297607-1.5955048,18.1244507c0,0.4458008-0.3615952,0.8071289-0.8073959,0.8071289
				c-0.4455032,0-0.8070984-0.3613281-0.8070984-0.8071289c0-5.2123413,0.1109009-10.809082,1.3512955-17.1132813
				c-2.2726974,1.1337891-4.8324966,1.7753906-7.5401993,1.7753906c-7.5468979,0-13.9552994-4.9584961-16.1453018-11.7875977
				c-2.1897964,6.8291016-8.5981979,11.7875977-16.145195,11.7875977c-1.1960983,0-2.3629303-0.1259766-3.4897003-0.362793
				C81.5187149,652.7446289,93.0957413,669.9901733,110.9472351,677.4487305z"/>
			<path class="st9" d="M134.0756378,575.1724243v34.5541992c4.9837952-6.3892212,11.7823029-11.381897,20.2469025-14.8672485
				C148.5544434,589.7479858,140.5202332,582.3168945,134.0756378,575.1724243z"/>
			<rect x="89.407341" y="705.9077148" class="st9" width="101.7145004" height="29.4242992"/>
			<path class="st3" d="M95.32724,737.121582v23.7236328C110.2436371,766.1201172,126.2915421,769,143.0144348,769
				c14.6849976,0,28.8518066-2.2167969,42.1875-6.328125v-25.550293H95.32724z"/>
			<path class="st5" d="M191.9290314,736.9462891c0.4457092,0,0.807312-0.3612671,0.807312-0.8070679v-31.0391235
				c0-0.4453125-0.3616028-0.8070679-0.807312-0.8070679h-5.1125946v-70.2315063
				c0-0.0102539-0.002594-0.0195313-0.0029907-0.0298462c7.0478973-11.49646,10.376297-23.7182007,11.9142914-31.8285522
				c0.5090027-2.6826172,0.4627075-5.3807983-0.0722046-7.9584961l0.0007019-0.0078125V490.473114
				c0.6170044-0.8960266,1.1110992-1.8720093,1.457901-2.9145203l49.2532959-148.094696
				c2.0128021-6.0537109-1.2744904-12.6177063-7.3278961-14.6314087l-91.9207916-30.5708008
				c-5.4797058-1.8212891-11.3785095,0.7002258-13.9410095,5.6856079l-5.821991-1.2880859
				c-3.017807-0.6665039-6.1144028-0.1206055-8.7212067,1.5409851c-1.259201,0.8027039-2.3260956,1.8232117-3.1729965,3.0010071
				l-1.6710052-0.2446899c-3.058197-0.4477234-6.1075974,0.3227844-8.585495,2.1694946
				c-2.4791031,1.8457031-4.0904999,4.5469055-4.5398026,7.6195984L86.1967392,449.8100891
				c-1.9272995,6.0190125,1.3537979,12.5053101,7.3656998,14.5053101l38.8986969,12.9370117v45.7309875
				c-2.714798-5.7509766-8.5680008-9.7412109-15.3377991-9.7412109c-9.3476944,0-16.9525986,7.6044922-16.9525986,16.9520874
				v4.0904541c-2.7146988-5.7505493-8.5679016-9.7412109-15.3378983-9.7412109
				c-9.3475266,0-16.9523239,7.6048584-16.9523239,16.9525757v75.343689c0,7.5668945,4.9834976,13.9898071,11.8399963,16.163147
				c0.0046997,13.2192993,5.1804276,25.5287476,13.9922256,34.6235962v36.6665039h-5.1126022
				c-0.445694,0-0.8072968,0.3617554-0.8072968,0.8070679v31.0391235c0,0.4458008,0.3616028,0.8070679,0.8072968,0.8070679
				h5.1126022v23.3265991c0.5354004,0.1968384,1.0761032,0.381897,1.614502,0.5723267V737.121582h89.8746948v25.550293
				c0.5404968-0.1669922,1.0769043-0.3422852,1.614502-0.5151978v-25.2103882H191.9290314z M122.5028381,301.5614929
				c2.2419968-1.4302063,4.9070969-1.8993835,7.5039063-1.3256836l5.5278015,1.2232056
				c-0.0153046,0.0438843-0.032608,0.0863953-0.0472107,0.1307983l-44.6688995,134.3125l27.3160019-128.0976257
				C118.7087402,305.2080078,120.2602386,302.9906921,122.5028381,301.5614929z M105.2650375,312.964386
				c0.3847046-2.6308899,1.7711029-4.9550781,3.9044037-6.5439758c2.1333008-1.5879211,4.7588959-2.2510071,7.3871994-1.8662109
				l1.0006943,0.1470032c-0.4398956,0.8656921-0.784996,1.7865906-1.0006943,2.7612L90.2345352,430.9009094L105.2650375,312.964386z
				 M94.0722351,462.7836914c-2.5237961-0.8399048-4.5691986-2.6112976-5.7601929-4.9892883
				c-1.1906052-2.3774109-1.3845062-5.0761108-0.5455017-7.598114c0.0018005-0.007782,0.0067978-0.0137024,0.0084-0.0214844
				l0.0029984-0.0132141l49.241806-148.0619812c1.7327881-5.2090149,7.3820953-8.0371094,12.5892944-6.3056946
				l91.9207001,30.5703735c5.2088013,1.7329102,8.0373993,7.3813171,6.305603,12.5898132l-49.1791077,147.8716125v-32.5137024
				c0-9.3471985-7.6047974-16.9521179-16.9523926-16.9521179c-9.3476105,0-16.9524078,7.6049194-16.9524078,16.9521179v31.9770813
				L94.0722351,462.7836914z M183.3183441,478.2875977c0.0871887,0,0.2211914-0.0028992,0.396698-0.0072937
				c7.7194977-0.1983032,11.358902,1.5448914,13.0644989,3.0365906c0.0792999,0.0693054,0.1687012,0.1185913,0.2621918,0.1517944
				v31.9180298c-2.8641968-2.0166321-7.3497009-2.964325-13.3670959-2.815918
				c-0.1576996,0.0039063-0.2778931,0.0072937-0.3562927,0.0072937c-0.4457092,0-0.8072052,0.3614197-0.8072052,0.8072205
				c0,0.4457703,0.361496,0.8070679,0.8072052,0.8070679c0.0871887,0,0.2211914-0.0028687,0.396698-0.0072632
				c7.7194977-0.1939087,11.358902,1.5454102,13.0644989,3.0365601c0.0792999,0.0693359,0.1687012,0.1191406,0.2621918,0.1517944
				v74.1358032c-1.2980957-2.6817017-3.1813965-5.0982056-5.5956879-7.0390625
				c-0.6083069-0.5664063-12.2190094-11.3721313-25.1679993-22.8555298
				c0.0544891-0.1083984,0.0878906-0.2290039,0.0878906-0.3587646v-71.5767212v-33.3671875
				c0-8.4570007,6.8806-15.3379211,15.3379059-15.3379211c8.4572906,0,15.3378906,6.8809204,15.3378906,15.3379211v25.1698914
				c-2.8641968-2.0170898-7.3497009-2.9667969-13.3670959-2.815918c-0.1576996,0.0039063-0.2778931,0.0073242-0.3562927,0.0073242
				c-0.4457092,0-0.8072052,0.3613892-0.8072052,0.8071899
				C182.5111389,477.9258118,182.8726349,478.2875977,183.3183441,478.2875977z M151.0280457,495.4823914
				c0.0871887,0,0.2211914-0.0033875,0.3967896-0.0072937c7.71521-0.1929016,11.3592987,1.5448914,13.0643005,3.0365906
				c0.0792999,0.069397,0.168808,0.1187134,0.2622986,0.1519165v59.6000671
				c-10.6493988-9.4101563-21.9388885-19.0229492-28.6056976-23.6298828
				c-0.6376953-0.4403687-1.3412018-0.7758789-2.0700989-1.0014648v-1.8232422v-1.6148071V477.789093l30.6757965,10.2021179
				v8.6855774c-2.8634949-2.0161743-7.3444977-2.9604797-13.3672028-2.8163757
				c-0.1575928,0.0042725-0.2778931,0.0072937-0.3561859,0.0072937c-0.4456024,0-0.807312,0.3617859-0.807312,0.8075867
				C150.2207336,495.1206055,150.5824432,495.4823914,151.0280457,495.4823914z M101.7852402,541.4960938v-11.3018188
				c0-8.4569702,6.8806992-15.3378906,15.3380966-15.3378906c8.4570999,0,15.3377991,6.8809204,15.3377991,15.3378906v1.6148071
				v1.5170898c-0.6459961-0.0512695-1.2901917-0.0214844-1.9073029,0.1103516
				c-1.8052979,0.3837891-3.3383942,1.5365601-4.4330978,3.3339844c-4.2170944,6.9262695-6.0139999,18.7354126,0.0063019,28.296875
				c1.6079025,2.5532227,3.8091965,5.375,6.3340988,8.2827148v43.4896851c0,8.4576416-6.8806992,15.3384399-15.3377991,15.3384399
				c-8.4573975,0-15.3380966-6.8807983-15.3380966-15.3384399V541.4960938z M69.4950104,616.8397827v-75.343689
				c0-8.4575195,6.8805008-15.3378906,15.3378296-15.3378906c8.4572983,0,15.3378983,6.8803711,15.3378983,15.3378906v75.343689
				c0,8.4576416-6.8806,15.3384399-15.3378983,15.3384399C76.3755112,632.1782227,69.4950104,625.2974243,69.4950104,616.8397827z
				 M81.3431396,633.4296875c1.12677,0.2368164,2.293602,0.362793,3.4897003,0.362793
				c7.5469971,0,13.9553986-4.9584961,16.145195-11.7875977c2.1900024,6.8291016,8.5984039,11.7875977,16.1453018,11.7875977
				c2.7077026,0,5.2675018-0.6416016,7.5401993-1.7753906c-1.2403946,6.3041992-1.3512955,11.9009399-1.3512955,17.1132813
				c0,0.4458008,0.3615952,0.8071289,0.8070984,0.8071289c0.4458008,0,0.8073959-0.3613281,0.8073959-0.8071289
				c0-5.4946899,0.1229019-11.4203491,1.5955048-18.1244507c0.0053024-0.0240479,0.0053024-0.0474243,0.0084991-0.0713501
				c4.5454025-3.0439453,7.544899-8.2250977,7.544899-14.0947876v-4.4096069
				c5.0225067-7.171875,12.2745056-12.6786499,21.5556946-16.3666992c0.0127106-0.0053711,0.023407-0.0131836,0.0355072-0.0185547
				c3.4423981,3.0214844,5.8305969,5.0083008,6.1479034,5.2714844c0.3419952,0.284668,0.8522949,0.2368164,1.1362-0.1063843
				c0.28479-0.3433228,0.2368927-0.8521118-0.1062012-1.1362915c-0.2671051-0.2216187-26.8140106-22.3081055-35.3512039-35.8662109
				c-5.6543961-8.980896-3.9606018-20.0820313,0.0062027-26.5971069c0.8699036-1.4282837,2.0108948-2.3013306,3.3898926-2.5942993
				c1.420105-0.3041992,3.0435028,0.0507813,4.338501,0.9462891c15.1976013,10.5023804,54.7411041,47.3383789,55.1386108,47.7084961
				c0.0145874,0.0136719,0.0296936,0.0272827,0.0455933,0.039978c5.4506073,4.3687134,8.0289001,11.3389282,6.7292938,18.1918945
				c-2.4853973,13.1040039-9.698288,37.1368408-30.0788879,50.8633423
				c-0.3699036,0.2495117-0.4676056,0.7504883-0.2185059,1.1206055c0.1560059,0.2315063,0.4109039,0.3565063,0.6699982,0.3565063
				c0.1556091,0,0.3121948-0.0450439,0.4504089-0.1376953c7.259491-4.8892212,12.8811951-11.0440063,17.2372894-17.5518188
				v67.7393188H95.32724V669.210022c4.2882004,4.039978,9.3358002,7.3623047,14.9980011,9.7279663
				c0.1012955,0.0425415,0.2070007,0.0625,0.3105011,0.0625c0.3157959,0,0.6159973-0.1864624,0.7451935-0.4960938
				c0.1718063-0.4116211-0.0220947-0.8837891-0.4337006-1.0556641
				C93.0957413,669.9901733,81.5187149,652.7446289,81.3431396,633.4296875z M134.0756378,609.7266235v-34.5541992
				c6.4445953,7.1444702,14.4788055,14.5755615,20.2469025,19.6869507
				C145.8579407,598.3447266,139.059433,603.3374023,134.0756378,609.7266235z M89.407341,735.3319702v-29.4242554h101.7145004
				v29.4242554H89.407341z"/>
		</g>
	</g>
</g>
</svg>
