<svg id="Layer_1" data-name="Layer 1" xmlns="http://www.w3.org/2000/svg" viewBox="0 0 96 120">
  <title>swipes-workspace-illustrations-emptystate-subtasks</title>
  <g>
    <rect x="1" y="5" width="94" height="114" rx="4" ry="4" fill="#fff" stroke="#9bdffd" stroke-linecap="round" stroke-linejoin="round" stroke-width="2"/>
    <rect x="8" y="12" width="80" height="100" fill="#fff" stroke="#9bdffd" stroke-linecap="round" stroke-linejoin="round" stroke-width="2"/>
    <path d="M29,1H67a0,0,0,0,1,0,0V11A10,10,0,0,1,57,21H39A10,10,0,0,1,29,11V1A0,0,0,0,1,29,1Z" fill="#fff" stroke="#9bdffd" stroke-linecap="round" stroke-linejoin="round" stroke-width="2"/>
    <g>
      <rect x="21" y="35" width="8" height="8" fill="#fff"/>
      <path d="M5455,3408v6h-6v-6h6m2-2h-10v10h10v-10h0Z" transform="translate(-5427 -3372)" fill="#fd9078"/>
    </g>
    <g>
      <rect x="21" y="57" width="8" height="8" fill="#fff"/>
      <path d="M5455,3430v6h-6v-6h6m2-2h-10v10h10v-10h0Z" transform="translate(-5427 -3372)" fill="#fd9078"/>
    </g>
    <g>
      <rect x="21" y="79" width="8" height="8" fill="#fff"/>
      <path d="M5455,3452v6h-6v-6h6m2-2h-10v10h10v-10h0Z" transform="translate(-5427 -3372)" fill="#fd9078"/>
    </g>
    <line x1="76" y1="83" x2="42" y2="83" fill="#fff" stroke="#9bdffd" stroke-linecap="round" stroke-linejoin="round" stroke-width="2"/>
    <line x1="76" y1="61" x2="42" y2="61" fill="#fff" stroke="#9bdffd" stroke-linecap="round" stroke-linejoin="round" stroke-width="2"/>
    <line x1="76" y1="39" x2="42" y2="39" fill="#fff" stroke="#9bdffd" stroke-linecap="round" stroke-linejoin="round" stroke-width="2"/>
    <circle cx="48" cy="11" r="3" fill="#fff" stroke="#9bdffd" stroke-linecap="round" stroke-linejoin="round" stroke-width="2"/>
  </g>
</svg>
