<svg id="Layer_1" data-name="Layer 1" xmlns="http://www.w3.org/2000/svg" viewBox="0 0 138 74">
  <title>swipes-workspace-illustrations-emptystate-pickteam</title>
  <g>
    <path d="M6120.12988,3437.999a12.00011,12.00011,0,0,0-.12891-23.99951c-0.04395,0-.08691.00049-0.13086,0.001A12,12,0,1,0,6120.12988,3437.999Z" transform="translate(-6010 -3400)" fill="none"/>
    <path d="M6079,3436a17,17,0,1,0-17-17A17.019,17.019,0,0,0,6079,3436Z" transform="translate(-6010 -3400)" fill="none"/>
    <path d="M6037.87012,3437.999c0.04394,0.00049.08887,0.001,0.13379,0.001a12.00011,12.00011,0,0,0,.126-23.99951c-0.04394-.00049-0.08789-0.001-0.13086-0.001A12.00011,12.00011,0,0,0,6037.87012,3437.999Z" transform="translate(-6010 -3400)" fill="none"/>
    <path d="M6037.84863,3439.999c0.05176,0.00049.10352,0.001,0.15527,0.001a14.00017,14.00017,0,0,0,.14746-27.99951c-0.05176-.00049-0.10156-0.001-0.15234-0.001A14.00017,14.00017,0,0,0,6037.84863,3439.999Zm0.15039-25.99951c0.043,0,.08691.00049,0.13086,0.001a12.00011,12.00011,0,0,1-.126,23.99951c-0.04492,0-.08984-0.00049-0.13379-0.001A12.00011,12.00011,0,0,1,6037.999,3413.99951Z" transform="translate(-6010 -3400)" fill="#9bdffd"/>
    <path d="M6046.02,3467.004c-0.00684-.00012-0.0127-0.004-0.02-0.004h-34v-3.36182c0-9.97021,2.53906-15.87207,8.49121-19.7334a0.99979,0.99979,0,1,0-1.08789-1.67773c-8.28613,5.37549-9.40332,13.83984-9.40332,21.41113V3468a0.99974,0.99974,0,0,0,1,1h35v-0.36182Q6046,3467.82556,6046.02,3467.004Z" transform="translate(-6010 -3400)" fill="#9bdffd"/>
    <path d="M6119.99609,3440c0.05176,0,.10351-0.00049.15527-0.001a14.00017,14.00017,0,0,0-.15039-27.99951c-0.05078,0-.10156.00049-0.15234,0.001A14.00017,14.00017,0,0,0,6119.99609,3440Zm-8.57227-22.39356a11.92044,11.92044,0,0,1,8.44629-3.606c0.04394-.00049.08691-0.001,0.13086-0.001A12.0001,12.0001,0,1,1,6111.42383,3417.60645Z" transform="translate(-6010 -3400)" fill="#9bdffd"/>
    <path d="M6138.59668,3442.22705a0.99979,0.99979,0,1,0-1.08789,1.67773c5.95215,3.86133,8.49121,9.76318,8.49121,19.7334V3467h-34c-0.00732,0-.01318.00391-0.02,0.004q0.02124,0.82086.02,1.63416V3469h35a0.99974,0.99974,0,0,0,1-1v-4.36182C6148,3456.0669,6146.88281,3447.60254,6138.59668,3442.22705Z" transform="translate(-6010 -3400)" fill="#9bdffd"/>
    <path d="M6111.98,3467.004c-0.21191-8.27356-2.25732-17.02173-13.106-21.76282a1.00015,1.00015,0,0,0-.80078,1.833c10.48145,4.58057,11.92676,13.0708,11.92676,21.564V3472h-62v-3.36182c0-8.49365,1.44531-16.98437,11.92676-21.564a1.00015,1.00015,0,0,0-.80078-1.833c-10.84912,4.74023-12.894,13.48834-13.106,21.76282q-0.02124.82077-.02,1.63416V3473a0.99974,0.99974,0,0,0,1,1h64a0.99974,0.99974,0,0,0,1-1v-4.36182Q6112,3467.82556,6111.98,3467.004Z" transform="translate(-6010 -3400)" fill="#fd9078"/>
    <path d="M6079,3438a19,19,0,1,0-19-19A19.02161,19.02161,0,0,0,6079,3438Zm0-36a17,17,0,1,1-17,17A17.019,17.019,0,0,1,6079,3402Z" transform="translate(-6010 -3400)" fill="#fd9078"/>
  </g>
</svg>
