<svg xmlns="http://www.w3.org/2000/svg" viewBox="0 0 113.44451 121.96516">
  <path d="M113.44061,95.603a28.93636,28.93636,0,0,0-2.137-10.214c-.986-2.516-2.131-4.966-3.249-7.425q-13.344-29.0865-28.003-57.54c-1.374-2.65-2.719-5.316-4.17-7.925a28.08532,28.08532,0,0,0-5.235-6.987A20.44029,20.44029,0,0,0,57.89463,0h-2.174a20.355,20.355,0,0,0-13.094,5.68,28.3608,28.3608,0,0,0-5.06,6.826c-1.432,2.566-2.758,5.19-4.106,7.798q-9.8355,19.086-19.084,38.464c-3.676,7.73-7.321,15.473-10.827,23.279a38.02339,38.02339,0,0,0-3.264,10.165,25.95049,25.95049,0,0,0,15.332,27.587,26.43447,26.43447,0,0,0,11.983,2.121,32.86036,32.86036,0,0,0,15.409-5.136,67.313,67.313,0,0,0,13.722-11.822,69.22971,69.22971,0,0,0,12.667,11.16,33.89468,33.89468,0,0,0,15.268,5.704,26.02106,26.02106,0,0,0,26.937-16.228A25.81424,25.81424,0,0,0,113.44061,95.603Zm-56.684-2.312c-1.495-1.76-2.812-3.664-4.135-5.554a68.07059,68.07059,0,0,1-5.878-10.284,33.77075,33.77075,0,0,1-2.823-9.395,16.21994,16.21994,0,0,1,.718-7.745,11.41476,11.41476,0,0,1,4.554-5.619,14.12125,14.12125,0,0,1,16.431,1.022,11.93957,11.93957,0,0,1,3.953,7.704,24.82865,24.82865,0,0,1-1.799,11.431C65.21161,81.587,61.14962,87.625,56.75661,93.291Zm48.393,8.255a18.32531,18.32531,0,0,1-8.631,10.816,18.84086,18.84086,0,0,1-12.201,2.067c-5.275-.821-10.008-3.62-14.109-6.924a74.8784,74.8784,0,0,1-8.328-8.043A95.93316,95.93316,0,0,0,72.80661,82.9c2.578-5.2,4.537-10.834,4.723-16.681a21.93,21.93,0,0,0-2.326-10.791,19.808,19.808,0,0,0-10.994-9.443,22.50149,22.50149,0,0,0-13.633-.428,19.74938,19.74938,0,0,0-14.561,17.766c-.469,5.463.9,10.913,2.971,15.935a84.17715,84.17715,0,0,0,12.589,20.141,68.79035,68.79035,0,0,1-7.306,7.26c-4.052,3.429-8.688,6.414-13.94,7.55a19.12553,19.12553,0,0,1-12.721-1.491,18.28874,18.28874,0,0,1-9.384-11.475,18.86891,18.86891,0,0,1,.415-11.059c.999-2.93,2.354-5.722,3.622-8.541Q25.4571,52.87,39.9506,24.716c1.44-2.793,2.858-5.599,4.382-8.346a18.74363,18.74363,0,0,1,4.736-5.94,12.65141,12.65141,0,0,1,15.695.295,21.87008,21.87008,0,0,1,4.966,6.743c2.984,5.605,5.85,11.275,8.717,16.939q12.27,24.294,23.582,49.054a59.3707,59.3707,0,0,1,3.125,7.814A18.778,18.778,0,0,1,105.14961,101.546Z" fill="#ff7977"/>
</svg>
