<svg xmlns="http://www.w3.org/2000/svg" viewBox="0 0 30 30">
  <g>
    <rect stroke="none" opacity="0"/>
    <path d="M10,8.43359h4.88281a9.06456,9.06456,0,0,1,2.47949.28516,4.08722,4.08722,0,0,1,1.54834.7793,2.58636,2.58636,0,0,1,.78857,1.15918,4.605,4.605,0,0,1,.21875,1.44336,3.38265,3.38265,0,0,1-.34229,1.501,2.78838,2.78838,0,0,1-1.292,1.19727,4.98466,4.98466,0,0,1,.99756.6748,2.89154,2.89154,0,0,1,.60791.75,2.93264,2.93264,0,0,1,.3042.81738,4.1519,4.1519,0,0,1,.08545.83594,5.02036,5.02036,0,0,1-.25635,1.61523,3.10829,3.10829,0,0,1-.855,1.31055,4.26216,4.26216,0,0,1-1.56787.874A7.63485,7.63485,0,0,1,15.20557,22H10Zm5.20557,5.377a2.17018,2.17018,0,0,0,1.53906-.418,1.6166,1.6166,0,0,0,.418-1.19629,1.30616,1.30616,0,0,0-.5415-1.1875,3.53008,3.53008,0,0,0-1.8335-.35156H12.73584v3.15332Zm-.09473,5.9668a4.32252,4.32252,0,0,0,1.16846-.13379,1.864,1.864,0,0,0,.75049-.38867,1.39142,1.39142,0,0,0,.39893-.59863,2.455,2.455,0,0,0,.11426-.7793,1.76085,1.76085,0,0,0-.4751-1.33008,2.40293,2.40293,0,0,0-1.67187-.45605H12.73584v3.68652Z" stroke="none"/>
  </g>
</svg>
