<svg xmlns="http://www.w3.org/2000/svg" viewBox="0 0 30 30">
  <g>
    <rect stroke="none" opacity="0"/>
    <path d="M10.13672,22V7.78125h4.873a8.56263,8.56263,0,0,1,2.07031.22949,4.37088,4.37088,0,0,1,1.55273.69824,3.06056,3.06056,0,0,1,.97168,1.19629,4.07074,4.07074,0,0,1,.33691,1.72363,3.07008,3.07008,0,0,1-.52734,1.75781,3.39187,3.39187,0,0,1-1.543,1.21094,3.39888,3.39888,0,0,1,1.06934.4834,2.98833,2.98833,0,0,1,.752.74707,3.15971,3.15971,0,0,1,.44434.94727,3.92647,3.92647,0,0,1,.14648,1.07422,4.49293,4.49293,0,0,1-.33691,1.80176,3.39591,3.39591,0,0,1-.97656,1.29883,4.30823,4.30823,0,0,1-1.55273.78613A7.44822,7.44822,0,0,1,15.35156,22Zm2.4707-8.23242H15.0293a2.801,2.801,0,0,0,1.80176-.52246,1.78929,1.78929,0,0,0,.64941-1.47949,1.81457,1.81457,0,0,0-.60059-1.52344,3.03312,3.03312,0,0,0-1.87012-.46875H12.60742Zm0,1.81641v4.44336h2.74414a3.34375,3.34375,0,0,0,1.06934-.15625,2.1302,2.1302,0,0,0,.77637-.44434,1.821,1.821,0,0,0,.46875-.68848,2.42821,2.42821,0,0,0,.15625-.88867,2.35945,2.35945,0,0,0-.55664-1.66016A2.35326,2.35326,0,0,0,15.459,15.584Z" stroke="none"/>
  </g>
</svg>
