<svg xmlns="http://www.w3.org/2000/svg" viewBox="0 0 30 30">
  <g>
    <rect width="30" height="30" fill="none"/>
    <polygon points="14.35 18.962 10.4 16 11.6 14.4 14.051 16.238 18.241 11.349 19.759 12.651 14.35 18.962" stroke="none"/>
    <path d="M20,8a2.0001,2.0001,0,0,1,2,2V20a2.0001,2.0001,0,0,1-2,2H10a2.0001,2.0001,0,0,1-2-2V10a2.0001,2.0001,0,0,1,2-2H20m0-2H10a4.00458,4.00458,0,0,0-4,4V20a4.00458,4.00458,0,0,0,4,4H20a4.00458,4.00458,0,0,0,4-4V10a4.00458,4.00458,0,0,0-4-4Z" stroke="none"/>
  </g>
</svg>
