<svg xmlns="http://www.w3.org/2000/svg" viewBox="0 0 30 30">
  <g>
    <polygon points="14.603 16 12.087 14.366 10.997 16.043 15.191 18.767 19.003 12.896 17.326 11.807 14.603 16" stroke="transparent" fill-rule="evenodd"/>
    <path d="M20,8a2.00073,2.00073,0,0,1,2,2V20a2.00073,2.00073,0,0,1-2,2H10a2.00073,2.00073,0,0,1-2-2V10a2.00073,2.00073,0,0,1,2-2H20m0-2H10a4.004,4.004,0,0,0-4,4V20a4.004,4.004,0,0,0,4,4H20a4.004,4.004,0,0,0,4-4V10a4.004,4.004,0,0,0-4-4" stroke="transparent" fill-rule="evenodd"/>
  </g>
</svg>
