
<svg viewBox="0 0 24 24" version="1.1" xmlns="http://www.w3.org/2000/svg" xmlns:xlink="http://www.w3.org/1999/xlink">
    <g transform="translate(3.000000, 5.000000)" stroke="transparent">
        <path d="M4,6.0005 L4,5.9995 C4,5.4475 4.447,5.0005 4.999,5.0005 C5.552,5.0005 5.999,5.4475 5.999,5.9995 L5.999,6.0005 C5.999,6.5525 5.552,7.0005 4.999,7.0005 C4.447,7.0005 4,6.5525 4,6.0005"></path>
        <path d="M8,6.0005 L8,5.9995 C8,5.4475 8.447,5.0005 8.999,5.0005 C9.552,5.0005 9.999,5.4475 9.999,5.9995 L9.999,6.0005 C9.999,6.5525 9.552,7.0005 8.999,7.0005 C8.447,7.0005 8,6.5525 8,6.0005"></path>
        <path d="M12,6.0007 L12,5.9997 C12,5.4477 12.447,4.9997 13,4.9997 C13.553,4.9997 14,5.4477 14,5.9997 L14,6.0007 C14,6.5527 13.553,7.0007 13,7.0007 C12.447,7.0007 12,6.5527 12,6.0007"></path>
        <path d="M12,0 L6,0 C2.687,0 0,2.687 0,6 C0,8.118 1.101,9.976 2.758,11.044 L1,15 L13.203,11.879 L13.648,11.765 C16.16,11.048 18,8.741 18,6 C18,2.687 15.313,0 12,0 M12,1 C14.757,1 17,3.243 17,6 C17,8.219 15.509,10.194 13.401,10.796 L12.955,10.91 L2.752,13.52 L3.672,11.45 L4.02,10.667 L3.3,10.203 C1.859,9.275 1,7.704 1,6 C1,3.243 3.243,1 6,1 L12,1"></path>
    </g>
</svg>