<svg xmlns="http://www.w3.org/2000/svg" viewBox="0 0 24 24">
  <g>
    <rect fill="none" stroke="none"/>
    <g>
      <path d="M21.636,10.3594A10.0013,10.0013,0,1,0,4.4571,19.5518l1.4172-1.4161a8.026,8.026,0,0,1-1.1567-1.8422,7.98952,7.98952,0,1,1,13.417,1.8325l1.4162,1.417a9.90937,9.90937,0,0,0,2.0852-9.1836Z" stroke="none"/>
      <polygon points="11.013 10 11 10 11 10.014 6.503 14.508 8.004 16 11.004 13 11.004 21 13.004 21 13.004 13 16.004 16 17.502 14.492 12.014 9 11.013 10" stroke="none"/>
    </g>
  </g>
</svg>
