<svg xmlns="http://www.w3.org/2000/svg" viewBox="0 0 48 48">
  <title>Asset 103</title>
  <g>
    <rect width="48" height="48" fill="none" stroke="none"/>
    <g>
      <rect y="37" width="48" height="2" stroke="none"/>
      <path d="M9.62012,35H38.37988A4.62558,4.62558,0,0,0,43,30.37988V14.62012A4.62558,4.62558,0,0,0,38.37988,10H9.62012A4.62558,4.62558,0,0,0,5,14.62012V30.37988A4.62558,4.62558,0,0,0,9.62012,35ZM7,14.62012A2.62015,2.62015,0,0,1,9.62012,12H38.37988A2.61984,2.61984,0,0,1,41,14.62012V30.37988A2.61984,2.61984,0,0,1,38.37988,33H9.62012A2.62015,2.62015,0,0,1,7,30.37988Z" stroke="none"/>
    </g>
  </g>
</svg>
