<svg xmlns="http://www.w3.org/2000/svg" viewBox="0 0 48 48">
  <title>Asset 105</title>
  <g>
    <rect width="48" height="48" fill="none" stroke="none"/>
    <g>
      <path d="M40,31.05859V35a2.0001,2.0001,0,0,1-2,2H10a2.0001,2.0001,0,0,1-2-2V27H6v8a4.00458,4.00458,0,0,0,4,4H38a4.00458,4.00458,0,0,0,4-4V27H40Z" stroke="none"/>
      <polygon points="33.707 19.293 32.293 17.879 25 25.167 25 9.586 23 9.586 23 25.176 15.707 17.879 14.293 19.293 23.995 29 33.707 19.293" stroke="none"/>
    </g>
  </g>
</svg>
