<svg xmlns="http://www.w3.org/2000/svg" viewBox="0 0 24 24">
  <g>
    <rect stroke="none" opacity="0"/>
    <path d="M12,1A11,11,0,1,0,23,12,10.99991,10.99991,0,0,0,12,1Zm8.9409,10H15.9817a20.71469,20.71469,0,0,0-1.5149-7.6479A9.0152,9.0152,0,0,1,20.9409,11ZM10.0312,13h3.9375c-.1562,4.5195-1.3095,7.2144-1.9687,7.8931C11.3408,20.2144,10.1875,17.5195,10.0312,13Zm0-2C10.1875,6.4805,11.3408,3.7856,12,3.1069c.6592.6787,1.8125,3.3736,1.9687,7.8931Zm-.498-7.6479A20.71469,20.71469,0,0,0,8.0183,11H3.0591A9.0152,9.0152,0,0,1,9.5332,3.3521ZM3.0591,13H8.0183a20.71469,20.71469,0,0,0,1.5149,7.6479A9.0152,9.0152,0,0,1,3.0591,13Zm11.4077,7.6479A20.71469,20.71469,0,0,0,15.9817,13h4.9592A9.0152,9.0152,0,0,1,14.4668,20.6479Z" stroke="none"/>
  </g>
</svg>
