<svg xmlns="http://www.w3.org/2000/svg" viewBox="0 0 24 24">
  <g>
    <rect stroke="none" opacity="0"/>
     <path d="M12,2A10,10,0,1,0,22,12,10,10,0,0,0,12,2Zm7.93066,9H15.98c-.07275-1.86523-.39551-4.89746-1.61865-6.64355A8.01853,8.01853,0,0,1,19.93066,11ZM12,19c-1.00732,0-1.83838-2.60889-1.97729-6h3.95459C13.83838,16.39111,13.00732,19,12,19Zm-1.97729-8c.13892-3.39111.97-6,1.97729-6s1.83838,2.60889,1.97729,6Zm-.384-6.64355C8.41553,6.10254,8.09277,9.13477,8.02,11H4.06934A8.01853,8.01853,0,0,1,9.63867,4.35645ZM4.06934,13H8.02c.07275,1.86523.39551,4.89746,1.61865,6.64355A8.0179,8.0179,0,0,1,4.06934,13Zm10.292,6.64355C15.58447,17.89746,15.90723,14.86523,15.98,13h3.95068A8.0179,8.0179,0,0,1,14.36133,19.64355Z" stroke="none"/>
   </g>
</svg>
