<svg xmlns="http://www.w3.org/2000/svg" viewBox="0 0 48 48">
  <title>Asset 104</title>
  <g>
    <rect width="48" height="48" fill="none" stroke="none"/>
    <path d="M24,7A17,17,0,1,0,41,24,17.00022,17.00022,0,0,0,24,7ZM38.94922,23H30.9834c-.11279-5.18652-1.10352-10.45605-3.08057-13.4668A15.00832,15.00832,0,0,1,38.94922,23ZM24,39c-2.64941,0-4.811-6.18408-4.9834-14h9.9668C28.811,32.81592,26.64844,39,24,39ZM19.0166,23C19.189,15.18408,21.35059,9,24,9c2.64844,0,4.811,6.18408,4.9834,14ZM20.09717,9.5332C18.12012,12.54395,17.12939,17.81348,17.0166,23H9.05078A15.00832,15.00832,0,0,1,20.09717,9.5332ZM9.05078,25H17.0166c.11279,5.18652,1.10352,10.45605,3.08057,13.4668A15.00832,15.00832,0,0,1,9.05078,25ZM27.90283,38.4668C29.87988,35.45605,30.87061,30.18652,30.9834,25h7.96582A15.00832,15.00832,0,0,1,27.90283,38.4668Z" stroke="none"/>
  </g>
</svg>
