<svg xmlns="http://www.w3.org/2000/svg" viewBox="0 0 24 24">
  <g>
    <path d="M11.5,10.7666a3.046,3.046,0,0,0-3-3,3.49986,3.49986,0,0,0-3.5,3.5A5.74521,5.74521,0,0,0,10.42212,17l.4353-1.30615a3.0256,3.0256,0,0,1-2.1792-1.94531A2.9915,2.9915,0,0,0,11.5,10.7666Z" stroke="transparent" />
    <path d="M16.7168,14.69189a2.969,2.969,0,0,1-.53857-.94336A2.99389,2.99389,0,0,0,16,7.7666a3.49986,3.49986,0,0,0-3.5,3.5A5.74521,5.74521,0,0,0,17.92212,17l.4353-1.30615A2.98291,2.98291,0,0,1,16.7168,14.69189Z" stroke="transparent" />
  </g>
</svg>
