<svg xmlns="http://www.w3.org/2000/svg" xmlns:xlink="http://www.w3.org/1999/xlink" viewBox="0 0 24 24">
  <defs>
    <linearGradient id="a" x1="2.99985" y1="13.07361" x2="16.63062" y2="13.07361" gradientUnits="userSpaceOnUse">
      <stop offset="0" stop-color="#f5f2e9"/>
      <stop offset="1" stop-color="#e6e2d1"/>
    </linearGradient>
  </defs>
  <title>Asset 139</title>
  <g>
    <rect width="24" height="24" fill="none"/>
    <g>
      <path d="M19.39114,6.83995H4.60841A1.61348,1.61348,0,0,0,2.99985,8.44884v9.25a1.61342,1.61342,0,0,0,1.60857,1.6084H19.39114a1.61354,1.61354,0,0,0,1.60871-1.6084v-9.25A1.61359,1.61359,0,0,0,19.39114,6.83995Z" fill="url(#a)"/>
      <polygon points="11.933 15.51 5.232 19.138 5.243 19.307 12.011 15.659 11.933 15.51" fill="#b8b6b2"/>
      <path d="M19.53062,8.99881l-4.29669,2.68546L12.0111,15.65906l6.55279,3.64821h.82725a1.61114,1.61114,0,0,0,1.39324-.80944l-1.25377-3.6981Z" fill="#b8b6b2"/>
      <path d="M12.0111,15.65906l8.98875-6.95933V8.44884a1.61359,1.61359,0,0,0-1.60871-1.60889h-.35792L12.2256,12.65106,5.143,6.83995h-.5346A1.61348,1.61348,0,0,0,2.99985,8.44884v9.25a1.61342,1.61342,0,0,0,1.60857,1.6084h.6344V10.28751Z" fill="#ff4a3d"/>
      <path d="M20.99985,17.69887V8.69973l-2.436,1.886v8.72153h.82725A1.61354,1.61354,0,0,0,20.99985,17.69887Z" fill="#c02c20"/>
    </g>
  </g>
</svg>
