<svg xmlns="http://www.w3.org/2000/svg" viewBox="0 0 24 24">
  <g>
    <rect width="24" height="24" fill="none" stroke="none"/>
    <path d="M14.09765,9.0608a.55094.55094,0,0,0-.6123-.6121h-2.9707a.55094.55094,0,0,0-.6123.6121v6.9863a.55094.55094,0,0,0,.6123.6121h2.9707a.55094.55094,0,0,0,.6123-.6121V14.1203h-2.377V11.7798h4.9698V16.551a2.43832,2.43832,0,0,1-2.5567,2.5569H9.86615a2.43878,2.43878,0,0,1-2.5566-2.5569V8.5569A2.43878,2.43878,0,0,1,9.86615,6h4.2676a2.43832,2.43832,0,0,1,2.5567,2.5569v1.6923h-2.5928Z" stroke="none"/>
  </g>
</svg>
