<svg xmlns="http://www.w3.org/2000/svg" viewBox="0 0 30 30">
  <g>
    <rect stroke="none" opacity="0"/>
    <g>
      <path d="M7,9.645H9.23486v4.13965H13.48V9.645h2.23486v10.71H13.48v-4.5H9.23486v4.5H7Z" stroke="none"/>
      <path d="M19.28223,19.09521q.51563-.45557,1.02-.87012.50391-.41455,1.02-.87012.50391-.44385.88184-.80371A5.738,5.738,0,0,0,22.834,15.855a2.75668,2.75668,0,0,0,.37793-.666,2.018,2.018,0,0,0,.126-.72559,1.22444,1.22444,0,0,0-.29395-.84668,1.01517,1.01517,0,0,0-.79785-.33008,1.48365,1.48365,0,0,0-.94189.27051,1.76566,1.76566,0,0,0-.51025,1.02539l-1.63184-.19141a4.89065,4.89065,0,0,1,.312-.97852,2.66339,2.66339,0,0,1,.55811-.81543,2.487,2.487,0,0,1,.894-.55859,3.79648,3.79648,0,0,1,1.33154-.20312,2.95525,2.95525,0,0,1,2.1123.68359,2.44392,2.44392,0,0,1,.71973,1.86035,3.26729,3.26729,0,0,1-.126.92969,3.43307,3.43307,0,0,1-.37793.834,5.16208,5.16208,0,0,1-.64209.82227q-.38965.41309-.92969.89355-.28784.24023-.582.48047-.29443.24023-.62988.55176H25.21L25.03027,20.355h-5.748Z" stroke="none"/>
    </g>
  </g>
</svg>
