<svg xmlns="http://www.w3.org/2000/svg" viewBox="0 0 30 30">
  <g>
    <path d="M14.54321,22H12.48289V17.71427H8.46531V22H6.40455V12H8.46531v4.05223h4.01759V12h2.06031Z" stroke="none"/>
    <path d="M24.96436,22H18.14209V20.64648l3.21973-3.43164q.36255-.39642.61182-.72461a5.30065,5.30065,0,0,0,.40332-.60156,2.30524,2.30524,0,0,0,.21875-.50928,1.70362,1.70362,0,0,0,.06494-.45459,1.5212,1.5212,0,0,0-.335-1.04248,1.20911,1.20911,0,0,0-.957-.37939,1.44446,1.44446,0,0,0-.61865.12646,1.264,1.264,0,0,0-.45117.34863,1.569,1.569,0,0,0-.27686.52979,2.24045,2.24045,0,0,0-.0957.66992H17.94385a3.35343,3.35343,0,0,1,.23926-1.26465,3.03119,3.03119,0,0,1,.69043-1.03906,3.30778,3.30778,0,0,1,1.09033-.7041,3.79425,3.79425,0,0,1,1.439-.25977,4.539,4.539,0,0,1,1.39111.19482,2.81421,2.81421,0,0,1,1.01514.55713,2.3249,2.3249,0,0,1,.62207.88867,3.14563,3.14563,0,0,1,.21191,1.18262,2.98281,2.98281,0,0,1-.15723.96387,4.547,4.547,0,0,1-.44434.92969,7.57968,7.57968,0,0,1-.69385.93994q-.40649.47516-.90576.98779l-1.75684,1.85254h4.2793Z" stroke="none"/>
  </g>
</svg>
