<svg xmlns="http://www.w3.org/2000/svg" viewBox="0 0 30 30">
  <g>
    <polygon points="13.139 22.219 11.079 22.219 11.079 17.933 7.061 17.933 7.061 22.219 5 22.219 5 12.219 7.061 12.219 7.061 16.271 11.079 16.271 11.079 12.219 13.139 12.219 13.139 22.219" stroke="transparent" fill-rule="evenodd"/>
    <path d="M24.021,22.219H17.199V20.865l3.219-3.431q.363-.396.612-.725a5.3646,5.3646,0,0,0,.404-.601,2.30792,2.30792,0,0,0,.218-.51,1.67583,1.67583,0,0,0,.065-.454,1.52354,1.52354,0,0,0-.335-1.043,1.20777,1.20777,0,0,0-.957-.379,1.44551,1.44551,0,0,0-.618.126,1.27229,1.27229,0,0,0-.452.349,1.57924,1.57924,0,0,0-.276.53,2.237,2.237,0,0,0-.096.67H17a3.34939,3.34939,0,0,1,.24-1.265,3.01927,3.01927,0,0,1,.69-1.039,3.30419,3.30419,0,0,1,1.091-.704,3.79082,3.79082,0,0,1,1.438-.26,4.54389,4.54389,0,0,1,1.392.195,2.82947,2.82947,0,0,1,1.015.557,2.33132,2.33132,0,0,1,.622.889,3.14678,3.14678,0,0,1,.212,1.182,2.98361,2.98361,0,0,1-.158.964,4.47022,4.47022,0,0,1-.444.93,7.56293,7.56293,0,0,1-.694.94q-.40652.4755-.905.988l-1.757,1.852h4.279Z" stroke="transparent" fill-rule="evenodd"/>
  </g>
</svg>
