<svg viewBox="0 0 24 24" version="1.1" xmlns="http://www.w3.org/2000/svg" xmlns:xlink="http://www.w3.org/1999/xlink">
  <path d="M12.0070119,20.2810282 L19.1670045,12.8754542 C19.2293799,12.8163512 19.2935346,12.7499024 19.369626,12.6664086 L19.3709997,12.6649073 C20.0943498,11.8776466 20.5,10.8699269 20.5,9.8 C20.5,9.57591394 20.4774861,9.34302456 20.4335959,9.08473467 C20.0801167,7.02910421 18.2525244,5.5 16.0909091,5.5 C14.5926658,5.5 13.2248247,6.23404936 12.4137614,7.42951605 L12.0001925,8.03909589 L11.58636,7.42969496 C10.7744359,6.23407268 9.40655139,5.5 7.90909091,5.5 C5.74676867,5.5 3.91908316,7.02899957 3.5657518,9.08376424 C3.52227699,9.33960364 3.5,9.57375959 3.5,9.8 C3.5,10.870918 3.90558685,11.8791407 4.63017316,12.6661883 C4.71816756,12.7626276 4.77515089,12.822069 4.85066862,12.8937055 L12.0070119,20.2810282 Z"></path>
</svg>