<svg xmlns="http://www.w3.org/2000/svg" viewBox="0 0 24 24">
  <rect x="9" y="12" width="6" height="1" stroke="transparent"/>
  <path d="M10,16H9.5a3.44634,3.44634,0,0,1-1.1649-.2178,3.47434,3.47434,0,0,1-.0003-6.5644A3.44929,3.44929,0,0,1,9.5,9H11V8H9.5a4.50029,4.50029,0,0,0,0,9H11V16Z" stroke="transparent"/>
  <path d="M16,8.2754A4.459,4.459,0,0,0,14.5,8H13V9h1.5a3.44634,3.44634,0,0,1,1.1649.2178,3.47434,3.47434,0,0,1,.0003,6.5644A3.44929,3.44929,0,0,1,14.5,16H13v1h1.5A4.48944,4.48944,0,0,0,16,8.2754Z" stroke="transparent"/>
</svg>
