<svg xmlns="http://www.w3.org/2000/svg" viewBox="0 0 24 24">
  <g id="Layer_2" data-name="Layer 2">
  <g id="Layer_1-2" data-name="Layer 1">
  <rect width="24" height="24" transform="translate(24) rotate(90)" style="fill:none"/>
  <path d="M7,10.0006V9.9998a.99934.99934,0,0,1,.9994-.9994h0a.99934.99934,0,0,1,.9994.9994v.0008A.9994.9994,0,0,1,7.9994,11h0A.9994.9994,0,0,1,7,10.0006Z" stroke="transparent"/><path d="M11.99965,9.00025h.0009a.9999.9999,0,0,1,.9999.9999v0a1,1,0,0,1-1,1h-.0009a.9999.9999,0,0,1-.9999-.9999v0A1,1,0,0,1,11.99965,9.00025Z" transform="translate(22.00025 -1.99985) rotate(90)" stroke="transparent"/>
  <path d="M15,10.0008V10a1,1,0,0,1,1-1h0a1,1,0,0,1,1,1v.0008a1,1,0,0,1-1,1h0A1,1,0,0,1,15,10.0008Z" stroke="transparent"/>
  <path d="M15,2H9A7.99055,7.99055,0,0,0,4.2979,16.458L.9004,21.7969l15.208-3.8828,1.7119-.4375A7.99422,7.99422,0,0,0,15,2Zm2.5518,14.5132-1.6592.4238L11.7285,18,3.0996,20.2031,5.1377,17.001l.5352-.8413a6.91418,6.91418,0,0,1-.8389-.544A6.99359,6.99359,0,0,1,9,3h6a6.997,6.997,0,0,1,2.5518,13.5132Z" stroke="transparent"/>
  </g>
  </g>
</svg>
