<svg xmlns="http://www.w3.org/2000/svg" viewBox="0 0 24 24">
  <title>Asset 137</title>
  <g>
    <rect width="24" height="24" fill="none"/>
    <g>
      <g>
        <g>
          <path d="M7.69213,3.19737A1.31253,1.31253,0,1,0,9.00339,4.50984,1.31065,1.31065,0,0,0,7.69213,3.19737Z" fill="#205081"/>
          <path d="M16.307,3.19737a1.31253,1.31253,0,1,0,1.311,1.31247,1.31,1.31,0,0,0-1.311-1.31247Z" fill="#205081"/>
        </g>
        <path d="M11.99953,2a1.31265,1.31265,0,1,0,1.311,1.31247A1.3105,1.3105,0,0,0,11.99953,2Z" fill="#205081"/>
      </g>
      <g>
        <path d="M19.40683,6.85444a.41046.41046,0,0,0-.39615-.057,20.22452,20.22452,0,0,1-2.6124.789.51323.51323,0,0,0-.35963.31359c-.59959,1.64233-2.13056,3.2062-3.73686,4.8442A.4219.4219,0,0,1,12,12.88613a.41551.41551,0,0,1-.30178-.14185c-1.60605-1.63811-3.137-3.19644-3.73686-4.83889A.51441.51441,0,0,0,7.602,7.59191a20.28387,20.28387,0,0,1-2.614-.797.41378.41378,0,0,0-.14691-.02712.40569.40569,0,0,0-.24791.08352.41048.41048,0,0,0-.15933.36277,8.62736,8.62736,0,0,0,1.64956,4.1A30.13222,30.13222,0,0,0,9.34747,15.0244c2.12706,2.16973,4.13662,4.21882,4.31294,6.59512A.41091.41091,0,0,0,14.07019,22H16.5693a.41119.41119,0,0,0,.41061-.43134A9.41036,9.41036,0,0,0,15.1521,16.7053c-.24128-.35312-.49968-.69649-.77-1.03262a.29854.29854,0,0,1,.02025-.39278c.08292-.085.16644-.16969.2502-.25562a30.15225,30.15225,0,0,0,3.26417-3.71034,8.60369,8.60369,0,0,0,1.64944-4.09215A.42115.42115,0,0,0,19.40683,6.85444Z" fill="#205081"/>
        <path d="M9.31819,16.8727a.38037.38037,0,0,0-.29178-.125.411.411,0,0,0-.339.193,9.19142,9.19142,0,0,0-1.66921,4.62666A.41244.41244,0,0,0,7.43036,22H9.92525a.41415.41415,0,0,0,.41122-.382A5.54763,5.54763,0,0,1,11.033,19.3835a.579.579,0,0,0-.05074-.62381A23.03217,23.03217,0,0,0,9.31819,16.8727Z" fill="#205081"/>
        <path d="M12.00242,8.07881c.78314,0,1.23738-.04712,1.39707-.04712a.38132.38132,0,0,1,.37807.38012.40736.40736,0,0,1-.03049.15174,6.63659,6.63659,0,0,1-1.45866,2.13381.40177.40177,0,0,1-.28816.11413h-.001a.40137.40137,0,0,1-.2878-.11413,6.63494,6.63494,0,0,1-1.45866-2.13381.40478.40478,0,0,1-.03061-.15174.38153.38153,0,0,1,.37831-.38012c.15957,0,.61369.04712,1.39659.04712Z" fill="#205081"/>
      </g>
    </g>
  </g>
</svg>
