<svg xmlns="http://www.w3.org/2000/svg" viewBox="0 0 30 30">
  <g>
    <rect width="30" height="30" fill="none" stroke="none" opacity="0"/>
    <g>
      <path d="M16.12132,6.98095,14.53811,8.56416,12.799,10.30327a4.04934,4.04934,0,0,0,0,5.65685l.70711.70711L14.92032,15.253l.00276-.00276-.70987-.70434a2.025,2.025,0,0,1,0-2.82843L15.234,10.6967l1.56009-1.56009.74145-.74145a2.00261,2.00261,0,0,1,2.82843,0l.70711.70711a2.00261,2.00261,0,0,1,0,2.82843l-.74145.74145a5.99693,5.99693,0,0,1,.57245,2.256l1.58321-1.58321a4.00427,4.00427,0,0,0,0-5.65685l-.70711-.70711A4.00427,4.00427,0,0,0,16.12132,6.98095Z" stroke="none"/>
      <path d="M16.33454,13.8388a2.025,2.025,0,0,1,0,2.82843L15.31376,17.688,13.75367,19.2481,12.58579,20.416a2.00261,2.00261,0,0,1-2.82843,0l-.70711-.70711a2.00261,2.00261,0,0,1,0-2.82843l1.16788-1.16788a5.99693,5.99693,0,0,1-.57245-2.256L7.636,15.46623a4.00427,4.00427,0,0,0,0,5.65685l.70711.70711a4.00427,4.00427,0,0,0,5.65685,0l2.00964-2.00964,1.73911-1.73911a4.04934,4.04934,0,0,0,0-5.65685l-.70711-.70711-1.41421,1.41421Z" stroke="none"/>
    </g>
  </g>
</svg>
