
<svg xmlns="http://www.w3.org/2000/svg" viewBox="0 0 30 30">
  <g>
    <rect width="30" height="30" fill="none" stroke="none" opacity="0"/>
    <rect x="11" y="14" width="13" height="2" stroke="none"/>
    <rect x="11" y="9" width="13" height="2" stroke="none"/>
    <rect x="11" y="19" width="13" height="2" stroke="none"/>
    <path d="M8.10913,11H7.24318V7.16415l-1.13405.4533v-.831L8.06291,6h.04622Z" stroke="none"/>
    <path d="M9,17H5.606v-.64363l1.60986-1.71409q.18823-.20325.31787-.36924a2.75142,2.75142,0,0,0,.21-.30318,1.17093,1.17093,0,0,0,.11621-.25576.77749.77749,0,0,0,.03613-.23035.84687.84687,0,0,0-.04785-.29472.62307.62307,0,0,0-.13477-.2185.58872.58872,0,0,0-.209-.1372.72889.72889,0,0,0-.26807-.04743.74586.74586,0,0,0-.58643.2168.88217.88217,0,0,0-.19287.60637H5.50342a1.55806,1.55806,0,0,1,.4834-1.13482,1.68309,1.68309,0,0,1,.55762-.34722A2.158,2.158,0,0,1,7.939,12.105a1.35121,1.35121,0,0,1,.48828.29472,1.24587,1.24587,0,0,1,.29932.45562,1.62162,1.62162,0,0,1,.10254.58774,1.42441,1.42441,0,0,1-.07666.46579,2.02987,2.02987,0,0,1-.21875.43869,3.93009,3.93009,0,0,1-.34033.44207q-.19849.22539-.44092.47256l-.93652.98238H9Z" stroke="none"/>
    <path d="M6.69287,20.09225H7.209a.7759.7759,0,0,0,.57764-.19218.68789.68789,0,0,0,.188-.503.76232.76232,0,0,0-.043-.26237.54012.54012,0,0,0-.12793-.20388.578.578,0,0,0-.2168-.132.91526.91526,0,0,0-.30615-.04679.8695.8695,0,0,0-.26807.04011.67392.67392,0,0,0-.21875.11531.5525.5525,0,0,0-.14893.18215.51934.51934,0,0,0-.05469.24064h-.9502a1.17389,1.17389,0,0,1,.12451-.54144,1.28361,1.28361,0,0,1,.34375-.41945,1.62216,1.62216,0,0,1,.51465-.27239A2.032,2.032,0,0,1,7.26025,18a2.443,2.443,0,0,1,.67676.08857,1.49043,1.49043,0,0,1,.52637.264,1.20459,1.20459,0,0,1,.34033.43449,1.40491,1.40491,0,0,1,.12109.59993,1.02881,1.02881,0,0,1-.04785.30916,1.10755,1.10755,0,0,1-.14014.2891,1.221,1.221,0,0,1-.229.25234,1.42192,1.42192,0,0,1-.31445.19886,1.34038,1.34038,0,0,1,.36035.18717,1.08533,1.08533,0,0,1,.25146.259,1.06442,1.06442,0,0,1,.147.31918A1.38654,1.38654,0,0,1,9,21.56952a1.345,1.345,0,0,1-.1333.60829,1.30205,1.30205,0,0,1-.36572.44953,1.64437,1.64437,0,0,1-.55176.27741A2.404,2.404,0,0,1,7.26025,23a2.281,2.281,0,0,1-.62061-.08523,1.67617,1.67617,0,0,1-.53809-.25735,1.29668,1.29668,0,0,1-.37793-.43282,1.27133,1.27133,0,0,1-.1416-.615h.9502a.60856.60856,0,0,0,.05469.259.58915.58915,0,0,0,.15527.20388.75387.75387,0,0,0,.23779.13369.89447.89447,0,0,0,.30078.04846.80976.80976,0,0,0,.56738-.18717.65366.65366,0,0,0,.20508-.508.88458.88458,0,0,0-.05811-.33757.5751.5751,0,0,0-.16895-.23061.7305.7305,0,0,0-.2666-.13369,1.30921,1.30921,0,0,0-.35059-.04345H6.69287Z" stroke="none"/>
  </g>
</svg>
