
<svg xmlns="http://www.w3.org/2000/svg" viewBox="0 0 30 30">
  <g>
    <rect width="30" height="30" fill="none" stroke="none" opacity="0"/>
    <rect x="13" y="14" width="13" height="2" stroke="none"/>
    <rect x="13" y="8" width="13" height="2" stroke="none"/>
    <rect x="13" y="20" width="13" height="2" stroke="none"/>
    <path d="M8.65723,18H4.27148v-.87012l2.06982-2.20605q.23291-.25488.39355-.46582a3.41637,3.41637,0,0,0,.25879-.38672,1.45481,1.45481,0,0,0,.14063-.32739,1.10021,1.10021,0,0,0,.042-.29224.97735.97735,0,0,0-.21533-.67017.77728.77728,0,0,0-.61523-.2439.92859.92859,0,0,0-.39795.0813.81378.81378,0,0,0-.29.22412,1.004,1.004,0,0,0-.17773.34058,1.4434,1.4434,0,0,0-.06152.43066H4.144a2.15762,2.15762,0,0,1,.15381-.813,1.94688,1.94688,0,0,1,.44385-.668,2.12234,2.12234,0,0,1,.70117-.45264,2.43472,2.43472,0,0,1,.9248-.167,2.92133,2.92133,0,0,1,.89453.12524,1.81132,1.81132,0,0,1,.65234.35815,1.49511,1.49511,0,0,1,.3999.57129,2.02,2.02,0,0,1,.13623.76025,1.92082,1.92082,0,0,1-.10107.61963,2.91955,2.91955,0,0,1-.28564.59766,4.87088,4.87088,0,0,1-.44629.60425q-.26147.30542-.582.635L5.90625,16.97607h2.751Z" stroke="none"/>
    <path d="M5.56348,22.23828h.67676a.95361.95361,0,0,0,.71631-.2417.88565.88565,0,0,0,.23291-.6416.98994.98994,0,0,0-.05273-.32739.67463.67463,0,0,0-.16064-.25928.75132.75132,0,0,0-.27-.16919,1.16881,1.16881,0,0,0-.71436-.011.86142.86142,0,0,0-.27246.14282.67587.67587,0,0,0-.18457.22632.65477.65477,0,0,0-.06787.301h-1.27a1.55187,1.55187,0,0,1,.165-.71851,1.64932,1.64932,0,0,1,.44824-.54932,2.09986,2.09986,0,0,1,.66553-.35156,2.6098,2.6098,0,0,1,.81738-.12524,3.133,3.133,0,0,1,.88135.11646,1.9449,1.9449,0,0,1,.68311.34717,1.57823,1.57823,0,0,1,.44385.57129,1.854,1.854,0,0,1,.1582.78882,1.36508,1.36508,0,0,1-.25293.78882,1.72351,1.72351,0,0,1-.30518.32959,1.77323,1.77323,0,0,1-.41309.25708A1.49256,1.49256,0,0,1,8.56055,24.207a1.7895,1.7895,0,0,1-.17334.7998,1.71131,1.71131,0,0,1-.47705.59106,2.14793,2.14793,0,0,1-.71826.36475,3.10322,3.10322,0,0,1-.89893.12524,2.94358,2.94358,0,0,1-.7998-.10986,2.0984,2.0984,0,0,1-.69678-.33838,1.74215,1.74215,0,0,1-.49219-.57349,1.69735,1.69735,0,0,1-.18652-.81958h1.27a.75506.75506,0,0,0,.26611.58667.92711.92711,0,0,0,.29639.16919,1.098,1.098,0,0,0,.37354.06152,1.24632,1.24632,0,0,0,.4043-.06152.84565.84565,0,0,0,.30566-.178.78183.78183,0,0,0,.19092-.27686.93413.93413,0,0,0,.06592-.35815,1.19338,1.19338,0,0,0-.07227-.43726.73648.73648,0,0,0-.209-.29663.87912.87912,0,0,0-.332-.16919,1.61415,1.61415,0,0,0-.437-.05493H5.56348Z" stroke="none"/>
    <path d="M7.35645,10h-1.27V5.10449l-1.51611.47021V4.542l2.6499-.94922h.13623Z" stroke="none"/>
  </g>
</svg>
