<svg xmlns="http://www.w3.org/2000/svg" viewBox="0 0 24 24">
  <g>
    <path d="M12,3a9,9,0,1,0,9,9,9.00008,9.00008,0,0,0-9-9m.885,13.475a1.06347,1.06347,0,0,1-.263.365,1.28818,1.28818,0,0,1-.404.243,1.56061,1.56061,0,0,1-1.039,0,1.2832,1.2832,0,0,1-.403-.243,1.03767,1.03767,0,0,1-.263-.365,1.17424,1.17424,0,0,1,0-.916,1.0326,1.0326,0,0,1,.263-.366,1.2832,1.2832,0,0,1,.403-.243,1.56061,1.56061,0,0,1,1.039,0,1.28818,1.28818,0,0,1,.404.243,1.05806,1.05806,0,0,1,.263.366,1.18608,1.18608,0,0,1,0,.916M14.874,10.5a2.54427,2.54427,0,0,1-.349.649,4.3263,4.3263,0,0,1-.523.585q-.3.28352-.642.598a2.65739,2.65739,0,0,0-.332.349,1.584,1.584,0,0,0-.212.358,1.91451,1.91451,0,0,0-.116.41,3.42982,3.42982,0,0,0-.044.489H10.701a6.83021,6.83021,0,0,1,.044-.82,3.25,3.25,0,0,1,.154-.681,2.3751,2.3751,0,0,1,.294-.574,2.73871,2.73871,0,0,1,.465-.502,4.83339,4.83339,0,0,0,.755-.758,1.2764,1.2764,0,0,0,.277-.793,1.15494,1.15494,0,0,0-.222-.783.84573.84573,0,0,0-.667-.25.93184.93184,0,0,0-.342.065.80166.80166,0,0,0-.29.199,1.01775,1.01775,0,0,0-.209.345,1.49806,1.49806,0,0,0-.088.506H8.561a3.12731,3.12731,0,0,1,.263-1.313,2.50939,2.50939,0,0,1,.691-.899,2.77814,2.77814,0,0,1,1.022-.516A4.694,4.694,0,0,1,11.801,7a4.804,4.804,0,0,1,1.34.174,2.80907,2.80907,0,0,1,1.008.516,2.23535,2.23535,0,0,1,.633.848A2.937,2.937,0,0,1,15,9.707a2.32322,2.32322,0,0,1-.126.793" fill="#7900ff" fill-rule="evenodd" />
  </g>
</svg>