<?xml version="1.0" encoding="UTF-8"?>
<svg width="90px" height="90px" viewBox="0 0 90 90" version="1.1" xmlns="http://www.w3.org/2000/svg" xmlns:xlink="http://www.w3.org/1999/xlink">
    <!-- Generator: Sketch 40.3 (33839) - http://www.bohemiancoding.com/sketch -->
    <title>Group 6</title>
    <desc>Created with Sketch.</desc>
    <defs></defs>
    <g id="Store" stroke="none" stroke-width="1" fill="none" fill-rule="evenodd">
        <g id="Group-6" fill="#000C2F">
            <path d="M45,30 C36.716,30 30,36.716 30,45 C30,53.284 36.716,60 45,60 C53.284,60 60,53.284 60,45 C60,36.716 53.284,30 45,30 L45,30 Z M45,33 C51.617,33 57,38.383 57,45 C57,51.617 51.617,57 45,57 C38.383,57 33,51.617 33,45 C33,38.383 38.383,33 45,33 L45,33 Z" id="Fill-1"></path>
            <path d="M45,15 C28.432,15 15,28.432 15,45 C15,61.568 28.432,75 45,75 C61.568,75 75,61.568 75,45 C75,28.432 61.568,15 45,15 M45,18 C59.888,18 72,30.112 72,45 C72,59.888 59.888,72 45,72 C30.112,72 18,59.888 18,45 C18,30.112 30.112,18 45,18" id="Fill-3"></path>
            <path d="M45,0 C20.147,0 0,20.147 0,45 C0,69.853 20.147,90 45,90 C69.853,90 90,69.853 90,45 C90,20.147 69.853,0 45,0 M45,3 C68.159,3 87,21.841 87,45 C87,68.159 68.159,87 45,87 C21.841,87 3,68.159 3,45 C3,21.841 21.841,3 45,3" id="Fill-5"></path>
        </g>
    </g>
</svg>