<svg xmlns="http://www.w3.org/2000/svg" viewBox="0 0 179.75014 38.74951">
  <g>
    <path d="M22.09344,8.563a.76169.76169,0,0,0-.52734-.94019.76585.76585,0,0,0-.94043.52734c-.68994,2.45093.02783,4.87769.72168,7.22485a16.72865,16.72865,0,0,1,.957,4.91528l-.00244.1521-.14893-.03223A66.78741,66.78741,0,0,1,3.78045,13.49023c-1.37988-.76733-2.11084-1.49878-2.23584-2.23608l-.01074-.06274L1.5783,11.146a9.63414,9.63414,0,0,1,4.21-2.08984A159.65617,159.65617,0,0,1,52.194,2.1687c.09912,0,.19727,0,.29639.00024h.002A.76236.76236,0,0,0,52.50164.64429C52.40106.644,52.29852.644,52.19793.644A161.18439,161.18439,0,0,0,5.3449,7.59668C3.44158,8.17432,1.4743,8.86841.18035,10.42017a.75243.75243,0,0,0-.17578.446C-.118,13.0686,2.258,14.38892,3.03875,14.82275a68.27866,68.27866,0,0,0,19.78662,7.28516,1.238,1.238,0,0,0,.14941.01465.75452.75452,0,0,0,.436-.136.76792.76792,0,0,0,.31836-.50732,14.86838,14.86838,0,0,0-.915-6.52319C22.14861,12.708,21.52264,10.59253,22.09344,8.563Z" stroke="transparent"/>
    <path d="M47.00359,22.52783a.76158.76158,0,0,0-.874-.63184,11.99029,11.99029,0,0,1-8.57568-1.90894,3.733,3.733,0,0,1-.481-.38062l-.10352-.09961.11328-.08887a22.706,22.706,0,0,0,1.90283-1.67212.75842.75842,0,0,0,.14648-.88745.77111.77111,0,0,0-.80127-.40894,5.43458,5.43458,0,0,0-1.87109.553,2.38266,2.38266,0,0,0-1.26221,1.85767l-.00391.05981-.04932.03418a21.12338,21.12338,0,0,1-2.22656,1.34961c-1.12891.59326-1.45459.43042-1.79736-.18823a2.6781,2.6781,0,0,1-.29932-.91284,3.3446,3.3446,0,0,0-1.51758-2.31152,1.71375,1.71375,0,0,0-1.77246.04272l-.17334.10938-.01807-.20386A22.51465,22.51465,0,0,0,25.383,9.43506a.76008.76008,0,0,0-.69385-.44458.78016.78016,0,0,0-.16162.01685,1.15213,1.15213,0,0,0-.90234,1.134.76518.76518,0,0,0,.65771.74658l.07227.00977.02734.06738a21.33441,21.33441,0,0,1,1.49316,9.06885,10.468,10.468,0,0,0-.34521,2.8894.7598.7598,0,0,0,.69873.74219c.02344.0022.0415.002.063.00269a.76058.76058,0,0,0,.74951-.62012,22.30561,22.30561,0,0,0,.34521-2.739,8.6185,8.6185,0,0,1,.63086-1.6189c.189-.36914.29541-.45532.37451-.491l.03955-.01782.042.0105h.00049c.21924,0,.74854.62256.83691,1.231A4.18976,4.18976,0,0,0,29.7868,20.855c.80127,1.44751,2.09326,1.717,3.83936.79956a22.75311,22.75311,0,0,0,2.01172-1.19287l.0918-.061.07178.083a4.53906,4.53906,0,0,0,.89307.76318,13.55494,13.55494,0,0,0,9.67773,2.15479.76145.76145,0,0,0,.63135-.87378Z" stroke="transparent"/>
    <path d="M71.92352,19.948a3.83386,3.83386,0,0,0-2.42236-2.321,50.983,50.983,0,0,0-5.55371-1.98608c-3.16943-.99731-6.1626-1.939-8.6499-3.81787l-.0498-.0376v-.06226c.001-1.39478,1.43164-2.62329,2.28418-3.23145a18.86471,18.86471,0,0,1,9.03857-3.41113.76217.76217,0,0,0,.40137-1.35107.75146.75146,0,0,0-.55469-.16577,20.40157,20.40157,0,0,0-9.77148,3.68677c-2.14453,1.53125-3.16553,3.3291-2.875,5.06226a.76486.76486,0,0,0,.27637.47046c2.76611,2.21045,6.15723,3.27783,9.43652,4.31006A50.13446,50.13446,0,0,1,68.87811,19.019a4.32754,4.32754,0,0,1,1.22607.75513l.12109.11963-.15039.07959a8.10285,8.10285,0,0,1-2.60107.70215,54.90367,54.90367,0,0,1-17.02051-.189,3.185,3.185,0,0,1-.39844-.09033l-.13965-.0415.062-.13184a.76319.76319,0,0,0-1.12842-.9502l-.4502.31787a.7616.7616,0,0,0-.31982.6936c.04688.51221.38525,1.41431,2.12158,1.70654a56.594,56.594,0,0,0,8.71729.77832,56.62948,56.62948,0,0,0,8.77588-.585,7.59869,7.59869,0,0,0,3.98975-1.46924A.75875.75875,0,0,0,71.92352,19.948Z" stroke="transparent"/>
    <path d="M86.62762,18.66357a15.99724,15.99724,0,0,1,2.62793-3.52466.76232.76232,0,0,0-.542-1.2981h-.00537a.75788.75788,0,0,0-.53809.22681v.00024a17.506,17.506,0,0,0-2.87646,3.85645,6.86643,6.86643,0,0,1-.58008.91357l-.20361.25806-.1167-1.96313a.76179.76179,0,0,0-1.29883-.49487,15.5693,15.5693,0,0,0-1.7749,2.25757c-.27344.39746-.55176.80151-.84619,1.18335a5.49252,5.49252,0,0,1-2.51123,2.00977l-.08154.02637-.0542-.06714a3.5058,3.5058,0,0,1-.51953-1.37524c-.41553-1.88916-.75879-3.81641-1.02051-5.72827a.77012.77012,0,0,0-.76953-.658l-.01758.00024a.7596.7596,0,0,0-.72949.717,12.79771,12.79771,0,0,0,.4834,4.31177.76091.76091,0,0,0,.26074.38672l.03613.02832.00928.04517q.12451.6145.2583,1.22412a3.73252,3.73252,0,0,0,1.50684,2.59717.76093.76093,0,0,0,.37158.10156.86609.86609,0,0,0,.14209-.011A6.43707,6.43707,0,0,0,81.68035,21.01c.30957-.40112.59668-.81738.874-1.21973L82.987,19.168l.05762.97485a.76721.76721,0,0,0,.646.70923C85.28826,21.09814,86.22625,19.39185,86.62762,18.66357Z" stroke="transparent"/>
    <path d="M91.66082,16.18506A1.23315,1.23315,0,0,0,92.55,16.949l.00049.00024a.92883.92883,0,0,0,.1543.01563.76248.76248,0,0,0,.5-1.33667l-.04834-.04224.00586-.06372a.76211.76211,0,0,0-.32471-.69653.75365.75365,0,0,0-.43262-.13647.78835.78835,0,0,0-.13672.01221.76038.76038,0,0,0-.49219.31714A1.23352,1.23352,0,0,0,91.66082,16.18506Z" stroke="transparent"/>
    <path d="M122.71746,21.48828a3.31137,3.31137,0,0,0-1.74316-1.76807l-.12549-.06714a2.83157,2.83157,0,0,1-1.12354-.83081l-.04248-.07007.03857-.08105a8.35982,8.35982,0,0,0,.45654-.72388.76268.76268,0,0,0-.87256-1.10547,1.57906,1.57906,0,0,0-1.03369.96167,2.01585,2.01585,0,0,0-.10547.37012l-.00635.032-.021.02515a7.06376,7.06376,0,0,1-5.23486,2.52563h-.01807a2.71089,2.71089,0,0,1-1.686-.46655l-.147-.12524.17432-.08276a5.23893,5.23893,0,0,0,2.22363-1.86694.76266.76266,0,0,0-.44824-1.15576,3.07914,3.07914,0,0,0-2.74023.58667,2.6429,2.6429,0,0,0-.85254,1.42334l-.0166.07324-.07227.02a19.4308,19.4308,0,0,1-2.24365.4375.72144.72144,0,0,0-.09424.02417l-.07666.02344-.06494-.0564a5.34951,5.34951,0,0,0-1.14746-.93262,24.78686,24.78686,0,0,0-8.5542-3.40332,1.65558,1.65558,0,0,0-1.59717.37793.76387.76387,0,0,0,.05859,1.07642.7383.7383,0,0,0,.38818.17358l.19287.031-.10937.16211a.75751.75751,0,0,0-.13086.44751c.01318.415.02344.83179.03418,1.24854l.02441.92627-.15527-.0332a3.6849,3.6849,0,0,1-2.51611-1.29492.7628.7628,0,0,0-1.39941.16724.757.757,0,0,0,.06885.57935.37676.37676,0,0,0,.02881.04077c.01416.01855.02832.0376.0415.05859l.05713.094-.08594.0686a.77417.77417,0,0,0-.29639.5979,3.02673,3.02673,0,0,0,.4917,1.99854.75579.75579,0,0,0,.5918.292h.01221a.74788.74788,0,0,0,.30518-.0647,1.50833,1.50833,0,0,0,.93408-1.29053l.01611-.15771.14941.052a12.634,12.634,0,0,0,1.70068.43579l.09814.01929.00244.1001c.14111,5.62891.21924,11.22314.23193,16.62744a.76283.76283,0,0,0,1.30322.53613.75712.75712,0,0,0,.22168-.53931c-.0127-5.29956-.0874-10.7771-.22266-16.28052l-.00391-.15332.15088.0271c1.01074.18237,1.92822.33228,2.80469.45825a24.22969,24.22969,0,0,0,3.14258.29248,9.58249,9.58249,0,0,0,3.31787-.49341.76049.76049,0,0,0,.49414-.66162l.00781-.09863.09766-.01514c.56836-.08789,1.23877-.20093,1.90234-.37109l.09473-.02417.04639.08545a3.60891,3.60891,0,0,0,3.292,1.52954,8.30936,8.30936,0,0,0,3.12646-.67114l.25977-.11035-.10547.30493a.76512.76512,0,0,0,.50342.95825,8.08845,8.08845,0,0,0,5.5918-.3457A.76121.76121,0,0,0,122.71746,21.48828Zm-17.22656-.82544a9.13728,9.13728,0,0,1-1.6665.14014,21.77181,21.77181,0,0,1-3.07617-.27515h.00049c-.98779-.1416-2.00684-.30981-3.11475-.5144l-.09961-.01831-.02539-.95068c-.01367-.52319-.02686-1.0459-.043-1.56689a.76752.76752,0,0,0-.12842-.39819l-.17139-.259.30273.06787a23.67436,23.67436,0,0,1,7.40918,3.05859,4.75442,4.75442,0,0,1,.6748.50146l.18262.16919Zm14.96338.76465a6.60824,6.60824,0,0,1-1.41943.15479,6.40832,6.40832,0,0,1-1.87549-.27832l-.00537-.00171-.38721-.03223.34619-.19751a8.853,8.853,0,0,0,1.43213-1.06689l.09229-.085.08447.09277a4.984,4.984,0,0,0,1.40479.98315l.125.06641c.07861.043.15918.08789.23926.13452l.2749.16138Z" stroke="transparent"/>
    <path d="M134.33025,22.25781c-.29932-5.11816-.60791-10.39526.12109-15.51172a.76275.76275,0,0,0-.64795-.86206l-.001-.00024a.75949.75949,0,0,0-.86084.64746,65.94465,65.94465,0,0,0-.32324,12.38354l.02.41553-.24561-.33545a24.0929,24.0929,0,0,0-5.81836-5.64478,47.464,47.464,0,0,0-9.27148-4.5459c-2.04834-.82471-4.15674-1.67358-6.13867-2.69873l-.23486-.12158.24316-.10425a9.77438,9.77438,0,0,1,2.36963-.56372c17.62061-2.56055,35.71777-3.04565,53.21875-3.51465L177.068,1.52441A.76234.76234,0,0,0,177.04315,0l-.0166.00024L166.7199.2771c-17.55713.47095-35.6958.95728-53.39746,3.53a6.941,6.941,0,0,0-4.33984,1.76611.76293.76293,0,0,0,.17969,1.17651,59.30429,59.30429,0,0,0,7.53809,3.45557,46.4298,46.4298,0,0,1,9.01221,4.40308,22.66348,22.66348,0,0,1,7.18311,8.05078.76283.76283,0,0,0,.665.40552.83993.83993,0,0,0,.21484-.02832A.766.766,0,0,0,134.33025,22.25781Z" stroke="transparent"/>
    <path d="M150.83514,21.8894a.7567.7567,0,0,0-.53125-.24219.76862.76862,0,0,0-.54639.20386,4.08871,4.08871,0,0,1-3.31836,1.02637,5.80009,5.80009,0,0,1-1.37207-.41089l-.29687-.126.19775-.12769c.09619-.06226.18994-.12744.28174-.19458a2.09368,2.09368,0,0,0,1.06348-1.82666.76634.76634,0,0,0-.22314-.49194,3.04462,3.04462,0,0,0-4.39893.25952.763.763,0,0,0-.16357.49609,3.06843,3.06843,0,0,0,.41016,1.41382l.03857.0686-.04492.0647a.76426.76426,0,0,0,.22949,1.08984.75458.75458,0,0,0,.5752.08862c.08643-.02148.17334-.04443.25928-.06836l.05811-.01611.04834.03491a6.8076,6.8076,0,0,0,1.37891.74219,7.19557,7.19557,0,0,0,1.73047.51074,5.28376,5.28376,0,0,0,.74561.061,5.569,5.569,0,0,0,3.83984-1.47827A.76378.76378,0,0,0,150.83514,21.8894Zm-6.34375-1.21094c-.03955.0332-.084.06812-.13672.10571a5.67118,5.67118,0,0,1-.84863.50732l-.09766.04712-.06055-.08984a1.835,1.835,0,0,1-.22705-.45581l-.02979-.09131.08008-.05225a1.54331,1.54331,0,0,1,.75391-.2395,1.64329,1.64329,0,0,1,.51953.05225l.23.06323Z" stroke="transparent"/>
    <path d="M167.60076,21.84741l-.082-.10791a.758.758,0,0,0-.79-.27808.76081.76081,0,0,0-.4707.3501c-.231.38867-.90723.54126-1.90918.42822a11.93206,11.93206,0,0,1-7.25928-3.11914.76222.76222,0,0,0-1.27637.30811l-.0293.09644-.10059-.0083a.7952.7952,0,0,0-.26221.02246,2.00776,2.00776,0,0,0-1.4292,1.37671,1.69271,1.69271,0,0,0,.88672,1.96729,1.61088,1.61088,0,0,0,1.31348.00073A2.07625,2.07625,0,0,0,157.32,21.678c.01465-.041.02783-.0813.03955-.12256l.04883-.165.14209.09692a14.795,14.795,0,0,0,6.63379,2.26831c.23193.02539.4585.03955.67285.04224a2.83386,2.83386,0,0,0,2.71191-1.20679.7547.7547,0,0,0,.07275-.60742ZM155.85613,21.231a.60335.60335,0,0,1-.2041.22119l-.24756.15771.05811-.28979a.438.438,0,0,1,.22217-.25586l.35693-.19482Z" stroke="transparent"/>
    <path d="M179.20574,19.1853a.73944.73944,0,0,0-.68311-.40283,11.25536,11.25536,0,0,0-4.14355.88257l-.15234.064-.02-.16406a.76973.76973,0,0,0-.22656-.45728.74542.74542,0,0,0-.57178-.21338,10.44251,10.44251,0,0,0-3.751.95093l-.13379.06226-.03955-.14233a2.29768,2.29768,0,0,0-.45166-.86963.76227.76227,0,1,0-1.1709.97632.88845.88845,0,0,1,.00684,1.06738.74781.74781,0,0,0-.12988.68994l.03711.12915.08594.11475a.43554.43554,0,0,1,.03076.04932.76137.76137,0,0,0,1.01123.11768,8.88287,8.88287,0,0,1,3.187-1.42383l.38086-.08618-.25977.29126a1.849,1.849,0,0,1-.20215.1958l-.10449.07837a.77377.77377,0,0,0-.17236,1.07471.76018.76018,0,0,0,1.05469.16968c.05078-.0354.1001-.073.14844-.11182a9.76,9.76,0,0,1,5.01367-1.88965l.09961-.0083.02979.0957a3.183,3.183,0,0,1-.09717,2.15967.76233.76233,0,0,0,.69238,1.061.77158.77158,0,0,0,.71094-.46362A4.66765,4.66765,0,0,0,179.20574,19.1853Z" stroke="transparent"/>
  </g>
</svg>
