<svg xmlns="http://www.w3.org/2000/svg" viewBox="0 0 40 40">
  <g>
    <path d="M23.564,9.47786a2.13789,2.13789,0,0,0-4.06651,1.32129l5.52816,17.00831a2.13826,2.13826,0,0,0,4.06485-1.32075Z" stroke="none" fill="#e7a635"/>
    <path d="M14.99829,12.261a2.13789,2.13789,0,1,0-4.06651,1.32129l5.52816,17.00831a2.13826,2.13826,0,0,0,4.06485-1.32075Z" stroke="none" fill="#45b790"/>
    <path d="M30.52218,23.56414a2.13789,2.13789,0,0,0-1.32129-4.06651L12.19258,25.02579a2.13826,2.13826,0,0,0,1.32075,4.06485Z" stroke="none" fill="#dd1f66"/>
    <path d="M15.73751,28.368l4.06507-1.32082-1.32095-4.06546L14.4163,24.303Z" stroke="none" fill="#462b48"/>
    <path d="M24.30326,25.58478L28.36833,24.264l-1.32122-4.06629L22.98177,21.519Z" stroke="none" fill="#ca232d"/>
    <path d="M27.739,14.99839a2.13789,2.13789,0,1,0-1.32129-4.06651L9.4094,16.46a2.13826,2.13826,0,0,0,1.32075,4.06485Z" stroke="none" fill="#74cad9"/>
    <path d="M12.9535,19.80249l4.0659-1.32109-1.32095-4.06546-4.06617,1.32161Z" stroke="none" fill="#24937d"/>
    <path d="M21.51925,17.01931l4.0659-1.32109-1.32122-4.06629-4.06617,1.32161Z" stroke="none" fill="#66853f"/>
  </g>
</svg>
