<svg xmlns="http://www.w3.org/2000/svg" viewBox="0 0 120.00016 90">
  <path d="M87.169,64H16.25009L.00009,90H89.358c16.77686,0,30.91406-13.72852,30.63818-30.50391A29.99729,29.99729,0,0,0,103.41611,33.168,11.06262,11.06262,0,0,0,98.46884,32H33.169a3.11466,3.11466,0,0,1-3.165-2.83887A3.00043,3.00043,0,0,1,33.00009,26h70.75l16.25-26H30.64218C13.86533,0-.27286,13.729.004,30.50391A29.99671,29.99671,0,0,0,16.58408,56.832l.02588.0127A11.4377,11.4377,0,0,0,21.72617,58H87.00009a3.11341,3.11341,0,0,1,3.165,2.83984A2.99988,2.99988,0,0,1,87.169,64Z" stroke="none"/>
</svg>
