<svg xmlns="http://www.w3.org/2000/svg" viewBox="0 0 214.66699 25">
  <title>Asset 2</title>
  <g>
    <rect x="93" width="5" height="25" stroke="none"/>
    <polygon points="72.833 19.375 64.222 0 59.222 0 50.611 19.375 42 0 37 0 48.111 25 53.111 25 61.722 5.625 70.333 25 75.333 25 86.444 0 81.444 0 72.833 19.375" stroke="none"/>
    <path d="M7.5,5H28.3335l3.333-5H7.5a7.5,7.5,0,0,0,0,15H24.1665a2.5,2.5,0,1,1,0,5H3.3335L0,25H24.1665a7.5,7.5,0,0,0,0-15H7.5a2.5,2.5,0,0,1,0-5Z" stroke="none"/>
    <path d="M207.167,20H186.333L183,25h24.167a7.5,7.5,0,0,0,0-15H190.5a2.5,2.5,0,0,1,0-5h20.833l3.334-5H190.5a7.5,7.5,0,0,0,0,15h16.667a2.5,2.5,0,0,1,0,5Z" stroke="none"/>
    <polygon points="174.333 5 177.667 0 146 0 146 5 146 10 146 15 146 20 146 25 151 25 177.667 25 174.333 20 151 20 151 15 169.333 15 169.333 10 151 10 151 5 174.333 5" stroke="none"/>
    <path d="M129.77734,0H107V25h5V17.77734h17.77734a8.88868,8.88868,0,0,0,0-17.77734Zm0,12.77734H112V5h17.77734a3.88867,3.88867,0,1,1,0,7.77734Z" stroke="none"/>
  </g>
</svg>
