<svg xmlns="http://www.w3.org/2000/svg" viewBox="0 0 360 120">
  <g>
    <path d="M80.2608,54.4784h0a5.16273,5.16273,0,0,0-2.3086-.54507H47.47887a1.45358,1.45358,0,0,1-1.477-1.32486A1.4,1.4,0,0,1,47.4,51.13333H80.41667L88,39H46.2996A14.24832,14.24832,0,0,0,32.00187,53.2352,13.99821,13.99821,0,0,0,39.7392,65.5216l.01213.00607a5.33727,5.33727,0,0,0,2.38747.539H72.6A1.453,1.453,0,0,1,74.077,67.392a1.39992,1.39992,0,0,1-1.39813,1.47467H39.58333L32,81H73.7004A14.24862,14.24862,0,0,0,87.99813,66.7648,13.99876,13.99876,0,0,0,80.2608,54.4784" stroke="transparent" fill-rule="evenodd"/>
    <rect x="241" y="47" width="5" height="25" stroke="transparent"/>
    <polygon points="230.444 47 221.833 66.375 213.222 47 208.222 47 199.611 66.375 191 47 186 47 197.111 72 202.111 72 210.722 52.625 219.333 72 224.333 72 235.444 47 230.444 47" stroke="transparent" fill-rule="evenodd"/>
    <path d="M174.1667,57H157.5a2.5,2.5,0,0,1,0-5h20.8333l3.3334-5H157.5a7.5,7.5,0,0,0,0,15h16.6667a2.5,2.5,0,0,1,0,5H153.3333L150,72h24.1667a7.5,7.5,0,0,0,0-15" stroke="transparent" fill-rule="evenodd"/>
    <path d="M352.16669,57H335.5a2.5,2.5,0,0,1,0-5h20.83331l3.33337-5H335.5a7.5,7.5,0,0,0,0,15h16.66669a2.5,2.5,0,0,1,0,5H331.33331L328,72h24.16669a7.5,7.5,0,0,0,0-15" stroke="transparent" fill-rule="evenodd"/>
    <polygon points="292 47 292 52 292 57 292 62 292 67 292 72 297 72 323.667 72 320.333 67 297 67 297 62 315.333 62 315.333 57 297 57 297 52 320.333 52 323.667 47 292 47" stroke="transparent" fill-rule="evenodd"/>
    <path d="M284.76111,52a8.88032,8.88032,0,0,0-7.98331-5H254V72h5V64.77778h17.7778A8.87267,8.87267,0,0,0,284.76111,52Zm-15.96719,7.77778H259V52h17.7778a3.60009,3.60009,0,0,1,0,7.77778Z" stroke="transparent" fill-rule="evenodd"/>
    <path d="M60,5A55,55,0,1,1,5,60,55.06242,55.06242,0,0,1,60,5m0-5a60,60,0,1,0,60,60A60.00011,60.00011,0,0,0,60,0" stroke="transparent" fill-rule="evenodd"/>
  </g>
</svg>
