<svg viewBox="0 0 24 24" version="1.1" xmlns="http://www.w3.org/2000/svg" xmlns:xlink="http://www.w3.org/1999/xlink">
  <polygon stroke="transparent" opacity="0" transform="translate(12.000000, 12.000000) rotate(-180.000000) translate(-12.000000, -12.000000) " points="0 24 24 24 24 0 0 0"></polygon>
  <path d="M10,12 C10,10.895 10.896,10 12,10 C13.104,10 14,10.895 14,12 C14,13.105 13.104,14 12,14 C10.896,14 10,13.105 10,12 Z M15,12 C15,10.895 15.896,10 17,10 C18.104,10 19,10.895 19,12 C19,13.105 18.104,14 17,14 C15.896,14 15,13.105 15,12 Z M7,10 C8.104,10 9,10.895 9,12 C9,13.105 8.104,14 7,14 C5.896,14 5,13.105 5,12 C5,10.895 5.896,10 7,10 Z" stroke="transparent"></path>
</svg>