<svg xmlns="http://www.w3.org/2000/svg" viewBox="0 0 24 24">
  <g>
    <path d="M1.99951,17a3.00328,3.00328,0,0,0,3,3H19a3.00328,3.00328,0,0,0,3-3V14H20.00049v2.47314H20V17a1,1,0,0,1-1,1H4.99951a1,1,0,0,1-1-1V14H2Z" stroke="none"/>
    <path d="M11,14V6.4165l-2.79248,2.791L6.79346,7.793l5.20947-5.20654L17.207,7.793,15.792,9.207,13,6.41357V14Z" stroke="none"/>
    <polygon points="15.792 9.207 17.207 7.793 12.003 2.586 6.793 7.793 8.208 9.208 11 6.417 11 14 13 14 13 6.414 15.792 9.207" stroke="none"/>
  </g>
</svg>
