<svg id="INFO" xmlns="http://www.w3.org/2000/svg" viewBox="0 0 498 497.9949">
  <title>swipes-logo-personal</title>
  <g>
    <circle cx="248.99987" cy="248.9974" r="248.91178" fill="#fff"/>
    <g>
      <path d="M2243.2429,1905.1595l37.2701,21.516c7.2705,4.1859,18.9842,4.1812,26.192-.0047,7.198-4.1858,7.169-10.9717-.0677-15.1575l-0.0196-.0099-37.2656-21.516-0.0145-.0097c-7.256-4.1813-18.9747-4.1761-26.1727.0097C2235.9575,1894.1732,2235.9962,1900.9638,2243.2429,1905.1595Z" transform="translate(-2094.2796 -1630.0393)" fill="#ff5722"/>
      <path d="M2488.1429,1860.5455l-97.5553-56.3272c-32.1196-18.5432-84.2124-18.5432-116.1231.0047-7.94,4.6131-13.8868,9.948-17.854,15.6425-6.1795,8.852-7.5329,18.5673-4.1232,27.8216,3.2112,8.7259,10.6517,17.0302,22.3603,23.7914l52.4278,30.2856c8.8374,5.1025,13.2756,11.8058,13.2854,18.509,0.0145,6.6743-4.3362,13.3336-13.0766,18.4119-1.2372.718-2.5272,1.3825-3.8658,2.0034-17.6315,8.1193-43.4884,7.455-59.8734-2.0034l-2.653-1.5326-0.0339-.0195-36.5377-21.0942-0.0342-.0196c-7.2511-4.1662-18.9505-4.1662-26.1485.0196-3.6084,2.0955-5.3982,4.8409-5.3837,7.5858,0.0145,2.7407,1.8432,5.4908,5.4664,7.5812l39.2251,22.6466c32.1192,18.5431,84.2073,18.5477,116.118.0047,7.9401-4.6175,13.8863-9.9527,17.8591-15.6519,6.1646-8.8473,7.5274-18.5627,4.1227-27.8169-3.2111-8.7259-10.6465-17.0349-22.3602-23.796l-52.4376-30.2811c-8.8374-5.1026-13.2607-11.8105-13.285-18.5043-0.0098-6.6738,4.3363-13.3433,13.0719-18.4216,1.2413-.7178,2.5319-1.3774,3.8752-1.9936,17.6361-8.1242,43.4785-7.4644,59.8635,1.9936l97.5652,56.3324,0.0341,0.0191c7.261,4.1619,18.9598,4.1619,26.1481-.0191,3.6088-2.0955,5.3987-4.8409,5.3841-7.5858C2493.5804,1865.3863,2491.7615,1862.6409,2488.1429,1860.5455Z" transform="translate(-2094.2796 -1630.0393)" fill="#ff5722"/>
      <path d="M2443.3159,1886.5968l-95.6056-55.1924c-7.2663-4.1905-18.9847-4.1858-26.1921-.0047-7.203,4.1859-7.169,10.9667.0725,15.167l0.0145,0.0099,95.601,55.1923,0.0148,0.0103c7.2658,4.1755,18.9696,4.1755,26.1776-.0151C2450.5966,1897.583,2450.5572,1890.7924,2443.3159,1886.5968Z" transform="translate(-2094.2796 -1630.0393)" fill="#ff5722"/>
    </g>
    <g>
      <path d="M2343.2789,1637.0166c136.3535,0,247.0385,109.6043,248.9124,245.5116,0.0162-1.1664.0883-2.3188,0.0883-3.4887,0-137.5224-111.4779-249.0002-249.0007-249.0002-137.5173,0-248.9993,111.4778-248.9993,249.0002,0,1.1699.0715,2.3223,0.0877,3.4887C2096.2421,1746.6209,2206.9318,1637.0166,2343.2789,1637.0166Z" transform="translate(-2094.2796 -1630.0393)" fill="#1b1e23" opacity="0.05"/>
      <path d="M2343.2789,2121.057c-136.3471,0-247.0368-109.6044-248.9116-245.5061-0.0162,1.166-.0877,2.3184-0.0877,3.4886,0,137.5173,111.482,248.9947,248.9993,248.9947,137.5228,0,249.0007-111.4774,249.0007-248.9947,0-1.1702-.0721-2.3226-0.0883-3.4886C2590.3174,2011.4526,2479.6324,2121.057,2343.2789,2121.057Z" transform="translate(-2094.2796 -1630.0393)" fill="#1b1e23" opacity="0.25"/>
    </g>
  </g>
</svg>
