<svg id="Layer_1" data-name="Layer 1" xmlns="http://www.w3.org/2000/svg" viewBox="0 0 40 40">
  <title>swipes-workspace-logos-30</title>
  <g>
    <path d="M11.60061,22.27291l3.4096,1.96836a2.64244,2.64244,0,0,0,2.39614-.00043,0.733,0.733,0,0,0-.00619-1.38666l-0.00179-.00091-3.40919-1.96836L13.98785,20.884a2.64008,2.64008,0,0,0-2.39437.00089A0.7336,0.7336,0,0,0,11.60061,22.27291Z" fill="#ff5722"/>
    <path d="M34.00493,18.19146l-8.9247-5.153a11.72257,11.72257,0,0,0-10.62335.00043,5.04092,5.04092,0,0,0-1.63335,1.431,2.68946,2.68946,0,0,0-.3772,2.54522,4.40087,4.40087,0,0,0,2.0456,2.17652l4.79628,2.77063a2.065,2.065,0,0,1,1.2154,1.69327,2.04123,2.04123,0,0,1-1.19629,1.68439c-0.11318.06569-.2312,0.12648-0.35366,0.18328a6.51648,6.51648,0,0,1-5.47743-.18328l-0.24271-.14021-0.0031-.00178-3.3426-1.92977-0.00313-.00179a2.63971,2.63971,0,0,0-2.39216.00179A0.83851,0.83851,0,0,0,7,23.96215a0.85089,0.85089,0,0,0,.50009.69355l3.58845,2.07179a11.723,11.723,0,0,0,10.62288.00043A5.04964,5.04964,0,0,0,23.34524,25.296a2.69335,2.69335,0,0,0,.37716-2.54479,4.39933,4.39933,0,0,0-2.04559-2.17694l-4.79718-2.77022a2.06819,2.06819,0,0,1-1.21536-1.69284A2.04365,2.04365,0,0,1,16.86014,14.426c0.11356-.06567.23163-0.126,0.35452-0.18238a6.51282,6.51282,0,0,1,5.47652.18238l8.92561,5.15349,0.00312,0.00175a2.64219,2.64219,0,0,0,2.39212-.00175,0.83847,0.83847,0,0,0,.49256-0.694A0.85363,0.85363,0,0,0,34.00493,18.19146Z" fill="#ff5722"/>
    <path d="M29.904,20.57473l-8.74634-5.0492a2.64252,2.64252,0,0,0-2.39615-.00043,0.73343,0.73343,0,0,0,.00663,1.38753l0.00133,0.00091,8.74592,5.04919,0.00135,0.00094a2.64129,2.64129,0,0,0,2.39482-.00138A0.73353,0.73353,0,0,0,29.904,20.57473Z" fill="#ff5722"/>
  </g>
</svg>
