<svg id="Layer_8" xmlns="http://www.w3.org/2000/svg" viewBox="0 0 87 72">
  <title>swipes-workspace-illustrations-emptystate-connect</title>
  <g>
    <path d="M6214,3414v-1h-8v1A4,4,0,0,0,6214,3414Z" transform="translate(-6204 -3394)" fill="none"/>
    <circle cx="56" cy="23" r="2" fill="none"/>
    <circle cx="31" cy="49" r="2" fill="none"/>
    <path d="M6285,3441a4.00427,4.00427,0,0,0-4,4v1h8v-1A4.00427,4.00427,0,0,0,6285,3441Z" transform="translate(-6204 -3394)" fill="none"/>
    <path d="M6286,3439.09033V3420a26,26,0,0,0-52,0v19.142a4,4,0,1,0,2,0V3420a24,24,0,0,1,48,0v19.09033A6.00459,6.00459,0,0,0,6279,3445v2a0.99974,0.99974,0,0,0,1,1h2v3a1,1,0,0,0,2,0v-3h2v3a1,1,0,0,0,2,0v-3h2a0.99974,0.99974,0,0,0,1-1v-2A6.00459,6.00459,0,0,0,6286,3439.09033ZM6237,3443a2,2,0,1,1-2-2A2.00229,2.00229,0,0,1,6237,3443Zm52,3h-8v-1a4,4,0,0,1,8,0v1Z" transform="translate(-6204 -3394)" fill="#fd9078"/>
    <path d="M6260,3413a3.99158,3.99158,0,0,0-1,7.858V3440a24,24,0,0,1-48,0v-20a0.88226,0.88226,0,0,0-.01758-0.08759A6.00419,6.00419,0,0,0,6216,3414v-2a0.99974,0.99974,0,0,0-1-1h-2v-3a1,1,0,0,0-2,0v3h-2v-3a1,1,0,0,0-2,0v3h-2a0.99974,0.99974,0,0,0-1,1v2a6.00419,6.00419,0,0,0,5.01758,5.91241c-0.00244.03033-.01758,0.05652-0.01758,0.08759v20a26,26,0,0,0,52,0v-19.142A3.99158,3.99158,0,0,0,6260,3413Zm-54,1v-1h8v1A4,4,0,0,1,6206,3414Zm54,5a2,2,0,1,1,2-2A2.00229,2.00229,0,0,1,6260,3419Z" transform="translate(-6204 -3394)" fill="#6bd0fd"/>
  </g>
</svg>
