<svg id="Layer_1" data-name="Layer 1" xmlns="http://www.w3.org/2000/svg" viewBox="0 0 126.5 116.52082">
  <title>swipes-workspace-illustrations-emptystate-chat</title>
  <g>
    <path d="M4677,3419h-62a9.99993,9.99993,0,0,0-10,10v30a10.00077,10.00077,0,0,0,9,9.9497V3485l16-16h47a9.99993,9.99993,0,0,0,10-10v-30A9.99993,9.99993,0,0,0,4677,3419Z" transform="translate(-4604 -3418)" fill="#fff" stroke="#fd9078" stroke-miterlimit="10" stroke-width="2"/>
    <g>
      <path d="M4712,3448h-62a9.99993,9.99993,0,0,0-10,10v30a9.99993,9.99993,0,0,0,10,10h48l16,16v-16.2007a10.00284,10.00284,0,0,0,8-9.7993v-30A9.99993,9.99993,0,0,0,4712,3448Z" transform="translate(-4604 -3418)" fill="#fff"/>
      <path d="M4712,3448h-62a9.99993,9.99993,0,0,0-10,10v30a9.99993,9.99993,0,0,0,10,10h48l16,16v-16.2007a10.00284,10.00284,0,0,0,8-9.7993v-30A9.99993,9.99993,0,0,0,4712,3448Z" transform="translate(-4604 -3418)" fill="none" stroke="#fff" stroke-miterlimit="10" stroke-width="17"/>
      <path d="M4712,3448a9.99991,9.99991,0,0,1,10,10v30a10.00288,10.00288,0,0,1-8,9.79929V3514l-16-16h-48a9.99991,9.99991,0,0,1-10-10v-30a9.99991,9.99991,0,0,1,10-10h62m0-2h-62a12.01367,12.01367,0,0,0-12,12v30a12.01367,12.01367,0,0,0,12,12h47.17163l15.41406,15.41421L4716,3518.82843V3499.3157A12.0444,12.0444,0,0,0,4724,3488v-30a12.01367,12.01367,0,0,0-12-12h0Z" transform="translate(-4604 -3418)" fill="#9bdffd"/>
    </g>
  </g>
</svg>
