<svg xmlns="http://www.w3.org/2000/svg" viewBox="0 0 100 100">
  <g>
    <rect x="48" y="26" width="4" height="4" rx="2" ry="2" transform="translate(78 -22) rotate(90)" stroke="transparent"/>
    <path d="M50,81a110.99879,110.99879,0,0,1-12.96924-.75928A5.69727,5.69727,0,0,1,32,74.5835V25.45771a5.77611,5.77611,0,0,1,5.03076-5.73682,111.10952,111.10952,0,0,1,25.93848.07959A5.69727,5.69727,0,0,1,68,25.45771V74.5835a5.69727,5.69727,0,0,1-5.03076,5.65723A111.005,111.005,0,0,1,50,81Zm0-59.95879a109.0426,109.0426,0,0,0-12.73584.74561A3.697,3.697,0,0,0,34,25.45771V74.5835a3.697,3.697,0,0,0,3.26416,3.6709,109.14455,109.14455,0,0,0,25.47168,0A3.697,3.697,0,0,0,66,74.5835V25.45771a3.697,3.697,0,0,0-3.26416-3.6709A109.0426,109.0426,0,0,0,50,21.04121Z" stroke="transparent"/>
    <rect x="49" y="65" width="2" height="14" rx="1" ry="1" transform="translate(122 22) rotate(90)" stroke="transparent"/>
  </g>
</svg>
