
<svg width="24px" height="24px" viewBox="0 0 24 24" xmlns="http://www.w3.org/2000/svg">
    <g id="atom/icon/assign" stroke="none" stroke-width="1" fill="none" fill-rule="evenodd">
        <path d="M5,19 L5,18 L19,18 L19,19 L5,19 Z M7,10 C7,7.2425 9.2425,5 12,5 C14.7575,5 17,7.2425 17,10 C17,12.7575 14.7575,15 12,15 C9.2425,15 7,12.7575 7,10 Z M12,6 C9.791,6 8,7.791 8,10 C8,12.209 9.791,14 12,14 C14.209,14 16,12.209 16,10 C16,7.791 14.209,6 12,6 Z" id="Combined-Shape" fill="#2E2E2D"></path>
    </g>
</svg>