<svg xmlns="http://www.w3.org/2000/svg" viewBox="0 0 30 30">
  <path d="M10,22.219V8h4.873a8.56037,8.56037,0,0,1,2.071.23,4.37813,4.37813,0,0,1,1.552.698,3.06068,3.06068,0,0,1,.972,1.196,4.06634,4.06634,0,0,1,.337,1.724,3.07546,3.07546,0,0,1-.527,1.758,3.39974,3.39974,0,0,1-1.543,1.211,3.414,3.414,0,0,1,1.069.483,3,3,0,0,1,.752.747,3.13913,3.13913,0,0,1,.444.947,3.92385,3.92385,0,0,1,.147,1.075,4.49965,4.49965,0,0,1-.337,1.801,3.38987,3.38987,0,0,1-.977,1.299,4.2876,4.2876,0,0,1-1.552.786,7.44464,7.44464,0,0,1-2.066.264Zm2.471-8.232h2.422a2.79811,2.79811,0,0,0,1.802-.523,1.78837,1.78837,0,0,0,.649-1.479,1.815,1.815,0,0,0-.601-1.524,3.03358,3.03358,0,0,0-1.87-.469H12.471Zm0,1.816v4.443h2.744a3.34764,3.34764,0,0,0,1.069-.156,2.131,2.131,0,0,0,.777-.444,1.83062,1.83062,0,0,0,.469-.689,2.42783,2.42783,0,0,0,.156-.888,2.36108,2.36108,0,0,0-.557-1.661,2.35433,2.35433,0,0,0-1.806-.605Z" stroke="transparent"/>
</svg>
