<?xml version="1.0" encoding="UTF-8"?>
<svg width="24px" height="24px" viewBox="0 0 24 24" version="1.1" xmlns="http://www.w3.org/2000/svg" xmlns:xlink="http://www.w3.org/1999/xlink">
    <g id="atom/icon/calendar">
        <path d="M18,18 L18,8 C18,7.448 17.552,7 17,7 L16,7 L16,8 L15,8 L15,7 L9,7 L9,8 L8,8 L8,7 L7,7 C6.448,7 6,7.448 6,8 L6,18 C6,18.552 6.448,19 7,19 L17,19 C17.552,19 18,18.552 18,18 Z M17,6 C18.103,6 19,6.897 19,8 L19,18 C19,19.103 18.103,20 17,20 L7,20 C5.897,20 5,19.103 5,18 L5,8 C5,6.897 5.897,6 7,6 L8,6 L8,5 L9,5 L9,6 L15,6 L15,5 L16,5 L16,6 L17,6 Z M7,12 L7,11 L17,11 L17,12 L7,12 Z" id="Combined-Shape"></path>
    </g>
</svg>