<?xml version="1.0" encoding="UTF-8"?>
<svg width="36px" height="36px" viewBox="0 0 36 36" version="1.1" xmlns="http://www.w3.org/2000/svg" xmlns:xlink="http://www.w3.org/1999/xlink">
    <!-- Generator: Sketch 53.2 (72643) - https://sketchapp.com -->
    <title>atom/icon/36/chat</title>
    <desc>Created with Sketch.</desc>
    <g id="atom/icon/36/chat" stroke="none" stroke-width="1" fill="none" fill-rule="evenodd">
        <path d="M18,15 C18.552,15 19,15.448 19,16 C19,16.552 18.552,17 18,17 C17.448,17 17,16.552 17,16 C17,15.448 17.448,15 18,15 Z M22,15 C22.552,15 23,15.448 23,16 C23,16.552 22.552,17 22,17 C21.448,17 21,16.552 21,16 C21,15.448 21.448,15 22,15 Z M14,15 C14.552,15 15,15.448 15,16 C15,16.552 14.552,17 14,17 C13.448,17 13,16.552 13,16 C13,15.448 13.448,15 14,15 Z M23.9243,22.3594 C26.3283,21.2504 28.0003,18.8164 28.0003,16.0004 C28.0003,12.1404 24.8603,9.0004 21.0003,9.0004 L15.0003,9.0004 C11.1403,9.0004 8.0003,12.1404 8.0003,16.0004 C8.0003,19.5204 10.6123,22.4424 14.0003,22.9284 L13.9823,27.2004 L23.9243,22.3594 Z M29.0003,16.0004 C29.0003,19.1864 27.1323,21.9284 24.4373,23.2154 L24.4423,23.2234 L12.9823,28.7994 L12.9823,23.7344 C9.5423,22.8394 7.0003,19.7194 7.0003,16.0004 C7.0003,11.5824 10.5813,8.0004 15.0003,8.0004 L21.0003,8.0004 C25.4183,8.0004 29.0003,11.5824 29.0003,16.0004 Z" id="Combined-Shape" fill="#121317"></path>
    </g>
</svg>