<?xml version="1.0" encoding="UTF-8"?>
<svg width="42px" height="42px" viewBox="0 0 42 42" version="1.1" xmlns="http://www.w3.org/2000/svg" xmlns:xlink="http://www.w3.org/1999/xlink">
    <g id="atom/icon/42/chat">
        <path d="M21,18 C21.552,18 22,18.448 22,19 C22,19.552 21.552,20 21,20 C20.448,20 20,19.552 20,19 C20,18.448 20.448,18 21,18 Z M25,18 C25.552,18 26,18.448 26,19 C26,19.552 25.552,20 25,20 C24.448,20 24,19.552 24,19 C24,18.448 24.448,18 25,18 Z M17,18 C17.552,18 18,18.448 18,19 C18,19.552 17.552,20 17,20 C16.448,20 16,19.552 16,19 C16,18.448 16.448,18 17,18 Z M26.9243,25.3594 C29.3283,24.2504 31.0003,21.8164 31.0003,19.0004 C31.0003,15.1404 27.8603,12.0004 24.0003,12.0004 L18.0003,12.0004 C14.1403,12.0004 11.0003,15.1404 11.0003,19.0004 C11.0003,22.5204 13.6123,25.4424 17.0003,25.9284 L16.9823,30.2004 L26.9243,25.3594 Z M32.0003,19.0004 C32.0003,22.1864 30.1323,24.9284 27.4373,26.2154 L27.4423,26.2234 L15.9823,31.7994 L15.9823,26.7344 C12.5423,25.8394 10.0003,22.7194 10.0003,19.0004 C10.0003,14.5824 13.5813,11.0004 18.0003,11.0004 L24.0003,11.0004 C28.4183,11.0004 32.0003,14.5824 32.0003,19.0004 Z" id="Combined-Shape"></path>
    </g>
</svg>