<?xml version="1.0" encoding="UTF-8"?>
<svg width="24px" height="24px" viewBox="0 0 24 24" version="1.1" xmlns="http://www.w3.org/2000/svg" xmlns:xlink="http://www.w3.org/1999/xlink">
    <g id="atom/icon/complete">
        <path d="M12,4 C7.581722,4 4,7.581722 4,12 C4,16.418278 7.581722,20 12,20 C16.418278,20 20,16.418278 20,12 C20,7.581722 16.418278,4 12,4 Z M12,3 C16.9705627,3 21,7.02943725 21,12 C21,16.9705627 16.9705627,21 12,21 C7.02943725,21 3,16.9705627 3,12 C3,7.02943725 7.02943725,3 12,3 Z M15.5351804,8.8788261 L16.2429942,9.58663999 L10.58614,15.2434942 L7.75700576,12.41436 L8.46411254,11.7072532 L10.5854329,13.8285736 L15.5351804,8.8788261 Z" id="Combined-Shape"></path>
    </g>
</svg>