<?xml version="1.0" encoding="UTF-8"?>
<svg width="24px" height="24px" viewBox="0 0 24 24" version="1.1" xmlns="http://www.w3.org/2000/svg" xmlns:xlink="http://www.w3.org/1999/xlink">
    <!-- Generator: Sketch 53.2 (72643) - https://sketchapp.com -->
    <title>atom/icon/emoji</title>
    <desc>Created with Sketch.</desc>
    <g id="atom/icon/emoji" stroke="none" stroke-width="1" fill="none" fill-rule="evenodd">
        <path d="M12,20 C16.411,20 20,16.411 20,12 C20,7.589 16.411,4 12,4 C7.589,4 4,7.589 4,12 C4,16.411 7.589,20 12,20 Z M12,3 C16.971,3 21,7.029 21,12 C21,16.971 16.971,21 12,21 C7.029,21 3,16.971 3,12 C3,7.029 7.029,3 12,3 Z M16.5127,14.8999 C16.8197,14.3719 16.9997,13.7429 16.9997,12.9999 L6.9997,12.9999 C6.9997,13.7429 7.1797,14.3719 7.4877,14.8999 L16.5127,14.8999 Z M16.9997,11.9999 L17.9997,11.9999 L17.9997,12.9999 C17.9997,15.9909 15.5887,17.9999 11.9997,17.9999 C8.4107,17.9999 5.9997,15.9909 5.9997,12.9999 L5.9997,11.9999 L6.9997,11.9999 L16.9997,11.9999 Z M9,10 C8.448,10 8,9.552 8,9 C8,8.448 8.448,8 9,8 C9.552,8 10,8.448 10,9 C10,9.552 9.552,10 9,10 Z M15,10 C14.448,10 14,9.552 14,9 C14,8.448 14.448,8 15,8 C15.552,8 16,8.448 16,9 C16,9.552 15.552,10 15,10 Z" id="Combined-Shape" fill="#121317"></path>
    </g>
</svg>