<?xml version="1.0" encoding="UTF-8"?>
<svg width="24px" height="24px" viewBox="0 0 24 24" version="1.1" xmlns="http://www.w3.org/2000/svg" xmlns:xlink="http://www.w3.org/1999/xlink">
    <!-- Generator: Sketch 53.2 (72643) - https://sketchapp.com -->
    <title>atom/icon/emoji</title>
    <desc>Created with Sketch.</desc>
    <g id="atom/icon/emoji" stroke="none" stroke-width="1" fill="none" fill-rule="evenodd">
        <path d="M12,20 C16.411,20 20,16.411 20,12 C20,7.589 16.411,4 12,4 C7.589,4 4,7.589 4,12 C4,16.411 7.589,20 12,20 Z M12,3 C16.971,3 21,7.029 21,12 C21,16.971 16.971,21 12,21 C7.029,21 3,16.971 3,12 C3,7.029 7.029,3 12,3 Z M12,17 C14.571,17 17,15.761 17,13 L7,13 C7,15.761 9.429,17 12,17 Z M6,12 L18,12 L18,13 C18,15.991 15.589,18 12,18 C8.411,18 6,15.991 6,13 L6,12 Z M9,9 C8.448,9 8,8.552 8,8 C8,7.448 8.448,7 9,7 C9.552,7 10,7.448 10,8 C10,8.552 9.552,9 9,9 Z M15,9 C14.448,9 14,8.552 14,8 C14,7.448 14.448,7 15,7 C15.552,7 16,7.448 16,8 C16,8.552 15.552,9 15,9 Z" id="Combined-Shape" fill="#121317"></path>
    </g>
</svg>