<?xml version="1.0" encoding="UTF-8"?>
<svg width="24px" height="24px" viewBox="0 0 24 24" version="1.1" xmlns="http://www.w3.org/2000/svg" xmlns:xlink="http://www.w3.org/1999/xlink">
    <!-- Generator: Sketch 53.2 (72643) - https://sketchapp.com -->
    <g id="atom/icon/emoji">
        <path d="M12,3 C16.971,3 21,7.029 21,12 C21,16.971 16.971,21 12,21 C7.029,21 3,16.971 3,12 C3,7.029 7.029,3 12,3 Z M12,4 C7.589,4 4,7.589 4,12 C4,16.411 7.589,20 12,20 C16.411,20 20,16.411 20,12 C20,7.589 16.411,4 12,4 Z M8.6576,14.7001 C9.1516,15.4701 10.2666,16.3481 11.9896,16.3481 C13.7206,16.3481 14.8376,15.4701 15.3316,14.7001 C14.3446,14.7591 12.7136,14.8511 11.9996,14.8511 L11.9896,14.8511 C11.2756,14.8511 9.6446,14.7591 8.6576,14.7001 Z M12.0006,17.3481 C9.2576,17.3481 7.6346,15.4961 7.3976,14.2441 L7.2776,13.6101 L7.9216,13.6521 C7.9516,13.6541 10.9846,13.8511 11.9896,13.8511 L11.9996,13.8511 C13.0046,13.8511 16.0376,13.6541 16.0676,13.6521 L16.7116,13.6101 L16.5916,14.2441 C16.3546,15.4961 14.7316,17.3481 12.0006,17.3481 Z M10.3,9.8 C10.3,10.352 9.852,10.8 9.3,10.8 C8.748,10.8 8.3,10.352 8.3,9.8 C8.3,9.248 8.748,8.8 9.3,8.8 C9.852,8.8 10.3,9.248 10.3,9.8 Z M15.7,9.8 C15.7,10.352 15.252,10.8 14.7,10.8 C14.148,10.8 13.7,10.352 13.7,9.8 C13.7,9.248 14.148,8.8 14.7,8.8 C15.252,8.8 15.7,9.248 15.7,9.8 Z" id="Combined-Shape"></path>
    </g>
</svg>