<?xml version="1.0" encoding="UTF-8"?>
<svg width="36px" height="36px" viewBox="0 0 36 36" version="1.1" xmlns="http://www.w3.org/2000/svg" xmlns:xlink="http://www.w3.org/1999/xlink">
    <g id="atom/icon/36/see">
        <path d="M18.1123,11 C23.2903,11 27.8013,13.819 30.2233,18 C27.8013,22.181 23.2903,25 18.1123,25 C12.9323,25 8.4223,22.181 6.0003,18 C8.4223,13.819 12.9323,11 18.1123,11 Z M18.1123,12 C13.6933,12 9.5533,14.285 7.1713,18 C9.5533,21.715 13.6933,24 18.1123,24 C22.5303,24 26.6693,21.715 29.0523,18 C26.6693,14.285 22.5303,12 18.1123,12 Z M18.1123,15 C19.7683,15 21.1123,16.343 21.1123,18 C21.1123,19.657 19.7683,21 18.1123,21 C16.4553,21 15.1123,19.657 15.1123,18 C15.1123,16.343 16.4553,15 18.1123,15 Z M18.1123,16 C17.0083,16 16.1123,16.897 16.1123,18 C16.1123,19.103 17.0083,20 18.1123,20 C19.2153,20 20.1123,19.103 20.1123,18 C20.1123,16.897 19.2153,16 18.1123,16 Z" id="Combined-Shape"></path>
    </g>
</svg>