<?xml version="1.0" encoding="UTF-8"?>
<svg width="24px" height="24px" viewBox="0 0 24 24" version="1.1" xmlns="http://www.w3.org/2000/svg" xmlns:xlink="http://www.w3.org/1999/xlink">
    <!-- Generator: Sketch 53.2 (72643) - https://sketchapp.com -->
    <title>GIF</title>
    <desc>Created with Sketch.</desc>
    <g id="GIF" stroke="none" stroke-width="1" fill="none" fill-rule="evenodd">
        <rect id="Rectangle" stroke="#000000" x="2.5" y="3.5" width="19" height="17" rx="2"></rect>
        <rect id="Rectangle" fill="#000000" x="15" y="8" width="1" height="8"></rect>
        <rect id="Rectangle-Copy-3" fill="#000000" x="12" y="8" width="1" height="8"></rect>
        <path d="M9,13 L7,13 L7,12 L9,12 L10,12 L10,13.5 C10,14.8807119 8.88071187,16 7.5,16 C6.11928813,16 5,14.8807119 5,13.5 L5,10.5 C5,9.11928813 6.11928813,8 7.5,8 C8.70947896,8 9.71835578,8.85887984 9.94999094,10 L8.91464715,10 C8.70872894,9.41740381 8.15310941,9 7.5,9 C6.67157288,9 6,9.67157288 6,10.5 L6,13.5 C6,14.3284271 6.67157288,15 7.5,15 C8.32842712,15 9,14.3284271 9,13.5 L9,13 Z" id="Combined-Shape" fill="#000000"></path>
        <rect id="Rectangle-Copy" fill="#000000" x="15" y="8" width="4" height="1"></rect>
        <rect id="Rectangle-Copy-2" fill="#000000" x="15" y="12" width="4" height="1"></rect>
    </g>
</svg>