<svg xmlns="http://www.w3.org/2000/svg" viewBox="0 0 24 24"><title>Asset 1</title><rect width="24" height="24" style="fill:#fff"/><rect x="7" y="12" width="2" height="1" style="fill:#231f20"/><rect x="12" y="6" width="1" height="11" style="fill:#231f20"/><rect x="16" y="6" width="1" height="11" style="fill:#231f20"/><rect x="18" y="4" width="1" height="5" transform="translate(25 -12) rotate(90)" style="fill:#231f20"/><rect x="17.5" y="9.5" width="1" height="4" transform="translate(29.5 -6.5) rotate(90)" style="fill:#231f20"/><rect x="8" y="12" width="1" height="4" style="fill:#231f20"/><rect x="5" y="16" width="3" height="1" style="fill:#231f20"/><rect x="4" y="7" width="1" height="9" style="fill:#231f20"/><rect x="5" y="6" width="3" height="1" transform="translate(13 13) rotate(180)" style="fill:#231f20"/><rect x="8" y="7" width="1" height="1" transform="translate(17 15) rotate(180)" style="fill:#231f20"/><rect y="3" width="1" height="17" style="fill:#231f20"/><rect x="23" y="3" width="1" height="17" style="fill:#231f20"/><rect x="11.5" y="-8.5" width="1" height="22" transform="translate(14.5 -9.5) rotate(90)" style="fill:#231f20"/><rect x="11.5" y="9.5" width="1" height="22" transform="translate(32.5 8.5) rotate(90)" style="fill:#231f20"/></svg>