<?xml version="1.0" encoding="UTF-8"?>
<svg width="24px" height="24px" viewBox="0 0 24 24" version="1.1" xmlns="http://www.w3.org/2000/svg" xmlns:xlink="http://www.w3.org/1999/xlink">
    <!-- Generator: Sketch 53.2 (72643) - https://sketchapp.com -->
    <title>atom/icon/GIF</title>
    <desc>Created with Sketch.</desc>
    <g id="atom/icon/GIF" stroke="none" stroke-width="1" fill="none" fill-rule="evenodd">
        <path d="M21,18 L21,6 C21,5.448 20.552,5 20,5 L4,5 C3.448,5 3,5.448 3,6 L3,18 C3,18.552 3.448,19 4,19 L20,19 C20.552,19 21,18.552 21,18 Z M20,4 C21.103,4 22,4.897 22,6 L22,18 C22,19.103 21.103,20 20,20 L4,20 C2.897,20 2,19.103 2,18 L2,6 C2,4.897 2.897,4 4,4 L20,4 Z M12,16 L12,8 L13,8 L13,16 L12,16 Z M15,8 L16,8 L18.5,8 L18.5,9 L16,9 L16,11 L18,11 L18,12 L16,12 L16,16 L15,16 L15,8 Z M8.085,7.7588 C9.386,7.7588 10.074,8.3558 10.074,9.4838 L10.074,10.5978 L9.046,10.5978 L9.046,9.6998 C9.046,8.9768 8.735,8.6548 8.037,8.6548 C7.339,8.6548 7.028,8.9768 7.028,9.6998 L7.028,14.2048 C7.028,14.9278 7.339,15.2508 8.037,15.2508 C8.735,15.2508 9.046,14.9278 9.046,14.2048 L9.046,12.7018 L9.046,12.6518 L8.997,12.6518 L8.039,12.6518 L8.039,11.7918 L10.074,11.7918 L10.074,14.4208 C10.074,15.5818 9.423,16.1458 8.085,16.1458 L7.989,16.1458 C6.651,16.1458 6,15.5818 6,14.4208 L6,9.4838 C6,8.3558 6.688,7.7588 7.989,7.7588 L8.085,7.7588 Z" id="Combined-Shape" fill="#121317"></path>
    </g>
</svg>