<?xml version="1.0" encoding="UTF-8"?>
<svg width="24px" height="24px" viewBox="0 0 24 24" version="1.1" xmlns="http://www.w3.org/2000/svg" xmlns:xlink="http://www.w3.org/1999/xlink">
    <g id="atom/icon/empty">
        <path d="M14.8995,6 C13.8505,6 12.8005,6.4 12.0005,7.201 C11.1995,6.4 10.1495,6 9.1005,6 C8.0515,6 7.0015,6.4 6.2015,7.201 C4.5995,8.802 4.5995,11.398 6.2015,13 L12.0005,18.799 L17.7985,13 C19.4005,11.398 19.4005,8.802 17.7985,7.201 C16.9985,6.4 15.9485,6 14.8995,6 M14.8995,7 C15.7275,7 16.5065,7.322 17.0915,7.908 C18.3005,9.117 18.3005,11.084 17.0915,12.293 L12.0005,17.385 L6.9085,12.293 C5.6995,11.084 5.6995,9.117 6.9085,7.908 C7.4935,7.322 8.2725,7 9.1005,7 C9.9285,7 10.7075,7.322 11.2935,7.908 L12.0005,8.615 L12.7075,7.908 C13.2925,7.322 14.0715,7 14.8995,7" id="Fill-3"></path>
    </g>
</svg>