<?xml version="1.0" encoding="UTF-8"?>
<svg width="24px" height="24px" viewBox="0 0 24 24" version="1.1" xmlns="http://www.w3.org/2000/svg" xmlns:xlink="http://www.w3.org/1999/xlink">
    <g id="atom/icon/hide_completed">
        <path d="M19.1272,13.4792 C19.2512,13.4872 19.3742,13.4982 19.5002,13.4982 C19.8602,13.4982 20.2122,13.4612 20.5542,13.3952 C18.5402,15.8942 15.4602,17.4982 12.0002,17.4982 C10.9712,17.4982 9.9782,17.3502 9.0342,17.0852 L9.8622,16.2572 C10.5572,16.4082 11.2702,16.4982 12.0002,16.4982 C14.7342,16.4982 17.2692,15.3902 19.1272,13.4792 Z M3.805,12.2092 C4.619,13.3802 5.659,14.3282 6.835,15.0422 L6.116,15.7612 C4.713,14.8652 3.515,13.6752 2.641,12.2562 C4.374,8.8422 7.909,6.4982 12,6.4982 C12.741,6.4982 13.453,6.5992 14.15,6.7452 C14.075,7.0642 14.03,7.3942 14.014,7.7312 C13.36,7.5902 12.689,7.4982 12,7.4982 C8.599,7.4982 5.509,9.2892 3.805,12.2092 Z M14.5003,11.9982 C14.5003,13.3792 13.3813,14.4982 12.0003,14.4982 C11.8823,14.4982 11.7703,14.4792 11.6563,14.4632 L14.4653,11.6542 C14.4813,11.7682 14.5003,11.8802 14.5003,11.9982 Z M9.5003,11.9982 C9.5003,10.6172 10.6193,9.4982 12.0003,9.4982 C12.1183,9.4982 12.2303,9.5172 12.3443,9.5332 L9.5353,12.3422 C9.5193,12.2282 9.5003,12.1162 9.5003,11.9982 Z M5.3968,17.8947 L14.1268,9.1647 C14.2078,9.5347 14.3268,9.8897 14.4778,10.2277 L6.1038,18.6017 L5.3968,17.8947 Z M19.8436,8.9938 L21.9656,6.8718 L21.2586,6.1648 L19.1366,8.2858 L18.0756,7.2258 L17.3686,7.9328 L18.4296,8.9938 L19.1366,9.7008 L19.8436,8.9938 Z M19.5006,3.4978 C21.9856,3.4978 24.0006,5.5128 24.0006,7.9978 C24.0006,10.4838 21.9856,12.4978 19.5006,12.4978 C17.0146,12.4978 15.0006,10.4838 15.0006,7.9978 C15.0006,5.5128 17.0146,3.4978 19.5006,3.4978 Z" id="Combined-Shape"></path>
    </g>
</svg>