<svg xmlns="http://www.w3.org/2000/svg" viewBox="0 0 24 24">
  <g>
    <path d="M7,9.5008V9.4996A1.49918,1.49918,0,0,1,8.4992,8.0004h0A1.49918,1.49918,0,0,1,9.9984,9.4996v.0012A1.49918,1.49918,0,0,1,8.4992,11h0A1.49918,1.49918,0,0,1,7,9.5008Z" stroke="transparent" />
    <path d="M11,9.5008V9.4996a1.49918,1.49918,0,0,1,1.4992-1.4992h0a1.49918,1.49918,0,0,1,1.4992,1.4992v.0012A1.49918,1.49918,0,0,1,12.4992,11h0A1.49918,1.49918,0,0,1,11,9.5008Z" stroke="transparent" />
    <path d="M15,9.5012V9.5A1.5,1.5,0,0,1,16.5,8h0A1.5,1.5,0,0,1,18,9.5v.0012a1.5,1.5,0,0,1-1.5,1.5h0A1.5,1.5,0,0,1,15,9.5012Z" stroke="transparent" />
    <path d="M16.0205,1H8.9795A7.98812,7.98812,0,0,0,1,8.979v1.042a7.95177,7.95177,0,0,0,2.4033,5.6968L0,21.4453l16.6582-3.4775,1.9473-.4058A8.00935,8.00935,0,0,0,24,10.021V8.979A7.98812,7.98812,0,0,0,16.0205,1ZM22,10.021a5.97614,5.97614,0,0,1-3.9209,5.6079l-1.6943.3525L7.4326,17.8467l-3.3994.708.9746-1.6235,1.0264-1.7105A5.99743,5.99743,0,0,1,3,10.021V8.979A5.979,5.979,0,0,1,8.9795,3h7.041A5.979,5.979,0,0,1,22,8.979Z" stroke="transparent" />
  </g>
</svg>