<?xml version="1.0" encoding="UTF-8"?>
<svg width="24px" height="24px" viewBox="0 0 24 24" version="1.1" xmlns="http://www.w3.org/2000/svg" xmlns:xlink="http://www.w3.org/1999/xlink">
    <g id="atom/icon/move">
        <path d="M12.5,20 C16.636,20 20,16.636 20,12.5 C20,8.364 16.636,5 12.5,5 C8.364,5 5,8.364 5,12.5 C5,16.636 8.364,20 12.5,20 Z M12.5,4 C17.194,4 21,7.806 21,12.5 C21,17.194 17.194,21 12.5,21 C7.806,21 4,17.194 4,12.5 C4,7.806 7.806,4 12.5,4 Z M12.021,9.707 L12.728,9 L15.957,12.228 L12.728,15.457 L12.021,14.75 L14.042,12.728 L9,12.728 L9,11.728 L14.042,11.728 L12.021,9.707 Z" id="Combined-Shape"></path>
    </g>
</svg>