
<svg xmlns="http://www.w3.org/2000/svg" viewBox="0 0 30 30">
  <g>
    <rect x="13" y="14" width="13" height="2" stroke="transparent"/>
    <rect x="13" y="8" width="13" height="2" stroke="transparent"/>
    <rect x="13" y="20" width="13" height="2" stroke="transparent"/>
    <path d="M8.6572,18h-4.386v-.87l2.07-2.206q.2325-.255.394-.466a3.45193,3.45193,0,0,0,.258-.387,1.43373,1.43373,0,0,0,.141-.327,1.09554,1.09554,0,0,0,.042-.292.98151.98151,0,0,0-.215-.671.78048.78048,0,0,0-.616-.243.92621.92621,0,0,0-.397.081.8179.8179,0,0,0-.291.224,1.01246,1.01246,0,0,0-.177.341,1.4366,1.4366,0,0,0-.062.43H4.1442a2.14976,2.14976,0,0,1,.154-.813,1.94668,1.94668,0,0,1,.443-.668,2.12681,2.12681,0,0,1,.702-.452,2.41885,2.41885,0,0,1,.924-.167,2.91023,2.91023,0,0,1,.895.125,1.798,1.798,0,0,1,.652.358,1.49618,1.49618,0,0,1,.4.571,2.01917,2.01917,0,0,1,.136.761,1.903,1.903,0,0,1-.101.619,2.90093,2.90093,0,0,1-.285.598,4.776,4.776,0,0,1-.447.604q-.261.306-.582.635l-1.129,1.191h2.751Z" stroke="transparent" fill-rule="evenodd"/>
    <path d="M5.56351,22.2383h.677a.95343.95343,0,0,0,.716-.242.88614.88614,0,0,0,.233-.641.99848.99848,0,0,0-.053-.328.68206.68206,0,0,0-.16-.259.75307.75307,0,0,0-.27-.169,1.08289,1.08289,0,0,0-.383-.062,1.0634,1.0634,0,0,0-.332.051.84918.84918,0,0,0-.272.143.677.677,0,0,0-.185.226.65988.65988,0,0,0-.068.301h-1.27a1.55217,1.55217,0,0,1,.165-.718,1.6495,1.6495,0,0,1,.449-.55,2.07757,2.07757,0,0,1,.665-.351,2.5938,2.5938,0,0,1,.817-.126,3.12227,3.12227,0,0,1,.882.117,1.93218,1.93218,0,0,1,.683.347,1.59014,1.59014,0,0,1,.444.571,1.86133,1.86133,0,0,1,.158.789,1.35463,1.35463,0,0,1-.253.789,1.74512,1.74512,0,0,1-.305.33,1.80183,1.80183,0,0,1-.413.257,1.5885,1.5885,0,0,1,.806.58,1.57244,1.57244,0,0,1,.266.914,1.79472,1.79472,0,0,1-.173.8,1.71676,1.71676,0,0,1-.477.591,2.14627,2.14627,0,0,1-.719.364,3.08115,3.08115,0,0,1-.899.126,2.94577,2.94577,0,0,1-.799-.11,2.08485,2.08485,0,0,1-.697-.339,1.72587,1.72587,0,0,1-.492-.573,1.692,1.692,0,0,1-.187-.82h1.27a.76636.76636,0,0,0,.071.33.744.744,0,0,0,.195.257.91727.91727,0,0,0,.297.169,1.09332,1.09332,0,0,0,.373.062,1.25218,1.25218,0,0,0,.405-.062.83854.83854,0,0,0,.305-.178.77718.77718,0,0,0,.191-.277.93214.93214,0,0,0,.066-.358,1.18691,1.18691,0,0,0-.072-.437.73391.73391,0,0,0-.209-.297.891.891,0,0,0-.332-.169,1.60316,1.60316,0,0,0-.437-.055h-.677Z" stroke="transparent" fill-rule="evenodd"/>
    <polygon points="7.356 10 6.086 10 6.086 5.104 4.57 5.575 4.57 4.542 7.22 3.593 7.356 3.593 7.356 10" stroke="transparent" fill-rule="evenodd"/>
  </g>
</svg>
