<?xml version="1.0" encoding="UTF-8"?>
<svg width="24px" height="24px" viewBox="0 0 24 24" version="1.1" xmlns="http://www.w3.org/2000/svg" xmlns:xlink="http://www.w3.org/1999/xlink">
    <!-- Generator: Sketch 53.2 (72643) - https://sketchapp.com -->
    <title>atom/icon/pin</title>
    <desc>Created with Sketch.</desc>
    <g id="atom/icon/pin" stroke="none" stroke-width="1" fill="none" fill-rule="evenodd">
        <path d="M12,17.1712671 L10.667,15.1427226 L13.333,15.1427226 L12,17.1712671 Z M10,11.0856336 L14,11.0856336 L14,6.01427226 L10,6.01427226 L10,11.0856336 Z M8,13.1141781 C8,12.5542998 8.447,12.0999058 9,12.0999058 L15,12.0999058 C15.553,12.0999058 16,12.5542998 16,13.1141781 L16,14.1284503 L8,14.1284503 L8,13.1141781 Z M15,11.0856336 L15,6.01427226 L16,6.01427226 L16,5 L8,5 L8,6.01427226 L9,6.01427226 L9,11.0856336 C7.897,11.0856336 7,11.9954358 7,13.1141781 L7,15.1427226 L9.465,15.1427226 L12,19 L14.535,15.1427226 L17,15.1427226 L17,13.1141781 C17,11.9954358 16.103,11.0856336 15,11.0856336 L15,11.0856336 Z" id="Fill-1" fill="#121317"></path>
    </g>
</svg>