<?xml version="1.0" encoding="UTF-8"?>
<svg width="42px" height="42px" viewBox="0 0 42 42" version="1.1" xmlns="http://www.w3.org/2000/svg" xmlns:xlink="http://www.w3.org/1999/xlink">
    <g id="atom/icon/42/plan">
        <path d="M32,31 L32,13 C32,12.448 31.552,12 31,12 L29,12 L28,12 L14,12 L13,12 L11,12 C10.448,12 10,12.448 10,13 L10,31 C10,31.552 10.448,32 11,32 L31,32 C31.552,32 32,31.552 32,31 Z M31,11 C32.103,11 33,11.897 33,13 L33,31 C33,32.103 32.103,33 31,33 L11,33 C9.897,33 9,32.103 9,31 L9,13 C9,11.897 9.897,11 11,11 L13,11 L13,9 L14,9 L14,11 L28,11 L28,9 L29,9 L29,11 L31,11 Z M12,18 L12,17 L18,17 L18,18 L12,18 Z M12,24 L12,22 L14,22 L14,24 L12,24 Z M16,24 L16,22 L18,22 L18,24 L16,24 Z M20,24 L20,22 L22,22 L22,24 L20,24 Z M24,24 L24,22 L26,22 L26,24 L24,24 Z M28,24 L28,22 L30,22 L30,24 L28,24 Z M12,28 L12,26 L14,26 L14,28 L12,28 Z M16,28 L16,26 L18,26 L18,28 L16,28 Z M20,28 L20,26 L22,26 L22,28 L20,28 Z M24,28 L24,26 L26,26 L26,28 L24,28 Z M28,28 L28,26 L30,26 L30,28 L28,28 Z" id="Combined-Shape"></path>
    </g>
</svg>