<?xml version="1.0" encoding="UTF-8"?>
<svg width="24px" height="24px" viewBox="0 0 24 24" version="1.1" xmlns="http://www.w3.org/2000/svg" xmlns:xlink="http://www.w3.org/1999/xlink">
    <g>
        <path d="M13,12 L16,12 L16,13 L13,13 L13,16 L12,16 L12,13 L9,13 L9,12 L12,12 L12,9 L13,9 L13,12 Z M12.5,20 C16.6421356,20 20,16.6421356 20,12.5 C20,8.35786438 16.6421356,5 12.5,5 C8.35786438,5 5,8.35786438 5,12.5 C5,16.6421356 8.35786438,20 12.5,20 Z M12.5,21 C7.80557963,21 4,17.1944204 4,12.5 C4,7.80557963 7.80557963,4 12.5,4 C17.1944204,4 21,7.80557963 21,12.5 C21,17.1944204 17.1944204,21 12.5,21 Z" id="Combined-Shape" stroke="transparent"></path>
    </g>
</svg>