<?xml version="1.0" encoding="UTF-8"?>
<svg width="24px" height="24px" viewBox="0 0 24 24" version="1.1" xmlns="http://www.w3.org/2000/svg" xmlns:xlink="http://www.w3.org/1999/xlink">
    <g>
        <path d="M5,3 L16.522,3 L15.522,4 L6,4 L6,20 L14,20 L14,16 L18,16 L18,10.007 L19,9.008 L19,17 L15.003,21 L15,21 L5,21 L5,3 Z M15,17 L15,19.588 L17.586,17 L15,17 Z M17.9357,3 L20.7647,5.829 L12.0227,14.57 L12.0227,14.571 L8.4877,15.279 L9.1937,11.743 L17.9357,3 Z M10.6077,11.743 L12.0227,13.156 L19.3507,5.829 L17.9357,4.415 L10.6077,11.743 Z" id="Combined-Shape" stroke="transparent"></path>
    </g>
</svg>