<?xml version="1.0" encoding="UTF-8"?>
<svg width="42px" height="42px" viewBox="0 0 42 42" version="1.1" xmlns="http://www.w3.org/2000/svg" xmlns:xlink="http://www.w3.org/1999/xlink">
    <!-- Generator: Sketch 53.2 (72643) - https://sketchapp.com -->
    <title>atom/icon/42/projects</title>
    <desc>Created with Sketch.</desc>
    <g id="atom/icon/42/projects" stroke="none" stroke-width="1" fill="none" fill-rule="evenodd">
        <path d="M12,10.0011 L27.898,10.0011 L26.899,11.0011 L13,11.0011 L13,31.0011 L23,31.0011 L23,25.0001 L29,25.0001 L29,17.3851 L30,16.3851 L30,26.0001 L30,26.0031 L24.029,32.0011 L24.001,32.0011 L12,32.0011 L12,10.0011 Z M24.001,26.0001 L24.001,30.6131 L28.591,26.0001 L24.001,26.0001 Z M29.3124,10.0002 L29.3144,10.0002 L32.1424,12.8282 L22.2434,22.7282 L18.7074,23.4352 L19.4154,19.9002 L19.4144,19.8992 L29.3124,10.0002 Z M20.8284,19.8992 L22.2434,21.3142 L30.7284,12.8282 L29.3134,11.4142 L20.8284,19.8992 Z" id="Combined-Shape" fill="#121317"></path>
    </g>
</svg>