<svg xmlns="http://www.w3.org/2000/svg" viewBox="0 0 24 24">
  <path d="M12,3a9,9,0,1,0,9,9,9.00008,9.00008,0,0,0-9-9m.885,13.475a1.06326,1.06326,0,0,1-.263.365,1.28815,1.28815,0,0,1-.404.243,1.56068,1.56068,0,0,1-1.039,0,1.2832,1.2832,0,0,1-.403-.243,1.03764,1.03764,0,0,1-.263-.365,1.17426,1.17426,0,0,1,0-.916,1.03242,1.03242,0,0,1,.263-.366,1.2832,1.2832,0,0,1,.403-.243,1.56068,1.56068,0,0,1,1.039,0,1.28815,1.28815,0,0,1,.404.243,1.05768,1.05768,0,0,1,.263.366,1.186,1.186,0,0,1,0,.916M14.874,10.5a2.54408,2.54408,0,0,1-.349.649,4.32636,4.32636,0,0,1-.523.585q-.3.2835-.642.598a2.65792,2.65792,0,0,0-.332.349,1.58385,1.58385,0,0,0-.212.358,1.91424,1.91424,0,0,0-.116.41,3.42922,3.42922,0,0,0-.044.489H10.701a6.83308,6.83308,0,0,1,.044-.82,3.25,3.25,0,0,1,.154-.681,2.37536,2.37536,0,0,1,.294-.574,2.7385,2.7385,0,0,1,.465-.502,4.833,4.833,0,0,0,.755-.758,1.27639,1.27639,0,0,0,.277-.793,1.15491,1.15491,0,0,0-.222-.783.84571.84571,0,0,0-.667-.25.93181.93181,0,0,0-.342.065.80149.80149,0,0,0-.29.199,1.018,1.018,0,0,0-.209.345,1.49815,1.49815,0,0,0-.088.506H8.561a3.12742,3.12742,0,0,1,.263-1.313,2.50924,2.50924,0,0,1,.691-.899,2.778,2.778,0,0,1,1.022-.516A4.69426,4.69426,0,0,1,11.801,7a4.80368,4.80368,0,0,1,1.34.174,2.80917,2.80917,0,0,1,1.008.516,2.23539,2.23539,0,0,1,.633.848A2.93706,2.93706,0,0,1,15,9.707a2.32325,2.32325,0,0,1-.126.793" stroke="transparent" fill-rule="evenodd"/>
</svg>
