<?xml version="1.0" encoding="UTF-8"?>
<svg width="180px" height="180px" viewBox="0 0 180 180" version="1.1" xmlns="http://www.w3.org/2000/svg" xmlns:xlink="http://www.w3.org/1999/xlink">
    <g id="atom/illustration/team">
        <path d="M90,90 C97.72,90 104,83.72 104,76 C104,68.28 97.72,62 90,62 C82.28,62 76,68.28 76,76 C76,83.72 82.28,90 90,90 Z M90,58 C99.926,58 108,66.076 108,76 C108,85.924 99.926,94 90,94 C80.076,94 72,85.924 72,76 C72,66.076 80.076,58 90,58 Z M42,108 C49.72,108 56,101.72 56,94 C56,86.28 49.72,80 42,80 C34.28,80 28,86.28 28,94 C28,101.72 34.28,108 42,108 Z M42,76 C51.926,76 60,84.076 60,94 C60,103.924 51.926,112 42,112 C32.076,112 24,103.924 24,94 C24,84.076 32.076,76 42,76 Z M138,108 C145.72,108 152,101.72 152,94 C152,86.28 145.72,80 138,80 C130.28,80 124,86.28 124,94 C124,101.72 130.28,108 138,108 Z M138,76 C147.926,76 156,84.076 156,94 C156,103.924 147.926,112 138,112 C128.076,112 120,103.924 120,94 C120,84.076 128.076,76 138,76 Z M120,120 L155.426,120 C159.636,110.862 162,100.706 162,90 C162,50.298 129.702,18 90,18 C50.298,18 18,50.298 18,90 C18,100.706 20.364,110.862 24.574,120 L60,120 L60,114 C60,107.382 65.382,102 72,102 L108,102 C114.618,102 120,107.382 120,114 L120,120 Z M120,155.426 C134.258,148.862 145.998,137.76 153.414,124 L120,124 L120,155.426 Z M116,157.124 L116,114 C116,109.588 112.412,106 108,106 L72,106 C67.588,106 64,109.588 64,114 L64,157.124 C72.07,160.26 80.834,162 90,162 C99.166,162 107.93,160.26 116,157.124 Z M60,155.426 L60,124 L26.586,124 C34.002,137.76 45.742,148.862 60,155.426 Z M90,14 C131.906,14 166,48.094 166,90 C166,131.906 131.906,166 90,166 C48.094,166 14,131.906 14,90 C14,48.094 48.094,14 90,14 Z" id="Combined-Shape"></path>
    </g>
</svg>