<?xml version="1.0" encoding="UTF-8"?>
<svg width="180px" height="180px" viewBox="0 0 180 180" version="1.1" xmlns="http://www.w3.org/2000/svg" xmlns:xlink="http://www.w3.org/1999/xlink">
    <g id="atom/illustration/typewriter">
        <path d="M51.9394,88 C51.8474,83.738 51.4634,79.732 50.7954,76 L47.9494,76 C49.2174,77.676 49.9994,79.74 49.9994,82 C49.9994,84.26 49.2174,86.324 47.9494,88 L51.9394,88 Z M127.9794,88 C127.3594,59.15 113.2614,42 89.9994,42 L32.6254,42 C47.1154,49.054 55.5194,65.152 55.9814,88 L127.9794,88 Z M138.7054,109.08 L137.0014,97.152 C136.5814,94.214 134.0274,92 131.0614,92 L58.8874,92 C59.5754,93.182 59.9994,94.536 59.9994,96 L59.9994,107.002 C59.9994,114.108 64.1954,120.564 70.6894,123.452 L73.2494,124.588 C74.0474,124.944 74.7574,125.43 75.3834,126 L151.0254,126 L148.8234,124.624 C143.3134,121.178 139.6234,115.512 138.7054,109.08 Z M131.9314,86.496 C133.1894,85.396 133.9994,83.798 133.9994,82 C133.9994,79.806 132.8034,77.902 131.0394,76.856 C131.5074,79.914 131.8094,83.126 131.9314,86.496 Z M33.9994,82 C33.9994,85.308 36.6914,88 39.9994,88 C43.3094,88 45.9994,85.308 45.9994,82 C45.9994,78.692 43.3094,76 39.9994,76 C36.6914,76 33.9994,78.692 33.9994,82 Z M29.9994,138 L73.9994,138 L73.9994,131.9 C73.9994,130.32 73.0674,128.884 71.6254,128.244 L69.0654,127.106 C61.1274,123.58 55.9994,115.688 55.9994,107.002 L55.9994,96 C55.9994,93.794 54.2054,92 51.9994,92 L29.9994,92 C27.7954,92 25.9994,93.794 25.9994,96 L25.9994,134 C25.9994,136.206 27.7954,138 29.9994,138 Z M161.9994,134 C161.9994,131.794 160.2054,130 157.9994,130 L77.7514,130 C77.9014,130.616 77.9994,131.248 77.9994,131.9 L77.9994,138 L161.9994,138 L161.9994,134 Z M164.8874,130 C165.5754,131.182 165.9994,132.536 165.9994,134 L165.9994,142 L29.9994,142 C25.5894,142 21.9994,138.412 21.9994,134 L21.9994,96 C21.9994,91.588 25.5894,88 29.9994,88 L32.0514,88 C30.7814,86.324 29.9994,84.26 29.9994,82 C29.9994,76.486 34.4854,72 39.9994,72 L49.9414,72 C45.2354,52.948 32.5514,42 13.9994,42 L13.9994,38 L89.9994,38 C111.0914,38 125.3554,50.512 130.1834,72.256 C134.6474,73.256 137.9994,77.238 137.9994,82 C137.9994,84.696 136.9174,87.136 135.1774,88.936 C138.1954,90.32 140.4694,93.138 140.9614,96.584 L142.6654,108.512 C143.4174,113.778 146.4354,118.414 150.9434,121.232 L158.6854,126.07 C161.3074,126.296 163.5574,127.77 164.8434,129.918 L164.9734,130 L164.8874,130 Z M32,104 L32,102 L48,102 L48,104 L32,104 Z M74,102 L74,98 L82,98 L82,102 L74,102 Z M64,102 L64,98 L72,98 L72,102 L64,102 Z M84,102 L84,98 L92,98 L92,102 L84,102 Z M94,102 L94,98 L102,98 L102,102 L94,102 Z M104,102 L104,98 L112,98 L112,102 L104,102 Z M114,102 L114,98 L122,98 L122,102 L114,102 Z M70,108 L70,104 L78,104 L78,108 L70,108 Z M80,108 L80,104 L88,104 L88,108 L80,108 Z M90,108 L90,104 L98,104 L98,108 L90,108 Z M100,108 L100,104 L108,104 L108,108 L100,108 Z M110,108 L110,104 L118,104 L118,108 L110,108 Z M120,108 L120,104 L128,104 L128,108 L120,108 Z M74,114 L74,110 L82,110 L82,114 L74,114 Z M84,114 L84,110 L92,110 L92,114 L84,114 Z M80,120 L80,116 L138,116 L138,120 L80,120 Z M94,114 L94,110 L102,110 L102,114 L94,114 Z M104,114 L104,110 L112,110 L112,114 L104,114 Z M114,114 L114,110 L122,110 L122,114 L114,114 Z M124,114 L124,110 L132,110 L132,114 L124,114 Z M70,54 L70,52 L106,52 L106,54 L70,54 Z M61,50 C59.342,50 58,51.344 58,53 C58,54.656 59.342,56 61,56 C62.658,56 64,54.656 64,53 C64,51.344 62.658,50 61,50 Z M61,58 C58.244,58 56,55.756 56,53 C56,50.244 58.244,48 61,48 C63.756,48 66,50.244 66,53 C66,55.756 63.756,58 61,58 Z M76,66 L76,64 L112,64 L112,66 L76,66 Z M67,62 C65.342,62 64,63.344 64,65 C64,66.656 65.342,68 67,68 C68.658,68 70,66.656 70,65 C70,63.344 68.658,62 67,62 Z M62,65 C62,62.244 64.244,60 67,60 C69.756,60 72,62.244 72,65 C72,67.756 69.756,70 67,70 C64.244,70 62,67.756 62,65 Z M82,78 L82,76 L118,76 L118,78 L82,78 Z M76,77 C76,75.344 74.658,74 73,74 C71.342,74 70,75.344 70,77 C70,78.656 71.342,80 73,80 C74.658,80 76,78.656 76,77 Z M68,77 C68,74.244 70.244,72 73,72 C75.756,72 78,74.244 78,77 C78,79.756 75.756,82 73,82 C70.244,82 68,79.756 68,77 Z" id="Combined-Shape"></path>
    </g>
</svg>