<svg xmlns="http://www.w3.org/2000/svg" viewBox="0 0 30 30">
  <g>
    <path d="M7,7A2,2,0,1,1,5,9,2.00009,2.00009,0,0,1,7,7" stroke="transparent" fill-rule="evenodd"/>
    <rect x="12" y="14" width="13" height="2" stroke="transparent"/>
    <rect x="12" y="8" width="13" height="2" stroke="transparent"/>
    <rect x="12" y="20" width="13" height="2" stroke="transparent"/>
    <path d="M7,13a2,2,0,1,1-2,2,2.00009,2.00009,0,0,1,2-2" stroke="transparent" fill-rule="evenodd"/>
    <path d="M7,19a2,2,0,1,1-2,2,2.00009,2.00009,0,0,1,2-2" stroke="transparent" fill-rule="evenodd"/>
  </g>
</svg>
